<?xml version="1.0" encoding="utf-8" standalone="no"?>
<!DOCTYPE svg PUBLIC "-//W3C//DTD SVG 1.1//EN"
  "http://www.w3.org/Graphics/SVG/1.1/DTD/svg11.dtd">
<!-- Created with matplotlib (https://matplotlib.org/) -->
<svg height="216pt" version="1.1" viewBox="0 0 216 216" width="216pt" xmlns="http://www.w3.org/2000/svg" xmlns:xlink="http://www.w3.org/1999/xlink">
 <metadata>
  <rdf:RDF xmlns:cc="http://creativecommons.org/ns#" xmlns:dc="http://purl.org/dc/elements/1.1/" xmlns:rdf="http://www.w3.org/1999/02/22-rdf-syntax-ns#">
   <cc:Work>
    <dc:type rdf:resource="http://purl.org/dc/dcmitype/StillImage"/>
    <dc:date>2020-10-05T12:10:38.836515</dc:date>
    <dc:format>image/svg+xml</dc:format>
    <dc:creator>
     <cc:Agent>
      <dc:title>Matplotlib v3.3.1, https://matplotlib.org/</dc:title>
     </cc:Agent>
    </dc:creator>
   </cc:Work>
  </rdf:RDF>
 </metadata>
 <defs>
  <style type="text/css">*{stroke-linecap:butt;stroke-linejoin:round;}</style>
 </defs>
 <g id="figure_1">
  <g id="patch_1">
   <path d="M 0 216 
L 216 216 
L 216 0 
L 0 0 
z
" style="fill:none;"/>
  </g>
  <g id="axes_1">
   <g id="patch_2">
    <path d="M 27 189 
L 194.4 189 
L 194.4 25.92 
L 27 25.92 
z
" style="fill:#ffffff;"/>
   </g>
   <g id="patch_3">
    <path clip-path="url(#p9b96ce2d2d)" d="M 34.609091 189 
L 66.647368 189 
L 66.647368 137.065544 
L 34.609091 137.065544 
z
" style="fill:#ff7f0e;"/>
   </g>
   <g id="patch_4">
    <path clip-path="url(#p9b96ce2d2d)" d="M 34.609091 189 
L 66.647368 189 
L 66.647368 157.393038 
L 34.609091 157.393038 
z
" style="fill:#ff7f0e;"/>
   </g>
   <g id="patch_5">
    <path clip-path="url(#p9b96ce2d2d)" d="M 34.609091 189 
L 66.647368 189 
L 66.647368 124.777344 
L 34.609091 124.777344 
z
" style="fill:#ff7f0e;"/>
   </g>
   <g id="patch_6">
    <path clip-path="url(#p9b96ce2d2d)" d="M 34.609091 189 
L 66.647368 189 
L 66.647368 116.615779 
L 34.609091 116.615779 
z
" style="fill:#ff7f0e;"/>
   </g>
   <g id="patch_7">
    <path clip-path="url(#p9b96ce2d2d)" d="M 34.609091 189 
L 66.647368 189 
L 66.647368 113.834122 
L 34.609091 113.834122 
z
" style="fill:#ff7f0e;"/>
   </g>
   <g id="patch_8">
    <path clip-path="url(#p9b96ce2d2d)" d="M 34.609091 189 
L 66.647368 189 
L 66.647368 111.694385 
L 34.609091 111.694385 
z
" style="fill:#ff7f0e;"/>
   </g>
   <g id="patch_9">
    <path clip-path="url(#p9b96ce2d2d)" d="M 34.609091 189 
L 66.647368 189 
L 66.647368 162.192161 
L 34.609091 162.192161 
z
" style="fill:#ff7f0e;"/>
   </g>
   <g id="patch_10">
    <path clip-path="url(#p9b96ce2d2d)" d="M 34.609091 189 
L 66.647368 189 
L 66.647368 106.834127 
L 34.609091 106.834127 
z
" style="fill:#ff7f0e;"/>
   </g>
   <g id="patch_11">
    <path clip-path="url(#p9b96ce2d2d)" d="M 34.609091 189 
L 66.647368 189 
L 66.647368 143.026238 
L 34.609091 143.026238 
z
" style="fill:#ff7f0e;"/>
   </g>
   <g id="patch_12">
    <path clip-path="url(#p9b96ce2d2d)" d="M 34.609091 189 
L 66.647368 189 
L 66.647368 143.820997 
L 34.609091 143.820997 
z
" style="fill:#ff7f0e;"/>
   </g>
   <g id="patch_13">
    <path clip-path="url(#p9b96ce2d2d)" d="M 34.609091 189 
L 66.647368 189 
L 66.647368 157.607012 
L 34.609091 157.607012 
z
" style="fill:#ff7f0e;"/>
   </g>
   <g id="patch_14">
    <path clip-path="url(#p9b96ce2d2d)" d="M 34.609091 189 
L 66.647368 189 
L 66.647368 81.218427 
L 34.609091 81.218427 
z
" style="fill:#ff7f0e;"/>
   </g>
   <g id="patch_15">
    <path clip-path="url(#p9b96ce2d2d)" d="M 34.609091 189 
L 66.647368 189 
L 66.647368 141.864667 
L 34.609091 141.864667 
z
" style="fill:#ff7f0e;"/>
   </g>
   <g id="patch_16">
    <path clip-path="url(#p9b96ce2d2d)" d="M 34.609091 189 
L 66.647368 189 
L 66.647368 132.663801 
L 34.609091 132.663801 
z
" style="fill:#ff7f0e;"/>
   </g>
   <g id="patch_17">
    <path clip-path="url(#p9b96ce2d2d)" d="M 34.609091 189 
L 66.647368 189 
L 66.647368 143.668159 
L 34.609091 143.668159 
z
" style="fill:#ff7f0e;"/>
   </g>
   <g id="patch_18">
    <path clip-path="url(#p9b96ce2d2d)" d="M 34.609091 189 
L 66.647368 189 
L 66.647368 123.034987 
L 34.609091 123.034987 
z
" style="fill:#ff7f0e;"/>
   </g>
   <g id="patch_19">
    <path clip-path="url(#p9b96ce2d2d)" d="M 34.609091 189 
L 66.647368 189 
L 66.647368 157.423606 
L 34.609091 157.423606 
z
" style="fill:#ff7f0e;"/>
   </g>
   <g id="patch_20">
    <path clip-path="url(#p9b96ce2d2d)" d="M 34.609091 189 
L 66.647368 189 
L 66.647368 139.20528 
L 34.609091 139.20528 
z
" style="fill:#ff7f0e;"/>
   </g>
   <g id="patch_21">
    <path clip-path="url(#p9b96ce2d2d)" d="M 34.609091 189 
L 66.647368 189 
L 66.647368 137.126679 
L 34.609091 137.126679 
z
" style="fill:#ff7f0e;"/>
   </g>
   <g id="patch_22">
    <path clip-path="url(#p9b96ce2d2d)" d="M 74.656938 189 
L 106.695215 189 
L 106.695215 125.87778 
L 74.656938 125.87778 
z
" style="fill:#ff7f0e;"/>
   </g>
   <g id="patch_23">
    <path clip-path="url(#p9b96ce2d2d)" d="M 74.656938 189 
L 106.695215 189 
L 106.695215 134.222751 
L 74.656938 134.222751 
z
" style="fill:#ff7f0e;"/>
   </g>
   <g id="patch_24">
    <path clip-path="url(#p9b96ce2d2d)" d="M 74.656938 189 
L 106.695215 189 
L 106.695215 126.978216 
L 74.656938 126.978216 
z
" style="fill:#ff7f0e;"/>
   </g>
   <g id="patch_25">
    <path clip-path="url(#p9b96ce2d2d)" d="M 74.656938 189 
L 106.695215 189 
L 106.695215 140.794799 
L 74.656938 140.794799 
z
" style="fill:#ff7f0e;"/>
   </g>
   <g id="patch_26">
    <path clip-path="url(#p9b96ce2d2d)" d="M 74.656938 189 
L 106.695215 189 
L 106.695215 68.50228 
L 74.656938 68.50228 
z
" style="fill:#ff7f0e;"/>
   </g>
   <g id="patch_27">
    <path clip-path="url(#p9b96ce2d2d)" d="M 74.656938 189 
L 106.695215 189 
L 106.695215 128.414896 
L 74.656938 128.414896 
z
" style="fill:#ff7f0e;"/>
   </g>
   <g id="patch_28">
    <path clip-path="url(#p9b96ce2d2d)" d="M 74.656938 189 
L 106.695215 189 
L 106.695215 134.558996 
L 74.656938 134.558996 
z
" style="fill:#ff7f0e;"/>
   </g>
   <g id="patch_29">
    <path clip-path="url(#p9b96ce2d2d)" d="M 74.656938 189 
L 106.695215 189 
L 106.695215 148.131037 
L 74.656938 148.131037 
z
" style="fill:#ff7f0e;"/>
   </g>
   <g id="patch_30">
    <path clip-path="url(#p9b96ce2d2d)" d="M 74.656938 189 
L 106.695215 189 
L 106.695215 150.209638 
L 74.656938 150.209638 
z
" style="fill:#ff7f0e;"/>
   </g>
   <g id="patch_31">
    <path clip-path="url(#p9b96ce2d2d)" d="M 74.656938 189 
L 106.695215 189 
L 106.695215 122.668176 
L 74.656938 122.668176 
z
" style="fill:#ff7f0e;"/>
   </g>
   <g id="patch_32">
    <path clip-path="url(#p9b96ce2d2d)" d="M 74.656938 189 
L 106.695215 189 
L 106.695215 128.934546 
L 74.656938 128.934546 
z
" style="fill:#ff7f0e;"/>
   </g>
   <g id="patch_33">
    <path clip-path="url(#p9b96ce2d2d)" d="M 74.656938 189 
L 106.695215 189 
L 106.695215 159.807884 
L 74.656938 159.807884 
z
" style="fill:#ff7f0e;"/>
   </g>
   <g id="patch_34">
    <path clip-path="url(#p9b96ce2d2d)" d="M 74.656938 189 
L 106.695215 189 
L 106.695215 132.908342 
L 74.656938 132.908342 
z
" style="fill:#ff7f0e;"/>
   </g>
   <g id="patch_35">
    <path clip-path="url(#p9b96ce2d2d)" d="M 74.656938 189 
L 106.695215 189 
L 106.695215 142.965102 
L 74.656938 142.965102 
z
" style="fill:#ff7f0e;"/>
   </g>
   <g id="patch_36">
    <path clip-path="url(#p9b96ce2d2d)" d="M 74.656938 189 
L 106.695215 189 
L 106.695215 125.755509 
L 74.656938 125.755509 
z
" style="fill:#ff7f0e;"/>
   </g>
   <g id="patch_37">
    <path clip-path="url(#p9b96ce2d2d)" d="M 74.656938 189 
L 106.695215 189 
L 106.695215 134.650699 
L 74.656938 134.650699 
z
" style="fill:#ff7f0e;"/>
   </g>
   <g id="patch_38">
    <path clip-path="url(#p9b96ce2d2d)" d="M 74.656938 189 
L 106.695215 189 
L 106.695215 115.454208 
L 74.656938 115.454208 
z
" style="fill:#ff7f0e;"/>
   </g>
   <g id="patch_39">
    <path clip-path="url(#p9b96ce2d2d)" d="M 74.656938 189 
L 106.695215 189 
L 106.695215 139.144145 
L 74.656938 139.144145 
z
" style="fill:#ff7f0e;"/>
   </g>
   <g id="patch_40">
    <path clip-path="url(#p9b96ce2d2d)" d="M 74.656938 189 
L 106.695215 189 
L 106.695215 137.24895 
L 74.656938 137.24895 
z
" style="fill:#ff7f0e;"/>
   </g>
   <g id="patch_41">
    <path clip-path="url(#p9b96ce2d2d)" d="M 74.656938 189 
L 106.695215 189 
L 106.695215 131.869042 
L 74.656938 131.869042 
z
" style="fill:#ff7f0e;"/>
   </g>
   <g id="patch_42">
    <path clip-path="url(#p9b96ce2d2d)" d="M 74.656938 189 
L 106.695215 189 
L 106.695215 93.414924 
L 74.656938 93.414924 
z
" style="fill:#ff7f0e;"/>
   </g>
   <g id="patch_43">
    <path clip-path="url(#p9b96ce2d2d)" d="M 74.656938 189 
L 106.695215 189 
L 106.695215 139.969472 
L 74.656938 139.969472 
z
" style="fill:#ff7f0e;"/>
   </g>
   <g id="patch_44">
    <path clip-path="url(#p9b96ce2d2d)" d="M 34.609091 189 
L 66.647368 189 
L 66.647368 135.628864 
L 34.609091 135.628864 
z
" style="fill:#ff7f0e;"/>
   </g>
   <g id="patch_45">
    <path clip-path="url(#p9b96ce2d2d)" d="M 34.609091 189 
L 66.647368 189 
L 66.647368 146.388681 
L 34.609091 146.388681 
z
" style="fill:#ff7f0e;"/>
   </g>
   <g id="patch_46">
    <path clip-path="url(#p9b96ce2d2d)" d="M 34.609091 189 
L 66.647368 189 
L 66.647368 159.410504 
L 34.609091 159.410504 
z
" style="fill:#ff7f0e;"/>
   </g>
   <g id="patch_47">
    <path clip-path="url(#p9b96ce2d2d)" d="M 34.609091 189 
L 66.647368 189 
L 66.647368 96.07431 
L 34.609091 96.07431 
z
" style="fill:#ff7f0e;"/>
   </g>
   <g id="patch_48">
    <path clip-path="url(#p9b96ce2d2d)" d="M 34.609091 189 
L 66.647368 189 
L 66.647368 133.091748 
L 34.609091 133.091748 
z
" style="fill:#ff7f0e;"/>
   </g>
   <g id="patch_49">
    <path clip-path="url(#p9b96ce2d2d)" d="M 34.609091 189 
L 66.647368 189 
L 66.647368 121.04809 
L 34.609091 121.04809 
z
" style="fill:#ff7f0e;"/>
   </g>
   <g id="patch_50">
    <path clip-path="url(#p9b96ce2d2d)" d="M 34.609091 189 
L 66.647368 189 
L 66.647368 89.960778 
L 34.609091 89.960778 
z
" style="fill:#ff7f0e;"/>
   </g>
   <g id="patch_51">
    <path clip-path="url(#p9b96ce2d2d)" d="M 34.609091 189 
L 66.647368 189 
L 66.647368 101.729328 
L 34.609091 101.729328 
z
" style="fill:#ff7f0e;"/>
   </g>
   <g id="patch_52">
    <path clip-path="url(#p9b96ce2d2d)" d="M 34.609091 189 
L 66.647368 189 
L 66.647368 133.855939 
L 34.609091 133.855939 
z
" style="fill:#ff7f0e;"/>
   </g>
   <g id="patch_53">
    <path clip-path="url(#p9b96ce2d2d)" d="M 34.609091 189 
L 66.647368 189 
L 66.647368 150.668153 
L 34.609091 150.668153 
z
" style="fill:#ff7f0e;"/>
   </g>
   <g id="patch_54">
    <path clip-path="url(#p9b96ce2d2d)" d="M 34.609091 189 
L 66.647368 189 
L 66.647368 157.545877 
L 34.609091 157.545877 
z
" style="fill:#ff7f0e;"/>
   </g>
   <g id="patch_55">
    <path clip-path="url(#p9b96ce2d2d)" d="M 34.609091 189 
L 66.647368 189 
L 66.647368 82.593972 
L 34.609091 82.593972 
z
" style="fill:#ff7f0e;"/>
   </g>
   <g id="patch_56">
    <path clip-path="url(#p9b96ce2d2d)" d="M 34.609091 189 
L 66.647368 189 
L 66.647368 158.615745 
L 34.609091 158.615745 
z
" style="fill:#ff7f0e;"/>
   </g>
   <g id="patch_57">
    <path clip-path="url(#p9b96ce2d2d)" d="M 34.609091 189 
L 66.647368 189 
L 66.647368 110.869058 
L 34.609091 110.869058 
z
" style="fill:#ff7f0e;"/>
   </g>
   <g id="patch_58">
    <path clip-path="url(#p9b96ce2d2d)" d="M 34.609091 189 
L 66.647368 189 
L 66.647368 129.423629 
L 34.609091 129.423629 
z
" style="fill:#ff7f0e;"/>
   </g>
   <g id="patch_59">
    <path clip-path="url(#p9b96ce2d2d)" d="M 74.656938 189 
L 106.695215 189 
L 106.695215 72.81232 
L 74.656938 72.81232 
z
" style="fill:#ff7f0e;"/>
   </g>
   <g id="patch_60">
    <path clip-path="url(#p9b96ce2d2d)" d="M 74.656938 189 
L 106.695215 189 
L 106.695215 108.270807 
L 74.656938 108.270807 
z
" style="fill:#ff7f0e;"/>
   </g>
   <g id="patch_61">
    <path clip-path="url(#p9b96ce2d2d)" d="M 74.656938 189 
L 106.695215 189 
L 106.695215 154.641949 
L 74.656938 154.641949 
z
" style="fill:#ff7f0e;"/>
   </g>
   <g id="patch_62">
    <path clip-path="url(#p9b96ce2d2d)" d="M 74.656938 189 
L 106.695215 189 
L 106.695215 41.4499 
L 74.656938 41.4499 
z
" style="fill:#ff7f0e;"/>
   </g>
   <g id="patch_63">
    <path clip-path="url(#p9b96ce2d2d)" d="M 74.656938 189 
L 106.695215 189 
L 106.695215 126.978216 
L 74.656938 126.978216 
z
" style="fill:#ff7f0e;"/>
   </g>
   <g id="patch_64">
    <path clip-path="url(#p9b96ce2d2d)" d="M 74.656938 189 
L 106.695215 189 
L 106.695215 146.78606 
L 74.656938 146.78606 
z
" style="fill:#ff7f0e;"/>
   </g>
   <g id="patch_65">
    <path clip-path="url(#p9b96ce2d2d)" d="M 74.656938 189 
L 106.695215 189 
L 106.695215 155.314438 
L 74.656938 155.314438 
z
" style="fill:#ff7f0e;"/>
   </g>
   <g id="patch_66">
    <path clip-path="url(#p9b96ce2d2d)" d="M 74.656938 189 
L 106.695215 189 
L 106.695215 133.091748 
L 74.656938 133.091748 
z
" style="fill:#ff7f0e;"/>
   </g>
   <g id="patch_67">
    <path clip-path="url(#p9b96ce2d2d)" d="M 74.656938 189 
L 106.695215 189 
L 106.695215 135.231484 
L 74.656938 135.231484 
z
" style="fill:#ff7f0e;"/>
   </g>
   <g id="patch_68">
    <path clip-path="url(#p9b96ce2d2d)" d="M 74.656938 189 
L 106.695215 189 
L 106.695215 127.620137 
L 74.656938 127.620137 
z
" style="fill:#ff7f0e;"/>
   </g>
   <g id="patch_69">
    <path clip-path="url(#p9b96ce2d2d)" d="M 74.656938 189 
L 106.695215 189 
L 106.695215 138.716198 
L 74.656938 138.716198 
z
" style="fill:#ff7f0e;"/>
   </g>
   <g id="patch_70">
    <path clip-path="url(#p9b96ce2d2d)" d="M 74.656938 189 
L 106.695215 189 
L 106.695215 179.615728 
L 74.656938 179.615728 
z
" style="fill:#ff7f0e;"/>
   </g>
   <g id="patch_71">
    <path clip-path="url(#p9b96ce2d2d)" d="M 74.656938 189 
L 106.695215 189 
L 106.695215 127.161622 
L 74.656938 127.161622 
z
" style="fill:#ff7f0e;"/>
   </g>
   <g id="patch_72">
    <path clip-path="url(#p9b96ce2d2d)" d="M 74.656938 189 
L 106.695215 189 
L 106.695215 143.117941 
L 74.656938 143.117941 
z
" style="fill:#ff7f0e;"/>
   </g>
   <g id="patch_73">
    <path clip-path="url(#p9b96ce2d2d)" d="M 74.656938 189 
L 106.695215 189 
L 106.695215 152.257671 
L 74.656938 152.257671 
z
" style="fill:#ff7f0e;"/>
   </g>
   <g id="patch_74">
    <path clip-path="url(#p9b96ce2d2d)" d="M 74.656938 189 
L 106.695215 189 
L 106.695215 136.821003 
L 74.656938 136.821003 
z
" style="fill:#ff7f0e;"/>
   </g>
   <g id="patch_75">
    <path clip-path="url(#p9b96ce2d2d)" d="M 74.656938 189 
L 106.695215 189 
L 106.695215 106.895262 
L 74.656938 106.895262 
z
" style="fill:#ff7f0e;"/>
   </g>
   <g id="patch_76">
    <path clip-path="url(#p9b96ce2d2d)" d="M 74.656938 189 
L 106.695215 189 
L 106.695215 111.724953 
L 74.656938 111.724953 
z
" style="fill:#ff7f0e;"/>
   </g>
   <g id="patch_77">
    <path clip-path="url(#p9b96ce2d2d)" d="M 74.656938 189 
L 106.695215 189 
L 106.695215 143.973835 
L 74.656938 143.973835 
z
" style="fill:#ff7f0e;"/>
   </g>
   <g id="patch_78">
    <path clip-path="url(#p9b96ce2d2d)" d="M 74.656938 189 
L 106.695215 189 
L 106.695215 156.873388 
L 74.656938 156.873388 
z
" style="fill:#ff7f0e;"/>
   </g>
   <g id="patch_79">
    <path clip-path="url(#p9b96ce2d2d)" d="M 74.656938 189 
L 106.695215 189 
L 106.695215 134.222751 
L 74.656938 134.222751 
z
" style="fill:#ff7f0e;"/>
   </g>
   <g id="patch_80">
    <path clip-path="url(#p9b96ce2d2d)" d="M 114.704785 189 
L 146.743062 189 
L 146.743062 105.855962 
L 114.704785 105.855962 
z
" style="fill:#ff7f0e;"/>
   </g>
   <g id="patch_81">
    <path clip-path="url(#p9b96ce2d2d)" d="M 114.704785 189 
L 146.743062 189 
L 146.743062 119.428003 
L 114.704785 119.428003 
z
" style="fill:#ff7f0e;"/>
   </g>
   <g id="patch_82">
    <path clip-path="url(#p9b96ce2d2d)" d="M 114.704785 189 
L 146.743062 189 
L 146.743062 136.148514 
L 114.704785 136.148514 
z
" style="fill:#ff7f0e;"/>
   </g>
   <g id="patch_83">
    <path clip-path="url(#p9b96ce2d2d)" d="M 114.704785 189 
L 146.743062 189 
L 146.743062 129.576467 
L 114.704785 129.576467 
z
" style="fill:#ff7f0e;"/>
   </g>
   <g id="patch_84">
    <path clip-path="url(#p9b96ce2d2d)" d="M 114.704785 189 
L 146.743062 189 
L 146.743062 138.074277 
L 114.704785 138.074277 
z
" style="fill:#ff7f0e;"/>
   </g>
   <g id="patch_85">
    <path clip-path="url(#p9b96ce2d2d)" d="M 114.704785 189 
L 146.743062 189 
L 146.743062 158.218365 
L 114.704785 158.218365 
z
" style="fill:#ff7f0e;"/>
   </g>
   <g id="patch_86">
    <path clip-path="url(#p9b96ce2d2d)" d="M 114.704785 189 
L 146.743062 189 
L 146.743062 89.104884 
L 114.704785 89.104884 
z
" style="fill:#ff7f0e;"/>
   </g>
   <g id="patch_87">
    <path clip-path="url(#p9b96ce2d2d)" d="M 114.704785 189 
L 146.743062 189 
L 146.743062 140.152878 
L 114.704785 140.152878 
z
" style="fill:#ff7f0e;"/>
   </g>
   <g id="patch_88">
    <path clip-path="url(#p9b96ce2d2d)" d="M 114.704785 189 
L 146.743062 189 
L 146.743062 82.532837 
L 114.704785 82.532837 
z
" style="fill:#ff7f0e;"/>
   </g>
   <g id="patch_89">
    <path clip-path="url(#p9b96ce2d2d)" d="M 114.704785 189 
L 146.743062 189 
L 146.743062 149.170338 
L 114.704785 149.170338 
z
" style="fill:#ff7f0e;"/>
   </g>
   <g id="patch_90">
    <path clip-path="url(#p9b96ce2d2d)" d="M 114.704785 189 
L 146.743062 189 
L 146.743062 133.122316 
L 114.704785 133.122316 
z
" style="fill:#ff7f0e;"/>
   </g>
   <g id="patch_91">
    <path clip-path="url(#p9b96ce2d2d)" d="M 114.704785 189 
L 146.743062 189 
L 146.743062 113.46731 
L 114.704785 113.46731 
z
" style="fill:#ff7f0e;"/>
   </g>
   <g id="patch_92">
    <path clip-path="url(#p9b96ce2d2d)" d="M 114.704785 189 
L 146.743062 189 
L 146.743062 124.318829 
L 114.704785 124.318829 
z
" style="fill:#ff7f0e;"/>
   </g>
   <g id="patch_93">
    <path clip-path="url(#p9b96ce2d2d)" d="M 154.752632 189 
L 186.790909 189 
L 186.790909 100.445486 
L 154.752632 100.445486 
z
" style="fill:#ff7f0e;"/>
   </g>
   <g id="patch_94">
    <path clip-path="url(#p9b96ce2d2d)" d="M 154.752632 189 
L 186.790909 189 
L 186.790909 120.25333 
L 154.752632 120.25333 
z
" style="fill:#ff7f0e;"/>
   </g>
   <g id="patch_95">
    <path clip-path="url(#p9b96ce2d2d)" d="M 154.752632 189 
L 186.790909 189 
L 186.790909 171.423595 
L 154.752632 171.423595 
z
" style="fill:#ff7f0e;"/>
   </g>
   <g id="patch_96">
    <path clip-path="url(#p9b96ce2d2d)" d="M 154.752632 189 
L 186.790909 189 
L 186.790909 139.113577 
L 154.752632 139.113577 
z
" style="fill:#ff7f0e;"/>
   </g>
   <g id="patch_97">
    <path clip-path="url(#p9b96ce2d2d)" d="M 154.752632 189 
L 186.790909 189 
L 186.790909 119.458571 
L 154.752632 119.458571 
z
" style="fill:#ff7f0e;"/>
   </g>
   <g id="patch_98">
    <path clip-path="url(#p9b96ce2d2d)" d="M 154.752632 189 
L 186.790909 189 
L 186.790909 66.209706 
L 154.752632 66.209706 
z
" style="fill:#ff7f0e;"/>
   </g>
   <g id="patch_99">
    <path clip-path="url(#p9b96ce2d2d)" d="M 154.752632 189 
L 186.790909 189 
L 186.790909 105.611421 
L 154.752632 105.611421 
z
" style="fill:#ff7f0e;"/>
   </g>
   <g id="patch_100">
    <path clip-path="url(#p9b96ce2d2d)" d="M 154.752632 189 
L 186.790909 189 
L 186.790909 152.227104 
L 154.752632 152.227104 
z
" style="fill:#ff7f0e;"/>
   </g>
   <g id="patch_101">
    <path clip-path="url(#p9b96ce2d2d)" d="M 154.752632 189 
L 186.790909 189 
L 186.790909 124.777344 
L 154.752632 124.777344 
z
" style="fill:#ff7f0e;"/>
   </g>
   <g id="patch_102">
    <path clip-path="url(#p9b96ce2d2d)" d="M 154.752632 189 
L 186.790909 189 
L 186.790909 150.912694 
L 154.752632 150.912694 
z
" style="fill:#ff7f0e;"/>
   </g>
   <g id="patch_103">
    <path clip-path="url(#p9b96ce2d2d)" d="M 154.752632 189 
L 186.790909 189 
L 186.790909 154.305705 
L 154.752632 154.305705 
z
" style="fill:#ff7f0e;"/>
   </g>
   <g id="patch_104">
    <path clip-path="url(#p9b96ce2d2d)" d="M 154.752632 189 
L 186.790909 189 
L 186.790909 141.986937 
L 154.752632 141.986937 
z
" style="fill:#ff7f0e;"/>
   </g>
   <g id="patch_105">
    <path clip-path="url(#p9b96ce2d2d)" d="M 74.656938 189 
L 106.695215 189 
L 106.695215 53.585262 
L 74.656938 53.585262 
z
" style="fill:#ff7f0e;"/>
   </g>
   <g id="patch_106">
    <path clip-path="url(#p9b96ce2d2d)" d="M 74.656938 189 
L 106.695215 189 
L 106.695215 120.467304 
L 74.656938 120.467304 
z
" style="fill:#ff7f0e;"/>
   </g>
   <g id="patch_107">
    <path clip-path="url(#p9b96ce2d2d)" d="M 74.656938 189 
L 106.695215 189 
L 106.695215 125.052453 
L 74.656938 125.052453 
z
" style="fill:#ff7f0e;"/>
   </g>
   <g id="patch_108">
    <path clip-path="url(#p9b96ce2d2d)" d="M 74.656938 189 
L 106.695215 189 
L 106.695215 142.048073 
L 74.656938 142.048073 
z
" style="fill:#ff7f0e;"/>
   </g>
   <g id="patch_109">
    <path clip-path="url(#p9b96ce2d2d)" d="M 74.656938 189 
L 106.695215 189 
L 106.695215 126.366863 
L 74.656938 126.366863 
z
" style="fill:#ff7f0e;"/>
   </g>
   <g id="patch_110">
    <path clip-path="url(#p9b96ce2d2d)" d="M 74.656938 189 
L 106.695215 189 
L 106.695215 111.938927 
L 74.656938 111.938927 
z
" style="fill:#ff7f0e;"/>
   </g>
   <g id="patch_111">
    <path clip-path="url(#p9b96ce2d2d)" d="M 74.656938 189 
L 106.695215 189 
L 106.695215 133.244586 
L 74.656938 133.244586 
z
" style="fill:#ff7f0e;"/>
   </g>
   <g id="patch_112">
    <path clip-path="url(#p9b96ce2d2d)" d="M 74.656938 189 
L 106.695215 189 
L 106.695215 145.257677 
L 74.656938 145.257677 
z
" style="fill:#ff7f0e;"/>
   </g>
   <g id="patch_113">
    <path clip-path="url(#p9b96ce2d2d)" d="M 74.656938 189 
L 106.695215 189 
L 106.695215 146.205275 
L 74.656938 146.205275 
z
" style="fill:#ff7f0e;"/>
   </g>
   <g id="patch_114">
    <path clip-path="url(#p9b96ce2d2d)" d="M 74.656938 189 
L 106.695215 189 
L 106.695215 166.838446 
L 74.656938 166.838446 
z
" style="fill:#ff7f0e;"/>
   </g>
   <g id="patch_115">
    <path clip-path="url(#p9b96ce2d2d)" d="M 34.609091 189 
L 66.647368 189 
L 66.647368 72.628914 
L 34.609091 72.628914 
z
" style="fill:#ff7f0e;"/>
   </g>
   <g id="patch_116">
    <path clip-path="url(#p9b96ce2d2d)" d="M 34.609091 189 
L 66.647368 189 
L 66.647368 115.790452 
L 34.609091 115.790452 
z
" style="fill:#ff7f0e;"/>
   </g>
   <g id="patch_117">
    <path clip-path="url(#p9b96ce2d2d)" d="M 34.609091 189 
L 66.647368 189 
L 66.647368 110.410543 
L 34.609091 110.410543 
z
" style="fill:#ff7f0e;"/>
   </g>
   <g id="patch_118">
    <path clip-path="url(#p9b96ce2d2d)" d="M 34.609091 189 
L 66.647368 189 
L 66.647368 136.087379 
L 34.609091 136.087379 
z
" style="fill:#ff7f0e;"/>
   </g>
   <g id="patch_119">
    <path clip-path="url(#p9b96ce2d2d)" d="M 34.609091 189 
L 66.647368 189 
L 66.647368 97.510991 
L 34.609091 97.510991 
z
" style="fill:#ff7f0e;"/>
   </g>
   <g id="patch_120">
    <path clip-path="url(#p9b96ce2d2d)" d="M 114.704785 189 
L 146.743062 189 
L 146.743062 156.445441 
L 114.704785 156.445441 
z
" style="fill:#ff7f0e;"/>
   </g>
   <g id="patch_121">
    <path clip-path="url(#p9b96ce2d2d)" d="M 114.704785 189 
L 146.743062 189 
L 146.743062 151.004397 
L 114.704785 151.004397 
z
" style="fill:#ff7f0e;"/>
   </g>
   <g id="patch_122">
    <path clip-path="url(#p9b96ce2d2d)" d="M 114.704785 189 
L 146.743062 189 
L 146.743062 115.393072 
L 114.704785 115.393072 
z
" style="fill:#ff7f0e;"/>
   </g>
   <g id="patch_123">
    <path clip-path="url(#p9b96ce2d2d)" d="M 114.704785 189 
L 146.743062 189 
L 146.743062 153.266404 
L 114.704785 153.266404 
z
" style="fill:#ff7f0e;"/>
   </g>
   <g id="patch_124">
    <path clip-path="url(#p9b96ce2d2d)" d="M 114.704785 189 
L 146.743062 189 
L 146.743062 147.978199 
L 114.704785 147.978199 
z
" style="fill:#ff7f0e;"/>
   </g>
   <g id="patch_125">
    <path clip-path="url(#p9b96ce2d2d)" d="M 114.704785 189 
L 146.743062 189 
L 146.743062 145.410515 
L 114.704785 145.410515 
z
" style="fill:#ff7f0e;"/>
   </g>
   <g id="patch_126">
    <path clip-path="url(#p9b96ce2d2d)" d="M 114.704785 189 
L 146.743062 189 
L 146.743062 140.244581 
L 114.704785 140.244581 
z
" style="fill:#ff7f0e;"/>
   </g>
   <g id="patch_127">
    <path clip-path="url(#p9b96ce2d2d)" d="M 114.704785 189 
L 146.743062 189 
L 146.743062 150.851559 
L 114.704785 150.851559 
z
" style="fill:#ff7f0e;"/>
   </g>
   <g id="patch_128">
    <path clip-path="url(#p9b96ce2d2d)" d="M 114.704785 189 
L 146.743062 189 
L 146.743062 97.90837 
L 114.704785 97.90837 
z
" style="fill:#ff7f0e;"/>
   </g>
   <g id="patch_129">
    <path clip-path="url(#p9b96ce2d2d)" d="M 114.704785 189 
L 146.743062 189 
L 146.743062 162.956353 
L 114.704785 162.956353 
z
" style="fill:#ff7f0e;"/>
   </g>
   <g id="patch_130">
    <path clip-path="url(#p9b96ce2d2d)" d="M 114.704785 189 
L 146.743062 189 
L 146.743062 144.615756 
L 114.704785 144.615756 
z
" style="fill:#ff7f0e;"/>
   </g>
   <g id="patch_131">
    <path clip-path="url(#p9b96ce2d2d)" d="M 114.704785 189 
L 146.743062 189 
L 146.743062 154.214002 
L 114.704785 154.214002 
z
" style="fill:#ff7f0e;"/>
   </g>
   <g id="patch_132">
    <path clip-path="url(#p9b96ce2d2d)" d="M 114.704785 189 
L 146.743062 189 
L 146.743062 119.244598 
L 114.704785 119.244598 
z
" style="fill:#ff7f0e;"/>
   </g>
   <g id="patch_133">
    <path clip-path="url(#p9b96ce2d2d)" d="M 114.704785 189 
L 146.743062 189 
L 146.743062 130.676903 
L 114.704785 130.676903 
z
" style="fill:#ff7f0e;"/>
   </g>
   <g id="patch_134">
    <path clip-path="url(#p9b96ce2d2d)" d="M 114.704785 189 
L 146.743062 189 
L 146.743062 127.039351 
L 114.704785 127.039351 
z
" style="fill:#ff7f0e;"/>
   </g>
   <g id="patch_135">
    <path clip-path="url(#p9b96ce2d2d)" d="M 114.704785 189 
L 146.743062 189 
L 146.743062 154.855923 
L 114.704785 154.855923 
z
" style="fill:#ff7f0e;"/>
   </g>
   <g id="patch_136">
    <path clip-path="url(#p9b96ce2d2d)" d="M 114.704785 189 
L 146.743062 189 
L 146.743062 151.524048 
L 114.704785 151.524048 
z
" style="fill:#ff7f0e;"/>
   </g>
   <g id="patch_137">
    <path clip-path="url(#p9b96ce2d2d)" d="M 114.704785 189 
L 146.743062 189 
L 146.743062 133.183451 
L 114.704785 133.183451 
z
" style="fill:#ff7f0e;"/>
   </g>
   <g id="patch_138">
    <path clip-path="url(#p9b96ce2d2d)" d="M 114.704785 189 
L 146.743062 189 
L 146.743062 162.98692 
L 114.704785 162.98692 
z
" style="fill:#ff7f0e;"/>
   </g>
   <g id="patch_139">
    <path clip-path="url(#p9b96ce2d2d)" d="M 114.704785 189 
L 146.743062 189 
L 146.743062 157.423606 
L 114.704785 157.423606 
z
" style="fill:#ff7f0e;"/>
   </g>
   <g id="patch_140">
    <path clip-path="url(#p9b96ce2d2d)" d="M 114.704785 189 
L 146.743062 189 
L 146.743062 145.74676 
L 114.704785 145.74676 
z
" style="fill:#ff7f0e;"/>
   </g>
   <g id="patch_141">
    <path clip-path="url(#p9b96ce2d2d)" d="M 114.704785 189 
L 146.743062 189 
L 146.743062 140.091742 
L 114.704785 140.091742 
z
" style="fill:#ff7f0e;"/>
   </g>
   <g id="patch_142">
    <path clip-path="url(#p9b96ce2d2d)" d="M 114.704785 189 
L 146.743062 189 
L 146.743062 148.772958 
L 114.704785 148.772958 
z
" style="fill:#ff7f0e;"/>
   </g>
   <g id="patch_143">
    <path clip-path="url(#p9b96ce2d2d)" d="M 114.704785 189 
L 146.743062 189 
L 146.743062 135.598296 
L 114.704785 135.598296 
z
" style="fill:#ff7f0e;"/>
   </g>
   <g id="patch_144">
    <path clip-path="url(#p9b96ce2d2d)" d="M 114.704785 189 
L 146.743062 189 
L 146.743062 84.152923 
L 114.704785 84.152923 
z
" style="fill:#ff7f0e;"/>
   </g>
   <g id="patch_145">
    <path clip-path="url(#p9b96ce2d2d)" d="M 114.704785 189 
L 146.743062 189 
L 146.743062 63.091804 
L 114.704785 63.091804 
z
" style="fill:#ff7f0e;"/>
   </g>
   <g id="patch_146">
    <path clip-path="url(#p9b96ce2d2d)" d="M 114.704785 189 
L 146.743062 189 
L 146.743062 106.314477 
L 114.704785 106.314477 
z
" style="fill:#ff7f0e;"/>
   </g>
   <g id="patch_147">
    <path clip-path="url(#p9b96ce2d2d)" d="M 114.704785 189 
L 146.743062 189 
L 146.743062 138.777333 
L 114.704785 138.777333 
z
" style="fill:#ff7f0e;"/>
   </g>
   <g id="patch_148">
    <path clip-path="url(#p9b96ce2d2d)" d="M 114.704785 189 
L 146.743062 189 
L 146.743062 163.476003 
L 114.704785 163.476003 
z
" style="fill:#ff7f0e;"/>
   </g>
   <g id="patch_149">
    <path clip-path="url(#p9b96ce2d2d)" d="M 114.704785 189 
L 146.743062 189 
L 146.743062 132.02188 
L 114.704785 132.02188 
z
" style="fill:#ff7f0e;"/>
   </g>
   <g id="patch_150">
    <path clip-path="url(#p9b96ce2d2d)" d="M 114.704785 189 
L 146.743062 189 
L 146.743062 152.716186 
L 114.704785 152.716186 
z
" style="fill:#ff7f0e;"/>
   </g>
   <g id="patch_151">
    <path clip-path="url(#p9b96ce2d2d)" d="M 114.704785 189 
L 146.743062 189 
L 146.743062 159.104828 
L 114.704785 159.104828 
z
" style="fill:#ff7f0e;"/>
   </g>
   <g id="patch_152">
    <path clip-path="url(#p9b96ce2d2d)" d="M 114.704785 189 
L 146.743062 189 
L 146.743062 166.043687 
L 114.704785 166.043687 
z
" style="fill:#ff7f0e;"/>
   </g>
   <g id="patch_153">
    <path clip-path="url(#p9b96ce2d2d)" d="M 34.609091 189 
L 66.647368 189 
L 66.647368 145.991301 
L 34.609091 145.991301 
z
" style="fill:#ff7f0e;"/>
   </g>
   <g id="patch_154">
    <path clip-path="url(#p9b96ce2d2d)" d="M 34.609091 189 
L 66.647368 189 
L 66.647368 148.864661 
L 34.609091 148.864661 
z
" style="fill:#ff7f0e;"/>
   </g>
   <g id="patch_155">
    <path clip-path="url(#p9b96ce2d2d)" d="M 34.609091 189 
L 66.647368 189 
L 66.647368 136.240217 
L 34.609091 136.240217 
z
" style="fill:#ff7f0e;"/>
   </g>
   <g id="patch_156">
    <path clip-path="url(#p9b96ce2d2d)" d="M 34.609091 189 
L 66.647368 189 
L 66.647368 113.956392 
L 34.609091 113.956392 
z
" style="fill:#ff7f0e;"/>
   </g>
   <g id="patch_157">
    <path clip-path="url(#p9b96ce2d2d)" d="M 34.609091 189 
L 66.647368 189 
L 66.647368 128.567734 
L 34.609091 128.567734 
z
" style="fill:#ff7f0e;"/>
   </g>
   <g id="patch_158">
    <path clip-path="url(#p9b96ce2d2d)" d="M 34.609091 189 
L 66.647368 189 
L 66.647368 97.755532 
L 34.609091 97.755532 
z
" style="fill:#ff7f0e;"/>
   </g>
   <g id="patch_159">
    <path clip-path="url(#p9b96ce2d2d)" d="M 34.609091 189 
L 66.647368 189 
L 66.647368 41.755577 
L 34.609091 41.755577 
z
" style="fill:#ff7f0e;"/>
   </g>
   <g id="patch_160">
    <path clip-path="url(#p9b96ce2d2d)" d="M 34.609091 189 
L 66.647368 189 
L 66.647368 112.580847 
L 34.609091 112.580847 
z
" style="fill:#ff7f0e;"/>
   </g>
   <g id="patch_161">
    <path clip-path="url(#p9b96ce2d2d)" d="M 34.609091 189 
L 66.647368 189 
L 66.647368 148.069902 
L 34.609091 148.069902 
z
" style="fill:#ff7f0e;"/>
   </g>
   <g id="patch_162">
    <path clip-path="url(#p9b96ce2d2d)" d="M 34.609091 189 
L 66.647368 189 
L 66.647368 138.593927 
L 34.609091 138.593927 
z
" style="fill:#ff7f0e;"/>
   </g>
   <g id="patch_163">
    <path clip-path="url(#p9b96ce2d2d)" d="M 34.609091 189 
L 66.647368 189 
L 66.647368 123.279529 
L 34.609091 123.279529 
z
" style="fill:#ff7f0e;"/>
   </g>
   <g id="patch_164">
    <path clip-path="url(#p9b96ce2d2d)" d="M 34.609091 189 
L 66.647368 189 
L 66.647368 150.301341 
L 34.609091 150.301341 
z
" style="fill:#ff7f0e;"/>
   </g>
   <g id="patch_165">
    <path clip-path="url(#p9b96ce2d2d)" d="M 34.609091 189 
L 66.647368 189 
L 66.647368 139.449821 
L 34.609091 139.449821 
z
" style="fill:#ff7f0e;"/>
   </g>
   <g id="patch_166">
    <path clip-path="url(#p9b96ce2d2d)" d="M 34.609091 189 
L 66.647368 189 
L 66.647368 146.78606 
L 34.609091 146.78606 
z
" style="fill:#ff7f0e;"/>
   </g>
   <g id="patch_167">
    <path clip-path="url(#p9b96ce2d2d)" d="M 34.609091 189 
L 66.647368 189 
L 66.647368 135.476026 
L 34.609091 135.476026 
z
" style="fill:#ff7f0e;"/>
   </g>
   <g id="patch_168">
    <path clip-path="url(#p9b96ce2d2d)" d="M 34.609091 189 
L 66.647368 189 
L 66.647368 114.048095 
L 34.609091 114.048095 
z
" style="fill:#ff7f0e;"/>
   </g>
   <g id="patch_169">
    <path clip-path="url(#p9b96ce2d2d)" d="M 34.609091 189 
L 66.647368 189 
L 66.647368 125.541536 
L 34.609091 125.541536 
z
" style="fill:#ff7f0e;"/>
   </g>
   <g id="patch_170">
    <path clip-path="url(#p9b96ce2d2d)" d="M 34.609091 189 
L 66.647368 189 
L 66.647368 92.069947 
L 34.609091 92.069947 
z
" style="fill:#ff7f0e;"/>
   </g>
   <g id="patch_171">
    <path clip-path="url(#p9b96ce2d2d)" d="M 74.656938 189 
L 106.695215 189 
L 106.695215 156.628847 
L 74.656938 156.628847 
z
" style="fill:#ff7f0e;"/>
   </g>
   <g id="patch_172">
    <path clip-path="url(#p9b96ce2d2d)" d="M 74.656938 189 
L 106.695215 189 
L 106.695215 156.506576 
L 74.656938 156.506576 
z
" style="fill:#ff7f0e;"/>
   </g>
   <g id="patch_173">
    <path clip-path="url(#p9b96ce2d2d)" d="M 74.656938 189 
L 106.695215 189 
L 106.695215 33.685714 
L 74.656938 33.685714 
z
" style="fill:#ff7f0e;"/>
   </g>
   <g id="patch_174">
    <path clip-path="url(#p9b96ce2d2d)" d="M 74.656938 189 
L 106.695215 189 
L 106.695215 140.672528 
L 74.656938 140.672528 
z
" style="fill:#ff7f0e;"/>
   </g>
   <g id="patch_175">
    <path clip-path="url(#p9b96ce2d2d)" d="M 34.609091 189 
L 66.647368 189 
L 66.647368 166.838446 
L 34.609091 166.838446 
z
" style="fill:#ff7f0e;"/>
   </g>
   <g id="patch_176">
    <path clip-path="url(#p9b96ce2d2d)" d="M 34.609091 189 
L 66.647368 189 
L 66.647368 91.642 
L 34.609091 91.642 
z
" style="fill:#ff7f0e;"/>
   </g>
   <g id="patch_177">
    <path clip-path="url(#p9b96ce2d2d)" d="M 34.609091 189 
L 66.647368 189 
L 66.647368 137.585194 
L 34.609091 137.585194 
z
" style="fill:#ff7f0e;"/>
   </g>
   <g id="patch_178">
    <path clip-path="url(#p9b96ce2d2d)" d="M 34.609091 189 
L 66.647368 189 
L 66.647368 88.432395 
L 34.609091 88.432395 
z
" style="fill:#ff7f0e;"/>
   </g>
   <g id="patch_179">
    <path clip-path="url(#p9b96ce2d2d)" d="M 34.609091 189 
L 66.647368 189 
L 66.647368 134.314454 
L 34.609091 134.314454 
z
" style="fill:#ff7f0e;"/>
   </g>
   <g id="patch_180">
    <path clip-path="url(#p9b96ce2d2d)" d="M 34.609091 189 
L 66.647368 189 
L 66.647368 144.738027 
L 34.609091 144.738027 
z
" style="fill:#ff7f0e;"/>
   </g>
   <g id="patch_181">
    <path clip-path="url(#p9b96ce2d2d)" d="M 34.609091 189 
L 66.647368 189 
L 66.647368 159.655045 
L 34.609091 159.655045 
z
" style="fill:#ff7f0e;"/>
   </g>
   <g id="patch_182">
    <path clip-path="url(#p9b96ce2d2d)" d="M 34.609091 189 
L 66.647368 189 
L 66.647368 83.14419 
L 34.609091 83.14419 
z
" style="fill:#ff7f0e;"/>
   </g>
   <g id="patch_183">
    <path clip-path="url(#p9b96ce2d2d)" d="M 34.609091 189 
L 66.647368 189 
L 66.647368 83.083055 
L 34.609091 83.083055 
z
" style="fill:#ff7f0e;"/>
   </g>
   <g id="patch_184">
    <path clip-path="url(#p9b96ce2d2d)" d="M 34.609091 189 
L 66.647368 189 
L 66.647368 117.685647 
L 34.609091 117.685647 
z
" style="fill:#ff7f0e;"/>
   </g>
   <g id="patch_185">
    <path clip-path="url(#p9b96ce2d2d)" d="M 34.609091 189 
L 66.647368 189 
L 66.647368 50.375657 
L 34.609091 50.375657 
z
" style="fill:#ff7f0e;"/>
   </g>
   <g id="patch_186">
    <path clip-path="url(#p9b96ce2d2d)" d="M 34.609091 189 
L 66.647368 189 
L 66.647368 118.174729 
L 34.609091 118.174729 
z
" style="fill:#ff7f0e;"/>
   </g>
   <g id="patch_187">
    <path clip-path="url(#p9b96ce2d2d)" d="M 34.609091 189 
L 66.647368 189 
L 66.647368 65.048135 
L 34.609091 65.048135 
z
" style="fill:#ff7f0e;"/>
   </g>
   <g id="patch_188">
    <path clip-path="url(#p9b96ce2d2d)" d="M 34.609091 189 
L 66.647368 189 
L 66.647368 125.755509 
L 34.609091 125.755509 
z
" style="fill:#ff7f0e;"/>
   </g>
   <g id="patch_189">
    <path clip-path="url(#p9b96ce2d2d)" d="M 34.609091 189 
L 66.647368 189 
L 66.647368 125.113588 
L 34.609091 125.113588 
z
" style="fill:#ff7f0e;"/>
   </g>
   <g id="patch_190">
    <path clip-path="url(#p9b96ce2d2d)" d="M 34.609091 189 
L 66.647368 189 
L 66.647368 95.890904 
L 34.609091 95.890904 
z
" style="fill:#ff7f0e;"/>
   </g>
   <g id="patch_191">
    <path clip-path="url(#p9b96ce2d2d)" d="M 34.609091 189 
L 66.647368 189 
L 66.647368 133.519695 
L 34.609091 133.519695 
z
" style="fill:#ff7f0e;"/>
   </g>
   <g id="patch_192">
    <path clip-path="url(#p9b96ce2d2d)" d="M 34.609091 189 
L 66.647368 189 
L 66.647368 118.388703 
L 34.609091 118.388703 
z
" style="fill:#ff7f0e;"/>
   </g>
   <g id="patch_193">
    <path clip-path="url(#p9b96ce2d2d)" d="M 34.609091 189 
L 66.647368 189 
L 66.647368 141.03934 
L 34.609091 141.03934 
z
" style="fill:#ff7f0e;"/>
   </g>
   <g id="patch_194">
    <path clip-path="url(#p9b96ce2d2d)" d="M 114.704785 189 
L 146.743062 189 
L 146.743062 128.445463 
L 114.704785 128.445463 
z
" style="fill:#ff7f0e;"/>
   </g>
   <g id="patch_195">
    <path clip-path="url(#p9b96ce2d2d)" d="M 114.704785 189 
L 146.743062 189 
L 146.743062 102.065572 
L 114.704785 102.065572 
z
" style="fill:#ff7f0e;"/>
   </g>
   <g id="patch_196">
    <path clip-path="url(#p9b96ce2d2d)" d="M 114.704785 189 
L 146.743062 189 
L 146.743062 141.681261 
L 114.704785 141.681261 
z
" style="fill:#ff7f0e;"/>
   </g>
   <g id="patch_197">
    <path clip-path="url(#p9b96ce2d2d)" d="M 114.704785 189 
L 146.743062 189 
L 146.743062 138.318818 
L 114.704785 138.318818 
z
" style="fill:#ff7f0e;"/>
   </g>
   <g id="patch_198">
    <path clip-path="url(#p9b96ce2d2d)" d="M 114.704785 189 
L 146.743062 189 
L 146.743062 165.890848 
L 114.704785 165.890848 
z
" style="fill:#ff7f0e;"/>
   </g>
   <g id="patch_199">
    <path clip-path="url(#p9b96ce2d2d)" d="M 114.704785 189 
L 146.743062 189 
L 146.743062 157.393038 
L 114.704785 157.393038 
z
" style="fill:#ff7f0e;"/>
   </g>
   <g id="patch_200">
    <path clip-path="url(#p9b96ce2d2d)" d="M 114.704785 189 
L 146.743062 189 
L 146.743062 57.222813 
L 114.704785 57.222813 
z
" style="fill:#ff7f0e;"/>
   </g>
   <g id="patch_201">
    <path clip-path="url(#p9b96ce2d2d)" d="M 114.704785 189 
L 146.743062 189 
L 146.743062 149.262041 
L 114.704785 149.262041 
z
" style="fill:#ff7f0e;"/>
   </g>
   <g id="patch_202">
    <path clip-path="url(#p9b96ce2d2d)" d="M 114.704785 189 
L 146.743062 189 
L 146.743062 147.70309 
L 114.704785 147.70309 
z
" style="fill:#ff7f0e;"/>
   </g>
   <g id="patch_203">
    <path clip-path="url(#p9b96ce2d2d)" d="M 114.704785 189 
L 146.743062 189 
L 146.743062 131.807906 
L 114.704785 131.807906 
z
" style="fill:#ff7f0e;"/>
   </g>
   <g id="patch_204">
    <path clip-path="url(#p9b96ce2d2d)" d="M 114.704785 189 
L 146.743062 189 
L 146.743062 150.0568 
L 114.704785 150.0568 
z
" style="fill:#ff7f0e;"/>
   </g>
   <g id="patch_205">
    <path clip-path="url(#p9b96ce2d2d)" d="M 114.704785 189 
L 146.743062 189 
L 146.743062 149.262041 
L 114.704785 149.262041 
z
" style="fill:#ff7f0e;"/>
   </g>
   <g id="patch_206">
    <path clip-path="url(#p9b96ce2d2d)" d="M 114.704785 189 
L 146.743062 189 
L 146.743062 138.869036 
L 114.704785 138.869036 
z
" style="fill:#ff7f0e;"/>
   </g>
   <g id="patch_207">
    <path clip-path="url(#p9b96ce2d2d)" d="M 114.704785 189 
L 146.743062 189 
L 146.743062 126.244592 
L 114.704785 126.244592 
z
" style="fill:#ff7f0e;"/>
   </g>
   <g id="patch_208">
    <path clip-path="url(#p9b96ce2d2d)" d="M 114.704785 189 
L 146.743062 189 
L 146.743062 138.655062 
L 114.704785 138.655062 
z
" style="fill:#ff7f0e;"/>
   </g>
   <g id="patch_209">
    <path clip-path="url(#p9b96ce2d2d)" d="M 74.656938 189 
L 106.695215 189 
L 106.695215 107.720589 
L 74.656938 107.720589 
z
" style="fill:#ff7f0e;"/>
   </g>
   <g id="patch_210">
    <path clip-path="url(#p9b96ce2d2d)" d="M 74.656938 189 
L 106.695215 189 
L 106.695215 70.611449 
L 74.656938 70.611449 
z
" style="fill:#ff7f0e;"/>
   </g>
   <g id="patch_211">
    <path clip-path="url(#p9b96ce2d2d)" d="M 74.656938 189 
L 106.695215 189 
L 106.695215 114.812287 
L 74.656938 114.812287 
z
" style="fill:#ff7f0e;"/>
   </g>
   <g id="patch_212">
    <path clip-path="url(#p9b96ce2d2d)" d="M 74.656938 189 
L 106.695215 189 
L 106.695215 149.995665 
L 74.656938 149.995665 
z
" style="fill:#ff7f0e;"/>
   </g>
   <g id="patch_213">
    <path clip-path="url(#p9b96ce2d2d)" d="M 74.656938 189 
L 106.695215 189 
L 106.695215 97.113611 
L 74.656938 97.113611 
z
" style="fill:#ff7f0e;"/>
   </g>
   <g id="patch_214">
    <path clip-path="url(#p9b96ce2d2d)" d="M 74.656938 189 
L 106.695215 189 
L 106.695215 109.860326 
L 74.656938 109.860326 
z
" style="fill:#ff7f0e;"/>
   </g>
   <g id="patch_215">
    <path clip-path="url(#p9b96ce2d2d)" d="M 74.656938 189 
L 106.695215 189 
L 106.695215 41.266494 
L 74.656938 41.266494 
z
" style="fill:#ff7f0e;"/>
   </g>
   <g id="patch_216">
    <path clip-path="url(#p9b96ce2d2d)" d="M 74.656938 189 
L 106.695215 189 
L 106.695215 148.436714 
L 74.656938 148.436714 
z
" style="fill:#ff7f0e;"/>
   </g>
   <g id="patch_217">
    <path clip-path="url(#p9b96ce2d2d)" d="M 74.656938 189 
L 106.695215 189 
L 106.695215 102.890899 
L 74.656938 102.890899 
z
" style="fill:#ff7f0e;"/>
   </g>
   <g id="patch_218">
    <path clip-path="url(#p9b96ce2d2d)" d="M 74.656938 189 
L 106.695215 189 
L 106.695215 149.567717 
L 74.656938 149.567717 
z
" style="fill:#ff7f0e;"/>
   </g>
   <g id="patch_219">
    <path clip-path="url(#p9b96ce2d2d)" d="M 74.656938 189 
L 106.695215 189 
L 106.695215 102.952034 
L 74.656938 102.952034 
z
" style="fill:#ff7f0e;"/>
   </g>
   <g id="patch_220">
    <path clip-path="url(#p9b96ce2d2d)" d="M 74.656938 189 
L 106.695215 189 
L 106.695215 153.572081 
L 74.656938 153.572081 
z
" style="fill:#ff7f0e;"/>
   </g>
   <g id="patch_221">
    <path clip-path="url(#p9b96ce2d2d)" d="M 74.656938 189 
L 106.695215 189 
L 106.695215 165.34063 
L 74.656938 165.34063 
z
" style="fill:#ff7f0e;"/>
   </g>
   <g id="patch_222">
    <path clip-path="url(#p9b96ce2d2d)" d="M 74.656938 189 
L 106.695215 189 
L 106.695215 96.86907 
L 74.656938 96.86907 
z
" style="fill:#ff7f0e;"/>
   </g>
   <g id="patch_223">
    <path clip-path="url(#p9b96ce2d2d)" d="M 154.752632 189 
L 186.790909 189 
L 186.790909 151.829724 
L 154.752632 151.829724 
z
" style="fill:#ff7f0e;"/>
   </g>
   <g id="patch_224">
    <path clip-path="url(#p9b96ce2d2d)" d="M 154.752632 189 
L 186.790909 189 
L 186.790909 147.978199 
L 154.752632 147.978199 
z
" style="fill:#ff7f0e;"/>
   </g>
   <g id="patch_225">
    <path clip-path="url(#p9b96ce2d2d)" d="M 154.752632 189 
L 186.790909 189 
L 186.790909 162.772947 
L 154.752632 162.772947 
z
" style="fill:#ff7f0e;"/>
   </g>
   <g id="patch_226">
    <path clip-path="url(#p9b96ce2d2d)" d="M 154.752632 189 
L 186.790909 189 
L 186.790909 140.152878 
L 154.752632 140.152878 
z
" style="fill:#ff7f0e;"/>
   </g>
   <g id="patch_227">
    <path clip-path="url(#p9b96ce2d2d)" d="M 154.752632 189 
L 186.790909 189 
L 186.790909 147.978199 
L 154.752632 147.978199 
z
" style="fill:#ff7f0e;"/>
   </g>
   <g id="patch_228">
    <path clip-path="url(#p9b96ce2d2d)" d="M 154.752632 189 
L 186.790909 189 
L 186.790909 139.266415 
L 154.752632 139.266415 
z
" style="fill:#ff7f0e;"/>
   </g>
   <g id="patch_229">
    <path clip-path="url(#p9b96ce2d2d)" d="M 154.752632 189 
L 186.790909 189 
L 186.790909 158.15723 
L 154.752632 158.15723 
z
" style="fill:#ff7f0e;"/>
   </g>
   <g id="patch_230">
    <path clip-path="url(#p9b96ce2d2d)" d="M 74.656938 189 
L 106.695215 189 
L 106.695215 126.489133 
L 74.656938 126.489133 
z
" style="fill:#ff7f0e;"/>
   </g>
   <g id="patch_231">
    <path clip-path="url(#p9b96ce2d2d)" d="M 74.656938 189 
L 106.695215 189 
L 106.695215 148.406146 
L 74.656938 148.406146 
z
" style="fill:#ff7f0e;"/>
   </g>
   <g id="patch_232">
    <path clip-path="url(#p9b96ce2d2d)" d="M 74.656938 189 
L 106.695215 189 
L 106.695215 121.384334 
L 74.656938 121.384334 
z
" style="fill:#ff7f0e;"/>
   </g>
   <g id="patch_233">
    <path clip-path="url(#p9b96ce2d2d)" d="M 74.656938 189 
L 106.695215 189 
L 106.695215 115.607046 
L 74.656938 115.607046 
z
" style="fill:#ff7f0e;"/>
   </g>
   <g id="patch_234">
    <path clip-path="url(#p9b96ce2d2d)" d="M 74.656938 189 
L 106.695215 189 
L 106.695215 141.03934 
L 74.656938 141.03934 
z
" style="fill:#ff7f0e;"/>
   </g>
   <g id="patch_235">
    <path clip-path="url(#p9b96ce2d2d)" d="M 74.656938 189 
L 106.695215 189 
L 106.695215 153.510946 
L 74.656938 153.510946 
z
" style="fill:#ff7f0e;"/>
   </g>
   <g id="patch_236">
    <path clip-path="url(#p9b96ce2d2d)" d="M 74.656938 189 
L 106.695215 189 
L 106.695215 156.078629 
L 74.656938 156.078629 
z
" style="fill:#ff7f0e;"/>
   </g>
   <g id="patch_237">
    <path clip-path="url(#p9b96ce2d2d)" d="M 74.656938 189 
L 106.695215 189 
L 106.695215 141.528422 
L 74.656938 141.528422 
z
" style="fill:#ff7f0e;"/>
   </g>
   <g id="patch_238">
    <path clip-path="url(#p9b96ce2d2d)" d="M 74.656938 189 
L 106.695215 189 
L 106.695215 158.218365 
L 74.656938 158.218365 
z
" style="fill:#ff7f0e;"/>
   </g>
   <g id="patch_239">
    <path clip-path="url(#p9b96ce2d2d)" d="M 74.656938 189 
L 106.695215 189 
L 106.695215 150.484747 
L 74.656938 150.484747 
z
" style="fill:#ff7f0e;"/>
   </g>
   <g id="patch_240">
    <path clip-path="url(#p9b96ce2d2d)" d="M 74.656938 189 
L 106.695215 189 
L 106.695215 88.646369 
L 74.656938 88.646369 
z
" style="fill:#ff7f0e;"/>
   </g>
   <g id="patch_241">
    <path clip-path="url(#p9b96ce2d2d)" d="M 74.656938 189 
L 106.695215 189 
L 106.695215 79.476071 
L 74.656938 79.476071 
z
" style="fill:#ff7f0e;"/>
   </g>
   <g id="patch_242">
    <path clip-path="url(#p9b96ce2d2d)" d="M 74.656938 189 
L 106.695215 189 
L 106.695215 100.26208 
L 74.656938 100.26208 
z
" style="fill:#ff7f0e;"/>
   </g>
   <g id="patch_243">
    <path clip-path="url(#p9b96ce2d2d)" d="M 74.656938 189 
L 106.695215 189 
L 106.695215 105.917097 
L 74.656938 105.917097 
z
" style="fill:#ff7f0e;"/>
   </g>
   <g id="patch_244">
    <path clip-path="url(#p9b96ce2d2d)" d="M 74.656938 189 
L 106.695215 189 
L 106.695215 119.703112 
L 74.656938 119.703112 
z
" style="fill:#ff7f0e;"/>
   </g>
   <g id="patch_245">
    <path clip-path="url(#p9b96ce2d2d)" d="M 74.656938 189 
L 106.695215 189 
L 106.695215 134.528428 
L 74.656938 134.528428 
z
" style="fill:#ff7f0e;"/>
   </g>
   <g id="patch_246">
    <path clip-path="url(#p9b96ce2d2d)" d="M 114.704785 189 
L 146.743062 189 
L 146.743062 131.593933 
L 114.704785 131.593933 
z
" style="fill:#ff7f0e;"/>
   </g>
   <g id="matplotlib.axis_1">
    <g id="xtick_1">
     <g id="line2d_1">
      <defs>
       <path d="M 0 0 
L 0 3.5 
" id="m6527c20407" style="stroke:#000000;stroke-width:0.8;"/>
      </defs>
      <g>
       <use style="stroke:#000000;stroke-width:0.8;" x="50.62823" xlink:href="#m6527c20407" y="189"/>
      </g>
     </g>
     <g id="text_1">
      <!-- Sun -->
      <g transform="translate(41.116511 203.598437)scale(0.1 -0.1)">
       <defs>
        <path d="M 53.515625 70.515625 
L 53.515625 60.890625 
Q 47.90625 63.578125 42.921875 64.890625 
Q 37.9375 66.21875 33.296875 66.21875 
Q 25.25 66.21875 20.875 63.09375 
Q 16.5 59.96875 16.5 54.203125 
Q 16.5 49.359375 19.40625 46.890625 
Q 22.3125 44.4375 30.421875 42.921875 
L 36.375 41.703125 
Q 47.40625 39.59375 52.65625 34.296875 
Q 57.90625 29 57.90625 20.125 
Q 57.90625 9.515625 50.796875 4.046875 
Q 43.703125 -1.421875 29.984375 -1.421875 
Q 24.8125 -1.421875 18.96875 -0.25 
Q 13.140625 0.921875 6.890625 3.21875 
L 6.890625 13.375 
Q 12.890625 10.015625 18.65625 8.296875 
Q 24.421875 6.59375 29.984375 6.59375 
Q 38.421875 6.59375 43.015625 9.90625 
Q 47.609375 13.234375 47.609375 19.390625 
Q 47.609375 24.75 44.3125 27.78125 
Q 41.015625 30.8125 33.5 32.328125 
L 27.484375 33.5 
Q 16.453125 35.6875 11.515625 40.375 
Q 6.59375 45.0625 6.59375 53.421875 
Q 6.59375 63.09375 13.40625 68.65625 
Q 20.21875 74.21875 32.171875 74.21875 
Q 37.3125 74.21875 42.625 73.28125 
Q 47.953125 72.359375 53.515625 70.515625 
z
" id="DejaVuSans-83"/>
        <path d="M 8.5 21.578125 
L 8.5 54.6875 
L 17.484375 54.6875 
L 17.484375 21.921875 
Q 17.484375 14.15625 20.5 10.265625 
Q 23.53125 6.390625 29.59375 6.390625 
Q 36.859375 6.390625 41.078125 11.03125 
Q 45.3125 15.671875 45.3125 23.6875 
L 45.3125 54.6875 
L 54.296875 54.6875 
L 54.296875 0 
L 45.3125 0 
L 45.3125 8.40625 
Q 42.046875 3.421875 37.71875 1 
Q 33.40625 -1.421875 27.6875 -1.421875 
Q 18.265625 -1.421875 13.375 4.4375 
Q 8.5 10.296875 8.5 21.578125 
z
M 31.109375 56 
z
" id="DejaVuSans-117"/>
        <path d="M 54.890625 33.015625 
L 54.890625 0 
L 45.90625 0 
L 45.90625 32.71875 
Q 45.90625 40.484375 42.875 44.328125 
Q 39.84375 48.1875 33.796875 48.1875 
Q 26.515625 48.1875 22.3125 43.546875 
Q 18.109375 38.921875 18.109375 30.90625 
L 18.109375 0 
L 9.078125 0 
L 9.078125 54.6875 
L 18.109375 54.6875 
L 18.109375 46.1875 
Q 21.34375 51.125 25.703125 53.5625 
Q 30.078125 56 35.796875 56 
Q 45.21875 56 50.046875 50.171875 
Q 54.890625 44.34375 54.890625 33.015625 
z
" id="DejaVuSans-110"/>
       </defs>
       <use xlink:href="#DejaVuSans-83"/>
       <use x="63.476562" xlink:href="#DejaVuSans-117"/>
       <use x="126.855469" xlink:href="#DejaVuSans-110"/>
      </g>
     </g>
    </g>
    <g id="xtick_2">
     <g id="line2d_2">
      <g>
       <use style="stroke:#000000;stroke-width:0.8;" x="90.676077" xlink:href="#m6527c20407" y="189"/>
      </g>
     </g>
     <g id="text_2">
      <!-- Sat -->
      <g transform="translate(82.477639 203.598437)scale(0.1 -0.1)">
       <defs>
        <path d="M 34.28125 27.484375 
Q 23.390625 27.484375 19.1875 25 
Q 14.984375 22.515625 14.984375 16.5 
Q 14.984375 11.71875 18.140625 8.90625 
Q 21.296875 6.109375 26.703125 6.109375 
Q 34.1875 6.109375 38.703125 11.40625 
Q 43.21875 16.703125 43.21875 25.484375 
L 43.21875 27.484375 
z
M 52.203125 31.203125 
L 52.203125 0 
L 43.21875 0 
L 43.21875 8.296875 
Q 40.140625 3.328125 35.546875 0.953125 
Q 30.953125 -1.421875 24.3125 -1.421875 
Q 15.921875 -1.421875 10.953125 3.296875 
Q 6 8.015625 6 15.921875 
Q 6 25.140625 12.171875 29.828125 
Q 18.359375 34.515625 30.609375 34.515625 
L 43.21875 34.515625 
L 43.21875 35.40625 
Q 43.21875 41.609375 39.140625 45 
Q 35.0625 48.390625 27.6875 48.390625 
Q 23 48.390625 18.546875 47.265625 
Q 14.109375 46.140625 10.015625 43.890625 
L 10.015625 52.203125 
Q 14.9375 54.109375 19.578125 55.046875 
Q 24.21875 56 28.609375 56 
Q 40.484375 56 46.34375 49.84375 
Q 52.203125 43.703125 52.203125 31.203125 
z
" id="DejaVuSans-97"/>
        <path d="M 18.3125 70.21875 
L 18.3125 54.6875 
L 36.8125 54.6875 
L 36.8125 47.703125 
L 18.3125 47.703125 
L 18.3125 18.015625 
Q 18.3125 11.328125 20.140625 9.421875 
Q 21.96875 7.515625 27.59375 7.515625 
L 36.8125 7.515625 
L 36.8125 0 
L 27.59375 0 
Q 17.1875 0 13.234375 3.875 
Q 9.28125 7.765625 9.28125 18.015625 
L 9.28125 47.703125 
L 2.6875 47.703125 
L 2.6875 54.6875 
L 9.28125 54.6875 
L 9.28125 70.21875 
z
" id="DejaVuSans-116"/>
       </defs>
       <use xlink:href="#DejaVuSans-83"/>
       <use x="63.476562" xlink:href="#DejaVuSans-97"/>
       <use x="124.755859" xlink:href="#DejaVuSans-116"/>
      </g>
     </g>
    </g>
    <g id="xtick_3">
     <g id="line2d_3">
      <g>
       <use style="stroke:#000000;stroke-width:0.8;" x="130.723923" xlink:href="#m6527c20407" y="189"/>
      </g>
     </g>
     <g id="text_3">
      <!-- Thur -->
      <g transform="translate(119.277048 203.598437)scale(0.1 -0.1)">
       <defs>
        <path d="M -0.296875 72.90625 
L 61.375 72.90625 
L 61.375 64.59375 
L 35.5 64.59375 
L 35.5 0 
L 25.59375 0 
L 25.59375 64.59375 
L -0.296875 64.59375 
z
" id="DejaVuSans-84"/>
        <path d="M 54.890625 33.015625 
L 54.890625 0 
L 45.90625 0 
L 45.90625 32.71875 
Q 45.90625 40.484375 42.875 44.328125 
Q 39.84375 48.1875 33.796875 48.1875 
Q 26.515625 48.1875 22.3125 43.546875 
Q 18.109375 38.921875 18.109375 30.90625 
L 18.109375 0 
L 9.078125 0 
L 9.078125 75.984375 
L 18.109375 75.984375 
L 18.109375 46.1875 
Q 21.34375 51.125 25.703125 53.5625 
Q 30.078125 56 35.796875 56 
Q 45.21875 56 50.046875 50.171875 
Q 54.890625 44.34375 54.890625 33.015625 
z
" id="DejaVuSans-104"/>
        <path d="M 41.109375 46.296875 
Q 39.59375 47.171875 37.8125 47.578125 
Q 36.03125 48 33.890625 48 
Q 26.265625 48 22.1875 43.046875 
Q 18.109375 38.09375 18.109375 28.8125 
L 18.109375 0 
L 9.078125 0 
L 9.078125 54.6875 
L 18.109375 54.6875 
L 18.109375 46.1875 
Q 20.953125 51.171875 25.484375 53.578125 
Q 30.03125 56 36.53125 56 
Q 37.453125 56 38.578125 55.875 
Q 39.703125 55.765625 41.0625 55.515625 
z
" id="DejaVuSans-114"/>
       </defs>
       <use xlink:href="#DejaVuSans-84"/>
       <use x="61.083984" xlink:href="#DejaVuSans-104"/>
       <use x="124.462891" xlink:href="#DejaVuSans-117"/>
       <use x="187.841797" xlink:href="#DejaVuSans-114"/>
      </g>
     </g>
    </g>
    <g id="xtick_4">
     <g id="line2d_4">
      <g>
       <use style="stroke:#000000;stroke-width:0.8;" x="170.77177" xlink:href="#m6527c20407" y="189"/>
      </g>
     </g>
     <g id="text_4">
      <!-- Fri -->
      <g transform="translate(164.813958 203.598437)scale(0.1 -0.1)">
       <defs>
        <path d="M 9.8125 72.90625 
L 51.703125 72.90625 
L 51.703125 64.59375 
L 19.671875 64.59375 
L 19.671875 43.109375 
L 48.578125 43.109375 
L 48.578125 34.8125 
L 19.671875 34.8125 
L 19.671875 0 
L 9.8125 0 
z
" id="DejaVuSans-70"/>
        <path d="M 9.421875 54.6875 
L 18.40625 54.6875 
L 18.40625 0 
L 9.421875 0 
z
M 9.421875 75.984375 
L 18.40625 75.984375 
L 18.40625 64.59375 
L 9.421875 64.59375 
z
" id="DejaVuSans-105"/>
       </defs>
       <use xlink:href="#DejaVuSans-70"/>
       <use x="50.269531" xlink:href="#DejaVuSans-114"/>
       <use x="91.382812" xlink:href="#DejaVuSans-105"/>
      </g>
     </g>
    </g>
   </g>
   <g id="matplotlib.axis_2">
    <g id="ytick_1">
     <g id="line2d_5">
      <defs>
       <path d="M 0 0 
L -3.5 0 
" id="mf3baa2cbdc" style="stroke:#000000;stroke-width:0.8;"/>
      </defs>
      <g>
       <use style="stroke:#000000;stroke-width:0.8;" x="27" xlink:href="#mf3baa2cbdc" y="189"/>
      </g>
     </g>
     <g id="text_5">
      <!-- 0 -->
      <g transform="translate(13.6375 192.799219)scale(0.1 -0.1)">
       <defs>
        <path d="M 31.78125 66.40625 
Q 24.171875 66.40625 20.328125 58.90625 
Q 16.5 51.421875 16.5 36.375 
Q 16.5 21.390625 20.328125 13.890625 
Q 24.171875 6.390625 31.78125 6.390625 
Q 39.453125 6.390625 43.28125 13.890625 
Q 47.125 21.390625 47.125 36.375 
Q 47.125 51.421875 43.28125 58.90625 
Q 39.453125 66.40625 31.78125 66.40625 
z
M 31.78125 74.21875 
Q 44.046875 74.21875 50.515625 64.515625 
Q 56.984375 54.828125 56.984375 36.375 
Q 56.984375 17.96875 50.515625 8.265625 
Q 44.046875 -1.421875 31.78125 -1.421875 
Q 19.53125 -1.421875 13.0625 8.265625 
Q 6.59375 17.96875 6.59375 36.375 
Q 6.59375 54.828125 13.0625 64.515625 
Q 19.53125 74.21875 31.78125 74.21875 
z
" id="DejaVuSans-48"/>
       </defs>
       <use xlink:href="#DejaVuSans-48"/>
      </g>
     </g>
    </g>
    <g id="ytick_2">
     <g id="line2d_6">
      <g>
       <use style="stroke:#000000;stroke-width:0.8;" x="27" xlink:href="#mf3baa2cbdc" y="158.432339"/>
      </g>
     </g>
     <g id="text_6">
      <!-- 10 -->
      <g transform="translate(7.275 162.231558)scale(0.1 -0.1)">
       <defs>
        <path d="M 12.40625 8.296875 
L 28.515625 8.296875 
L 28.515625 63.921875 
L 10.984375 60.40625 
L 10.984375 69.390625 
L 28.421875 72.90625 
L 38.28125 72.90625 
L 38.28125 8.296875 
L 54.390625 8.296875 
L 54.390625 0 
L 12.40625 0 
z
" id="DejaVuSans-49"/>
       </defs>
       <use xlink:href="#DejaVuSans-49"/>
       <use x="63.623047" xlink:href="#DejaVuSans-48"/>
      </g>
     </g>
    </g>
    <g id="ytick_3">
     <g id="line2d_7">
      <g>
       <use style="stroke:#000000;stroke-width:0.8;" x="27" xlink:href="#mf3baa2cbdc" y="127.864678"/>
      </g>
     </g>
     <g id="text_7">
      <!-- 20 -->
      <g transform="translate(7.275 131.663897)scale(0.1 -0.1)">
       <defs>
        <path d="M 19.1875 8.296875 
L 53.609375 8.296875 
L 53.609375 0 
L 7.328125 0 
L 7.328125 8.296875 
Q 12.9375 14.109375 22.625 23.890625 
Q 32.328125 33.6875 34.8125 36.53125 
Q 39.546875 41.84375 41.421875 45.53125 
Q 43.3125 49.21875 43.3125 52.78125 
Q 43.3125 58.59375 39.234375 62.25 
Q 35.15625 65.921875 28.609375 65.921875 
Q 23.96875 65.921875 18.8125 64.3125 
Q 13.671875 62.703125 7.8125 59.421875 
L 7.8125 69.390625 
Q 13.765625 71.78125 18.9375 73 
Q 24.125 74.21875 28.421875 74.21875 
Q 39.75 74.21875 46.484375 68.546875 
Q 53.21875 62.890625 53.21875 53.421875 
Q 53.21875 48.921875 51.53125 44.890625 
Q 49.859375 40.875 45.40625 35.40625 
Q 44.1875 33.984375 37.640625 27.21875 
Q 31.109375 20.453125 19.1875 8.296875 
z
" id="DejaVuSans-50"/>
       </defs>
       <use xlink:href="#DejaVuSans-50"/>
       <use x="63.623047" xlink:href="#DejaVuSans-48"/>
      </g>
     </g>
    </g>
    <g id="ytick_4">
     <g id="line2d_8">
      <g>
       <use style="stroke:#000000;stroke-width:0.8;" x="27" xlink:href="#mf3baa2cbdc" y="97.297017"/>
      </g>
     </g>
     <g id="text_8">
      <!-- 30 -->
      <g transform="translate(7.275 101.096236)scale(0.1 -0.1)">
       <defs>
        <path d="M 40.578125 39.3125 
Q 47.65625 37.796875 51.625 33 
Q 55.609375 28.21875 55.609375 21.1875 
Q 55.609375 10.40625 48.1875 4.484375 
Q 40.765625 -1.421875 27.09375 -1.421875 
Q 22.515625 -1.421875 17.65625 -0.515625 
Q 12.796875 0.390625 7.625 2.203125 
L 7.625 11.71875 
Q 11.71875 9.328125 16.59375 8.109375 
Q 21.484375 6.890625 26.8125 6.890625 
Q 36.078125 6.890625 40.9375 10.546875 
Q 45.796875 14.203125 45.796875 21.1875 
Q 45.796875 27.640625 41.28125 31.265625 
Q 36.765625 34.90625 28.71875 34.90625 
L 20.21875 34.90625 
L 20.21875 43.015625 
L 29.109375 43.015625 
Q 36.375 43.015625 40.234375 45.921875 
Q 44.09375 48.828125 44.09375 54.296875 
Q 44.09375 59.90625 40.109375 62.90625 
Q 36.140625 65.921875 28.71875 65.921875 
Q 24.65625 65.921875 20.015625 65.03125 
Q 15.375 64.15625 9.8125 62.3125 
L 9.8125 71.09375 
Q 15.4375 72.65625 20.34375 73.4375 
Q 25.25 74.21875 29.59375 74.21875 
Q 40.828125 74.21875 47.359375 69.109375 
Q 53.90625 64.015625 53.90625 55.328125 
Q 53.90625 49.265625 50.4375 45.09375 
Q 46.96875 40.921875 40.578125 39.3125 
z
" id="DejaVuSans-51"/>
       </defs>
       <use xlink:href="#DejaVuSans-51"/>
       <use x="63.623047" xlink:href="#DejaVuSans-48"/>
      </g>
     </g>
    </g>
    <g id="ytick_5">
     <g id="line2d_9">
      <g>
       <use style="stroke:#000000;stroke-width:0.8;" x="27" xlink:href="#mf3baa2cbdc" y="66.729356"/>
      </g>
     </g>
     <g id="text_9">
      <!-- 40 -->
      <g transform="translate(7.275 70.528575)scale(0.1 -0.1)">
       <defs>
        <path d="M 37.796875 64.3125 
L 12.890625 25.390625 
L 37.796875 25.390625 
z
M 35.203125 72.90625 
L 47.609375 72.90625 
L 47.609375 25.390625 
L 58.015625 25.390625 
L 58.015625 17.1875 
L 47.609375 17.1875 
L 47.609375 0 
L 37.796875 0 
L 37.796875 17.1875 
L 4.890625 17.1875 
L 4.890625 26.703125 
z
" id="DejaVuSans-52"/>
       </defs>
       <use xlink:href="#DejaVuSans-52"/>
       <use x="63.623047" xlink:href="#DejaVuSans-48"/>
      </g>
     </g>
    </g>
    <g id="ytick_6">
     <g id="line2d_10">
      <g>
       <use style="stroke:#000000;stroke-width:0.8;" x="27" xlink:href="#mf3baa2cbdc" y="36.161695"/>
      </g>
     </g>
     <g id="text_10">
      <!-- 50 -->
      <g transform="translate(7.275 39.960914)scale(0.1 -0.1)">
       <defs>
        <path d="M 10.796875 72.90625 
L 49.515625 72.90625 
L 49.515625 64.59375 
L 19.828125 64.59375 
L 19.828125 46.734375 
Q 21.96875 47.46875 24.109375 47.828125 
Q 26.265625 48.1875 28.421875 48.1875 
Q 40.625 48.1875 47.75 41.5 
Q 54.890625 34.8125 54.890625 23.390625 
Q 54.890625 11.625 47.5625 5.09375 
Q 40.234375 -1.421875 26.90625 -1.421875 
Q 22.3125 -1.421875 17.546875 -0.640625 
Q 12.796875 0.140625 7.71875 1.703125 
L 7.71875 11.625 
Q 12.109375 9.234375 16.796875 8.0625 
Q 21.484375 6.890625 26.703125 6.890625 
Q 35.15625 6.890625 40.078125 11.328125 
Q 45.015625 15.765625 45.015625 23.390625 
Q 45.015625 31 40.078125 35.4375 
Q 35.15625 39.890625 26.703125 39.890625 
Q 22.75 39.890625 18.8125 39.015625 
Q 14.890625 38.140625 10.796875 36.28125 
z
" id="DejaVuSans-53"/>
       </defs>
       <use xlink:href="#DejaVuSans-53"/>
       <use x="63.623047" xlink:href="#DejaVuSans-48"/>
      </g>
     </g>
    </g>
   </g>
   <g id="patch_247">
    <path d="M 27 189 
L 27 25.92 
" style="fill:none;stroke:#000000;stroke-linecap:square;stroke-linejoin:miter;stroke-width:0.8;"/>
   </g>
   <g id="patch_248">
    <path d="M 194.4 189 
L 194.4 25.92 
" style="fill:none;stroke:#000000;stroke-linecap:square;stroke-linejoin:miter;stroke-width:0.8;"/>
   </g>
   <g id="patch_249">
    <path d="M 27 189 
L 194.4 189 
" style="fill:none;stroke:#000000;stroke-linecap:square;stroke-linejoin:miter;stroke-width:0.8;"/>
   </g>
   <g id="patch_250">
    <path d="M 27 25.92 
L 194.4 25.92 
" style="fill:none;stroke:#000000;stroke-linecap:square;stroke-linejoin:miter;stroke-width:0.8;"/>
   </g>
  </g>
 </g>
 <defs>
  <clipPath id="p9b96ce2d2d">
   <rect height="163.08" width="167.4" x="27" y="25.92"/>
  </clipPath>
 </defs>
</svg>
