<?xml version="1.0" encoding="utf-8" standalone="no"?>
<!DOCTYPE svg PUBLIC "-//W3C//DTD SVG 1.1//EN"
  "http://www.w3.org/Graphics/SVG/1.1/DTD/svg11.dtd">
<!-- Created with matplotlib (https://matplotlib.org/) -->
<svg height="216pt" version="1.1" viewBox="0 0 216 216" width="216pt" xmlns="http://www.w3.org/2000/svg" xmlns:xlink="http://www.w3.org/1999/xlink">
 <metadata>
  <rdf:RDF xmlns:cc="http://creativecommons.org/ns#" xmlns:dc="http://purl.org/dc/elements/1.1/" xmlns:rdf="http://www.w3.org/1999/02/22-rdf-syntax-ns#">
   <cc:Work>
    <dc:type rdf:resource="http://purl.org/dc/dcmitype/StillImage"/>
    <dc:date>2020-10-05T12:10:39.522403</dc:date>
    <dc:format>image/svg+xml</dc:format>
    <dc:creator>
     <cc:Agent>
      <dc:title>Matplotlib v3.3.1, https://matplotlib.org/</dc:title>
     </cc:Agent>
    </dc:creator>
   </cc:Work>
  </rdf:RDF>
 </metadata>
 <defs>
  <style type="text/css">*{stroke-linecap:butt;stroke-linejoin:round;}</style>
 </defs>
 <g id="figure_1">
  <g id="patch_1">
   <path d="M 0 216 
L 216 216 
L 216 0 
L 0 0 
z
" style="fill:none;"/>
  </g>
  <g id="axes_1">
   <g id="patch_2">
    <path d="M 27 189 
L 194.4 189 
L 194.4 25.92 
L 27 25.92 
z
" style="fill:#ffffff;"/>
   </g>
   <g id="matplotlib.axis_1">
    <g id="xtick_1">
     <g id="line2d_1">
      <defs>
       <path d="M 0 0 
L 0 3.5 
" id="mb428b0eeba" style="stroke:#000000;stroke-width:0.8;"/>
      </defs>
      <g>
       <use style="stroke:#000000;stroke-width:0.8;" x="54.9" xlink:href="#mb428b0eeba" y="189"/>
      </g>
     </g>
     <g id="text_1">
      <!-- −2 -->
      <g transform="translate(47.528906 203.598437)scale(0.1 -0.1)">
       <defs>
        <path d="M 10.59375 35.5 
L 73.1875 35.5 
L 73.1875 27.203125 
L 10.59375 27.203125 
z
" id="DejaVuSans-8722"/>
        <path d="M 19.1875 8.296875 
L 53.609375 8.296875 
L 53.609375 0 
L 7.328125 0 
L 7.328125 8.296875 
Q 12.9375 14.109375 22.625 23.890625 
Q 32.328125 33.6875 34.8125 36.53125 
Q 39.546875 41.84375 41.421875 45.53125 
Q 43.3125 49.21875 43.3125 52.78125 
Q 43.3125 58.59375 39.234375 62.25 
Q 35.15625 65.921875 28.609375 65.921875 
Q 23.96875 65.921875 18.8125 64.3125 
Q 13.671875 62.703125 7.8125 59.421875 
L 7.8125 69.390625 
Q 13.765625 71.78125 18.9375 73 
Q 24.125 74.21875 28.421875 74.21875 
Q 39.75 74.21875 46.484375 68.546875 
Q 53.21875 62.890625 53.21875 53.421875 
Q 53.21875 48.921875 51.53125 44.890625 
Q 49.859375 40.875 45.40625 35.40625 
Q 44.1875 33.984375 37.640625 27.21875 
Q 31.109375 20.453125 19.1875 8.296875 
z
" id="DejaVuSans-50"/>
       </defs>
       <use xlink:href="#DejaVuSans-8722"/>
       <use x="83.789062" xlink:href="#DejaVuSans-50"/>
      </g>
     </g>
    </g>
    <g id="xtick_2">
     <g id="line2d_2">
      <g>
       <use style="stroke:#000000;stroke-width:0.8;" x="110.7" xlink:href="#mb428b0eeba" y="189"/>
      </g>
     </g>
     <g id="text_2">
      <!-- 0 -->
      <g transform="translate(107.51875 203.598437)scale(0.1 -0.1)">
       <defs>
        <path d="M 31.78125 66.40625 
Q 24.171875 66.40625 20.328125 58.90625 
Q 16.5 51.421875 16.5 36.375 
Q 16.5 21.390625 20.328125 13.890625 
Q 24.171875 6.390625 31.78125 6.390625 
Q 39.453125 6.390625 43.28125 13.890625 
Q 47.125 21.390625 47.125 36.375 
Q 47.125 51.421875 43.28125 58.90625 
Q 39.453125 66.40625 31.78125 66.40625 
z
M 31.78125 74.21875 
Q 44.046875 74.21875 50.515625 64.515625 
Q 56.984375 54.828125 56.984375 36.375 
Q 56.984375 17.96875 50.515625 8.265625 
Q 44.046875 -1.421875 31.78125 -1.421875 
Q 19.53125 -1.421875 13.0625 8.265625 
Q 6.59375 17.96875 6.59375 36.375 
Q 6.59375 54.828125 13.0625 64.515625 
Q 19.53125 74.21875 31.78125 74.21875 
z
" id="DejaVuSans-48"/>
       </defs>
       <use xlink:href="#DejaVuSans-48"/>
      </g>
     </g>
    </g>
    <g id="xtick_3">
     <g id="line2d_3">
      <g>
       <use style="stroke:#000000;stroke-width:0.8;" x="166.5" xlink:href="#mb428b0eeba" y="189"/>
      </g>
     </g>
     <g id="text_3">
      <!-- 2 -->
      <g transform="translate(163.31875 203.598437)scale(0.1 -0.1)">
       <use xlink:href="#DejaVuSans-50"/>
      </g>
     </g>
    </g>
   </g>
   <g id="matplotlib.axis_2">
    <g id="ytick_1">
     <g id="line2d_4">
      <defs>
       <path d="M 0 0 
L -3.5 0 
" id="mfc004aeb3c" style="stroke:#000000;stroke-width:0.8;"/>
      </defs>
      <g>
       <use style="stroke:#000000;stroke-width:0.8;" x="27" xlink:href="#mfc004aeb3c" y="189"/>
      </g>
     </g>
     <g id="text_4">
      <!-- −3 -->
      <g transform="translate(5.257812 192.799219)scale(0.1 -0.1)">
       <defs>
        <path d="M 40.578125 39.3125 
Q 47.65625 37.796875 51.625 33 
Q 55.609375 28.21875 55.609375 21.1875 
Q 55.609375 10.40625 48.1875 4.484375 
Q 40.765625 -1.421875 27.09375 -1.421875 
Q 22.515625 -1.421875 17.65625 -0.515625 
Q 12.796875 0.390625 7.625 2.203125 
L 7.625 11.71875 
Q 11.71875 9.328125 16.59375 8.109375 
Q 21.484375 6.890625 26.8125 6.890625 
Q 36.078125 6.890625 40.9375 10.546875 
Q 45.796875 14.203125 45.796875 21.1875 
Q 45.796875 27.640625 41.28125 31.265625 
Q 36.765625 34.90625 28.71875 34.90625 
L 20.21875 34.90625 
L 20.21875 43.015625 
L 29.109375 43.015625 
Q 36.375 43.015625 40.234375 45.921875 
Q 44.09375 48.828125 44.09375 54.296875 
Q 44.09375 59.90625 40.109375 62.90625 
Q 36.140625 65.921875 28.71875 65.921875 
Q 24.65625 65.921875 20.015625 65.03125 
Q 15.375 64.15625 9.8125 62.3125 
L 9.8125 71.09375 
Q 15.4375 72.65625 20.34375 73.4375 
Q 25.25 74.21875 29.59375 74.21875 
Q 40.828125 74.21875 47.359375 69.109375 
Q 53.90625 64.015625 53.90625 55.328125 
Q 53.90625 49.265625 50.4375 45.09375 
Q 46.96875 40.921875 40.578125 39.3125 
z
" id="DejaVuSans-51"/>
       </defs>
       <use xlink:href="#DejaVuSans-8722"/>
       <use x="83.789062" xlink:href="#DejaVuSans-51"/>
      </g>
     </g>
    </g>
    <g id="ytick_2">
     <g id="line2d_5">
      <g>
       <use style="stroke:#000000;stroke-width:0.8;" x="27" xlink:href="#mfc004aeb3c" y="161.82"/>
      </g>
     </g>
     <g id="text_5">
      <!-- −2 -->
      <g transform="translate(5.257812 165.619219)scale(0.1 -0.1)">
       <use xlink:href="#DejaVuSans-8722"/>
       <use x="83.789062" xlink:href="#DejaVuSans-50"/>
      </g>
     </g>
    </g>
    <g id="ytick_3">
     <g id="line2d_6">
      <g>
       <use style="stroke:#000000;stroke-width:0.8;" x="27" xlink:href="#mfc004aeb3c" y="134.64"/>
      </g>
     </g>
     <g id="text_6">
      <!-- −1 -->
      <g transform="translate(5.257812 138.439219)scale(0.1 -0.1)">
       <defs>
        <path d="M 12.40625 8.296875 
L 28.515625 8.296875 
L 28.515625 63.921875 
L 10.984375 60.40625 
L 10.984375 69.390625 
L 28.421875 72.90625 
L 38.28125 72.90625 
L 38.28125 8.296875 
L 54.390625 8.296875 
L 54.390625 0 
L 12.40625 0 
z
" id="DejaVuSans-49"/>
       </defs>
       <use xlink:href="#DejaVuSans-8722"/>
       <use x="83.789062" xlink:href="#DejaVuSans-49"/>
      </g>
     </g>
    </g>
    <g id="ytick_4">
     <g id="line2d_7">
      <g>
       <use style="stroke:#000000;stroke-width:0.8;" x="27" xlink:href="#mfc004aeb3c" y="107.46"/>
      </g>
     </g>
     <g id="text_7">
      <!-- 0 -->
      <g transform="translate(13.6375 111.259219)scale(0.1 -0.1)">
       <use xlink:href="#DejaVuSans-48"/>
      </g>
     </g>
    </g>
    <g id="ytick_5">
     <g id="line2d_8">
      <g>
       <use style="stroke:#000000;stroke-width:0.8;" x="27" xlink:href="#mfc004aeb3c" y="80.28"/>
      </g>
     </g>
     <g id="text_8">
      <!-- 1 -->
      <g transform="translate(13.6375 84.079219)scale(0.1 -0.1)">
       <use xlink:href="#DejaVuSans-49"/>
      </g>
     </g>
    </g>
    <g id="ytick_6">
     <g id="line2d_9">
      <g>
       <use style="stroke:#000000;stroke-width:0.8;" x="27" xlink:href="#mfc004aeb3c" y="53.1"/>
      </g>
     </g>
     <g id="text_9">
      <!-- 2 -->
      <g transform="translate(13.6375 56.899219)scale(0.1 -0.1)">
       <use xlink:href="#DejaVuSans-50"/>
      </g>
     </g>
    </g>
    <g id="ytick_7">
     <g id="line2d_10">
      <g>
       <use style="stroke:#000000;stroke-width:0.8;" x="27" xlink:href="#mfc004aeb3c" y="25.92"/>
      </g>
     </g>
     <g id="text_10">
      <!-- 3 -->
      <g transform="translate(13.6375 29.719219)scale(0.1 -0.1)">
       <use xlink:href="#DejaVuSans-51"/>
      </g>
     </g>
    </g>
   </g>
   <g id="LineCollection_1">
    <path clip-path="url(#p91eba3ab97)" d="M 63.762353 107.779765 
" style="fill:none;stroke:#440154;stroke-width:1.5;"/>
   </g>
   <g id="LineCollection_2">
    <path clip-path="url(#p91eba3ab97)" d="M 61.136471 125.75081 
L 59.657034 125.047059 
L 58.510588 124.31387 
L 57.081165 123.128471 
L 55.862455 121.849412 
L 54.434859 119.930824 
L 53.258824 117.858163 
L 52.483836 116.093647 
L 51.837136 114.175059 
L 51.250009 111.616941 
L 50.947262 109.058824 
L 50.913944 106.500706 
L 51.150107 103.942588 
L 51.671186 101.384471 
L 52.269429 99.465882 
L 53.258824 97.175441 
L 54.135081 95.628706 
L 55.228235 94.089706 
L 56.541176 92.64607 
L 57.854118 91.538475 
L 59.167059 90.70774 
L 60.48 90.122751 
L 61.792941 89.7681 
L 63.105882 89.64125 
L 64.418824 89.748565 
L 65.731765 90.109179 
L 67.044706 90.756254 
L 68.403447 91.791529 
L 69.670588 93.189513 
L 70.816235 94.989176 
L 71.64 96.760747 
L 72.331158 98.826353 
L 72.901381 101.384471 
L 73.229384 103.942588 
L 73.38109 107.140235 
L 73.288825 110.337882 
L 72.952941 113.698097 
L 72.401443 116.733176 
L 71.89471 118.651765 
L 71.213408 120.570353 
L 70.327059 122.376433 
L 69.342866 123.768 
L 68.357647 124.770378 
L 67.044706 125.63987 
L 65.731765 126.127897 
L 64.418824 126.318665 
L 63.105882 126.258845 
L 61.792941 125.973841 
L 61.136471 125.75081 
L 61.136471 125.75081 
" style="fill:none;stroke:#46327e;stroke-width:1.5;"/>
   </g>
   <g id="LineCollection_3">
    <path clip-path="url(#p91eba3ab97)" d="M 108.402353 156.385736 
L 106.432941 155.956495 
L 104.463529 155.306447 
L 102.658067 154.465412 
L 101.181176 153.526811 
L 99.868235 152.395182 
L 98.945281 151.267765 
L 98.305997 149.988706 
L 98.076673 148.709647 
L 98.12102 148.070118 
L 98.278148 147.430588 
L 98.555481 146.791059 
L 99.211765 145.858908 
L 99.868235 145.182543 
L 100.524706 144.638569 
L 101.837647 143.773057 
L 103.422318 142.953882 
L 105.776471 142.036127 
L 108.402353 141.255469 
L 111.028235 140.671002 
L 114.310588 140.164021 
L 117.592941 139.910119 
L 120.218824 139.954931 
L 122.188235 140.210897 
L 123.501176 140.544102 
L 124.814118 141.070466 
L 126.127059 141.926091 
L 127.125532 142.953882 
L 127.850183 144.232941 
L 128.197452 145.512 
L 128.242416 146.791059 
L 128.01738 148.070118 
L 127.44 149.502587 
L 126.737912 150.628235 
L 125.470588 152.048292 
L 124.08338 153.186353 
L 122.188235 154.34141 
L 120.218824 155.224872 
L 118.249412 155.868286 
L 115.86236 156.384 
L 113.654118 156.635491 
L 111.028235 156.661582 
L 109.058824 156.484108 
L 108.402353 156.385736 
L 108.402353 156.385736 
" style="fill:none;stroke:#365c8d;stroke-width:1.5;"/>
    <path clip-path="url(#p91eba3ab97)" d="M 66.388235 140.409193 
L 64.418824 140.222232 
L 62.257553 139.756235 
L 60.29692 139.116706 
L 58.510588 138.352806 
L 56.386722 137.198118 
L 54.472844 135.919059 
L 52.602353 134.421823 
L 50.632941 132.532807 
L 49.104393 130.802824 
L 47.350588 128.455418 
L 46.014405 126.326118 
L 44.673255 123.768 
L 43.578608 121.209882 
L 42.515526 118.012235 
L 41.885719 115.454118 
L 41.440772 112.896 
L 41.120798 109.698353 
L 41.068425 106.500706 
L 41.280279 103.303059 
L 41.760868 100.105412 
L 42.351538 97.547294 
L 43.13882 94.989176 
L 44.145326 92.431059 
L 45.399779 89.872941 
L 46.694118 87.70427 
L 48.007059 85.850161 
L 49.453546 84.117176 
L 51.39376 82.198588 
L 53.258824 80.716049 
L 55.228235 79.490603 
L 57.197647 78.58472 
L 59.167059 77.989203 
L 61.136471 77.710416 
L 62.638275 77.721882 
L 63.762353 77.855268 
L 65.075294 78.174031 
L 66.388235 78.676988 
L 68.078858 79.640471 
L 69.014118 80.329545 
L 70.341172 81.559059 
L 71.64 83.082351 
L 72.952941 85.03665 
L 74.149464 87.314824 
L 74.958832 89.233412 
L 75.808428 91.791529 
L 76.44964 94.349647 
L 77.009521 97.547294 
L 77.398693 101.384471 
L 77.563174 105.221647 
L 77.548235 110.814227 
L 77.270225 119.930824 
L 76.851273 128.884235 
L 76.478706 132.081882 
L 76.066394 134.000471 
L 75.578824 135.4375 
L 74.922353 136.715848 
L 74.054148 137.837647 
L 72.952941 138.790164 
L 71.64 139.524956 
L 70.327059 139.991733 
L 69.014118 140.269725 
L 67.044706 140.419291 
L 66.388235 140.409193 
L 66.388235 140.409193 
" style="fill:none;stroke:#365c8d;stroke-width:1.5;"/>
   </g>
   <g id="LineCollection_4">
    <path clip-path="url(#p91eba3ab97)" d="M 156.981176 148.14824 
L 158.950588 148.366881 
L 160.92 148.336034 
L 162.889412 148.069226 
L 164.858824 147.590359 
L 167.067116 146.791059 
L 168.797647 145.986704 
L 170.767059 144.861109 
L 172.736471 143.515407 
L 174.992588 141.674824 
L 176.983229 139.756235 
L 178.703175 137.837647 
L 180.679275 135.279529 
L 182.36549 132.721412 
L 184.135497 129.523765 
L 185.590516 126.326118 
L 186.770612 123.128471 
L 187.702187 119.930824 
L 188.518966 116.093647 
L 188.970383 112.896 
L 189.209372 109.698353 
L 189.250651 106.500706 
L 189.088981 103.303059 
L 188.729361 100.105412 
L 188.158933 96.907765 
L 187.370775 93.710118 
L 186.123273 89.872941 
L 184.808079 86.675294 
L 183.210816 83.477647 
L 181.713693 80.919529 
L 179.957647 78.329897 
L 177.983825 75.803294 
L 175.669869 73.245176 
L 173.392941 71.072068 
L 170.767059 68.908548 
L 168.141176 67.045856 
L 165.515294 65.435597 
L 162.232941 63.709592 
L 158.294118 61.945843 
L 145.418437 56.617412 
L 141.225882 54.464692 
L 132.691765 49.982805 
L 128.752941 48.254311 
L 125.470588 47.062565 
L 122.188235 46.106192 
L 118.905882 45.391131 
L 115.623529 44.90911 
L 112.341176 44.652608 
L 109.058824 44.618101 
L 105.776471 44.801831 
L 102.494118 45.212454 
L 99.211765 45.853957 
L 95.929412 46.746516 
L 92.647059 47.929975 
L 90.021176 49.126825 
L 87.395294 50.603899 
L 85.185306 52.140706 
L 83.456471 53.597527 
L 81.775723 55.338353 
L 80.764201 56.617412 
L 79.517647 58.591242 
L 78.640225 60.454588 
L 77.999434 62.373176 
L 77.548235 64.540159 
L 77.319408 66.849882 
L 77.318297 69.408 
L 77.588675 72.605647 
L 78.204706 76.67545 
L 80.592505 91.152 
L 80.961539 95.628706 
L 81.131316 100.744941 
L 81.383589 116.093647 
L 81.713068 119.291294 
L 82.282324 122.488941 
L 82.991778 125.047059 
L 83.741274 126.965647 
L 84.769412 128.888786 
L 85.684557 130.163294 
L 86.894455 131.442353 
L 88.051765 132.360075 
L 89.364706 133.129959 
L 90.677647 133.687451 
L 92.647059 134.228396 
L 94.616471 134.511297 
L 97.242353 134.614331 
L 100.524706 134.46732 
L 104.897432 134.000471 
L 109.715294 133.309936 
L 115.623529 132.275014 
L 125.470588 130.44529 
L 127.44 130.29549 
L 129.409412 130.353298 
L 131.378824 130.689552 
L 132.691765 131.099345 
L 134.004706 131.667378 
L 135.974118 132.816552 
L 137.943529 134.29315 
L 139.912941 136.022064 
L 143.851765 139.857878 
L 147.166287 142.953882 
L 149.103529 144.527079 
L 151.072941 145.862916 
L 153.042353 146.910428 
L 155.011765 147.671599 
L 156.981176 148.14824 
L 156.981176 148.14824 
" style="fill:none;stroke:#277f8e;stroke-width:1.5;"/>
   </g>
   <g id="LineCollection_5">
    <path clip-path="url(#p91eba3ab97)" d="M 153.042353 132.794478 
L 155.011765 133.04445 
L 156.981176 133.02017 
L 158.950588 132.715764 
L 160.92 132.125707 
L 162.889412 131.231894 
L 164.858824 130.004045 
L 166.828235 128.393711 
L 168.232345 126.965647 
L 169.784053 125.047059 
L 171.052197 123.128471 
L 172.405907 120.570353 
L 173.447216 118.012235 
L 174.227949 115.454118 
L 174.773417 112.896 
L 175.105822 110.337882 
L 175.230875 107.779765 
L 175.156229 105.221647 
L 174.878781 102.663529 
L 174.39354 100.105412 
L 173.686831 97.547294 
L 172.736471 94.987861 
L 171.516345 92.431059 
L 170.110588 90.083075 
L 168.797647 88.266693 
L 167.445428 86.675294 
L 165.489662 84.756706 
L 163.545882 83.203497 
L 161.576471 81.924627 
L 159.607059 80.898185 
L 157.637647 80.088511 
L 155.668235 79.474926 
L 153.042353 78.924991 
L 150.416471 78.636343 
L 147.134118 78.557802 
L 141.882353 78.565916 
L 139.912941 78.283144 
L 138.305012 77.721882 
L 137.170271 77.082353 
L 135.974118 76.159228 
L 134.346595 74.524235 
L 131.5422 71.326588 
L 128.752941 68.41524 
L 126.783529 66.683866 
L 124.814118 65.222711 
L 122.844706 64.005655 
L 120.875294 63.006923 
L 118.905882 62.202242 
L 116.28 61.401537 
L 113.654118 60.882441 
L 111.028235 60.622547 
L 108.402353 60.608614 
L 105.776471 60.836067 
L 103.150588 61.311356 
L 100.524706 62.052005 
L 98.086184 63.012706 
L 96.585882 63.752561 
L 94.616471 64.942755 
L 92.647059 66.449855 
L 90.93476 68.128941 
L 89.882634 69.408 
L 88.623857 71.326588 
L 87.66937 73.245176 
L 86.952406 75.163765 
L 86.281487 77.721882 
L 85.851121 80.28 
L 85.537466 83.477647 
L 85.294912 88.593882 
L 84.664894 110.337882 
L 84.903444 113.535529 
L 85.281817 116.093647 
L 85.896057 118.651765 
L 86.571559 120.570353 
L 87.395294 122.286185 
L 88.347755 123.768 
L 89.428824 125.047059 
L 90.902877 126.326118 
L 91.990588 127.035661 
L 93.303529 127.690243 
L 95.272941 128.369047 
L 97.242353 128.78125 
L 99.868235 129.038916 
L 102.494118 129.059183 
L 105.776471 128.845872 
L 109.058824 128.424296 
L 112.341176 127.805591 
L 115.65446 126.965647 
L 118.905882 125.912049 
L 122.719659 124.407529 
L 127.44 122.460172 
L 129.507131 121.849412 
L 130.722353 121.64395 
L 132.035294 121.60634 
L 133.608062 121.849412 
L 134.661176 122.172012 
L 135.974118 122.764098 
L 137.943529 123.951237 
L 140.569412 125.862767 
L 145.164706 129.25113 
L 147.790588 130.847054 
L 149.76 131.788747 
L 151.729412 132.480029 
L 153.042353 132.794478 
L 153.042353 132.794478 
" style="fill:none;stroke:#1fa187;stroke-width:1.5;"/>
   </g>
   <g id="LineCollection_6">
    <path clip-path="url(#p91eba3ab97)" d="M 98.555294 123.881963 
L 100.524706 124.215883 
L 102.494118 124.357339 
L 105.12 124.307341 
L 107.745882 124.025631 
L 110.371765 123.522663 
L 112.997647 122.778713 
L 115.399457 121.849412 
L 117.592941 120.739027 
L 118.905882 119.929796 
L 120.875294 118.440764 
L 122.188235 117.214028 
L 123.501176 115.706209 
L 124.157647 114.804338 
L 124.92503 113.535529 
L 125.771223 111.616941 
L 126.264423 109.698353 
L 126.448897 107.779765 
L 126.372458 105.861176 
L 125.989739 103.303059 
L 125.012972 98.826353 
L 124.250907 94.989176 
L 123.800984 91.791529 
L 122.737828 82.838118 
L 122.188235 80.714284 
L 121.531765 78.967876 
L 120.526656 77.082353 
L 119.562353 75.744737 
L 118.249412 74.364532 
L 116.830411 73.245176 
L 115.623529 72.51345 
L 113.654118 71.652199 
L 111.684706 71.119428 
L 109.715294 70.864364 
L 107.745882 70.859859 
L 105.776471 71.096009 
L 103.807059 71.577305 
L 101.837647 72.325108 
L 99.868235 73.38382 
L 98.278755 74.524235 
L 96.876834 75.803294 
L 95.748932 77.082353 
L 94.417606 79.000941 
L 93.303529 81.104721 
L 92.349637 83.477647 
L 91.552674 86.035765 
L 90.677647 89.626417 
L 89.652732 94.989176 
L 88.880123 100.105412 
L 88.489826 103.942588 
L 88.35538 107.140235 
L 88.421107 109.698353 
L 88.708235 112.361015 
L 89.076284 114.175059 
L 89.663092 116.093647 
L 90.529988 118.012235 
L 91.334118 119.300284 
L 92.647059 120.824255 
L 93.96 121.911691 
L 95.272941 122.705545 
L 96.585882 123.291268 
L 98.555294 123.881963 
L 98.555294 123.881963 
" style="fill:none;stroke:#4ac16d;stroke-width:1.5;"/>
    <path clip-path="url(#p91eba3ab97)" d="M 153.698824 123.815949 
L 155.011765 123.828498 
L 156.324706 123.669371 
L 157.637647 123.330137 
L 158.950588 122.797267 
L 160.552355 121.849412 
L 161.576471 121.050862 
L 162.889412 119.741987 
L 164.203096 118.012235 
L 165.28337 116.093647 
L 166.078704 114.175059 
L 166.64064 112.256471 
L 167.001586 110.337882 
L 167.177739 108.419294 
L 167.177784 106.500706 
L 167.002844 104.582118 
L 166.64684 102.663529 
L 166.097412 100.744941 
L 165.328724 98.826353 
L 164.202353 96.748798 
L 162.889412 94.929974 
L 161.576471 93.524723 
L 160.263529 92.415623 
L 158.950588 91.546415 
L 157.637647 90.878869 
L 156.324706 90.392249 
L 155.011765 90.074511 
L 153.698824 89.918365 
L 152.385882 89.923352 
L 151.072941 90.093179 
L 149.54798 90.512471 
L 148.090631 91.152 
L 147.018373 91.791529 
L 145.821176 92.705374 
L 144.508235 93.995087 
L 143.195294 95.655685 
L 141.882353 97.81039 
L 141.074159 99.465882 
L 140.103472 102.024 
L 139.453729 104.582118 
L 139.210483 106.500706 
L 139.211991 108.419294 
L 139.491216 110.337882 
L 140.07198 112.256471 
L 140.947847 114.175059 
L 142.119725 116.093647 
L 143.605993 118.012235 
L 145.164706 119.634182 
L 146.477647 120.764588 
L 148.023389 121.849412 
L 149.76 122.782827 
L 151.072941 123.292137 
L 152.385882 123.636213 
L 153.698824 123.815949 
L 153.698824 123.815949 
" style="fill:none;stroke:#4ac16d;stroke-width:1.5;"/>
   </g>
   <g id="LineCollection_7">
    <path clip-path="url(#p91eba3ab97)" d="M 100.524706 118.744109 
L 102.494118 119.106989 
L 104.463529 119.194975 
L 106.432941 119.043197 
L 108.463404 118.651765 
L 110.43924 118.012235 
L 112.341176 117.095912 
L 113.843741 116.093647 
L 115.236234 114.814588 
L 116.28 113.47724 
L 116.964422 112.256471 
L 117.592941 110.512 
L 117.776644 109.698353 
L 117.967683 107.779765 
L 117.886863 105.861176 
L 117.592941 103.930845 
L 116.936471 101.300703 
L 115.908176 98.186824 
L 114.310588 94.048133 
L 112.697432 90.512471 
L 111.577277 88.593882 
L 110.371765 87.103165 
L 109.715294 86.518538 
L 108.402353 85.73768 
L 107.089412 85.378745 
L 105.776471 85.371207 
L 104.463529 85.674787 
L 103.150588 86.271104 
L 101.658421 87.314824 
L 100.311262 88.593882 
L 99.211765 89.885026 
L 97.887278 91.791529 
L 96.454515 94.349647 
L 95.272941 96.960756 
L 94.185234 100.105412 
L 93.550418 102.663529 
L 93.15722 105.221647 
L 93.043694 107.779765 
L 93.174147 109.698353 
L 93.544103 111.616941 
L 93.96 112.91296 
L 94.616471 114.297309 
L 95.388075 115.454118 
L 96.60312 116.733176 
L 97.898824 117.655872 
L 99.211765 118.303726 
L 100.524706 118.744109 
L 100.524706 118.744109 
" style="fill:none;stroke:#a0da39;stroke-width:1.5;"/>
    <path clip-path="url(#p91eba3ab97)" d="M 153.042353 111.097265 
L 153.698824 111.238485 
L 154.355294 111.200641 
L 155.011765 110.982108 
L 155.019486 110.977412 
L 155.668235 110.502749 
L 155.823172 110.337882 
L 156.301661 109.698353 
L 156.324706 109.657105 
L 156.580676 109.058824 
L 156.762041 108.419294 
L 156.852315 107.779765 
L 156.852336 107.140235 
L 156.762616 106.500706 
L 156.583396 105.861176 
L 156.324706 105.2454 
L 156.311687 105.221647 
L 155.845695 104.582118 
L 155.668235 104.386704 
L 155.084389 103.942588 
L 155.011765 103.896257 
L 154.355294 103.664804 
L 153.698824 103.620931 
L 153.042353 103.764731 
L 152.690265 103.942588 
L 152.385882 104.126133 
L 151.902611 104.582118 
L 151.729412 104.785814 
L 151.455657 105.221647 
L 151.153923 105.861176 
L 151.072941 106.117814 
L 150.976371 106.500706 
L 150.895378 107.140235 
L 150.895415 107.779765 
L 150.97736 108.419294 
L 151.072941 108.790158 
L 151.159531 109.058824 
L 151.470566 109.698353 
L 151.729412 110.095113 
L 151.943238 110.337882 
L 152.385882 110.738631 
L 152.795628 110.977412 
L 153.042353 111.097265 
" style="fill:none;stroke:#a0da39;stroke-width:1.5;"/>
   </g>
   <g id="LineCollection_8"/>
   <g id="patch_3">
    <path d="M 27 189 
L 27 25.92 
" style="fill:none;stroke:#000000;stroke-linecap:square;stroke-linejoin:miter;stroke-width:0.8;"/>
   </g>
   <g id="patch_4">
    <path d="M 194.4 189 
L 194.4 25.92 
" style="fill:none;stroke:#000000;stroke-linecap:square;stroke-linejoin:miter;stroke-width:0.8;"/>
   </g>
   <g id="patch_5">
    <path d="M 27 189 
L 194.4 189 
" style="fill:none;stroke:#000000;stroke-linecap:square;stroke-linejoin:miter;stroke-width:0.8;"/>
   </g>
   <g id="patch_6">
    <path d="M 27 25.92 
L 194.4 25.92 
" style="fill:none;stroke:#000000;stroke-linecap:square;stroke-linejoin:miter;stroke-width:0.8;"/>
   </g>
  </g>
 </g>
 <defs>
  <clipPath id="p91eba3ab97">
   <rect height="163.08" width="167.4" x="27" y="25.92"/>
  </clipPath>
 </defs>
</svg>
