<?xml version="1.0" encoding="utf-8" standalone="no"?>
<!DOCTYPE svg PUBLIC "-//W3C//DTD SVG 1.1//EN"
  "http://www.w3.org/Graphics/SVG/1.1/DTD/svg11.dtd">
<!-- Created with matplotlib (https://matplotlib.org/) -->
<svg height="216pt" version="1.1" viewBox="0 0 216 216" width="216pt" xmlns="http://www.w3.org/2000/svg" xmlns:xlink="http://www.w3.org/1999/xlink">
 <metadata>
  <rdf:RDF xmlns:cc="http://creativecommons.org/ns#" xmlns:dc="http://purl.org/dc/elements/1.1/" xmlns:rdf="http://www.w3.org/1999/02/22-rdf-syntax-ns#">
   <cc:Work>
    <dc:type rdf:resource="http://purl.org/dc/dcmitype/StillImage"/>
    <dc:date>2020-10-05T12:10:39.622495</dc:date>
    <dc:format>image/svg+xml</dc:format>
    <dc:creator>
     <cc:Agent>
      <dc:title>Matplotlib v3.3.1, https://matplotlib.org/</dc:title>
     </cc:Agent>
    </dc:creator>
   </cc:Work>
  </rdf:RDF>
 </metadata>
 <defs>
  <style type="text/css">*{stroke-linecap:butt;stroke-linejoin:round;}</style>
 </defs>
 <g id="figure_1">
  <g id="patch_1">
   <path d="M 0 216 
L 216 216 
L 216 0 
L 0 0 
z
" style="fill:none;"/>
  </g>
  <g id="axes_1">
   <g id="patch_2">
    <path d="M 27 189 
L 194.4 189 
L 194.4 25.92 
L 27 25.92 
z
" style="fill:#ffffff;"/>
   </g>
   <g id="PolyCollection_1">
    <defs>
     <path d="M -2.071306 18.81918 
L -2.071306 6.464634 
L -11.582669 0.287361 
L -21.094033 6.464634 
L -21.094033 18.81918 
L -11.582669 24.996452 
z
" id="C0_0_277317879b"/>
    </defs>
    <g clip-path="url(#p6f56b7db01)">
     <use style="fill:#440154;stroke:#440154;" x="46.19176" xlink:href="#C0_0_277317879b" y="168.945366"/>
    </g>
    <g clip-path="url(#p6f56b7db01)">
     <use style="fill:#a2da37;stroke:#a2da37;" x="46.19176" xlink:href="#C0_0_277317879b" y="57.754457"/>
    </g>
    <g clip-path="url(#p6f56b7db01)">
     <use style="fill:#b5de2b;stroke:#b5de2b;" x="65.214487" xlink:href="#C0_0_277317879b" y="168.945366"/>
    </g>
    <g clip-path="url(#p6f56b7db01)">
     <use style="fill:#2db27d;stroke:#2db27d;" x="65.214487" xlink:href="#C0_0_277317879b" y="131.88173"/>
    </g>
    <g clip-path="url(#p6f56b7db01)">
     <use style="fill:#20a486;stroke:#20a486;" x="65.214487" xlink:href="#C0_0_277317879b" y="94.818093"/>
    </g>
    <g clip-path="url(#p6f56b7db01)">
     <use style="fill:#6ccd5a;stroke:#6ccd5a;" x="65.214487" xlink:href="#C0_0_277317879b" y="57.754457"/>
    </g>
    <g clip-path="url(#p6f56b7db01)">
     <use style="fill:#375b8d;stroke:#375b8d;" x="65.214487" xlink:href="#C0_0_277317879b" y="20.69082"/>
    </g>
    <g clip-path="url(#p6f56b7db01)">
     <use style="fill:#21a685;stroke:#21a685;" x="84.237215" xlink:href="#C0_0_277317879b" y="168.945366"/>
    </g>
    <g clip-path="url(#p6f56b7db01)">
     <use style="fill:#26ad81;stroke:#26ad81;" x="84.237215" xlink:href="#C0_0_277317879b" y="131.88173"/>
    </g>
    <g clip-path="url(#p6f56b7db01)">
     <use style="fill:#40bd72;stroke:#40bd72;" x="84.237215" xlink:href="#C0_0_277317879b" y="94.818093"/>
    </g>
    <g clip-path="url(#p6f56b7db01)">
     <use style="fill:#2a788e;stroke:#2a788e;" x="84.237215" xlink:href="#C0_0_277317879b" y="57.754457"/>
    </g>
    <g clip-path="url(#p6f56b7db01)">
     <use style="fill:#440154;stroke:#440154;" x="84.237215" xlink:href="#C0_0_277317879b" y="20.69082"/>
    </g>
    <g clip-path="url(#p6f56b7db01)">
     <use style="fill:#463480;stroke:#463480;" x="103.259942" xlink:href="#C0_0_277317879b" y="168.945366"/>
    </g>
    <g clip-path="url(#p6f56b7db01)">
     <use style="fill:#20928c;stroke:#20928c;" x="103.259942" xlink:href="#C0_0_277317879b" y="131.88173"/>
    </g>
    <g clip-path="url(#p6f56b7db01)">
     <use style="fill:#e7e419;stroke:#e7e419;" x="103.259942" xlink:href="#C0_0_277317879b" y="94.818093"/>
    </g>
    <g clip-path="url(#p6f56b7db01)">
     <use style="fill:#24868e;stroke:#24868e;" x="103.259942" xlink:href="#C0_0_277317879b" y="57.754457"/>
    </g>
    <g clip-path="url(#p6f56b7db01)">
     <use style="fill:#1f9a8a;stroke:#1f9a8a;" x="103.259942" xlink:href="#C0_0_277317879b" y="20.69082"/>
    </g>
    <g clip-path="url(#p6f56b7db01)">
     <use style="fill:#39568c;stroke:#39568c;" x="122.282669" xlink:href="#C0_0_277317879b" y="168.945366"/>
    </g>
    <g clip-path="url(#p6f56b7db01)">
     <use style="fill:#24aa83;stroke:#24aa83;" x="122.282669" xlink:href="#C0_0_277317879b" y="131.88173"/>
    </g>
    <g clip-path="url(#p6f56b7db01)">
     <use style="fill:#26818e;stroke:#26818e;" x="122.282669" xlink:href="#C0_0_277317879b" y="94.818093"/>
    </g>
    <g clip-path="url(#p6f56b7db01)">
     <use style="fill:#1fa188;stroke:#1fa188;" x="122.282669" xlink:href="#C0_0_277317879b" y="57.754457"/>
    </g>
    <g clip-path="url(#p6f56b7db01)">
     <use style="fill:#e7e419;stroke:#e7e419;" x="122.282669" xlink:href="#C0_0_277317879b" y="20.69082"/>
    </g>
    <g clip-path="url(#p6f56b7db01)">
     <use style="fill:#228c8d;stroke:#228c8d;" x="141.305396" xlink:href="#C0_0_277317879b" y="131.88173"/>
    </g>
    <g clip-path="url(#p6f56b7db01)">
     <use style="fill:#1fa187;stroke:#1fa187;" x="141.305396" xlink:href="#C0_0_277317879b" y="94.818093"/>
    </g>
    <g clip-path="url(#p6f56b7db01)">
     <use style="fill:#238a8d;stroke:#238a8d;" x="141.305396" xlink:href="#C0_0_277317879b" y="57.754457"/>
    </g>
    <g clip-path="url(#p6f56b7db01)">
     <use style="fill:#1f9a8a;stroke:#1f9a8a;" x="141.305396" xlink:href="#C0_0_277317879b" y="20.69082"/>
    </g>
    <g clip-path="url(#p6f56b7db01)">
     <use style="fill:#3f4889;stroke:#3f4889;" x="160.328124" xlink:href="#C0_0_277317879b" y="168.945366"/>
    </g>
    <g clip-path="url(#p6f56b7db01)">
     <use style="fill:#95d840;stroke:#95d840;" x="160.328124" xlink:href="#C0_0_277317879b" y="131.88173"/>
    </g>
    <g clip-path="url(#p6f56b7db01)">
     <use style="fill:#1e9d89;stroke:#1e9d89;" x="160.328124" xlink:href="#C0_0_277317879b" y="94.818093"/>
    </g>
    <g clip-path="url(#p6f56b7db01)">
     <use style="fill:#60ca60;stroke:#60ca60;" x="160.328124" xlink:href="#C0_0_277317879b" y="57.754457"/>
    </g>
    <g clip-path="url(#p6f56b7db01)">
     <use style="fill:#2f6c8e;stroke:#2f6c8e;" x="179.350851" xlink:href="#C0_0_277317879b" y="168.945366"/>
    </g>
    <g clip-path="url(#p6f56b7db01)">
     <use style="fill:#23888e;stroke:#23888e;" x="179.350851" xlink:href="#C0_0_277317879b" y="131.88173"/>
    </g>
    <g clip-path="url(#p6f56b7db01)">
     <use style="fill:#f8e621;stroke:#f8e621;" x="179.350851" xlink:href="#C0_0_277317879b" y="94.818093"/>
    </g>
    <g clip-path="url(#p6f56b7db01)">
     <use style="fill:#228b8d;stroke:#228b8d;" x="179.350851" xlink:href="#C0_0_277317879b" y="57.754457"/>
    </g>
    <g clip-path="url(#p6f56b7db01)">
     <use style="fill:#1e9c89;stroke:#1e9c89;" x="198.373578" xlink:href="#C0_0_277317879b" y="168.945366"/>
    </g>
    <g clip-path="url(#p6f56b7db01)">
     <use style="fill:#1e9d89;stroke:#1e9d89;" x="198.373578" xlink:href="#C0_0_277317879b" y="94.818093"/>
    </g>
    <g clip-path="url(#p6f56b7db01)">
     <use style="fill:#c0df25;stroke:#c0df25;" x="55.703124" xlink:href="#C0_0_277317879b" y="150.413548"/>
    </g>
    <g clip-path="url(#p6f56b7db01)">
     <use style="fill:#2fb47c;stroke:#2fb47c;" x="55.703124" xlink:href="#C0_0_277317879b" y="76.286275"/>
    </g>
    <g clip-path="url(#p6f56b7db01)">
     <use style="fill:#65cb5e;stroke:#65cb5e;" x="55.703124" xlink:href="#C0_0_277317879b" y="39.222639"/>
    </g>
    <g clip-path="url(#p6f56b7db01)">
     <use style="fill:#297b8e;stroke:#297b8e;" x="74.725851" xlink:href="#C0_0_277317879b" y="150.413548"/>
    </g>
    <g clip-path="url(#p6f56b7db01)">
     <use style="fill:#1f998a;stroke:#1f998a;" x="74.725851" xlink:href="#C0_0_277317879b" y="76.286275"/>
    </g>
    <g clip-path="url(#p6f56b7db01)">
     <use style="fill:#3c508b;stroke:#3c508b;" x="74.725851" xlink:href="#C0_0_277317879b" y="39.222639"/>
    </g>
    <g clip-path="url(#p6f56b7db01)">
     <use style="fill:#2fb47c;stroke:#2fb47c;" x="93.748578" xlink:href="#C0_0_277317879b" y="113.349911"/>
    </g>
    <g clip-path="url(#p6f56b7db01)">
     <use style="fill:#1e9b8a;stroke:#1e9b8a;" x="93.748578" xlink:href="#C0_0_277317879b" y="39.222639"/>
    </g>
    <g clip-path="url(#p6f56b7db01)">
     <use style="fill:#21918c;stroke:#21918c;" x="112.771306" xlink:href="#C0_0_277317879b" y="150.413548"/>
    </g>
    <g clip-path="url(#p6f56b7db01)">
     <use style="fill:#fde725;stroke:#fde725;" x="112.771306" xlink:href="#C0_0_277317879b" y="113.349911"/>
    </g>
    <g clip-path="url(#p6f56b7db01)">
     <use style="fill:#20938c;stroke:#20938c;" x="112.771306" xlink:href="#C0_0_277317879b" y="39.222639"/>
    </g>
    <g clip-path="url(#p6f56b7db01)">
     <use style="fill:#1fa287;stroke:#1fa287;" x="131.794033" xlink:href="#C0_0_277317879b" y="150.413548"/>
    </g>
    <g clip-path="url(#p6f56b7db01)">
     <use style="fill:#2b758e;stroke:#2b758e;" x="131.794033" xlink:href="#C0_0_277317879b" y="76.286275"/>
    </g>
    <g clip-path="url(#p6f56b7db01)">
     <use style="fill:#fde725;stroke:#fde725;" x="131.794033" xlink:href="#C0_0_277317879b" y="39.222639"/>
    </g>
    <g clip-path="url(#p6f56b7db01)">
     <use style="fill:#9bd93c;stroke:#9bd93c;" x="150.81676" xlink:href="#C0_0_277317879b" y="150.413548"/>
    </g>
    <g clip-path="url(#p6f56b7db01)">
     <use style="fill:#8bd646;stroke:#8bd646;" x="150.81676" xlink:href="#C0_0_277317879b" y="113.349911"/>
    </g>
    <g clip-path="url(#p6f56b7db01)">
     <use style="fill:#6ece58;stroke:#6ece58;" x="150.81676" xlink:href="#C0_0_277317879b" y="76.286275"/>
    </g>
    <g clip-path="url(#p6f56b7db01)">
     <use style="fill:#30698e;stroke:#30698e;" x="150.81676" xlink:href="#C0_0_277317879b" y="39.222639"/>
    </g>
    <g clip-path="url(#p6f56b7db01)">
     <use style="fill:#1f988b;stroke:#1f988b;" x="169.839487" xlink:href="#C0_0_277317879b" y="150.413548"/>
    </g>
    <g clip-path="url(#p6f56b7db01)">
     <use style="fill:#21918c;stroke:#21918c;" x="169.839487" xlink:href="#C0_0_277317879b" y="113.349911"/>
    </g>
    <g clip-path="url(#p6f56b7db01)">
     <use style="fill:#2c728e;stroke:#2c728e;" x="188.862215" xlink:href="#C0_0_277317879b" y="113.349911"/>
    </g>
    <g clip-path="url(#p6f56b7db01)">
     <use style="fill:#1fa088;stroke:#1fa088;" x="188.862215" xlink:href="#C0_0_277317879b" y="76.286275"/>
    </g>
    <g clip-path="url(#p6f56b7db01)">
     <use style="fill:#33638d;stroke:#33638d;" x="188.862215" xlink:href="#C0_0_277317879b" y="39.222639"/>
    </g>
   </g>
   <g id="matplotlib.axis_1">
    <g id="xtick_1">
     <g id="line2d_1">
      <defs>
       <path d="M 0 0 
L 0 3.5 
" id="mb81350716a" style="stroke:#000000;stroke-width:0.8;"/>
      </defs>
      <g>
       <use style="stroke:#000000;stroke-width:0.8;" x="49.982873" xlink:href="#mb81350716a" y="189"/>
      </g>
     </g>
     <g id="text_1">
      <!-- 2 -->
      <g transform="translate(46.801623 203.598437)scale(0.1 -0.1)">
       <defs>
        <path d="M 19.1875 8.296875 
L 53.609375 8.296875 
L 53.609375 0 
L 7.328125 0 
L 7.328125 8.296875 
Q 12.9375 14.109375 22.625 23.890625 
Q 32.328125 33.6875 34.8125 36.53125 
Q 39.546875 41.84375 41.421875 45.53125 
Q 43.3125 49.21875 43.3125 52.78125 
Q 43.3125 58.59375 39.234375 62.25 
Q 35.15625 65.921875 28.609375 65.921875 
Q 23.96875 65.921875 18.8125 64.3125 
Q 13.671875 62.703125 7.8125 59.421875 
L 7.8125 69.390625 
Q 13.765625 71.78125 18.9375 73 
Q 24.125 74.21875 28.421875 74.21875 
Q 39.75 74.21875 46.484375 68.546875 
Q 53.21875 62.890625 53.21875 53.421875 
Q 53.21875 48.921875 51.53125 44.890625 
Q 49.859375 40.875 45.40625 35.40625 
Q 44.1875 33.984375 37.640625 27.21875 
Q 31.109375 20.453125 19.1875 8.296875 
z
" id="DejaVuSans-50"/>
       </defs>
       <use xlink:href="#DejaVuSans-50"/>
      </g>
     </g>
    </g>
    <g id="xtick_2">
     <g id="line2d_2">
      <g>
       <use style="stroke:#000000;stroke-width:0.8;" x="111.548414" xlink:href="#mb81350716a" y="189"/>
      </g>
     </g>
     <g id="text_2">
      <!-- 4 -->
      <g transform="translate(108.367164 203.598437)scale(0.1 -0.1)">
       <defs>
        <path d="M 37.796875 64.3125 
L 12.890625 25.390625 
L 37.796875 25.390625 
z
M 35.203125 72.90625 
L 47.609375 72.90625 
L 47.609375 25.390625 
L 58.015625 25.390625 
L 58.015625 17.1875 
L 47.609375 17.1875 
L 47.609375 0 
L 37.796875 0 
L 37.796875 17.1875 
L 4.890625 17.1875 
L 4.890625 26.703125 
z
" id="DejaVuSans-52"/>
       </defs>
       <use xlink:href="#DejaVuSans-52"/>
      </g>
     </g>
    </g>
    <g id="xtick_3">
     <g id="line2d_3">
      <g>
       <use style="stroke:#000000;stroke-width:0.8;" x="173.113956" xlink:href="#mb81350716a" y="189"/>
      </g>
     </g>
     <g id="text_3">
      <!-- 6 -->
      <g transform="translate(169.932706 203.598437)scale(0.1 -0.1)">
       <defs>
        <path d="M 33.015625 40.375 
Q 26.375 40.375 22.484375 35.828125 
Q 18.609375 31.296875 18.609375 23.390625 
Q 18.609375 15.53125 22.484375 10.953125 
Q 26.375 6.390625 33.015625 6.390625 
Q 39.65625 6.390625 43.53125 10.953125 
Q 47.40625 15.53125 47.40625 23.390625 
Q 47.40625 31.296875 43.53125 35.828125 
Q 39.65625 40.375 33.015625 40.375 
z
M 52.59375 71.296875 
L 52.59375 62.3125 
Q 48.875 64.0625 45.09375 64.984375 
Q 41.3125 65.921875 37.59375 65.921875 
Q 27.828125 65.921875 22.671875 59.328125 
Q 17.53125 52.734375 16.796875 39.40625 
Q 19.671875 43.65625 24.015625 45.921875 
Q 28.375 48.1875 33.59375 48.1875 
Q 44.578125 48.1875 50.953125 41.515625 
Q 57.328125 34.859375 57.328125 23.390625 
Q 57.328125 12.15625 50.6875 5.359375 
Q 44.046875 -1.421875 33.015625 -1.421875 
Q 20.359375 -1.421875 13.671875 8.265625 
Q 6.984375 17.96875 6.984375 36.375 
Q 6.984375 53.65625 15.1875 63.9375 
Q 23.390625 74.21875 37.203125 74.21875 
Q 40.921875 74.21875 44.703125 73.484375 
Q 48.484375 72.75 52.59375 71.296875 
z
" id="DejaVuSans-54"/>
       </defs>
       <use xlink:href="#DejaVuSans-54"/>
      </g>
     </g>
    </g>
   </g>
   <g id="matplotlib.axis_2">
    <g id="ytick_1">
     <g id="line2d_4">
      <defs>
       <path d="M 0 0 
L -3.5 0 
" id="mf12838d917" style="stroke:#000000;stroke-width:0.8;"/>
      </defs>
      <g>
       <use style="stroke:#000000;stroke-width:0.8;" x="27" xlink:href="#mf12838d917" y="168.422763"/>
      </g>
     </g>
     <g id="text_4">
      <!-- 2 -->
      <g transform="translate(13.6375 172.221981)scale(0.1 -0.1)">
       <use xlink:href="#DejaVuSans-50"/>
      </g>
     </g>
    </g>
    <g id="ytick_2">
     <g id="line2d_5">
      <g>
       <use style="stroke:#000000;stroke-width:0.8;" x="27" xlink:href="#mf12838d917" y="138.313191"/>
      </g>
     </g>
     <g id="text_5">
      <!-- 3 -->
      <g transform="translate(13.6375 142.112409)scale(0.1 -0.1)">
       <defs>
        <path d="M 40.578125 39.3125 
Q 47.65625 37.796875 51.625 33 
Q 55.609375 28.21875 55.609375 21.1875 
Q 55.609375 10.40625 48.1875 4.484375 
Q 40.765625 -1.421875 27.09375 -1.421875 
Q 22.515625 -1.421875 17.65625 -0.515625 
Q 12.796875 0.390625 7.625 2.203125 
L 7.625 11.71875 
Q 11.71875 9.328125 16.59375 8.109375 
Q 21.484375 6.890625 26.8125 6.890625 
Q 36.078125 6.890625 40.9375 10.546875 
Q 45.796875 14.203125 45.796875 21.1875 
Q 45.796875 27.640625 41.28125 31.265625 
Q 36.765625 34.90625 28.71875 34.90625 
L 20.21875 34.90625 
L 20.21875 43.015625 
L 29.109375 43.015625 
Q 36.375 43.015625 40.234375 45.921875 
Q 44.09375 48.828125 44.09375 54.296875 
Q 44.09375 59.90625 40.109375 62.90625 
Q 36.140625 65.921875 28.71875 65.921875 
Q 24.65625 65.921875 20.015625 65.03125 
Q 15.375 64.15625 9.8125 62.3125 
L 9.8125 71.09375 
Q 15.4375 72.65625 20.34375 73.4375 
Q 25.25 74.21875 29.59375 74.21875 
Q 40.828125 74.21875 47.359375 69.109375 
Q 53.90625 64.015625 53.90625 55.328125 
Q 53.90625 49.265625 50.4375 45.09375 
Q 46.96875 40.921875 40.578125 39.3125 
z
" id="DejaVuSans-51"/>
       </defs>
       <use xlink:href="#DejaVuSans-51"/>
      </g>
     </g>
    </g>
    <g id="ytick_3">
     <g id="line2d_6">
      <g>
       <use style="stroke:#000000;stroke-width:0.8;" x="27" xlink:href="#mf12838d917" y="108.203618"/>
      </g>
     </g>
     <g id="text_6">
      <!-- 4 -->
      <g transform="translate(13.6375 112.002837)scale(0.1 -0.1)">
       <use xlink:href="#DejaVuSans-52"/>
      </g>
     </g>
    </g>
    <g id="ytick_4">
     <g id="line2d_7">
      <g>
       <use style="stroke:#000000;stroke-width:0.8;" x="27" xlink:href="#mf12838d917" y="78.094046"/>
      </g>
     </g>
     <g id="text_7">
      <!-- 5 -->
      <g transform="translate(13.6375 81.893265)scale(0.1 -0.1)">
       <defs>
        <path d="M 10.796875 72.90625 
L 49.515625 72.90625 
L 49.515625 64.59375 
L 19.828125 64.59375 
L 19.828125 46.734375 
Q 21.96875 47.46875 24.109375 47.828125 
Q 26.265625 48.1875 28.421875 48.1875 
Q 40.625 48.1875 47.75 41.5 
Q 54.890625 34.8125 54.890625 23.390625 
Q 54.890625 11.625 47.5625 5.09375 
Q 40.234375 -1.421875 26.90625 -1.421875 
Q 22.3125 -1.421875 17.546875 -0.640625 
Q 12.796875 0.140625 7.71875 1.703125 
L 7.71875 11.625 
Q 12.109375 9.234375 16.796875 8.0625 
Q 21.484375 6.890625 26.703125 6.890625 
Q 35.15625 6.890625 40.078125 11.328125 
Q 45.015625 15.765625 45.015625 23.390625 
Q 45.015625 31 40.078125 35.4375 
Q 35.15625 39.890625 26.703125 39.890625 
Q 22.75 39.890625 18.8125 39.015625 
Q 14.890625 38.140625 10.796875 36.28125 
z
" id="DejaVuSans-53"/>
       </defs>
       <use xlink:href="#DejaVuSans-53"/>
      </g>
     </g>
    </g>
    <g id="ytick_5">
     <g id="line2d_8">
      <g>
       <use style="stroke:#000000;stroke-width:0.8;" x="27" xlink:href="#mf12838d917" y="47.984474"/>
      </g>
     </g>
     <g id="text_8">
      <!-- 6 -->
      <g transform="translate(13.6375 51.783693)scale(0.1 -0.1)">
       <use xlink:href="#DejaVuSans-54"/>
      </g>
     </g>
    </g>
   </g>
   <g id="patch_3">
    <path d="M 27 189 
L 27 25.92 
" style="fill:none;stroke:#000000;stroke-linecap:square;stroke-linejoin:miter;stroke-width:0.8;"/>
   </g>
   <g id="patch_4">
    <path d="M 194.4 189 
L 194.4 25.92 
" style="fill:none;stroke:#000000;stroke-linecap:square;stroke-linejoin:miter;stroke-width:0.8;"/>
   </g>
   <g id="patch_5">
    <path d="M 27 189 
L 194.4 189 
" style="fill:none;stroke:#000000;stroke-linecap:square;stroke-linejoin:miter;stroke-width:0.8;"/>
   </g>
   <g id="patch_6">
    <path d="M 27 25.92 
L 194.4 25.92 
" style="fill:none;stroke:#000000;stroke-linecap:square;stroke-linejoin:miter;stroke-width:0.8;"/>
   </g>
  </g>
 </g>
 <defs>
  <clipPath id="p6f56b7db01">
   <rect height="163.08" width="167.4" x="27" y="25.92"/>
  </clipPath>
 </defs>
</svg>
