<?xml version="1.0" encoding="utf-8" standalone="no"?>
<!DOCTYPE svg PUBLIC "-//W3C//DTD SVG 1.1//EN"
  "http://www.w3.org/Graphics/SVG/1.1/DTD/svg11.dtd">
<!-- Created with matplotlib (https://matplotlib.org/) -->
<svg height="216pt" version="1.1" viewBox="0 0 216 216" width="216pt" xmlns="http://www.w3.org/2000/svg" xmlns:xlink="http://www.w3.org/1999/xlink">
 <metadata>
  <rdf:RDF xmlns:cc="http://creativecommons.org/ns#" xmlns:dc="http://purl.org/dc/elements/1.1/" xmlns:rdf="http://www.w3.org/1999/02/22-rdf-syntax-ns#">
   <cc:Work>
    <dc:type rdf:resource="http://purl.org/dc/dcmitype/StillImage"/>
    <dc:date>2020-10-07T02:01:15.523161</dc:date>
    <dc:format>image/svg+xml</dc:format>
    <dc:creator>
     <cc:Agent>
      <dc:title>Matplotlib v3.3.1, https://matplotlib.org/</dc:title>
     </cc:Agent>
    </dc:creator>
   </cc:Work>
  </rdf:RDF>
 </metadata>
 <defs>
  <style type="text/css">*{stroke-linecap:butt;stroke-linejoin:round;}</style>
 </defs>
 <g id="figure_1">
  <g id="patch_1">
   <path d="M 0 216 
L 216 216 
L 216 0 
L 0 0 
z
" style="fill:#ffffff;"/>
  </g>
  <g id="axes_1">
   <g id="patch_2">
    <path d="M 48.71 169.54 
L 203.04 169.54 
L 203.04 12.96 
L 48.71 12.96 
z
" style="fill:#eaeaf2;"/>
   </g>
   <g id="matplotlib.axis_1">
    <g id="xtick_1">
     <g id="text_1">
      <!-- Thur -->
      <g style="fill:#262626;" transform="translate(56.693594 186.913594)scale(0.11 -0.11)">
       <defs>
        <path d="M 25.921875 0 
L 25.921875 63.140625 
L 2.34375 63.140625 
L 2.34375 71.578125 
L 59.078125 71.578125 
L 59.078125 63.140625 
L 35.40625 63.140625 
L 35.40625 0 
z
" id="ArialMT-84"/>
        <path d="M 6.59375 0 
L 6.59375 71.578125 
L 15.375 71.578125 
L 15.375 45.90625 
Q 21.53125 53.03125 30.90625 53.03125 
Q 36.671875 53.03125 40.921875 50.75 
Q 45.171875 48.484375 47 44.484375 
Q 48.828125 40.484375 48.828125 32.859375 
L 48.828125 0 
L 40.046875 0 
L 40.046875 32.859375 
Q 40.046875 39.453125 37.1875 42.453125 
Q 34.328125 45.453125 29.109375 45.453125 
Q 25.203125 45.453125 21.75 43.421875 
Q 18.3125 41.40625 16.84375 37.9375 
Q 15.375 34.46875 15.375 28.375 
L 15.375 0 
z
" id="ArialMT-104"/>
        <path d="M 40.578125 0 
L 40.578125 7.625 
Q 34.515625 -1.171875 24.125 -1.171875 
Q 19.53125 -1.171875 15.546875 0.578125 
Q 11.578125 2.34375 9.640625 5 
Q 7.71875 7.671875 6.9375 11.53125 
Q 6.390625 14.109375 6.390625 19.734375 
L 6.390625 51.859375 
L 15.1875 51.859375 
L 15.1875 23.09375 
Q 15.1875 16.21875 15.71875 13.8125 
Q 16.546875 10.359375 19.234375 8.375 
Q 21.921875 6.390625 25.875 6.390625 
Q 29.828125 6.390625 33.296875 8.421875 
Q 36.765625 10.453125 38.203125 13.9375 
Q 39.65625 17.4375 39.65625 24.078125 
L 39.65625 51.859375 
L 48.4375 51.859375 
L 48.4375 0 
z
" id="ArialMT-117"/>
        <path d="M 6.5 0 
L 6.5 51.859375 
L 14.40625 51.859375 
L 14.40625 44 
Q 17.4375 49.515625 20 51.265625 
Q 22.5625 53.03125 25.640625 53.03125 
Q 30.078125 53.03125 34.671875 50.203125 
L 31.640625 42.046875 
Q 28.421875 43.953125 25.203125 43.953125 
Q 22.3125 43.953125 20.015625 42.21875 
Q 17.71875 40.484375 16.75 37.40625 
Q 15.28125 32.71875 15.28125 27.15625 
L 15.28125 0 
z
" id="ArialMT-114"/>
       </defs>
       <use xlink:href="#ArialMT-84"/>
       <use x="61.083984" xlink:href="#ArialMT-104"/>
       <use x="116.699219" xlink:href="#ArialMT-117"/>
       <use x="172.314453" xlink:href="#ArialMT-114"/>
      </g>
     </g>
    </g>
    <g id="xtick_2">
     <g id="text_2">
      <!-- Fri -->
      <g style="fill:#262626;" transform="translate(100.171094 186.913594)scale(0.11 -0.11)">
       <defs>
        <path d="M 8.203125 0 
L 8.203125 71.578125 
L 56.5 71.578125 
L 56.5 63.140625 
L 17.671875 63.140625 
L 17.671875 40.96875 
L 51.265625 40.96875 
L 51.265625 32.515625 
L 17.671875 32.515625 
L 17.671875 0 
z
" id="ArialMT-70"/>
        <path d="M 6.640625 61.46875 
L 6.640625 71.578125 
L 15.4375 71.578125 
L 15.4375 61.46875 
z
M 6.640625 0 
L 6.640625 51.859375 
L 15.4375 51.859375 
L 15.4375 0 
z
" id="ArialMT-105"/>
       </defs>
       <use xlink:href="#ArialMT-70"/>
       <use x="61.083984" xlink:href="#ArialMT-114"/>
       <use x="94.384766" xlink:href="#ArialMT-105"/>
      </g>
     </g>
    </g>
    <g id="xtick_3">
     <g id="text_3">
      <!-- Sat -->
      <g style="fill:#262626;" transform="translate(136.911094 186.913594)scale(0.11 -0.11)">
       <defs>
        <path d="M 4.5 23 
L 13.421875 23.78125 
Q 14.0625 18.40625 16.375 14.96875 
Q 18.703125 11.53125 23.578125 9.40625 
Q 28.46875 7.28125 34.578125 7.28125 
Q 39.984375 7.28125 44.140625 8.890625 
Q 48.296875 10.5 50.3125 13.296875 
Q 52.34375 16.109375 52.34375 19.4375 
Q 52.34375 22.796875 50.390625 25.3125 
Q 48.4375 27.828125 43.953125 29.546875 
Q 41.0625 30.671875 31.203125 33.03125 
Q 21.34375 35.40625 17.390625 37.5 
Q 12.25 40.1875 9.734375 44.15625 
Q 7.234375 48.140625 7.234375 53.078125 
Q 7.234375 58.5 10.296875 63.203125 
Q 13.375 67.921875 19.28125 70.359375 
Q 25.203125 72.796875 32.421875 72.796875 
Q 40.375 72.796875 46.453125 70.234375 
Q 52.546875 67.671875 55.8125 62.6875 
Q 59.078125 57.71875 59.328125 51.421875 
L 50.25 50.734375 
Q 49.515625 57.515625 45.28125 60.984375 
Q 41.0625 64.453125 32.8125 64.453125 
Q 24.21875 64.453125 20.28125 61.296875 
Q 16.359375 58.15625 16.359375 53.71875 
Q 16.359375 49.859375 19.140625 47.359375 
Q 21.875 44.875 33.421875 42.265625 
Q 44.96875 39.65625 49.265625 37.703125 
Q 55.515625 34.8125 58.484375 30.390625 
Q 61.46875 25.984375 61.46875 20.21875 
Q 61.46875 14.5 58.203125 9.4375 
Q 54.9375 4.390625 48.796875 1.578125 
Q 42.671875 -1.21875 35.015625 -1.21875 
Q 25.296875 -1.21875 18.71875 1.609375 
Q 12.15625 4.4375 8.421875 10.125 
Q 4.6875 15.828125 4.5 23 
z
" id="ArialMT-83"/>
        <path d="M 40.4375 6.390625 
Q 35.546875 2.25 31.03125 0.53125 
Q 26.515625 -1.171875 21.34375 -1.171875 
Q 12.796875 -1.171875 8.203125 3 
Q 3.609375 7.171875 3.609375 13.671875 
Q 3.609375 17.484375 5.34375 20.625 
Q 7.078125 23.78125 9.890625 25.6875 
Q 12.703125 27.59375 16.21875 28.5625 
Q 18.796875 29.25 24.03125 29.890625 
Q 34.671875 31.15625 39.703125 32.90625 
Q 39.75 34.71875 39.75 35.203125 
Q 39.75 40.578125 37.25 42.78125 
Q 33.890625 45.75 27.25 45.75 
Q 21.046875 45.75 18.09375 43.578125 
Q 15.140625 41.40625 13.71875 35.890625 
L 5.125 37.0625 
Q 6.296875 42.578125 8.984375 45.96875 
Q 11.671875 49.359375 16.75 51.1875 
Q 21.828125 53.03125 28.515625 53.03125 
Q 35.15625 53.03125 39.296875 51.46875 
Q 43.453125 49.90625 45.40625 47.53125 
Q 47.359375 45.171875 48.140625 41.546875 
Q 48.578125 39.3125 48.578125 33.453125 
L 48.578125 21.734375 
Q 48.578125 9.46875 49.140625 6.21875 
Q 49.703125 2.984375 51.375 0 
L 42.1875 0 
Q 40.828125 2.734375 40.4375 6.390625 
z
M 39.703125 26.03125 
Q 34.90625 24.078125 25.34375 22.703125 
Q 19.921875 21.921875 17.671875 20.9375 
Q 15.4375 19.96875 14.203125 18.09375 
Q 12.984375 16.21875 12.984375 13.921875 
Q 12.984375 10.40625 15.640625 8.0625 
Q 18.3125 5.71875 23.4375 5.71875 
Q 28.515625 5.71875 32.46875 7.9375 
Q 36.421875 10.15625 38.28125 14.015625 
Q 39.703125 17 39.703125 22.796875 
z
" id="ArialMT-97"/>
        <path d="M 25.78125 7.859375 
L 27.046875 0.09375 
Q 23.34375 -0.6875 20.40625 -0.6875 
Q 15.625 -0.6875 12.984375 0.828125 
Q 10.359375 2.34375 9.28125 4.8125 
Q 8.203125 7.28125 8.203125 15.1875 
L 8.203125 45.015625 
L 1.765625 45.015625 
L 1.765625 51.859375 
L 8.203125 51.859375 
L 8.203125 64.703125 
L 16.9375 69.96875 
L 16.9375 51.859375 
L 25.78125 51.859375 
L 25.78125 45.015625 
L 16.9375 45.015625 
L 16.9375 14.703125 
Q 16.9375 10.9375 17.40625 9.859375 
Q 17.875 8.796875 18.921875 8.15625 
Q 19.96875 7.515625 21.921875 7.515625 
Q 23.390625 7.515625 25.78125 7.859375 
z
" id="ArialMT-116"/>
       </defs>
       <use xlink:href="#ArialMT-83"/>
       <use x="66.699219" xlink:href="#ArialMT-97"/>
       <use x="122.314453" xlink:href="#ArialMT-116"/>
      </g>
     </g>
    </g>
    <g id="xtick_4">
     <g id="text_4">
      <!-- Sun -->
      <g style="fill:#262626;" transform="translate(173.963047 186.913594)scale(0.11 -0.11)">
       <defs>
        <path d="M 6.59375 0 
L 6.59375 51.859375 
L 14.5 51.859375 
L 14.5 44.484375 
Q 20.21875 53.03125 31 53.03125 
Q 35.6875 53.03125 39.625 51.34375 
Q 43.5625 49.65625 45.515625 46.921875 
Q 47.46875 44.1875 48.25 40.4375 
Q 48.734375 37.984375 48.734375 31.890625 
L 48.734375 0 
L 39.9375 0 
L 39.9375 31.546875 
Q 39.9375 36.921875 38.90625 39.578125 
Q 37.890625 42.234375 35.28125 43.8125 
Q 32.671875 45.40625 29.15625 45.40625 
Q 23.53125 45.40625 19.453125 41.84375 
Q 15.375 38.28125 15.375 28.328125 
L 15.375 0 
z
" id="ArialMT-110"/>
       </defs>
       <use xlink:href="#ArialMT-83"/>
       <use x="66.699219" xlink:href="#ArialMT-117"/>
       <use x="122.314453" xlink:href="#ArialMT-110"/>
      </g>
     </g>
    </g>
    <g id="text_5">
     <!-- day -->
     <g style="fill:#262626;" transform="translate(116.201875 201.689219)scale(0.12 -0.12)">
      <defs>
       <path d="M 40.234375 0 
L 40.234375 6.546875 
Q 35.296875 -1.171875 25.734375 -1.171875 
Q 19.53125 -1.171875 14.328125 2.25 
Q 9.125 5.671875 6.265625 11.796875 
Q 3.421875 17.921875 3.421875 25.875 
Q 3.421875 33.640625 6 39.96875 
Q 8.59375 46.296875 13.765625 49.65625 
Q 18.953125 53.03125 25.34375 53.03125 
Q 30.03125 53.03125 33.6875 51.046875 
Q 37.359375 49.078125 39.65625 45.90625 
L 39.65625 71.578125 
L 48.390625 71.578125 
L 48.390625 0 
z
M 12.453125 25.875 
Q 12.453125 15.921875 16.640625 10.984375 
Q 20.84375 6.0625 26.5625 6.0625 
Q 32.328125 6.0625 36.34375 10.765625 
Q 40.375 15.484375 40.375 25.140625 
Q 40.375 35.796875 36.265625 40.765625 
Q 32.171875 45.75 26.171875 45.75 
Q 20.3125 45.75 16.375 40.96875 
Q 12.453125 36.1875 12.453125 25.875 
z
" id="ArialMT-100"/>
       <path d="M 6.203125 -19.96875 
L 5.21875 -11.71875 
Q 8.109375 -12.5 10.25 -12.5 
Q 13.1875 -12.5 14.9375 -11.515625 
Q 16.703125 -10.546875 17.828125 -8.796875 
Q 18.65625 -7.46875 20.515625 -2.25 
Q 20.75 -1.515625 21.296875 -0.09375 
L 1.609375 51.859375 
L 11.078125 51.859375 
L 21.875 21.828125 
Q 23.96875 16.109375 25.640625 9.8125 
Q 27.15625 15.875 29.25 21.625 
L 40.328125 51.859375 
L 49.125 51.859375 
L 29.390625 -0.875 
Q 26.21875 -9.421875 24.46875 -12.640625 
Q 22.125 -17 19.09375 -19.015625 
Q 16.0625 -21.046875 11.859375 -21.046875 
Q 9.328125 -21.046875 6.203125 -19.96875 
z
" id="ArialMT-121"/>
      </defs>
      <use xlink:href="#ArialMT-100"/>
      <use x="55.615234" xlink:href="#ArialMT-97"/>
      <use x="111.230469" xlink:href="#ArialMT-121"/>
     </g>
    </g>
   </g>
   <g id="matplotlib.axis_2">
    <g id="ytick_1">
     <g id="line2d_1">
      <path clip-path="url(#p4b4d36bebc)" d="M 48.71 151.866304 
L 203.04 151.866304 
" style="fill:none;stroke:#ffffff;stroke-linecap:round;"/>
     </g>
     <g id="text_6">
      <!-- 0 -->
      <g style="fill:#262626;" transform="translate(33.092969 155.8031)scale(0.11 -0.11)">
       <defs>
        <path d="M 4.15625 35.296875 
Q 4.15625 48 6.765625 55.734375 
Q 9.375 63.484375 14.515625 67.671875 
Q 19.671875 71.875 27.484375 71.875 
Q 33.25 71.875 37.59375 69.546875 
Q 41.9375 67.234375 44.765625 62.859375 
Q 47.609375 58.5 49.21875 52.21875 
Q 50.828125 45.953125 50.828125 35.296875 
Q 50.828125 22.703125 48.234375 14.96875 
Q 45.65625 7.234375 40.5 3 
Q 35.359375 -1.21875 27.484375 -1.21875 
Q 17.140625 -1.21875 11.234375 6.203125 
Q 4.15625 15.140625 4.15625 35.296875 
z
M 13.1875 35.296875 
Q 13.1875 17.671875 17.3125 11.828125 
Q 21.4375 6 27.484375 6 
Q 33.546875 6 37.671875 11.859375 
Q 41.796875 17.71875 41.796875 35.296875 
Q 41.796875 52.984375 37.671875 58.78125 
Q 33.546875 64.59375 27.390625 64.59375 
Q 21.34375 64.59375 17.71875 59.46875 
Q 13.1875 52.9375 13.1875 35.296875 
z
" id="ArialMT-48"/>
       </defs>
       <use xlink:href="#ArialMT-48"/>
      </g>
     </g>
    </g>
    <g id="ytick_2">
     <g id="line2d_2">
      <path clip-path="url(#p4b4d36bebc)" d="M 48.71 129.36582 
L 203.04 129.36582 
" style="fill:none;stroke:#ffffff;stroke-linecap:round;"/>
     </g>
     <g id="text_7">
      <!-- 10 -->
      <g style="fill:#262626;" transform="translate(26.975938 133.302617)scale(0.11 -0.11)">
       <defs>
        <path d="M 37.25 0 
L 28.46875 0 
L 28.46875 56 
Q 25.296875 52.984375 20.140625 49.953125 
Q 14.984375 46.921875 10.890625 45.40625 
L 10.890625 53.90625 
Q 18.265625 57.375 23.78125 62.296875 
Q 29.296875 67.234375 31.59375 71.875 
L 37.25 71.875 
z
" id="ArialMT-49"/>
       </defs>
       <use xlink:href="#ArialMT-49"/>
       <use x="55.615234" xlink:href="#ArialMT-48"/>
      </g>
     </g>
    </g>
    <g id="ytick_3">
     <g id="line2d_3">
      <path clip-path="url(#p4b4d36bebc)" d="M 48.71 106.865336 
L 203.04 106.865336 
" style="fill:none;stroke:#ffffff;stroke-linecap:round;"/>
     </g>
     <g id="text_8">
      <!-- 20 -->
      <g style="fill:#262626;" transform="translate(26.975938 110.802133)scale(0.11 -0.11)">
       <defs>
        <path d="M 50.34375 8.453125 
L 50.34375 0 
L 3.03125 0 
Q 2.9375 3.171875 4.046875 6.109375 
Q 5.859375 10.9375 9.828125 15.625 
Q 13.8125 20.3125 21.34375 26.46875 
Q 33.015625 36.03125 37.109375 41.625 
Q 41.21875 47.21875 41.21875 52.203125 
Q 41.21875 57.421875 37.46875 61 
Q 33.734375 64.59375 27.734375 64.59375 
Q 21.390625 64.59375 17.578125 60.78125 
Q 13.765625 56.984375 13.71875 50.25 
L 4.6875 51.171875 
Q 5.609375 61.28125 11.65625 66.578125 
Q 17.71875 71.875 27.9375 71.875 
Q 38.234375 71.875 44.234375 66.15625 
Q 50.25 60.453125 50.25 52 
Q 50.25 47.703125 48.484375 43.546875 
Q 46.734375 39.40625 42.65625 34.8125 
Q 38.578125 30.21875 29.109375 22.21875 
Q 21.1875 15.578125 18.9375 13.203125 
Q 16.703125 10.84375 15.234375 8.453125 
z
" id="ArialMT-50"/>
       </defs>
       <use xlink:href="#ArialMT-50"/>
       <use x="55.615234" xlink:href="#ArialMT-48"/>
      </g>
     </g>
    </g>
    <g id="ytick_4">
     <g id="line2d_4">
      <path clip-path="url(#p4b4d36bebc)" d="M 48.71 84.364852 
L 203.04 84.364852 
" style="fill:none;stroke:#ffffff;stroke-linecap:round;"/>
     </g>
     <g id="text_9">
      <!-- 30 -->
      <g style="fill:#262626;" transform="translate(26.975938 88.301649)scale(0.11 -0.11)">
       <defs>
        <path d="M 4.203125 18.890625 
L 12.984375 20.0625 
Q 14.5 12.59375 18.140625 9.296875 
Q 21.78125 6 27 6 
Q 33.203125 6 37.46875 10.296875 
Q 41.75 14.59375 41.75 20.953125 
Q 41.75 27 37.796875 30.921875 
Q 33.84375 34.859375 27.734375 34.859375 
Q 25.25 34.859375 21.53125 33.890625 
L 22.515625 41.609375 
Q 23.390625 41.5 23.921875 41.5 
Q 29.546875 41.5 34.03125 44.421875 
Q 38.53125 47.359375 38.53125 53.46875 
Q 38.53125 58.296875 35.25 61.46875 
Q 31.984375 64.65625 26.8125 64.65625 
Q 21.6875 64.65625 18.265625 61.421875 
Q 14.84375 58.203125 13.875 51.765625 
L 5.078125 53.328125 
Q 6.6875 62.15625 12.390625 67.015625 
Q 18.109375 71.875 26.609375 71.875 
Q 32.46875 71.875 37.390625 69.359375 
Q 42.328125 66.84375 44.9375 62.5 
Q 47.5625 58.15625 47.5625 53.265625 
Q 47.5625 48.640625 45.0625 44.828125 
Q 42.578125 41.015625 37.703125 38.765625 
Q 44.046875 37.3125 47.5625 32.6875 
Q 51.078125 28.078125 51.078125 21.140625 
Q 51.078125 11.765625 44.234375 5.25 
Q 37.40625 -1.265625 26.953125 -1.265625 
Q 17.53125 -1.265625 11.296875 4.34375 
Q 5.078125 9.96875 4.203125 18.890625 
z
" id="ArialMT-51"/>
       </defs>
       <use xlink:href="#ArialMT-51"/>
       <use x="55.615234" xlink:href="#ArialMT-48"/>
      </g>
     </g>
    </g>
    <g id="ytick_5">
     <g id="line2d_5">
      <path clip-path="url(#p4b4d36bebc)" d="M 48.71 61.864368 
L 203.04 61.864368 
" style="fill:none;stroke:#ffffff;stroke-linecap:round;"/>
     </g>
     <g id="text_10">
      <!-- 40 -->
      <g style="fill:#262626;" transform="translate(26.975938 65.801165)scale(0.11 -0.11)">
       <defs>
        <path d="M 32.328125 0 
L 32.328125 17.140625 
L 1.265625 17.140625 
L 1.265625 25.203125 
L 33.9375 71.578125 
L 41.109375 71.578125 
L 41.109375 25.203125 
L 50.78125 25.203125 
L 50.78125 17.140625 
L 41.109375 17.140625 
L 41.109375 0 
z
M 32.328125 25.203125 
L 32.328125 57.46875 
L 9.90625 25.203125 
z
" id="ArialMT-52"/>
       </defs>
       <use xlink:href="#ArialMT-52"/>
       <use x="55.615234" xlink:href="#ArialMT-48"/>
      </g>
     </g>
    </g>
    <g id="ytick_6">
     <g id="line2d_6">
      <path clip-path="url(#p4b4d36bebc)" d="M 48.71 39.363884 
L 203.04 39.363884 
" style="fill:none;stroke:#ffffff;stroke-linecap:round;"/>
     </g>
     <g id="text_11">
      <!-- 50 -->
      <g style="fill:#262626;" transform="translate(26.975938 43.300681)scale(0.11 -0.11)">
       <defs>
        <path d="M 4.15625 18.75 
L 13.375 19.53125 
Q 14.40625 12.796875 18.140625 9.390625 
Q 21.875 6 27.15625 6 
Q 33.5 6 37.890625 10.78125 
Q 42.28125 15.578125 42.28125 23.484375 
Q 42.28125 31 38.0625 35.34375 
Q 33.84375 39.703125 27 39.703125 
Q 22.75 39.703125 19.328125 37.765625 
Q 15.921875 35.84375 13.96875 32.765625 
L 5.71875 33.84375 
L 12.640625 70.609375 
L 48.25 70.609375 
L 48.25 62.203125 
L 19.671875 62.203125 
L 15.828125 42.96875 
Q 22.265625 47.46875 29.34375 47.46875 
Q 38.71875 47.46875 45.15625 40.96875 
Q 51.609375 34.46875 51.609375 24.265625 
Q 51.609375 14.546875 45.953125 7.46875 
Q 39.0625 -1.21875 27.15625 -1.21875 
Q 17.390625 -1.21875 11.203125 4.25 
Q 5.03125 9.71875 4.15625 18.75 
z
" id="ArialMT-53"/>
       </defs>
       <use xlink:href="#ArialMT-53"/>
       <use x="55.615234" xlink:href="#ArialMT-48"/>
      </g>
     </g>
    </g>
    <g id="ytick_7">
     <g id="line2d_7">
      <path clip-path="url(#p4b4d36bebc)" d="M 48.71 16.8634 
L 203.04 16.8634 
" style="fill:none;stroke:#ffffff;stroke-linecap:round;"/>
     </g>
     <g id="text_12">
      <!-- 60 -->
      <g style="fill:#262626;" transform="translate(26.975938 20.800197)scale(0.11 -0.11)">
       <defs>
        <path d="M 49.75 54.046875 
L 41.015625 53.375 
Q 39.84375 58.546875 37.703125 60.890625 
Q 34.125 64.65625 28.90625 64.65625 
Q 24.703125 64.65625 21.53125 62.3125 
Q 17.390625 59.28125 14.984375 53.46875 
Q 12.59375 47.65625 12.5 36.921875 
Q 15.671875 41.75 20.265625 44.09375 
Q 24.859375 46.4375 29.890625 46.4375 
Q 38.671875 46.4375 44.84375 39.96875 
Q 51.03125 33.5 51.03125 23.25 
Q 51.03125 16.5 48.125 10.71875 
Q 45.21875 4.9375 40.140625 1.859375 
Q 35.0625 -1.21875 28.609375 -1.21875 
Q 17.625 -1.21875 10.6875 6.859375 
Q 3.765625 14.9375 3.765625 33.5 
Q 3.765625 54.25 11.421875 63.671875 
Q 18.109375 71.875 29.4375 71.875 
Q 37.890625 71.875 43.28125 67.140625 
Q 48.6875 62.40625 49.75 54.046875 
z
M 13.875 23.1875 
Q 13.875 18.65625 15.796875 14.5 
Q 17.71875 10.359375 21.1875 8.171875 
Q 24.65625 6 28.46875 6 
Q 34.03125 6 38.03125 10.484375 
Q 42.046875 14.984375 42.046875 22.703125 
Q 42.046875 30.125 38.078125 34.390625 
Q 34.125 38.671875 28.125 38.671875 
Q 22.171875 38.671875 18.015625 34.390625 
Q 13.875 30.125 13.875 23.1875 
z
" id="ArialMT-54"/>
       </defs>
       <use xlink:href="#ArialMT-54"/>
       <use x="55.615234" xlink:href="#ArialMT-48"/>
      </g>
     </g>
    </g>
    <g id="text_13">
     <!-- total_bill -->
     <g style="fill:#262626;" transform="translate(20.590937 113.2625)rotate(-90)scale(0.12 -0.12)">
      <defs>
       <path d="M 3.328125 25.921875 
Q 3.328125 40.328125 11.328125 47.265625 
Q 18.015625 53.03125 27.640625 53.03125 
Q 38.328125 53.03125 45.109375 46.015625 
Q 51.90625 39.015625 51.90625 26.65625 
Q 51.90625 16.65625 48.90625 10.90625 
Q 45.90625 5.171875 40.15625 2 
Q 34.421875 -1.171875 27.640625 -1.171875 
Q 16.75 -1.171875 10.03125 5.8125 
Q 3.328125 12.796875 3.328125 25.921875 
z
M 12.359375 25.921875 
Q 12.359375 15.96875 16.703125 11.015625 
Q 21.046875 6.0625 27.640625 6.0625 
Q 34.1875 6.0625 38.53125 11.03125 
Q 42.875 16.015625 42.875 26.21875 
Q 42.875 35.84375 38.5 40.796875 
Q 34.125 45.75 27.640625 45.75 
Q 21.046875 45.75 16.703125 40.8125 
Q 12.359375 35.890625 12.359375 25.921875 
z
" id="ArialMT-111"/>
       <path d="M 6.390625 0 
L 6.390625 71.578125 
L 15.1875 71.578125 
L 15.1875 0 
z
" id="ArialMT-108"/>
       <path d="M -1.515625 -19.875 
L -1.515625 -13.53125 
L 56.734375 -13.53125 
L 56.734375 -19.875 
z
" id="ArialMT-95"/>
       <path d="M 14.703125 0 
L 6.546875 0 
L 6.546875 71.578125 
L 15.328125 71.578125 
L 15.328125 46.046875 
Q 20.90625 53.03125 29.546875 53.03125 
Q 34.328125 53.03125 38.59375 51.09375 
Q 42.875 49.171875 45.625 45.671875 
Q 48.390625 42.1875 49.953125 37.25 
Q 51.515625 32.328125 51.515625 26.703125 
Q 51.515625 13.375 44.921875 6.09375 
Q 38.328125 -1.171875 29.109375 -1.171875 
Q 19.921875 -1.171875 14.703125 6.5 
z
M 14.59375 26.3125 
Q 14.59375 17 17.140625 12.84375 
Q 21.296875 6.0625 28.375 6.0625 
Q 34.125 6.0625 38.328125 11.0625 
Q 42.53125 16.0625 42.53125 25.984375 
Q 42.53125 36.140625 38.5 40.96875 
Q 34.46875 45.796875 28.765625 45.796875 
Q 23 45.796875 18.796875 40.796875 
Q 14.59375 35.796875 14.59375 26.3125 
z
" id="ArialMT-98"/>
      </defs>
      <use xlink:href="#ArialMT-116"/>
      <use x="27.783203" xlink:href="#ArialMT-111"/>
      <use x="83.398438" xlink:href="#ArialMT-116"/>
      <use x="111.181641" xlink:href="#ArialMT-97"/>
      <use x="166.796875" xlink:href="#ArialMT-108"/>
      <use x="189.013672" xlink:href="#ArialMT-95"/>
      <use x="244.628906" xlink:href="#ArialMT-98"/>
      <use x="300.244141" xlink:href="#ArialMT-105"/>
      <use x="322.460938" xlink:href="#ArialMT-108"/>
      <use x="344.677734" xlink:href="#ArialMT-108"/>
     </g>
    </g>
   </g>
   <g id="PolyCollection_1">
    <defs>
     <path d="M 68.316091 -65.485882 
L 67.686409 -65.485882 
L 67.564724 -66.609044 
L 67.406423 -67.732207 
L 67.204411 -68.855369 
L 66.951478 -69.978531 
L 66.640684 -71.101694 
L 66.265816 -72.224856 
L 65.821873 -73.348019 
L 65.305551 -74.471181 
L 64.715686 -75.594343 
L 64.053617 -76.717506 
L 63.323428 -77.840668 
L 62.532051 -78.963831 
L 61.689199 -80.086993 
L 60.807145 -81.210156 
L 59.900331 -82.333318 
L 58.98484 -83.45648 
L 58.077753 -84.579643 
L 57.196426 -85.702805 
L 56.35774 -86.825968 
L 55.577381 -87.94913 
L 54.8692 -89.072292 
L 54.244706 -90.195455 
L 53.712754 -91.318617 
L 53.279439 -92.44178 
L 52.948193 -93.564942 
L 52.720083 -94.688104 
L 52.594223 -95.811267 
L 52.56825 -96.934429 
L 52.638773 -98.057592 
L 52.80172 -99.180754 
L 53.052533 -100.303917 
L 53.386198 -101.427079 
L 53.797115 -102.550241 
L 54.278867 -103.673404 
L 54.823961 -104.796566 
L 55.423617 -105.919729 
L 56.067682 -107.042891 
L 56.744724 -108.166053 
L 57.442306 -109.289216 
L 58.147451 -110.412378 
L 58.84722 -111.535541 
L 59.529362 -112.658703 
L 60.182941 -113.781865 
L 60.798871 -114.905028 
L 61.370304 -116.02819 
L 61.89283 -117.151353 
L 62.364482 -118.274515 
L 62.785545 -119.397678 
L 63.158224 -120.52084 
L 63.486191 -121.644002 
L 63.774086 -122.767165 
L 64.027011 -123.890327 
L 64.250083 -125.01349 
L 64.448071 -126.136652 
L 64.625159 -127.259814 
L 64.784842 -128.382977 
L 64.92994 -129.506139 
L 65.062719 -130.629302 
L 65.185071 -131.752464 
L 65.298715 -132.875626 
L 65.405364 -133.998789 
L 65.506821 -135.121951 
L 65.604986 -136.245114 
L 65.701758 -137.368276 
L 65.798855 -138.491439 
L 65.897592 -139.614601 
L 65.998659 -140.737763 
L 66.101947 -141.860926 
L 66.206477 -142.984088 
L 66.310457 -144.107251 
L 66.411461 -145.230413 
L 66.506728 -146.353575 
L 66.593535 -147.476738 
L 66.669585 -148.5999 
L 66.73336 -149.723063 
L 66.784379 -150.846225 
L 66.823329 -151.969387 
L 66.852031 -153.09255 
L 66.873273 -154.215712 
L 66.890506 -155.338875 
L 66.90747 -156.462037 
L 66.927785 -157.585199 
L 66.954569 -158.708362 
L 66.990132 -159.831524 
L 67.035779 -160.954687 
L 67.09173 -162.077849 
L 67.157175 -163.201012 
L 67.230433 -164.324174 
L 67.309184 -165.447336 
L 67.390752 -166.570499 
L 67.472383 -167.693661 
L 67.5515 -168.816824 
L 67.625902 -169.939986 
L 67.693897 -171.063148 
L 67.754359 -172.186311 
L 67.806724 -173.309473 
L 67.850935 -174.432636 
L 67.887346 -175.555798 
L 67.916615 -176.67896 
L 68.085885 -176.67896 
L 68.085885 -176.67896 
L 68.115154 -175.555798 
L 68.151565 -174.432636 
L 68.195776 -173.309473 
L 68.248141 -172.186311 
L 68.308603 -171.063148 
L 68.376598 -169.939986 
L 68.451 -168.816824 
L 68.530117 -167.693661 
L 68.611748 -166.570499 
L 68.693316 -165.447336 
L 68.772067 -164.324174 
L 68.845325 -163.201012 
L 68.91077 -162.077849 
L 68.966721 -160.954687 
L 69.012368 -159.831524 
L 69.047931 -158.708362 
L 69.074715 -157.585199 
L 69.09503 -156.462037 
L 69.111994 -155.338875 
L 69.129227 -154.215712 
L 69.150469 -153.09255 
L 69.179171 -151.969387 
L 69.218121 -150.846225 
L 69.26914 -149.723063 
L 69.332915 -148.5999 
L 69.408965 -147.476738 
L 69.495772 -146.353575 
L 69.591039 -145.230413 
L 69.692043 -144.107251 
L 69.796023 -142.984088 
L 69.900553 -141.860926 
L 70.003841 -140.737763 
L 70.104908 -139.614601 
L 70.203645 -138.491439 
L 70.300742 -137.368276 
L 70.397514 -136.245114 
L 70.495679 -135.121951 
L 70.597136 -133.998789 
L 70.703785 -132.875626 
L 70.817429 -131.752464 
L 70.939781 -130.629302 
L 71.07256 -129.506139 
L 71.217658 -128.382977 
L 71.377341 -127.259814 
L 71.554429 -126.136652 
L 71.752417 -125.01349 
L 71.975489 -123.890327 
L 72.228414 -122.767165 
L 72.516309 -121.644002 
L 72.844276 -120.52084 
L 73.216955 -119.397678 
L 73.638018 -118.274515 
L 74.10967 -117.151353 
L 74.632196 -116.02819 
L 75.203629 -114.905028 
L 75.819559 -113.781865 
L 76.473138 -112.658703 
L 77.15528 -111.535541 
L 77.855049 -110.412378 
L 78.560194 -109.289216 
L 79.257776 -108.166053 
L 79.934818 -107.042891 
L 80.578883 -105.919729 
L 81.178539 -104.796566 
L 81.723633 -103.673404 
L 82.205385 -102.550241 
L 82.616302 -101.427079 
L 82.949967 -100.303917 
L 83.20078 -99.180754 
L 83.363727 -98.057592 
L 83.43425 -96.934429 
L 83.408277 -95.811267 
L 83.282417 -94.688104 
L 83.054307 -93.564942 
L 82.723061 -92.44178 
L 82.289746 -91.318617 
L 81.757794 -90.195455 
L 81.1333 -89.072292 
L 80.425119 -87.94913 
L 79.64476 -86.825968 
L 78.806074 -85.702805 
L 77.924747 -84.579643 
L 77.01766 -83.45648 
L 76.102169 -82.333318 
L 75.195355 -81.210156 
L 74.313301 -80.086993 
L 73.470449 -78.963831 
L 72.679072 -77.840668 
L 71.948883 -76.717506 
L 71.286814 -75.594343 
L 70.696949 -74.471181 
L 70.180627 -73.348019 
L 69.736684 -72.224856 
L 69.361816 -71.101694 
L 69.051022 -69.978531 
L 68.798089 -68.855369 
L 68.596077 -67.732207 
L 68.437776 -66.609044 
L 68.316091 -65.485882 
z
" id="m8e7d164e76" style="stroke:#4c4c4c;stroke-width:1.5;"/>
    </defs>
    <g clip-path="url(#p4b4d36bebc)">
     <use style="fill:#5875a4;stroke:#4c4c4c;stroke-width:1.5;" x="0" xlink:href="#m8e7d164e76" y="216"/>
    </g>
   </g>
   <g id="PolyCollection_2">
    <defs>
     <path d="M 106.821434 -56.337223 
L 106.346066 -56.337223 
L 106.275472 -57.538386 
L 106.187998 -58.739549 
L 106.080777 -59.940713 
L 105.950738 -61.141876 
L 105.79465 -62.343039 
L 105.60919 -63.544203 
L 105.391009 -64.745366 
L 105.136832 -65.946529 
L 104.843562 -67.147693 
L 104.508408 -68.348856 
L 104.129026 -69.550019 
L 103.703677 -70.751183 
L 103.231404 -71.952346 
L 102.712211 -73.153509 
L 102.147247 -74.354673 
L 101.538984 -75.555836 
L 100.891374 -76.756999 
L 100.209961 -77.958163 
L 99.501953 -79.159326 
L 98.77621 -80.360489 
L 98.043157 -81.561653 
L 97.314588 -82.762816 
L 96.603378 -83.963979 
L 95.923089 -85.165143 
L 95.287493 -86.366306 
L 94.710022 -87.567469 
L 94.203188 -88.768633 
L 93.777998 -89.969796 
L 93.443407 -91.170959 
L 93.205855 -92.372122 
L 93.068917 -93.573286 
L 93.033106 -94.774449 
L 93.095833 -95.975612 
L 93.251556 -97.176776 
L 93.492084 -98.377939 
L 93.80703 -99.579102 
L 94.184386 -100.780266 
L 94.611163 -101.981429 
L 95.074054 -103.182592 
L 95.560086 -104.383756 
L 96.057194 -105.584919 
L 96.554696 -106.786082 
L 97.043647 -107.987246 
L 97.51704 -109.188409 
L 97.969876 -110.389572 
L 98.399102 -111.590736 
L 98.803441 -112.791899 
L 99.183143 -113.993062 
L 99.539686 -115.194226 
L 99.87545 -116.395389 
L 100.193402 -117.596552 
L 100.496792 -118.797716 
L 100.788895 -119.998879 
L 101.072783 -121.200042 
L 101.351145 -122.401206 
L 101.626149 -123.602369 
L 101.89934 -124.803532 
L 102.171573 -126.004696 
L 102.442985 -127.205859 
L 102.712992 -128.407022 
L 102.980332 -129.608186 
L 103.243133 -130.809349 
L 103.499026 -132.010512 
L 103.745279 -133.211676 
L 103.978977 -134.412839 
L 104.197202 -135.614002 
L 104.397242 -136.815166 
L 104.576785 -138.016329 
L 104.734095 -139.217492 
L 104.868166 -140.418656 
L 104.978818 -141.619819 
L 105.066753 -142.820982 
L 105.133544 -144.022146 
L 105.181564 -145.223309 
L 105.213869 -146.424472 
L 105.234022 -147.625636 
L 105.245891 -148.826799 
L 105.253429 -150.027962 
L 105.260447 -151.229126 
L 105.270403 -152.430289 
L 105.286226 -153.631452 
L 105.310175 -154.832616 
L 105.343755 -156.033779 
L 105.387683 -157.234942 
L 105.441912 -158.436106 
L 105.505702 -159.637269 
L 105.577734 -160.838432 
L 105.65625 -162.039596 
L 105.739206 -163.240759 
L 105.824437 -164.441922 
L 105.909796 -165.643086 
L 105.993293 -166.844249 
L 106.073186 -168.045412 
L 106.148056 -169.246576 
L 106.216841 -170.447739 
L 106.278848 -171.648902 
L 106.33373 -172.850066 
L 106.381453 -174.051229 
L 106.42224 -175.252392 
L 106.74526 -175.252392 
L 106.74526 -175.252392 
L 106.786047 -174.051229 
L 106.83377 -172.850066 
L 106.888652 -171.648902 
L 106.950659 -170.447739 
L 107.019444 -169.246576 
L 107.094314 -168.045412 
L 107.174207 -166.844249 
L 107.257704 -165.643086 
L 107.343063 -164.441922 
L 107.428294 -163.240759 
L 107.51125 -162.039596 
L 107.589766 -160.838432 
L 107.661798 -159.637269 
L 107.725588 -158.436106 
L 107.779817 -157.234942 
L 107.823745 -156.033779 
L 107.857325 -154.832616 
L 107.881274 -153.631452 
L 107.897097 -152.430289 
L 107.907053 -151.229126 
L 107.914071 -150.027962 
L 107.921609 -148.826799 
L 107.933478 -147.625636 
L 107.953631 -146.424472 
L 107.985936 -145.223309 
L 108.033956 -144.022146 
L 108.100747 -142.820982 
L 108.188682 -141.619819 
L 108.299334 -140.418656 
L 108.433405 -139.217492 
L 108.590715 -138.016329 
L 108.770258 -136.815166 
L 108.970298 -135.614002 
L 109.188523 -134.412839 
L 109.422221 -133.211676 
L 109.668474 -132.010512 
L 109.924367 -130.809349 
L 110.187168 -129.608186 
L 110.454508 -128.407022 
L 110.724515 -127.205859 
L 110.995927 -126.004696 
L 111.26816 -124.803532 
L 111.541351 -123.602369 
L 111.816355 -122.401206 
L 112.094717 -121.200042 
L 112.378605 -119.998879 
L 112.670708 -118.797716 
L 112.974098 -117.596552 
L 113.29205 -116.395389 
L 113.627814 -115.194226 
L 113.984357 -113.993062 
L 114.364059 -112.791899 
L 114.768398 -111.590736 
L 115.197624 -110.389572 
L 115.65046 -109.188409 
L 116.123853 -107.987246 
L 116.612804 -106.786082 
L 117.110306 -105.584919 
L 117.607414 -104.383756 
L 118.093446 -103.182592 
L 118.556337 -101.981429 
L 118.983114 -100.780266 
L 119.36047 -99.579102 
L 119.675416 -98.377939 
L 119.915944 -97.176776 
L 120.071667 -95.975612 
L 120.134394 -94.774449 
L 120.098583 -93.573286 
L 119.961645 -92.372122 
L 119.724093 -91.170959 
L 119.389502 -89.969796 
L 118.964312 -88.768633 
L 118.457478 -87.567469 
L 117.880007 -86.366306 
L 117.244411 -85.165143 
L 116.564122 -83.963979 
L 115.852912 -82.762816 
L 115.124343 -81.561653 
L 114.39129 -80.360489 
L 113.665547 -79.159326 
L 112.957539 -77.958163 
L 112.276126 -76.756999 
L 111.628516 -75.555836 
L 111.020253 -74.354673 
L 110.455289 -73.153509 
L 109.936096 -71.952346 
L 109.463823 -70.751183 
L 109.038474 -69.550019 
L 108.659092 -68.348856 
L 108.323938 -67.147693 
L 108.030668 -65.946529 
L 107.776491 -64.745366 
L 107.55831 -63.544203 
L 107.37285 -62.343039 
L 107.216762 -61.141876 
L 107.086723 -59.940713 
L 106.979502 -58.739549 
L 106.892028 -57.538386 
L 106.821434 -56.337223 
z
" id="me2a176d052" style="stroke:#4c4c4c;stroke-width:1.5;"/>
    </defs>
    <g clip-path="url(#p4b4d36bebc)">
     <use style="fill:#cc8963;stroke:#4c4c4c;stroke-width:1.5;" x="0" xlink:href="#me2a176d052" y="216"/>
    </g>
   </g>
   <g id="PolyCollection_3">
    <defs>
     <path d="M 145.21412 -53.577273 
L 145.11838 -53.577273 
L 145.098579 -55.015106 
L 145.072497 -56.452938 
L 145.038764 -57.890771 
L 144.995807 -59.328604 
L 144.941776 -60.766437 
L 144.874423 -62.20427 
L 144.790953 -63.642103 
L 144.687842 -65.079936 
L 144.560672 -66.517769 
L 144.404016 -67.955601 
L 144.211436 -69.393434 
L 143.975647 -70.831267 
L 143.688882 -72.2691 
L 143.343465 -73.706933 
L 142.932583 -75.144766 
L 142.451163 -76.582599 
L 141.896776 -78.020432 
L 141.270419 -79.458264 
L 140.577053 -80.896097 
L 139.825796 -82.33393 
L 139.029703 -83.771763 
L 138.205136 -85.209596 
L 137.370808 -86.647429 
L 136.546606 -88.085262 
L 135.752375 -89.523095 
L 135.00681 -90.960927 
L 134.326585 -92.39876 
L 133.725799 -93.836593 
L 133.215728 -95.274426 
L 132.804842 -96.712259 
L 132.498955 -98.150092 
L 132.301422 -99.587925 
L 132.213257 -101.025758 
L 132.233144 -102.46359 
L 132.357331 -103.901423 
L 132.579489 -105.339256 
L 132.890626 -106.777089 
L 133.279183 -108.214922 
L 133.731388 -109.652755 
L 134.231921 -111.090588 
L 134.764842 -112.528421 
L 135.314703 -113.966253 
L 135.867659 -115.404086 
L 136.412438 -116.841919 
L 136.940979 -118.279752 
L 137.448659 -119.717585 
L 137.934055 -121.155418 
L 138.398301 -122.593251 
L 138.844162 -124.031084 
L 139.274979 -125.468916 
L 139.693676 -126.906749 
L 140.101965 -128.344582 
L 140.499867 -129.782415 
L 140.885591 -131.220248 
L 141.255759 -132.658081 
L 141.605914 -134.095914 
L 141.931206 -135.533747 
L 142.227148 -136.971579 
L 142.49032 -138.409412 
L 142.718915 -139.847245 
L 142.913063 -141.285078 
L 143.074873 -142.722911 
L 143.2082 -144.160744 
L 143.318165 -145.598577 
L 143.41051 -147.03641 
L 143.490879 -148.474242 
L 143.564141 -149.912075 
L 143.633855 -151.349908 
L 143.701967 -152.787741 
L 143.768771 -154.225574 
L 143.833129 -155.663407 
L 143.892913 -157.10124 
L 143.945577 -158.539073 
L 143.988766 -159.976905 
L 144.020864 -161.414738 
L 144.041398 -162.852571 
L 144.051249 -164.290404 
L 144.052651 -165.728237 
L 144.048986 -167.16607 
L 144.044412 -168.603903 
L 144.043388 -170.041736 
L 144.050163 -171.479568 
L 144.068284 -172.917401 
L 144.100207 -174.355234 
L 144.147045 -175.793067 
L 144.208481 -177.2309 
L 144.282857 -178.668733 
L 144.367415 -180.106566 
L 144.458644 -181.544399 
L 144.552691 -182.982231 
L 144.645759 -184.420064 
L 144.734468 -185.857897 
L 144.816104 -187.29573 
L 144.888772 -188.733563 
L 144.951426 -190.171396 
L 145.003806 -191.609229 
L 145.0463 -193.047062 
L 145.079778 -194.484894 
L 145.1054 -195.922727 
L 145.2271 -195.922727 
L 145.2271 -195.922727 
L 145.252722 -194.484894 
L 145.2862 -193.047062 
L 145.328694 -191.609229 
L 145.381074 -190.171396 
L 145.443728 -188.733563 
L 145.516396 -187.29573 
L 145.598032 -185.857897 
L 145.686741 -184.420064 
L 145.779809 -182.982231 
L 145.873856 -181.544399 
L 145.965085 -180.106566 
L 146.049643 -178.668733 
L 146.124019 -177.2309 
L 146.185455 -175.793067 
L 146.232293 -174.355234 
L 146.264216 -172.917401 
L 146.282337 -171.479568 
L 146.289112 -170.041736 
L 146.288088 -168.603903 
L 146.283514 -167.16607 
L 146.279849 -165.728237 
L 146.281251 -164.290404 
L 146.291102 -162.852571 
L 146.311636 -161.414738 
L 146.343734 -159.976905 
L 146.386923 -158.539073 
L 146.439587 -157.10124 
L 146.499371 -155.663407 
L 146.563729 -154.225574 
L 146.630533 -152.787741 
L 146.698645 -151.349908 
L 146.768359 -149.912075 
L 146.841621 -148.474242 
L 146.92199 -147.03641 
L 147.014335 -145.598577 
L 147.1243 -144.160744 
L 147.257627 -142.722911 
L 147.419437 -141.285078 
L 147.613585 -139.847245 
L 147.84218 -138.409412 
L 148.105352 -136.971579 
L 148.401294 -135.533747 
L 148.726586 -134.095914 
L 149.076741 -132.658081 
L 149.446909 -131.220248 
L 149.832633 -129.782415 
L 150.230535 -128.344582 
L 150.638824 -126.906749 
L 151.057521 -125.468916 
L 151.488338 -124.031084 
L 151.934199 -122.593251 
L 152.398445 -121.155418 
L 152.883841 -119.717585 
L 153.391521 -118.279752 
L 153.920062 -116.841919 
L 154.464841 -115.404086 
L 155.017797 -113.966253 
L 155.567658 -112.528421 
L 156.100579 -111.090588 
L 156.601112 -109.652755 
L 157.053317 -108.214922 
L 157.441874 -106.777089 
L 157.753011 -105.339256 
L 157.975169 -103.901423 
L 158.099356 -102.46359 
L 158.119243 -101.025758 
L 158.031078 -99.587925 
L 157.833545 -98.150092 
L 157.527658 -96.712259 
L 157.116772 -95.274426 
L 156.606701 -93.836593 
L 156.005915 -92.39876 
L 155.32569 -90.960927 
L 154.580125 -89.523095 
L 153.785894 -88.085262 
L 152.961692 -86.647429 
L 152.127364 -85.209596 
L 151.302797 -83.771763 
L 150.506704 -82.33393 
L 149.755447 -80.896097 
L 149.062081 -79.458264 
L 148.435724 -78.020432 
L 147.881337 -76.582599 
L 147.399917 -75.144766 
L 146.989035 -73.706933 
L 146.643618 -72.2691 
L 146.356853 -70.831267 
L 146.121064 -69.393434 
L 145.928484 -67.955601 
L 145.771828 -66.517769 
L 145.644658 -65.079936 
L 145.541547 -63.642103 
L 145.458077 -62.20427 
L 145.390724 -60.766437 
L 145.336693 -59.328604 
L 145.293736 -57.890771 
L 145.260003 -56.452938 
L 145.233921 -55.015106 
L 145.21412 -53.577273 
z
" id="m24c998974a" style="stroke:#4c4c4c;stroke-width:1.5;"/>
    </defs>
    <g clip-path="url(#p4b4d36bebc)">
     <use style="fill:#5f9e6e;stroke:#4c4c4c;stroke-width:1.5;" x="0" xlink:href="#m24c998974a" y="216"/>
    </g>
   </g>
   <g id="PolyCollection_4">
    <defs>
     <path d="M 183.882713 -63.730862 
L 183.614787 -63.730862 
L 183.556521 -64.998573 
L 183.4781 -66.266283 
L 183.374776 -67.533994 
L 183.241499 -68.801704 
L 183.073182 -70.069415 
L 182.865027 -71.337126 
L 182.612898 -72.604836 
L 182.313691 -73.872547 
L 181.965671 -75.140257 
L 181.5687 -76.407968 
L 181.124339 -77.675679 
L 180.63579 -78.943389 
L 180.107685 -80.2111 
L 179.545743 -81.47881 
L 178.95638 -82.746521 
L 178.346323 -84.014232 
L 177.722315 -85.281942 
L 177.090978 -86.549653 
L 176.458841 -87.817364 
L 175.832533 -89.085074 
L 175.219071 -90.352785 
L 174.626144 -91.620495 
L 174.062293 -92.888206 
L 173.536884 -94.155917 
L 173.059823 -95.423627 
L 172.640997 -96.691338 
L 172.289517 -97.959048 
L 172.012857 -99.226759 
L 171.816047 -100.49447 
L 171.701065 -101.76218 
L 171.666562 -103.029891 
L 171.707974 -104.297602 
L 171.818039 -105.565312 
L 171.987631 -106.833023 
L 172.206775 -108.100733 
L 172.465678 -109.368444 
L 172.755598 -110.636155 
L 173.069402 -111.903865 
L 173.401749 -113.171576 
L 173.748886 -114.439286 
L 174.108135 -115.706997 
L 174.4772 -116.974708 
L 174.853471 -118.242418 
L 175.233481 -119.510129 
L 175.612649 -120.77784 
L 175.98536 -122.04555 
L 176.345395 -123.313261 
L 176.686605 -124.580971 
L 177.003712 -125.848682 
L 177.293078 -127.116393 
L 177.553294 -128.384103 
L 177.785474 -129.651814 
L 177.993212 -130.919524 
L 178.182196 -132.187235 
L 178.359554 -133.454946 
L 178.53303 -134.722656 
L 178.710118 -135.990367 
L 178.897264 -137.258077 
L 179.09924 -138.525788 
L 179.318749 -139.793499 
L 179.556286 -141.061209 
L 179.81024 -142.32892 
L 180.077202 -143.596631 
L 180.352414 -144.864341 
L 180.630295 -146.132052 
L 180.904977 -147.399762 
L 181.170789 -148.667473 
L 181.422654 -149.935184 
L 181.656377 -151.202894 
L 181.868811 -152.470605 
L 182.057918 -153.738315 
L 182.222752 -155.006026 
L 182.36338 -156.273737 
L 182.480768 -157.541447 
L 182.576661 -158.809158 
L 182.653445 -160.076869 
L 182.714018 -161.344579 
L 182.761643 -162.61229 
L 182.79979 -163.88 
L 182.831961 -165.147711 
L 182.861507 -166.415422 
L 182.891433 -167.683132 
L 182.924227 -168.950843 
L 182.961713 -170.218553 
L 183.004964 -171.486264 
L 183.054274 -172.753975 
L 183.1092 -174.021685 
L 183.168671 -175.289396 
L 183.231147 -176.557106 
L 183.29481 -177.824817 
L 183.357763 -179.092528 
L 183.418217 -180.360238 
L 183.474635 -181.627949 
L 183.525842 -182.89566 
L 183.571072 -184.16337 
L 183.609972 -185.431081 
L 183.642564 -186.698791 
L 183.669177 -187.966502 
L 183.690362 -189.234213 
L 183.807138 -189.234213 
L 183.807138 -189.234213 
L 183.828323 -187.966502 
L 183.854936 -186.698791 
L 183.887528 -185.431081 
L 183.926428 -184.16337 
L 183.971658 -182.89566 
L 184.022865 -181.627949 
L 184.079283 -180.360238 
L 184.139737 -179.092528 
L 184.20269 -177.824817 
L 184.266353 -176.557106 
L 184.328829 -175.289396 
L 184.3883 -174.021685 
L 184.443226 -172.753975 
L 184.492536 -171.486264 
L 184.535787 -170.218553 
L 184.573273 -168.950843 
L 184.606067 -167.683132 
L 184.635993 -166.415422 
L 184.665539 -165.147711 
L 184.69771 -163.88 
L 184.735857 -162.61229 
L 184.783482 -161.344579 
L 184.844055 -160.076869 
L 184.920839 -158.809158 
L 185.016732 -157.541447 
L 185.13412 -156.273737 
L 185.274748 -155.006026 
L 185.439582 -153.738315 
L 185.628689 -152.470605 
L 185.841123 -151.202894 
L 186.074846 -149.935184 
L 186.326711 -148.667473 
L 186.592523 -147.399762 
L 186.867205 -146.132052 
L 187.145086 -144.864341 
L 187.420298 -143.596631 
L 187.68726 -142.32892 
L 187.941214 -141.061209 
L 188.178751 -139.793499 
L 188.39826 -138.525788 
L 188.600236 -137.258077 
L 188.787382 -135.990367 
L 188.96447 -134.722656 
L 189.137946 -133.454946 
L 189.315304 -132.187235 
L 189.504288 -130.919524 
L 189.712026 -129.651814 
L 189.944206 -128.384103 
L 190.204422 -127.116393 
L 190.493788 -125.848682 
L 190.810895 -124.580971 
L 191.152105 -123.313261 
L 191.51214 -122.04555 
L 191.884851 -120.77784 
L 192.264019 -119.510129 
L 192.644029 -118.242418 
L 193.0203 -116.974708 
L 193.389365 -115.706997 
L 193.748614 -114.439286 
L 194.095751 -113.171576 
L 194.428098 -111.903865 
L 194.741902 -110.636155 
L 195.031822 -109.368444 
L 195.290725 -108.100733 
L 195.509869 -106.833023 
L 195.679461 -105.565312 
L 195.789526 -104.297602 
L 195.830938 -103.029891 
L 195.796435 -101.76218 
L 195.681453 -100.49447 
L 195.484643 -99.226759 
L 195.207983 -97.959048 
L 194.856503 -96.691338 
L 194.437677 -95.423627 
L 193.960616 -94.155917 
L 193.435207 -92.888206 
L 192.871356 -91.620495 
L 192.278429 -90.352785 
L 191.664967 -89.085074 
L 191.038659 -87.817364 
L 190.406522 -86.549653 
L 189.775185 -85.281942 
L 189.151177 -84.014232 
L 188.54112 -82.746521 
L 187.951757 -81.47881 
L 187.389815 -80.2111 
L 186.86171 -78.943389 
L 186.373161 -77.675679 
L 185.9288 -76.407968 
L 185.531829 -75.140257 
L 185.183809 -73.872547 
L 184.884602 -72.604836 
L 184.632473 -71.337126 
L 184.424318 -70.069415 
L 184.256001 -68.801704 
L 184.122724 -67.533994 
L 184.0194 -66.266283 
L 183.940979 -64.998573 
L 183.882713 -63.730862 
z
" id="m4f2d954e9c" style="stroke:#4c4c4c;stroke-width:1.5;"/>
    </defs>
    <g clip-path="url(#p4b4d36bebc)">
     <use style="fill:#b55d60;stroke:#4c4c4c;stroke-width:1.5;" x="0" xlink:href="#m4f2d954e9c" y="216"/>
    </g>
   </g>
   <g id="line2d_8">
    <path clip-path="url(#p4b4d36bebc)" d="M 68.00125 134.96844 
L 68.00125 84.814862 
" style="fill:none;stroke:#4c4c4c;stroke-linecap:round;stroke-width:1.5;"/>
   </g>
   <g id="line2d_9">
    <path clip-path="url(#p4b4d36bebc)" d="M 68.00125 123.870077 
L 68.00125 106.516578 
" style="fill:none;stroke:#4c4c4c;stroke-linecap:round;stroke-width:4.5;"/>
   </g>
   <g id="line2d_10">
    <path clip-path="url(#p4b4d36bebc)" d="M 106.58375 138.928525 
L 106.58375 86.682402 
" style="fill:none;stroke:#4c4c4c;stroke-linecap:round;stroke-width:1.5;"/>
   </g>
   <g id="line2d_11">
    <path clip-path="url(#p4b4d36bebc)" d="M 106.58375 124.651968 
L 106.58375 102.927751 
" style="fill:none;stroke:#4c4c4c;stroke-linecap:round;stroke-width:4.5;"/>
   </g>
   <g id="line2d_12">
    <path clip-path="url(#p4b4d36bebc)" d="M 145.16625 144.958655 
L 145.16625 63.169396 
" style="fill:none;stroke:#4c4c4c;stroke-linecap:round;stroke-width:1.5;"/>
   </g>
   <g id="line2d_13">
    <path clip-path="url(#p4b4d36bebc)" d="M 145.16625 120.579381 
L 145.16625 96.200106 
" style="fill:none;stroke:#4c4c4c;stroke-linecap:round;stroke-width:4.5;"/>
   </g>
   <g id="line2d_14">
    <path clip-path="url(#p4b4d36bebc)" d="M 183.74875 135.553453 
L 183.74875 60.626841 
" style="fill:none;stroke:#4c4c4c;stroke-linecap:round;stroke-width:1.5;"/>
   </g>
   <g id="line2d_15">
    <path clip-path="url(#p4b4d36bebc)" d="M 183.74875 118.143703 
L 183.74875 94.27069 
" style="fill:none;stroke:#4c4c4c;stroke-linecap:round;stroke-width:4.5;"/>
   </g>
   <g id="patch_3">
    <path d="M 48.71 169.54 
L 48.71 12.96 
" style="fill:none;stroke:#ffffff;stroke-linecap:square;stroke-linejoin:miter;stroke-width:1.25;"/>
   </g>
   <g id="patch_4">
    <path d="M 203.04 169.54 
L 203.04 12.96 
" style="fill:none;stroke:#ffffff;stroke-linecap:square;stroke-linejoin:miter;stroke-width:1.25;"/>
   </g>
   <g id="patch_5">
    <path d="M 48.71 169.54 
L 203.04 169.54 
" style="fill:none;stroke:#ffffff;stroke-linecap:square;stroke-linejoin:miter;stroke-width:1.25;"/>
   </g>
   <g id="patch_6">
    <path d="M 48.71 12.96 
L 203.04 12.96 
" style="fill:none;stroke:#ffffff;stroke-linecap:square;stroke-linejoin:miter;stroke-width:1.25;"/>
   </g>
   <g id="PathCollection_1">
    <defs>
     <path d="M 0 1.5 
C 0.397805 1.5 0.77937 1.341951 1.06066 1.06066 
C 1.341951 0.77937 1.5 0.397805 1.5 0 
C 1.5 -0.397805 1.341951 -0.77937 1.06066 -1.06066 
C 0.77937 -1.341951 0.397805 -1.5 0 -1.5 
C -0.397805 -1.5 -0.77937 -1.341951 -1.06066 -1.06066 
C -1.341951 -0.77937 -1.5 -0.397805 -1.5 0 
C -1.5 0.397805 -1.341951 0.77937 -1.06066 1.06066 
C -0.77937 1.341951 -0.397805 1.5 0 1.5 
z
" id="m830b42d5f9" style="stroke:#4c4c4c;"/>
    </defs>
    <g clip-path="url(#p4b4d36bebc)">
     <use style="fill:#ffffff;stroke:#4c4c4c;" x="68.00125" xlink:href="#m830b42d5f9" y="115.41552"/>
    </g>
   </g>
   <g id="PathCollection_2">
    <g clip-path="url(#p4b4d36bebc)">
     <use style="fill:#ffffff;stroke:#4c4c4c;" x="106.58375" xlink:href="#m830b42d5f9" y="117.260559"/>
    </g>
   </g>
   <g id="PathCollection_3">
    <g clip-path="url(#p4b4d36bebc)">
     <use style="fill:#ffffff;stroke:#4c4c4c;" x="145.16625" xlink:href="#m830b42d5f9" y="110.825421"/>
    </g>
   </g>
   <g id="PathCollection_4">
    <g clip-path="url(#p4b4d36bebc)">
     <use style="fill:#ffffff;stroke:#4c4c4c;" x="183.74875" xlink:href="#m830b42d5f9" y="107.697854"/>
    </g>
   </g>
  </g>
 </g>
 <defs>
  <clipPath id="p4b4d36bebc">
   <rect height="156.58" width="154.33" x="48.71" y="12.96"/>
  </clipPath>
 </defs>
</svg>
