<?xml version="1.0" encoding="utf-8" standalone="no"?>
<!DOCTYPE svg PUBLIC "-//W3C//DTD SVG 1.1//EN"
  "http://www.w3.org/Graphics/SVG/1.1/DTD/svg11.dtd">
<!-- Created with matplotlib (https://matplotlib.org/) -->
<svg height="216pt" version="1.1" viewBox="0 0 216 216" width="216pt" xmlns="http://www.w3.org/2000/svg" xmlns:xlink="http://www.w3.org/1999/xlink">
 <metadata>
  <rdf:RDF xmlns:cc="http://creativecommons.org/ns#" xmlns:dc="http://purl.org/dc/elements/1.1/" xmlns:rdf="http://www.w3.org/1999/02/22-rdf-syntax-ns#">
   <cc:Work>
    <dc:type rdf:resource="http://purl.org/dc/dcmitype/StillImage"/>
    <dc:date>2020-10-07T02:01:13.715463</dc:date>
    <dc:format>image/svg+xml</dc:format>
    <dc:creator>
     <cc:Agent>
      <dc:title>Matplotlib v3.3.1, https://matplotlib.org/</dc:title>
     </cc:Agent>
    </dc:creator>
   </cc:Work>
  </rdf:RDF>
 </metadata>
 <defs>
  <style type="text/css">*{stroke-linecap:butt;stroke-linejoin:round;}</style>
 </defs>
 <g id="figure_1">
  <g id="patch_1">
   <path d="M 0 216 
L 216 216 
L 216 0 
L 0 0 
z
" style="fill:#ffffff;"/>
  </g>
  <g id="axes_1">
   <g id="patch_2">
    <path d="M 51.881875 169.493125 
L 177.127179 169.493125 
L 177.127179 39.79425 
L 51.881875 39.79425 
z
" style="fill:#eaeaf2;"/>
   </g>
   <g id="matplotlib.axis_1">
    <g id="xtick_1">
     <g id="line2d_1">
      <path clip-path="url(#p35e23fcbc9)" d="M 90.283534 169.493125 
L 90.283534 39.79425 
" style="fill:none;stroke:#ffffff;stroke-linecap:round;"/>
     </g>
     <g id="text_1">
      <!-- 40 -->
      <g style="fill:#262626;" transform="translate(84.166503 186.866719)scale(0.11 -0.11)">
       <defs>
        <path d="M 32.328125 0 
L 32.328125 17.140625 
L 1.265625 17.140625 
L 1.265625 25.203125 
L 33.9375 71.578125 
L 41.109375 71.578125 
L 41.109375 25.203125 
L 50.78125 25.203125 
L 50.78125 17.140625 
L 41.109375 17.140625 
L 41.109375 0 
z
M 32.328125 25.203125 
L 32.328125 57.46875 
L 9.90625 25.203125 
z
" id="ArialMT-52"/>
        <path d="M 4.15625 35.296875 
Q 4.15625 48 6.765625 55.734375 
Q 9.375 63.484375 14.515625 67.671875 
Q 19.671875 71.875 27.484375 71.875 
Q 33.25 71.875 37.59375 69.546875 
Q 41.9375 67.234375 44.765625 62.859375 
Q 47.609375 58.5 49.21875 52.21875 
Q 50.828125 45.953125 50.828125 35.296875 
Q 50.828125 22.703125 48.234375 14.96875 
Q 45.65625 7.234375 40.5 3 
Q 35.359375 -1.21875 27.484375 -1.21875 
Q 17.140625 -1.21875 11.234375 6.203125 
Q 4.15625 15.140625 4.15625 35.296875 
z
M 13.1875 35.296875 
Q 13.1875 17.671875 17.3125 11.828125 
Q 21.4375 6 27.484375 6 
Q 33.546875 6 37.671875 11.859375 
Q 41.796875 17.71875 41.796875 35.296875 
Q 41.796875 52.984375 37.671875 58.78125 
Q 33.546875 64.59375 27.390625 64.59375 
Q 21.34375 64.59375 17.71875 59.46875 
Q 13.1875 52.9375 13.1875 35.296875 
z
" id="ArialMT-48"/>
       </defs>
       <use xlink:href="#ArialMT-52"/>
       <use x="55.615234" xlink:href="#ArialMT-48"/>
      </g>
     </g>
    </g>
    <g id="xtick_2">
     <g id="line2d_2">
      <path clip-path="url(#p35e23fcbc9)" d="M 173.090346 169.493125 
L 173.090346 39.79425 
" style="fill:none;stroke:#ffffff;stroke-linecap:round;"/>
     </g>
     <g id="text_2">
      <!-- 60 -->
      <g style="fill:#262626;" transform="translate(166.973315 186.866719)scale(0.11 -0.11)">
       <defs>
        <path d="M 49.75 54.046875 
L 41.015625 53.375 
Q 39.84375 58.546875 37.703125 60.890625 
Q 34.125 64.65625 28.90625 64.65625 
Q 24.703125 64.65625 21.53125 62.3125 
Q 17.390625 59.28125 14.984375 53.46875 
Q 12.59375 47.65625 12.5 36.921875 
Q 15.671875 41.75 20.265625 44.09375 
Q 24.859375 46.4375 29.890625 46.4375 
Q 38.671875 46.4375 44.84375 39.96875 
Q 51.03125 33.5 51.03125 23.25 
Q 51.03125 16.5 48.125 10.71875 
Q 45.21875 4.9375 40.140625 1.859375 
Q 35.0625 -1.21875 28.609375 -1.21875 
Q 17.625 -1.21875 10.6875 6.859375 
Q 3.765625 14.9375 3.765625 33.5 
Q 3.765625 54.25 11.421875 63.671875 
Q 18.109375 71.875 29.4375 71.875 
Q 37.890625 71.875 43.28125 67.140625 
Q 48.6875 62.40625 49.75 54.046875 
z
M 13.875 23.1875 
Q 13.875 18.65625 15.796875 14.5 
Q 17.71875 10.359375 21.1875 8.171875 
Q 24.65625 6 28.46875 6 
Q 34.03125 6 38.03125 10.484375 
Q 42.046875 14.984375 42.046875 22.703125 
Q 42.046875 30.125 38.078125 34.390625 
Q 34.125 38.671875 28.125 38.671875 
Q 22.171875 38.671875 18.015625 34.390625 
Q 13.875 30.125 13.875 23.1875 
z
" id="ArialMT-54"/>
       </defs>
       <use xlink:href="#ArialMT-54"/>
       <use x="55.615234" xlink:href="#ArialMT-48"/>
      </g>
     </g>
    </g>
    <g id="text_3">
     <!-- bill_length_mm -->
     <g style="fill:#262626;" transform="translate(74.153589 201.642344)scale(0.12 -0.12)">
      <defs>
       <path d="M 14.703125 0 
L 6.546875 0 
L 6.546875 71.578125 
L 15.328125 71.578125 
L 15.328125 46.046875 
Q 20.90625 53.03125 29.546875 53.03125 
Q 34.328125 53.03125 38.59375 51.09375 
Q 42.875 49.171875 45.625 45.671875 
Q 48.390625 42.1875 49.953125 37.25 
Q 51.515625 32.328125 51.515625 26.703125 
Q 51.515625 13.375 44.921875 6.09375 
Q 38.328125 -1.171875 29.109375 -1.171875 
Q 19.921875 -1.171875 14.703125 6.5 
z
M 14.59375 26.3125 
Q 14.59375 17 17.140625 12.84375 
Q 21.296875 6.0625 28.375 6.0625 
Q 34.125 6.0625 38.328125 11.0625 
Q 42.53125 16.0625 42.53125 25.984375 
Q 42.53125 36.140625 38.5 40.96875 
Q 34.46875 45.796875 28.765625 45.796875 
Q 23 45.796875 18.796875 40.796875 
Q 14.59375 35.796875 14.59375 26.3125 
z
" id="ArialMT-98"/>
       <path d="M 6.640625 61.46875 
L 6.640625 71.578125 
L 15.4375 71.578125 
L 15.4375 61.46875 
z
M 6.640625 0 
L 6.640625 51.859375 
L 15.4375 51.859375 
L 15.4375 0 
z
" id="ArialMT-105"/>
       <path d="M 6.390625 0 
L 6.390625 71.578125 
L 15.1875 71.578125 
L 15.1875 0 
z
" id="ArialMT-108"/>
       <path d="M -1.515625 -19.875 
L -1.515625 -13.53125 
L 56.734375 -13.53125 
L 56.734375 -19.875 
z
" id="ArialMT-95"/>
       <path d="M 42.09375 16.703125 
L 51.171875 15.578125 
Q 49.03125 7.625 43.21875 3.21875 
Q 37.40625 -1.171875 28.375 -1.171875 
Q 17 -1.171875 10.328125 5.828125 
Q 3.65625 12.84375 3.65625 25.484375 
Q 3.65625 38.578125 10.390625 45.796875 
Q 17.140625 53.03125 27.875 53.03125 
Q 38.28125 53.03125 44.875 45.953125 
Q 51.46875 38.875 51.46875 26.03125 
Q 51.46875 25.25 51.421875 23.6875 
L 12.75 23.6875 
Q 13.234375 15.140625 17.578125 10.59375 
Q 21.921875 6.0625 28.421875 6.0625 
Q 33.25 6.0625 36.671875 8.59375 
Q 40.09375 11.140625 42.09375 16.703125 
z
M 13.234375 30.90625 
L 42.1875 30.90625 
Q 41.609375 37.453125 38.875 40.71875 
Q 34.671875 45.796875 27.984375 45.796875 
Q 21.921875 45.796875 17.796875 41.75 
Q 13.671875 37.703125 13.234375 30.90625 
z
" id="ArialMT-101"/>
       <path d="M 6.59375 0 
L 6.59375 51.859375 
L 14.5 51.859375 
L 14.5 44.484375 
Q 20.21875 53.03125 31 53.03125 
Q 35.6875 53.03125 39.625 51.34375 
Q 43.5625 49.65625 45.515625 46.921875 
Q 47.46875 44.1875 48.25 40.4375 
Q 48.734375 37.984375 48.734375 31.890625 
L 48.734375 0 
L 39.9375 0 
L 39.9375 31.546875 
Q 39.9375 36.921875 38.90625 39.578125 
Q 37.890625 42.234375 35.28125 43.8125 
Q 32.671875 45.40625 29.15625 45.40625 
Q 23.53125 45.40625 19.453125 41.84375 
Q 15.375 38.28125 15.375 28.328125 
L 15.375 0 
z
" id="ArialMT-110"/>
       <path d="M 4.984375 -4.296875 
L 13.53125 -5.5625 
Q 14.0625 -9.515625 16.5 -11.328125 
Q 19.78125 -13.765625 25.4375 -13.765625 
Q 31.546875 -13.765625 34.859375 -11.328125 
Q 38.1875 -8.890625 39.359375 -4.5 
Q 40.046875 -1.8125 39.984375 6.78125 
Q 34.234375 0 25.640625 0 
Q 14.9375 0 9.078125 7.71875 
Q 3.21875 15.4375 3.21875 26.21875 
Q 3.21875 33.640625 5.90625 39.90625 
Q 8.59375 46.1875 13.6875 49.609375 
Q 18.796875 53.03125 25.6875 53.03125 
Q 34.859375 53.03125 40.828125 45.609375 
L 40.828125 51.859375 
L 48.921875 51.859375 
L 48.921875 7.03125 
Q 48.921875 -5.078125 46.453125 -10.125 
Q 44 -15.1875 38.640625 -18.109375 
Q 33.296875 -21.046875 25.484375 -21.046875 
Q 16.21875 -21.046875 10.5 -16.875 
Q 4.78125 -12.703125 4.984375 -4.296875 
z
M 12.25 26.859375 
Q 12.25 16.65625 16.296875 11.96875 
Q 20.359375 7.28125 26.46875 7.28125 
Q 32.515625 7.28125 36.609375 11.9375 
Q 40.71875 16.609375 40.71875 26.5625 
Q 40.71875 36.078125 36.5 40.90625 
Q 32.28125 45.75 26.3125 45.75 
Q 20.453125 45.75 16.34375 40.984375 
Q 12.25 36.234375 12.25 26.859375 
z
" id="ArialMT-103"/>
       <path d="M 25.78125 7.859375 
L 27.046875 0.09375 
Q 23.34375 -0.6875 20.40625 -0.6875 
Q 15.625 -0.6875 12.984375 0.828125 
Q 10.359375 2.34375 9.28125 4.8125 
Q 8.203125 7.28125 8.203125 15.1875 
L 8.203125 45.015625 
L 1.765625 45.015625 
L 1.765625 51.859375 
L 8.203125 51.859375 
L 8.203125 64.703125 
L 16.9375 69.96875 
L 16.9375 51.859375 
L 25.78125 51.859375 
L 25.78125 45.015625 
L 16.9375 45.015625 
L 16.9375 14.703125 
Q 16.9375 10.9375 17.40625 9.859375 
Q 17.875 8.796875 18.921875 8.15625 
Q 19.96875 7.515625 21.921875 7.515625 
Q 23.390625 7.515625 25.78125 7.859375 
z
" id="ArialMT-116"/>
       <path d="M 6.59375 0 
L 6.59375 71.578125 
L 15.375 71.578125 
L 15.375 45.90625 
Q 21.53125 53.03125 30.90625 53.03125 
Q 36.671875 53.03125 40.921875 50.75 
Q 45.171875 48.484375 47 44.484375 
Q 48.828125 40.484375 48.828125 32.859375 
L 48.828125 0 
L 40.046875 0 
L 40.046875 32.859375 
Q 40.046875 39.453125 37.1875 42.453125 
Q 34.328125 45.453125 29.109375 45.453125 
Q 25.203125 45.453125 21.75 43.421875 
Q 18.3125 41.40625 16.84375 37.9375 
Q 15.375 34.46875 15.375 28.375 
L 15.375 0 
z
" id="ArialMT-104"/>
       <path d="M 6.59375 0 
L 6.59375 51.859375 
L 14.453125 51.859375 
L 14.453125 44.578125 
Q 16.890625 48.390625 20.9375 50.703125 
Q 25 53.03125 30.171875 53.03125 
Q 35.9375 53.03125 39.625 50.640625 
Q 43.3125 48.25 44.828125 43.953125 
Q 50.984375 53.03125 60.84375 53.03125 
Q 68.5625 53.03125 72.703125 48.75 
Q 76.859375 44.484375 76.859375 35.59375 
L 76.859375 0 
L 68.109375 0 
L 68.109375 32.671875 
Q 68.109375 37.9375 67.25 40.25 
Q 66.40625 42.578125 64.15625 43.984375 
Q 61.921875 45.40625 58.890625 45.40625 
Q 53.421875 45.40625 49.796875 41.765625 
Q 46.1875 38.140625 46.1875 30.125 
L 46.1875 0 
L 37.40625 0 
L 37.40625 33.6875 
Q 37.40625 39.546875 35.25 42.46875 
Q 33.109375 45.40625 28.21875 45.40625 
Q 24.515625 45.40625 21.359375 43.453125 
Q 18.21875 41.5 16.796875 37.734375 
Q 15.375 33.984375 15.375 26.90625 
L 15.375 0 
z
" id="ArialMT-109"/>
      </defs>
      <use xlink:href="#ArialMT-98"/>
      <use x="55.615234" xlink:href="#ArialMT-105"/>
      <use x="77.832031" xlink:href="#ArialMT-108"/>
      <use x="100.048828" xlink:href="#ArialMT-108"/>
      <use x="122.265625" xlink:href="#ArialMT-95"/>
      <use x="177.880859" xlink:href="#ArialMT-108"/>
      <use x="200.097656" xlink:href="#ArialMT-101"/>
      <use x="255.712891" xlink:href="#ArialMT-110"/>
      <use x="311.328125" xlink:href="#ArialMT-103"/>
      <use x="366.943359" xlink:href="#ArialMT-116"/>
      <use x="394.726562" xlink:href="#ArialMT-104"/>
      <use x="450.341797" xlink:href="#ArialMT-95"/>
      <use x="505.957031" xlink:href="#ArialMT-109"/>
      <use x="589.257812" xlink:href="#ArialMT-109"/>
     </g>
    </g>
   </g>
   <g id="matplotlib.axis_2">
    <g id="ytick_1">
     <g id="line2d_3">
      <path clip-path="url(#p35e23fcbc9)" d="M 51.881875 150.964714 
L 177.127179 150.964714 
" style="fill:none;stroke:#ffffff;stroke-linecap:round;"/>
     </g>
     <g id="text_4">
      <!-- 14 -->
      <g style="fill:#262626;" transform="translate(30.147813 154.901511)scale(0.11 -0.11)">
       <defs>
        <path d="M 37.25 0 
L 28.46875 0 
L 28.46875 56 
Q 25.296875 52.984375 20.140625 49.953125 
Q 14.984375 46.921875 10.890625 45.40625 
L 10.890625 53.90625 
Q 18.265625 57.375 23.78125 62.296875 
Q 29.296875 67.234375 31.59375 71.875 
L 37.25 71.875 
z
" id="ArialMT-49"/>
       </defs>
       <use xlink:href="#ArialMT-49"/>
       <use x="55.615234" xlink:href="#ArialMT-52"/>
      </g>
     </g>
    </g>
    <g id="ytick_2">
     <g id="line2d_4">
      <path clip-path="url(#p35e23fcbc9)" d="M 51.881875 122.891365 
L 177.127179 122.891365 
" style="fill:none;stroke:#ffffff;stroke-linecap:round;"/>
     </g>
     <g id="text_5">
      <!-- 16 -->
      <g style="fill:#262626;" transform="translate(30.147813 126.828162)scale(0.11 -0.11)">
       <use xlink:href="#ArialMT-49"/>
       <use x="55.615234" xlink:href="#ArialMT-54"/>
      </g>
     </g>
    </g>
    <g id="ytick_3">
     <g id="line2d_5">
      <path clip-path="url(#p35e23fcbc9)" d="M 51.881875 94.818015 
L 177.127179 94.818015 
" style="fill:none;stroke:#ffffff;stroke-linecap:round;"/>
     </g>
     <g id="text_6">
      <!-- 18 -->
      <g style="fill:#262626;" transform="translate(30.147813 98.754812)scale(0.11 -0.11)">
       <defs>
        <path d="M 17.671875 38.8125 
Q 12.203125 40.828125 9.5625 44.53125 
Q 6.9375 48.25 6.9375 53.421875 
Q 6.9375 61.234375 12.546875 66.546875 
Q 18.171875 71.875 27.484375 71.875 
Q 36.859375 71.875 42.578125 66.421875 
Q 48.296875 60.984375 48.296875 53.171875 
Q 48.296875 48.1875 45.671875 44.5 
Q 43.0625 40.828125 37.75 38.8125 
Q 44.34375 36.671875 47.78125 31.875 
Q 51.21875 27.09375 51.21875 20.453125 
Q 51.21875 11.28125 44.71875 5.03125 
Q 38.234375 -1.21875 27.640625 -1.21875 
Q 17.046875 -1.21875 10.546875 5.046875 
Q 4.046875 11.328125 4.046875 20.703125 
Q 4.046875 27.6875 7.59375 32.390625 
Q 11.140625 37.109375 17.671875 38.8125 
z
M 15.921875 53.71875 
Q 15.921875 48.640625 19.1875 45.40625 
Q 22.46875 42.1875 27.6875 42.1875 
Q 32.765625 42.1875 36.015625 45.375 
Q 39.265625 48.578125 39.265625 53.21875 
Q 39.265625 58.0625 35.90625 61.359375 
Q 32.5625 64.65625 27.59375 64.65625 
Q 22.5625 64.65625 19.234375 61.421875 
Q 15.921875 58.203125 15.921875 53.71875 
z
M 13.09375 20.65625 
Q 13.09375 16.890625 14.875 13.375 
Q 16.65625 9.859375 20.171875 7.921875 
Q 23.6875 6 27.734375 6 
Q 34.03125 6 38.125 10.046875 
Q 42.234375 14.109375 42.234375 20.359375 
Q 42.234375 26.703125 38.015625 30.859375 
Q 33.796875 35.015625 27.4375 35.015625 
Q 21.234375 35.015625 17.15625 30.90625 
Q 13.09375 26.8125 13.09375 20.65625 
z
" id="ArialMT-56"/>
       </defs>
       <use xlink:href="#ArialMT-49"/>
       <use x="55.615234" xlink:href="#ArialMT-56"/>
      </g>
     </g>
    </g>
    <g id="ytick_4">
     <g id="line2d_6">
      <path clip-path="url(#p35e23fcbc9)" d="M 51.881875 66.744666 
L 177.127179 66.744666 
" style="fill:none;stroke:#ffffff;stroke-linecap:round;"/>
     </g>
     <g id="text_7">
      <!-- 20 -->
      <g style="fill:#262626;" transform="translate(30.147813 70.681462)scale(0.11 -0.11)">
       <defs>
        <path d="M 50.34375 8.453125 
L 50.34375 0 
L 3.03125 0 
Q 2.9375 3.171875 4.046875 6.109375 
Q 5.859375 10.9375 9.828125 15.625 
Q 13.8125 20.3125 21.34375 26.46875 
Q 33.015625 36.03125 37.109375 41.625 
Q 41.21875 47.21875 41.21875 52.203125 
Q 41.21875 57.421875 37.46875 61 
Q 33.734375 64.59375 27.734375 64.59375 
Q 21.390625 64.59375 17.578125 60.78125 
Q 13.765625 56.984375 13.71875 50.25 
L 4.6875 51.171875 
Q 5.609375 61.28125 11.65625 66.578125 
Q 17.71875 71.875 27.9375 71.875 
Q 38.234375 71.875 44.234375 66.15625 
Q 50.25 60.453125 50.25 52 
Q 50.25 47.703125 48.484375 43.546875 
Q 46.734375 39.40625 42.65625 34.8125 
Q 38.578125 30.21875 29.109375 22.21875 
Q 21.1875 15.578125 18.9375 13.203125 
Q 16.703125 10.84375 15.234375 8.453125 
z
" id="ArialMT-50"/>
       </defs>
       <use xlink:href="#ArialMT-50"/>
       <use x="55.615234" xlink:href="#ArialMT-48"/>
      </g>
     </g>
    </g>
    <g id="text_8">
     <!-- bill_depth_mm -->
     <g style="fill:#262626;" transform="translate(23.762812 143.6615)rotate(-90)scale(0.12 -0.12)">
      <defs>
       <path d="M 40.234375 0 
L 40.234375 6.546875 
Q 35.296875 -1.171875 25.734375 -1.171875 
Q 19.53125 -1.171875 14.328125 2.25 
Q 9.125 5.671875 6.265625 11.796875 
Q 3.421875 17.921875 3.421875 25.875 
Q 3.421875 33.640625 6 39.96875 
Q 8.59375 46.296875 13.765625 49.65625 
Q 18.953125 53.03125 25.34375 53.03125 
Q 30.03125 53.03125 33.6875 51.046875 
Q 37.359375 49.078125 39.65625 45.90625 
L 39.65625 71.578125 
L 48.390625 71.578125 
L 48.390625 0 
z
M 12.453125 25.875 
Q 12.453125 15.921875 16.640625 10.984375 
Q 20.84375 6.0625 26.5625 6.0625 
Q 32.328125 6.0625 36.34375 10.765625 
Q 40.375 15.484375 40.375 25.140625 
Q 40.375 35.796875 36.265625 40.765625 
Q 32.171875 45.75 26.171875 45.75 
Q 20.3125 45.75 16.375 40.96875 
Q 12.453125 36.1875 12.453125 25.875 
z
" id="ArialMT-100"/>
       <path d="M 6.59375 -19.875 
L 6.59375 51.859375 
L 14.59375 51.859375 
L 14.59375 45.125 
Q 17.4375 49.078125 21 51.046875 
Q 24.5625 53.03125 29.640625 53.03125 
Q 36.28125 53.03125 41.359375 49.609375 
Q 46.4375 46.1875 49.015625 39.953125 
Q 51.609375 33.734375 51.609375 26.3125 
Q 51.609375 18.359375 48.75 11.984375 
Q 45.90625 5.609375 40.453125 2.21875 
Q 35.015625 -1.171875 29 -1.171875 
Q 24.609375 -1.171875 21.109375 0.6875 
Q 17.625 2.546875 15.375 5.375 
L 15.375 -19.875 
z
M 14.546875 25.640625 
Q 14.546875 15.625 18.59375 10.84375 
Q 22.65625 6.0625 28.421875 6.0625 
Q 34.28125 6.0625 38.453125 11.015625 
Q 42.625 15.96875 42.625 26.375 
Q 42.625 36.28125 38.546875 41.203125 
Q 34.46875 46.140625 28.8125 46.140625 
Q 23.1875 46.140625 18.859375 40.890625 
Q 14.546875 35.640625 14.546875 25.640625 
z
" id="ArialMT-112"/>
      </defs>
      <use xlink:href="#ArialMT-98"/>
      <use x="55.615234" xlink:href="#ArialMT-105"/>
      <use x="77.832031" xlink:href="#ArialMT-108"/>
      <use x="100.048828" xlink:href="#ArialMT-108"/>
      <use x="122.265625" xlink:href="#ArialMT-95"/>
      <use x="177.880859" xlink:href="#ArialMT-100"/>
      <use x="233.496094" xlink:href="#ArialMT-101"/>
      <use x="289.111328" xlink:href="#ArialMT-112"/>
      <use x="344.726562" xlink:href="#ArialMT-116"/>
      <use x="372.509766" xlink:href="#ArialMT-104"/>
      <use x="428.125" xlink:href="#ArialMT-95"/>
      <use x="483.740234" xlink:href="#ArialMT-109"/>
      <use x="567.041016" xlink:href="#ArialMT-109"/>
     </g>
    </g>
   </g>
   <g id="PolyCollection_1">
    <defs>
     <path d="M -69.637122 135.40843 
L -69.637122 127.547892 
L -75.33009 123.617623 
L -81.023058 127.547892 
L -81.023058 135.40843 
L -75.33009 139.338699 
z
" id="C0_0_82825e4c87"/>
    </defs>
    <g clip-path="url(#p35e23fcbc9)">
     <use style="fill:#ffffff;stroke:#ffffff;" x="132.904933" xlink:href="#C0_0_82825e4c87" y="32.11956"/>
    </g>
    <g clip-path="url(#p35e23fcbc9)">
     <use style="fill:#ffffff;stroke:#ffffff;" x="132.904933" xlink:href="#C0_0_82825e4c87" y="8.537947"/>
    </g>
    <g clip-path="url(#p35e23fcbc9)">
     <use style="fill:#ffffff;stroke:#ffffff;" x="132.904933" xlink:href="#C0_0_82825e4c87" y="-15.043667"/>
    </g>
    <g clip-path="url(#p35e23fcbc9)">
     <use style="fill:#ffffff;stroke:#ffffff;" x="132.904933" xlink:href="#C0_0_82825e4c87" y="-38.625281"/>
    </g>
    <g clip-path="url(#p35e23fcbc9)">
     <use style="fill:#ffffff;stroke:#ffffff;" x="132.904933" xlink:href="#C0_0_82825e4c87" y="-62.206894"/>
    </g>
    <g clip-path="url(#p35e23fcbc9)">
     <use style="fill:#ffffff;stroke:#ffffff;" x="132.904933" xlink:href="#C0_0_82825e4c87" y="-85.788508"/>
    </g>
    <g clip-path="url(#p35e23fcbc9)">
     <use style="fill:#ffffff;stroke:#ffffff;" x="144.29087" xlink:href="#C0_0_82825e4c87" y="32.11956"/>
    </g>
    <g clip-path="url(#p35e23fcbc9)">
     <use style="fill:#ffffff;stroke:#ffffff;" x="144.29087" xlink:href="#C0_0_82825e4c87" y="8.537947"/>
    </g>
    <g clip-path="url(#p35e23fcbc9)">
     <use style="fill:#d8e0ee;stroke:#d8e0ee;" x="144.29087" xlink:href="#C0_0_82825e4c87" y="-15.043667"/>
    </g>
    <g clip-path="url(#p35e23fcbc9)">
     <use style="fill:#7593c3;stroke:#7593c3;" x="144.29087" xlink:href="#C0_0_82825e4c87" y="-38.625281"/>
    </g>
    <g clip-path="url(#p35e23fcbc9)">
     <use style="fill:#ebf0f7;stroke:#ebf0f7;" x="144.29087" xlink:href="#C0_0_82825e4c87" y="-62.206894"/>
    </g>
    <g clip-path="url(#p35e23fcbc9)">
     <use style="fill:#ebf0f7;stroke:#ebf0f7;" x="144.29087" xlink:href="#C0_0_82825e4c87" y="-85.788508"/>
    </g>
    <g clip-path="url(#p35e23fcbc9)">
     <use style="fill:#ffffff;stroke:#ffffff;" x="155.676807" xlink:href="#C0_0_82825e4c87" y="32.11956"/>
    </g>
    <g clip-path="url(#p35e23fcbc9)">
     <use style="fill:#ffffff;stroke:#ffffff;" x="155.676807" xlink:href="#C0_0_82825e4c87" y="8.537947"/>
    </g>
    <g clip-path="url(#p35e23fcbc9)">
     <use style="fill:#88a2cc;stroke:#88a2cc;" x="155.676807" xlink:href="#C0_0_82825e4c87" y="-15.043667"/>
    </g>
    <g clip-path="url(#p35e23fcbc9)">
     <use style="fill:#2b4063;stroke:#2b4063;" x="155.676807" xlink:href="#C0_0_82825e4c87" y="-38.625281"/>
    </g>
    <g clip-path="url(#p35e23fcbc9)">
     <use style="fill:#88a2cc;stroke:#88a2cc;" x="155.676807" xlink:href="#C0_0_82825e4c87" y="-62.206894"/>
    </g>
    <g clip-path="url(#p35e23fcbc9)">
     <use style="fill:#ebf0f7;stroke:#ebf0f7;" x="155.676807" xlink:href="#C0_0_82825e4c87" y="-85.788508"/>
    </g>
    <g clip-path="url(#p35e23fcbc9)">
     <use style="fill:#ffffff;stroke:#ffffff;" x="167.062743" xlink:href="#C0_0_82825e4c87" y="32.11956"/>
    </g>
    <g clip-path="url(#p35e23fcbc9)">
     <use style="fill:#ebf0f7;stroke:#ebf0f7;" x="167.062743" xlink:href="#C0_0_82825e4c87" y="8.537947"/>
    </g>
    <g clip-path="url(#p35e23fcbc9)">
     <use style="fill:#c4d1e6;stroke:#c4d1e6;" x="167.062743" xlink:href="#C0_0_82825e4c87" y="-15.043667"/>
    </g>
    <g clip-path="url(#p35e23fcbc9)">
     <use style="fill:#2b4063;stroke:#2b4063;" x="167.062743" xlink:href="#C0_0_82825e4c87" y="-38.625281"/>
    </g>
    <g clip-path="url(#p35e23fcbc9)">
     <use style="fill:#c4d1e6;stroke:#c4d1e6;" x="167.062743" xlink:href="#C0_0_82825e4c87" y="-62.206894"/>
    </g>
    <g clip-path="url(#p35e23fcbc9)">
     <use style="fill:#ffffff;stroke:#ffffff;" x="167.062743" xlink:href="#C0_0_82825e4c87" y="-85.788508"/>
    </g>
    <g clip-path="url(#p35e23fcbc9)">
     <use style="fill:#d8e0ee;stroke:#d8e0ee;" x="178.44868" xlink:href="#C0_0_82825e4c87" y="32.11956"/>
    </g>
    <g clip-path="url(#p35e23fcbc9)">
     <use style="fill:#c4d1e6;stroke:#c4d1e6;" x="178.44868" xlink:href="#C0_0_82825e4c87" y="8.537947"/>
    </g>
    <g clip-path="url(#p35e23fcbc9)">
     <use style="fill:#d8e0ee;stroke:#d8e0ee;" x="178.44868" xlink:href="#C0_0_82825e4c87" y="-15.043667"/>
    </g>
    <g clip-path="url(#p35e23fcbc9)">
     <use style="fill:#88a2cc;stroke:#88a2cc;" x="178.44868" xlink:href="#C0_0_82825e4c87" y="-38.625281"/>
    </g>
    <g clip-path="url(#p35e23fcbc9)">
     <use style="fill:#c4d1e6;stroke:#c4d1e6;" x="178.44868" xlink:href="#C0_0_82825e4c87" y="-62.206894"/>
    </g>
    <g clip-path="url(#p35e23fcbc9)">
     <use style="fill:#ebf0f7;stroke:#ebf0f7;" x="178.44868" xlink:href="#C0_0_82825e4c87" y="-85.788508"/>
    </g>
    <g clip-path="url(#p35e23fcbc9)">
     <use style="fill:#c4d1e6;stroke:#c4d1e6;" x="189.834617" xlink:href="#C0_0_82825e4c87" y="32.11956"/>
    </g>
    <g clip-path="url(#p35e23fcbc9)">
     <use style="stroke:#000000;" x="189.834617" xlink:href="#C0_0_82825e4c87" y="8.537947"/>
    </g>
    <g clip-path="url(#p35e23fcbc9)">
     <use style="fill:#9cb1d4;stroke:#9cb1d4;" x="189.834617" xlink:href="#C0_0_82825e4c87" y="-15.043667"/>
    </g>
    <g clip-path="url(#p35e23fcbc9)">
     <use style="fill:#88a2cc;stroke:#88a2cc;" x="189.834617" xlink:href="#C0_0_82825e4c87" y="-38.625281"/>
    </g>
    <g clip-path="url(#p35e23fcbc9)">
     <use style="fill:#d8e0ee;stroke:#d8e0ee;" x="189.834617" xlink:href="#C0_0_82825e4c87" y="-62.206894"/>
    </g>
    <g clip-path="url(#p35e23fcbc9)">
     <use style="fill:#ebf0f7;stroke:#ebf0f7;" x="189.834617" xlink:href="#C0_0_82825e4c87" y="-85.788508"/>
    </g>
    <g clip-path="url(#p35e23fcbc9)">
     <use style="fill:#ffffff;stroke:#ffffff;" x="201.220553" xlink:href="#C0_0_82825e4c87" y="32.11956"/>
    </g>
    <g clip-path="url(#p35e23fcbc9)">
     <use style="fill:#19263b;stroke:#19263b;" x="201.220553" xlink:href="#C0_0_82825e4c87" y="8.537947"/>
    </g>
    <g clip-path="url(#p35e23fcbc9)">
     <use style="fill:#7593c3;stroke:#7593c3;" x="201.220553" xlink:href="#C0_0_82825e4c87" y="-15.043667"/>
    </g>
    <g clip-path="url(#p35e23fcbc9)">
     <use style="fill:#c4d1e6;stroke:#c4d1e6;" x="201.220553" xlink:href="#C0_0_82825e4c87" y="-38.625281"/>
    </g>
    <g clip-path="url(#p35e23fcbc9)">
     <use style="fill:#c4d1e6;stroke:#c4d1e6;" x="201.220553" xlink:href="#C0_0_82825e4c87" y="-62.206894"/>
    </g>
    <g clip-path="url(#p35e23fcbc9)">
     <use style="fill:#ffffff;stroke:#ffffff;" x="201.220553" xlink:href="#C0_0_82825e4c87" y="-85.788508"/>
    </g>
    <g clip-path="url(#p35e23fcbc9)">
     <use style="fill:#ffffff;stroke:#ffffff;" x="212.60649" xlink:href="#C0_0_82825e4c87" y="32.11956"/>
    </g>
    <g clip-path="url(#p35e23fcbc9)">
     <use style="fill:#d8e0ee;stroke:#d8e0ee;" x="212.60649" xlink:href="#C0_0_82825e4c87" y="8.537947"/>
    </g>
    <g clip-path="url(#p35e23fcbc9)">
     <use style="fill:#b1c2dd;stroke:#b1c2dd;" x="212.60649" xlink:href="#C0_0_82825e4c87" y="-15.043667"/>
    </g>
    <g clip-path="url(#p35e23fcbc9)">
     <use style="fill:#88a2cc;stroke:#88a2cc;" x="212.60649" xlink:href="#C0_0_82825e4c87" y="-38.625281"/>
    </g>
    <g clip-path="url(#p35e23fcbc9)">
     <use style="fill:#7593c3;stroke:#7593c3;" x="212.60649" xlink:href="#C0_0_82825e4c87" y="-62.206894"/>
    </g>
    <g clip-path="url(#p35e23fcbc9)">
     <use style="fill:#ffffff;stroke:#ffffff;" x="212.60649" xlink:href="#C0_0_82825e4c87" y="-85.788508"/>
    </g>
    <g clip-path="url(#p35e23fcbc9)">
     <use style="fill:#ffffff;stroke:#ffffff;" x="223.992427" xlink:href="#C0_0_82825e4c87" y="32.11956"/>
    </g>
    <g clip-path="url(#p35e23fcbc9)">
     <use style="fill:#ffffff;stroke:#ffffff;" x="223.992427" xlink:href="#C0_0_82825e4c87" y="8.537947"/>
    </g>
    <g clip-path="url(#p35e23fcbc9)">
     <use style="fill:#ffffff;stroke:#ffffff;" x="223.992427" xlink:href="#C0_0_82825e4c87" y="-15.043667"/>
    </g>
    <g clip-path="url(#p35e23fcbc9)">
     <use style="fill:#ffffff;stroke:#ffffff;" x="223.992427" xlink:href="#C0_0_82825e4c87" y="-38.625281"/>
    </g>
    <g clip-path="url(#p35e23fcbc9)">
     <use style="fill:#d8e0ee;stroke:#d8e0ee;" x="223.992427" xlink:href="#C0_0_82825e4c87" y="-62.206894"/>
    </g>
    <g clip-path="url(#p35e23fcbc9)">
     <use style="fill:#ffffff;stroke:#ffffff;" x="223.992427" xlink:href="#C0_0_82825e4c87" y="-85.788508"/>
    </g>
    <g clip-path="url(#p35e23fcbc9)">
     <use style="fill:#ffffff;stroke:#ffffff;" x="235.378364" xlink:href="#C0_0_82825e4c87" y="32.11956"/>
    </g>
    <g clip-path="url(#p35e23fcbc9)">
     <use style="fill:#ffffff;stroke:#ffffff;" x="235.378364" xlink:href="#C0_0_82825e4c87" y="8.537947"/>
    </g>
    <g clip-path="url(#p35e23fcbc9)">
     <use style="fill:#ffffff;stroke:#ffffff;" x="235.378364" xlink:href="#C0_0_82825e4c87" y="-15.043667"/>
    </g>
    <g clip-path="url(#p35e23fcbc9)">
     <use style="fill:#ffffff;stroke:#ffffff;" x="235.378364" xlink:href="#C0_0_82825e4c87" y="-38.625281"/>
    </g>
    <g clip-path="url(#p35e23fcbc9)">
     <use style="fill:#ebf0f7;stroke:#ebf0f7;" x="235.378364" xlink:href="#C0_0_82825e4c87" y="-62.206894"/>
    </g>
    <g clip-path="url(#p35e23fcbc9)">
     <use style="fill:#ffffff;stroke:#ffffff;" x="235.378364" xlink:href="#C0_0_82825e4c87" y="-85.788508"/>
    </g>
    <g clip-path="url(#p35e23fcbc9)">
     <use style="fill:#ffffff;stroke:#ffffff;" x="246.7643" xlink:href="#C0_0_82825e4c87" y="32.11956"/>
    </g>
    <g clip-path="url(#p35e23fcbc9)">
     <use style="fill:#ffffff;stroke:#ffffff;" x="246.7643" xlink:href="#C0_0_82825e4c87" y="8.537947"/>
    </g>
    <g clip-path="url(#p35e23fcbc9)">
     <use style="fill:#ebf0f7;stroke:#ebf0f7;" x="246.7643" xlink:href="#C0_0_82825e4c87" y="-15.043667"/>
    </g>
    <g clip-path="url(#p35e23fcbc9)">
     <use style="fill:#ffffff;stroke:#ffffff;" x="246.7643" xlink:href="#C0_0_82825e4c87" y="-38.625281"/>
    </g>
    <g clip-path="url(#p35e23fcbc9)">
     <use style="fill:#ffffff;stroke:#ffffff;" x="246.7643" xlink:href="#C0_0_82825e4c87" y="-62.206894"/>
    </g>
    <g clip-path="url(#p35e23fcbc9)">
     <use style="fill:#ffffff;stroke:#ffffff;" x="246.7643" xlink:href="#C0_0_82825e4c87" y="-85.788508"/>
    </g>
    <g clip-path="url(#p35e23fcbc9)">
     <use style="fill:#ffffff;stroke:#ffffff;" x="138.597902" xlink:href="#C0_0_82825e4c87" y="20.328754"/>
    </g>
    <g clip-path="url(#p35e23fcbc9)">
     <use style="fill:#d8e0ee;stroke:#d8e0ee;" x="138.597902" xlink:href="#C0_0_82825e4c87" y="-3.25286"/>
    </g>
    <g clip-path="url(#p35e23fcbc9)">
     <use style="fill:#d8e0ee;stroke:#d8e0ee;" x="138.597902" xlink:href="#C0_0_82825e4c87" y="-26.834474"/>
    </g>
    <g clip-path="url(#p35e23fcbc9)">
     <use style="fill:#ebf0f7;stroke:#ebf0f7;" x="138.597902" xlink:href="#C0_0_82825e4c87" y="-50.416087"/>
    </g>
    <g clip-path="url(#p35e23fcbc9)">
     <use style="fill:#ffffff;stroke:#ffffff;" x="138.597902" xlink:href="#C0_0_82825e4c87" y="-73.997701"/>
    </g>
    <g clip-path="url(#p35e23fcbc9)">
     <use style="fill:#ffffff;stroke:#ffffff;" x="149.983838" xlink:href="#C0_0_82825e4c87" y="20.328754"/>
    </g>
    <g clip-path="url(#p35e23fcbc9)">
     <use style="fill:#d8e0ee;stroke:#d8e0ee;" x="149.983838" xlink:href="#C0_0_82825e4c87" y="-3.25286"/>
    </g>
    <g clip-path="url(#p35e23fcbc9)">
     <use style="fill:#3c5a8a;stroke:#3c5a8a;" x="149.983838" xlink:href="#C0_0_82825e4c87" y="-26.834474"/>
    </g>
    <g clip-path="url(#p35e23fcbc9)">
     <use style="fill:#6183bb;stroke:#6183bb;" x="149.983838" xlink:href="#C0_0_82825e4c87" y="-50.416087"/>
    </g>
    <g clip-path="url(#p35e23fcbc9)">
     <use style="fill:#ebf0f7;stroke:#ebf0f7;" x="149.983838" xlink:href="#C0_0_82825e4c87" y="-73.997701"/>
    </g>
    <g clip-path="url(#p35e23fcbc9)">
     <use style="fill:#ffffff;stroke:#ffffff;" x="161.369775" xlink:href="#C0_0_82825e4c87" y="20.328754"/>
    </g>
    <g clip-path="url(#p35e23fcbc9)">
     <use style="fill:#ffffff;stroke:#ffffff;" x="161.369775" xlink:href="#C0_0_82825e4c87" y="-3.25286"/>
    </g>
    <g clip-path="url(#p35e23fcbc9)">
     <use style="fill:#080d14;stroke:#080d14;" x="161.369775" xlink:href="#C0_0_82825e4c87" y="-26.834474"/>
    </g>
    <g clip-path="url(#p35e23fcbc9)">
     <use style="fill:#2b4063;stroke:#2b4063;" x="161.369775" xlink:href="#C0_0_82825e4c87" y="-50.416087"/>
    </g>
    <g clip-path="url(#p35e23fcbc9)">
     <use style="fill:#c4d1e6;stroke:#c4d1e6;" x="161.369775" xlink:href="#C0_0_82825e4c87" y="-73.997701"/>
    </g>
    <g clip-path="url(#p35e23fcbc9)">
     <use style="fill:#9cb1d4;stroke:#9cb1d4;" x="172.755712" xlink:href="#C0_0_82825e4c87" y="20.328754"/>
    </g>
    <g clip-path="url(#p35e23fcbc9)">
     <use style="fill:#ffffff;stroke:#ffffff;" x="172.755712" xlink:href="#C0_0_82825e4c87" y="-3.25286"/>
    </g>
    <g clip-path="url(#p35e23fcbc9)">
     <use style="fill:#7593c3;stroke:#7593c3;" x="172.755712" xlink:href="#C0_0_82825e4c87" y="-26.834474"/>
    </g>
    <g clip-path="url(#p35e23fcbc9)">
     <use style="fill:#2b4063;stroke:#2b4063;" x="172.755712" xlink:href="#C0_0_82825e4c87" y="-50.416087"/>
    </g>
    <g clip-path="url(#p35e23fcbc9)">
     <use style="fill:#b1c2dd;stroke:#b1c2dd;" x="172.755712" xlink:href="#C0_0_82825e4c87" y="-73.997701"/>
    </g>
    <g clip-path="url(#p35e23fcbc9)">
     <use style="fill:#22334e;stroke:#22334e;" x="184.141648" xlink:href="#C0_0_82825e4c87" y="20.328754"/>
    </g>
    <g clip-path="url(#p35e23fcbc9)">
     <use style="fill:#c4d1e6;stroke:#c4d1e6;" x="184.141648" xlink:href="#C0_0_82825e4c87" y="-3.25286"/>
    </g>
    <g clip-path="url(#p35e23fcbc9)">
     <use style="fill:#b1c2dd;stroke:#b1c2dd;" x="184.141648" xlink:href="#C0_0_82825e4c87" y="-26.834474"/>
    </g>
    <g clip-path="url(#p35e23fcbc9)">
     <use style="fill:#b1c2dd;stroke:#b1c2dd;" x="184.141648" xlink:href="#C0_0_82825e4c87" y="-50.416087"/>
    </g>
    <g clip-path="url(#p35e23fcbc9)">
     <use style="fill:#ffffff;stroke:#ffffff;" x="184.141648" xlink:href="#C0_0_82825e4c87" y="-73.997701"/>
    </g>
    <g clip-path="url(#p35e23fcbc9)">
     <use style="fill:#5174ad;stroke:#5174ad;" x="195.527585" xlink:href="#C0_0_82825e4c87" y="20.328754"/>
    </g>
    <g clip-path="url(#p35e23fcbc9)">
     <use style="fill:#7593c3;stroke:#7593c3;" x="195.527585" xlink:href="#C0_0_82825e4c87" y="-3.25286"/>
    </g>
    <g clip-path="url(#p35e23fcbc9)">
     <use style="fill:#9cb1d4;stroke:#9cb1d4;" x="195.527585" xlink:href="#C0_0_82825e4c87" y="-26.834474"/>
    </g>
    <g clip-path="url(#p35e23fcbc9)">
     <use style="fill:#d8e0ee;stroke:#d8e0ee;" x="195.527585" xlink:href="#C0_0_82825e4c87" y="-50.416087"/>
    </g>
    <g clip-path="url(#p35e23fcbc9)">
     <use style="fill:#ffffff;stroke:#ffffff;" x="195.527585" xlink:href="#C0_0_82825e4c87" y="-73.997701"/>
    </g>
    <g clip-path="url(#p35e23fcbc9)">
     <use style="fill:#c4d1e6;stroke:#c4d1e6;" x="206.913522" xlink:href="#C0_0_82825e4c87" y="20.328754"/>
    </g>
    <g clip-path="url(#p35e23fcbc9)">
     <use style="fill:#19263b;stroke:#19263b;" x="206.913522" xlink:href="#C0_0_82825e4c87" y="-3.25286"/>
    </g>
    <g clip-path="url(#p35e23fcbc9)">
     <use style="fill:#c4d1e6;stroke:#c4d1e6;" x="206.913522" xlink:href="#C0_0_82825e4c87" y="-26.834474"/>
    </g>
    <g clip-path="url(#p35e23fcbc9)">
     <use style="fill:#44669e;stroke:#44669e;" x="206.913522" xlink:href="#C0_0_82825e4c87" y="-50.416087"/>
    </g>
    <g clip-path="url(#p35e23fcbc9)">
     <use style="fill:#ffffff;stroke:#ffffff;" x="206.913522" xlink:href="#C0_0_82825e4c87" y="-73.997701"/>
    </g>
    <g clip-path="url(#p35e23fcbc9)">
     <use style="fill:#ffffff;stroke:#ffffff;" x="218.299458" xlink:href="#C0_0_82825e4c87" y="20.328754"/>
    </g>
    <g clip-path="url(#p35e23fcbc9)">
     <use style="fill:#d8e0ee;stroke:#d8e0ee;" x="218.299458" xlink:href="#C0_0_82825e4c87" y="-3.25286"/>
    </g>
    <g clip-path="url(#p35e23fcbc9)">
     <use style="fill:#d8e0ee;stroke:#d8e0ee;" x="218.299458" xlink:href="#C0_0_82825e4c87" y="-26.834474"/>
    </g>
    <g clip-path="url(#p35e23fcbc9)">
     <use style="fill:#b1c2dd;stroke:#b1c2dd;" x="218.299458" xlink:href="#C0_0_82825e4c87" y="-50.416087"/>
    </g>
    <g clip-path="url(#p35e23fcbc9)">
     <use style="fill:#ebf0f7;stroke:#ebf0f7;" x="218.299458" xlink:href="#C0_0_82825e4c87" y="-73.997701"/>
    </g>
    <g clip-path="url(#p35e23fcbc9)">
     <use style="fill:#ffffff;stroke:#ffffff;" x="229.685395" xlink:href="#C0_0_82825e4c87" y="20.328754"/>
    </g>
    <g clip-path="url(#p35e23fcbc9)">
     <use style="fill:#d8e0ee;stroke:#d8e0ee;" x="229.685395" xlink:href="#C0_0_82825e4c87" y="-3.25286"/>
    </g>
    <g clip-path="url(#p35e23fcbc9)">
     <use style="fill:#ebf0f7;stroke:#ebf0f7;" x="229.685395" xlink:href="#C0_0_82825e4c87" y="-26.834474"/>
    </g>
    <g clip-path="url(#p35e23fcbc9)">
     <use style="fill:#ffffff;stroke:#ffffff;" x="229.685395" xlink:href="#C0_0_82825e4c87" y="-50.416087"/>
    </g>
    <g clip-path="url(#p35e23fcbc9)">
     <use style="fill:#ebf0f7;stroke:#ebf0f7;" x="229.685395" xlink:href="#C0_0_82825e4c87" y="-73.997701"/>
    </g>
    <g clip-path="url(#p35e23fcbc9)">
     <use style="fill:#ffffff;stroke:#ffffff;" x="241.071332" xlink:href="#C0_0_82825e4c87" y="20.328754"/>
    </g>
    <g clip-path="url(#p35e23fcbc9)">
     <use style="fill:#ffffff;stroke:#ffffff;" x="241.071332" xlink:href="#C0_0_82825e4c87" y="-3.25286"/>
    </g>
    <g clip-path="url(#p35e23fcbc9)">
     <use style="fill:#ebf0f7;stroke:#ebf0f7;" x="241.071332" xlink:href="#C0_0_82825e4c87" y="-26.834474"/>
    </g>
    <g clip-path="url(#p35e23fcbc9)">
     <use style="fill:#ffffff;stroke:#ffffff;" x="241.071332" xlink:href="#C0_0_82825e4c87" y="-50.416087"/>
    </g>
    <g clip-path="url(#p35e23fcbc9)">
     <use style="fill:#ffffff;stroke:#ffffff;" x="241.071332" xlink:href="#C0_0_82825e4c87" y="-73.997701"/>
    </g>
   </g>
   <g id="patch_3">
    <path d="M 51.881875 169.493125 
L 51.881875 39.79425 
" style="fill:none;stroke:#ffffff;stroke-linecap:square;stroke-linejoin:miter;stroke-width:1.25;"/>
   </g>
   <g id="patch_4">
    <path d="M 51.881875 169.493125 
L 177.127179 169.493125 
" style="fill:none;stroke:#ffffff;stroke-linecap:square;stroke-linejoin:miter;stroke-width:1.25;"/>
   </g>
  </g>
  <g id="axes_2">
   <g id="patch_5">
    <path d="M 51.881875 35.321875 
L 177.127179 35.321875 
L 177.127179 12.96 
L 51.881875 12.96 
z
" style="fill:#eaeaf2;"/>
   </g>
   <g id="matplotlib.axis_3">
    <g id="xtick_3">
     <g id="line2d_7">
      <path clip-path="url(#p9ca2e66d7a)" d="M 90.283534 35.321875 
L 90.283534 12.96 
" style="fill:none;stroke:#ffffff;stroke-linecap:round;"/>
     </g>
    </g>
    <g id="xtick_4">
     <g id="line2d_8">
      <path clip-path="url(#p9ca2e66d7a)" d="M 173.090346 35.321875 
L 173.090346 12.96 
" style="fill:none;stroke:#ffffff;stroke-linecap:round;"/>
     </g>
    </g>
   </g>
   <g id="matplotlib.axis_4">
    <g id="ytick_5"/>
    <g id="ytick_6"/>
   </g>
   <g id="patch_6">
    <path clip-path="url(#p9ca2e66d7a)" d="M 57.574843 35.321875 
L 67.925695 35.321875 
L 67.925695 32.877954 
L 57.574843 32.877954 
z
" style="fill:#4c72b0;fill-opacity:0.75;stroke:#ffffff;stroke-linejoin:miter;"/>
   </g>
   <g id="patch_7">
    <path clip-path="url(#p9ca2e66d7a)" d="M 67.925695 35.321875 
L 78.276546 35.321875 
L 78.276546 23.102271 
L 67.925695 23.102271 
z
" style="fill:#4c72b0;fill-opacity:0.75;stroke:#ffffff;stroke-linejoin:miter;"/>
   </g>
   <g id="patch_8">
    <path clip-path="url(#p9ca2e66d7a)" d="M 78.276546 35.321875 
L 88.627398 35.321875 
L 88.627398 18.563561 
L 78.276546 18.563561 
z
" style="fill:#4c72b0;fill-opacity:0.75;stroke:#ffffff;stroke-linejoin:miter;"/>
   </g>
   <g id="patch_9">
    <path clip-path="url(#p9ca2e66d7a)" d="M 88.627398 35.321875 
L 98.97825 35.321875 
L 98.97825 18.21443 
L 88.627398 18.21443 
z
" style="fill:#4c72b0;fill-opacity:0.75;stroke:#ffffff;stroke-linejoin:miter;"/>
   </g>
   <g id="patch_10">
    <path clip-path="url(#p9ca2e66d7a)" d="M 98.97825 35.321875 
L 109.329101 35.321875 
L 109.329101 23.102271 
L 98.97825 23.102271 
z
" style="fill:#4c72b0;fill-opacity:0.75;stroke:#ffffff;stroke-linejoin:miter;"/>
   </g>
   <g id="patch_11">
    <path clip-path="url(#p9ca2e66d7a)" d="M 109.329101 35.321875 
L 119.679953 35.321875 
L 119.679953 14.024851 
L 109.329101 14.024851 
z
" style="fill:#4c72b0;fill-opacity:0.75;stroke:#ffffff;stroke-linejoin:miter;"/>
   </g>
   <g id="patch_12">
    <path clip-path="url(#p9ca2e66d7a)" d="M 119.679953 35.321875 
L 130.030804 35.321875 
L 130.030804 20.65835 
L 119.679953 20.65835 
z
" style="fill:#4c72b0;fill-opacity:0.75;stroke:#ffffff;stroke-linejoin:miter;"/>
   </g>
   <g id="patch_13">
    <path clip-path="url(#p9ca2e66d7a)" d="M 130.030804 35.321875 
L 140.381656 35.321875 
L 140.381656 17.865298 
L 130.030804 17.865298 
z
" style="fill:#4c72b0;fill-opacity:0.75;stroke:#ffffff;stroke-linejoin:miter;"/>
   </g>
   <g id="patch_14">
    <path clip-path="url(#p9ca2e66d7a)" d="M 140.381656 35.321875 
L 150.732507 35.321875 
L 150.732507 31.83056 
L 140.381656 31.83056 
z
" style="fill:#4c72b0;fill-opacity:0.75;stroke:#ffffff;stroke-linejoin:miter;"/>
   </g>
   <g id="patch_15">
    <path clip-path="url(#p9ca2e66d7a)" d="M 150.732507 35.321875 
L 161.083359 35.321875 
L 161.083359 34.27448 
L 150.732507 34.27448 
z
" style="fill:#4c72b0;fill-opacity:0.75;stroke:#ffffff;stroke-linejoin:miter;"/>
   </g>
   <g id="patch_16">
    <path clip-path="url(#p9ca2e66d7a)" d="M 161.083359 35.321875 
L 171.43421 35.321875 
L 171.43421 34.623612 
L 161.083359 34.623612 
z
" style="fill:#4c72b0;fill-opacity:0.75;stroke:#ffffff;stroke-linejoin:miter;"/>
   </g>
   <g id="patch_17">
    <path d="M 51.881875 35.321875 
L 177.127179 35.321875 
" style="fill:none;stroke:#ffffff;stroke-linecap:square;stroke-linejoin:miter;stroke-width:1.25;"/>
   </g>
  </g>
  <g id="axes_3">
   <g id="patch_18">
    <path d="M 181.445982 169.493125 
L 203.04 169.493125 
L 203.04 39.79425 
L 181.445982 39.79425 
z
" style="fill:#eaeaf2;"/>
   </g>
   <g id="matplotlib.axis_5">
    <g id="xtick_5"/>
    <g id="xtick_6"/>
   </g>
   <g id="matplotlib.axis_6">
    <g id="ytick_7">
     <g id="line2d_9">
      <path clip-path="url(#p4d46a3cf5c)" d="M 181.445982 150.964714 
L 203.04 150.964714 
" style="fill:none;stroke:#ffffff;stroke-linecap:round;"/>
     </g>
    </g>
    <g id="ytick_8">
     <g id="line2d_10">
      <path clip-path="url(#p4d46a3cf5c)" d="M 181.445982 122.891365 
L 203.04 122.891365 
" style="fill:none;stroke:#ffffff;stroke-linecap:round;"/>
     </g>
    </g>
    <g id="ytick_9">
     <g id="line2d_11">
      <path clip-path="url(#p4d46a3cf5c)" d="M 181.445982 94.818015 
L 203.04 94.818015 
" style="fill:none;stroke:#ffffff;stroke-linecap:round;"/>
     </g>
    </g>
    <g id="ytick_10">
     <g id="line2d_12">
      <path clip-path="url(#p4d46a3cf5c)" d="M 181.445982 66.744666 
L 203.04 66.744666 
" style="fill:none;stroke:#ffffff;stroke-linecap:round;"/>
     </g>
    </g>
   </g>
   <g id="patch_19">
    <path clip-path="url(#p4d46a3cf5c)" d="M 181.445982 163.597722 
L 189.158131 163.597722 
L 189.158131 151.806915 
L 181.445982 151.806915 
z
" style="fill:#4c72b0;fill-opacity:0.75;stroke:#ffffff;stroke-linejoin:miter;"/>
   </g>
   <g id="patch_20">
    <path clip-path="url(#p4d46a3cf5c)" d="M 181.445982 151.806915 
L 194.299564 151.806915 
L 194.299564 140.016108 
L 181.445982 140.016108 
z
" style="fill:#4c72b0;fill-opacity:0.75;stroke:#ffffff;stroke-linejoin:miter;"/>
   </g>
   <g id="patch_21">
    <path clip-path="url(#p4d46a3cf5c)" d="M 181.445982 140.016108 
L 193.197829 140.016108 
L 193.197829 128.225301 
L 181.445982 128.225301 
z
" style="fill:#4c72b0;fill-opacity:0.75;stroke:#ffffff;stroke-linejoin:miter;"/>
   </g>
   <g id="patch_22">
    <path clip-path="url(#p4d46a3cf5c)" d="M 181.445982 128.225301 
L 193.932319 128.225301 
L 193.932319 116.434494 
L 181.445982 116.434494 
z
" style="fill:#4c72b0;fill-opacity:0.75;stroke:#ffffff;stroke-linejoin:miter;"/>
   </g>
   <g id="patch_23">
    <path clip-path="url(#p4d46a3cf5c)" d="M 181.445982 116.434494 
L 197.604771 116.434494 
L 197.604771 104.643688 
L 181.445982 104.643688 
z
" style="fill:#4c72b0;fill-opacity:0.75;stroke:#ffffff;stroke-linejoin:miter;"/>
   </g>
   <g id="patch_24">
    <path clip-path="url(#p4d46a3cf5c)" d="M 181.445982 104.643688 
L 201.644468 104.643688 
L 201.644468 92.852881 
L 181.445982 92.852881 
z
" style="fill:#4c72b0;fill-opacity:0.75;stroke:#ffffff;stroke-linejoin:miter;"/>
   </g>
   <g id="patch_25">
    <path clip-path="url(#p4d46a3cf5c)" d="M 181.445982 92.852881 
L 202.011713 92.852881 
L 202.011713 81.062074 
L 181.445982 81.062074 
z
" style="fill:#4c72b0;fill-opacity:0.75;stroke:#ffffff;stroke-linejoin:miter;"/>
   </g>
   <g id="patch_26">
    <path clip-path="url(#p4d46a3cf5c)" d="M 181.445982 81.062074 
L 195.768545 81.062074 
L 195.768545 69.271267 
L 181.445982 69.271267 
z
" style="fill:#4c72b0;fill-opacity:0.75;stroke:#ffffff;stroke-linejoin:miter;"/>
   </g>
   <g id="patch_27">
    <path clip-path="url(#p4d46a3cf5c)" d="M 181.445982 69.271267 
L 187.321905 69.271267 
L 187.321905 57.48046 
L 181.445982 57.48046 
z
" style="fill:#4c72b0;fill-opacity:0.75;stroke:#ffffff;stroke-linejoin:miter;"/>
   </g>
   <g id="patch_28">
    <path clip-path="url(#p4d46a3cf5c)" d="M 181.445982 57.48046 
L 185.118434 57.48046 
L 185.118434 45.689653 
L 181.445982 45.689653 
z
" style="fill:#4c72b0;fill-opacity:0.75;stroke:#ffffff;stroke-linejoin:miter;"/>
   </g>
   <g id="patch_29">
    <path d="M 181.445982 169.493125 
L 181.445982 39.79425 
" style="fill:none;stroke:#ffffff;stroke-linecap:square;stroke-linejoin:miter;stroke-width:1.25;"/>
   </g>
  </g>
 </g>
 <defs>
  <clipPath id="p35e23fcbc9">
   <rect height="129.698875" width="125.245304" x="51.881875" y="39.79425"/>
  </clipPath>
  <clipPath id="p9ca2e66d7a">
   <rect height="22.361875" width="125.245304" x="51.881875" y="12.96"/>
  </clipPath>
  <clipPath id="p4d46a3cf5c">
   <rect height="129.698875" width="21.594018" x="181.445982" y="39.79425"/>
  </clipPath>
 </defs>
</svg>
