<?xml version="1.0" encoding="utf-8" standalone="no"?>
<!DOCTYPE svg PUBLIC "-//W3C//DTD SVG 1.1//EN"
  "http://www.w3.org/Graphics/SVG/1.1/DTD/svg11.dtd">
<!-- Created with matplotlib (https://matplotlib.org/) -->
<svg height="216pt" version="1.1" viewBox="0 0 517.352 216" width="517.352pt" xmlns="http://www.w3.org/2000/svg" xmlns:xlink="http://www.w3.org/1999/xlink">
 <metadata>
  <rdf:RDF xmlns:cc="http://creativecommons.org/ns#" xmlns:dc="http://purl.org/dc/elements/1.1/" xmlns:rdf="http://www.w3.org/1999/02/22-rdf-syntax-ns#">
   <cc:Work>
    <dc:type rdf:resource="http://purl.org/dc/dcmitype/StillImage"/>
    <dc:date>2020-10-07T02:01:20.150452</dc:date>
    <dc:format>image/svg+xml</dc:format>
    <dc:creator>
     <cc:Agent>
      <dc:title>Matplotlib v3.3.1, https://matplotlib.org/</dc:title>
     </cc:Agent>
    </dc:creator>
   </cc:Work>
  </rdf:RDF>
 </metadata>
 <defs>
  <style type="text/css">*{stroke-linecap:butt;stroke-linejoin:round;}</style>
 </defs>
 <g id="figure_1">
  <g id="patch_1">
   <path d="M 0 216 
L 517.352 216 
L 517.352 0 
L 0 0 
z
" style="fill:#ffffff;"/>
  </g>
  <g id="axes_1">
   <g id="patch_2">
    <path d="M 43.789536 181.1848 
L 228.010066 181.1848 
L 228.010066 29.5152 
L 43.789536 29.5152 
z
" style="fill:#eaeaf2;"/>
   </g>
   <g id="matplotlib.axis_1">
    <g id="xtick_1">
     <g id="line2d_1">
      <path clip-path="url(#p6739c330e6)" d="M 111.554093 181.1848 
L 111.554093 29.5152 
" style="fill:none;stroke:#ffffff;stroke-linecap:round;stroke-width:0.8;"/>
     </g>
     <g id="text_1">
      <!-- 20 -->
      <g style="fill:#262626;" transform="translate(104.703018 198.303225)scale(0.1232 -0.1232)">
       <defs>
        <path d="M 50.34375 8.453125 
L 50.34375 0 
L 3.03125 0 
Q 2.9375 3.171875 4.046875 6.109375 
Q 5.859375 10.9375 9.828125 15.625 
Q 13.8125 20.3125 21.34375 26.46875 
Q 33.015625 36.03125 37.109375 41.625 
Q 41.21875 47.21875 41.21875 52.203125 
Q 41.21875 57.421875 37.46875 61 
Q 33.734375 64.59375 27.734375 64.59375 
Q 21.390625 64.59375 17.578125 60.78125 
Q 13.765625 56.984375 13.71875 50.25 
L 4.6875 51.171875 
Q 5.609375 61.28125 11.65625 66.578125 
Q 17.71875 71.875 27.9375 71.875 
Q 38.234375 71.875 44.234375 66.15625 
Q 50.25 60.453125 50.25 52 
Q 50.25 47.703125 48.484375 43.546875 
Q 46.734375 39.40625 42.65625 34.8125 
Q 38.578125 30.21875 29.109375 22.21875 
Q 21.1875 15.578125 18.9375 13.203125 
Q 16.703125 10.84375 15.234375 8.453125 
z
" id="ArialMT-50"/>
        <path d="M 4.15625 35.296875 
Q 4.15625 48 6.765625 55.734375 
Q 9.375 63.484375 14.515625 67.671875 
Q 19.671875 71.875 27.484375 71.875 
Q 33.25 71.875 37.59375 69.546875 
Q 41.9375 67.234375 44.765625 62.859375 
Q 47.609375 58.5 49.21875 52.21875 
Q 50.828125 45.953125 50.828125 35.296875 
Q 50.828125 22.703125 48.234375 14.96875 
Q 45.65625 7.234375 40.5 3 
Q 35.359375 -1.21875 27.484375 -1.21875 
Q 17.140625 -1.21875 11.234375 6.203125 
Q 4.15625 15.140625 4.15625 35.296875 
z
M 13.1875 35.296875 
Q 13.1875 17.671875 17.3125 11.828125 
Q 21.4375 6 27.484375 6 
Q 33.546875 6 37.671875 11.859375 
Q 41.796875 17.71875 41.796875 35.296875 
Q 41.796875 52.984375 37.671875 58.78125 
Q 33.546875 64.59375 27.390625 64.59375 
Q 21.34375 64.59375 17.71875 59.46875 
Q 13.1875 52.9375 13.1875 35.296875 
z
" id="ArialMT-48"/>
       </defs>
       <use xlink:href="#ArialMT-50"/>
       <use x="55.615234" xlink:href="#ArialMT-48"/>
      </g>
     </g>
    </g>
    <g id="xtick_2">
     <g id="line2d_2">
      <path clip-path="url(#p6739c330e6)" d="M 181.714634 181.1848 
L 181.714634 29.5152 
" style="fill:none;stroke:#ffffff;stroke-linecap:round;stroke-width:0.8;"/>
     </g>
     <g id="text_2">
      <!-- 40 -->
      <g style="fill:#262626;" transform="translate(174.863559 198.303225)scale(0.1232 -0.1232)">
       <defs>
        <path d="M 32.328125 0 
L 32.328125 17.140625 
L 1.265625 17.140625 
L 1.265625 25.203125 
L 33.9375 71.578125 
L 41.109375 71.578125 
L 41.109375 25.203125 
L 50.78125 25.203125 
L 50.78125 17.140625 
L 41.109375 17.140625 
L 41.109375 0 
z
M 32.328125 25.203125 
L 32.328125 57.46875 
L 9.90625 25.203125 
z
" id="ArialMT-52"/>
       </defs>
       <use xlink:href="#ArialMT-52"/>
       <use x="55.615234" xlink:href="#ArialMT-48"/>
      </g>
     </g>
    </g>
    <g id="text_3">
     <!-- Total bill -->
     <g style="fill:#262626;" transform="translate(111.625901 214.371925)scale(0.1344 -0.1344)">
      <defs>
       <path d="M 25.921875 0 
L 25.921875 63.140625 
L 2.34375 63.140625 
L 2.34375 71.578125 
L 59.078125 71.578125 
L 59.078125 63.140625 
L 35.40625 63.140625 
L 35.40625 0 
z
" id="ArialMT-84"/>
       <path d="M 3.328125 25.921875 
Q 3.328125 40.328125 11.328125 47.265625 
Q 18.015625 53.03125 27.640625 53.03125 
Q 38.328125 53.03125 45.109375 46.015625 
Q 51.90625 39.015625 51.90625 26.65625 
Q 51.90625 16.65625 48.90625 10.90625 
Q 45.90625 5.171875 40.15625 2 
Q 34.421875 -1.171875 27.640625 -1.171875 
Q 16.75 -1.171875 10.03125 5.8125 
Q 3.328125 12.796875 3.328125 25.921875 
z
M 12.359375 25.921875 
Q 12.359375 15.96875 16.703125 11.015625 
Q 21.046875 6.0625 27.640625 6.0625 
Q 34.1875 6.0625 38.53125 11.03125 
Q 42.875 16.015625 42.875 26.21875 
Q 42.875 35.84375 38.5 40.796875 
Q 34.125 45.75 27.640625 45.75 
Q 21.046875 45.75 16.703125 40.8125 
Q 12.359375 35.890625 12.359375 25.921875 
z
" id="ArialMT-111"/>
       <path d="M 25.78125 7.859375 
L 27.046875 0.09375 
Q 23.34375 -0.6875 20.40625 -0.6875 
Q 15.625 -0.6875 12.984375 0.828125 
Q 10.359375 2.34375 9.28125 4.8125 
Q 8.203125 7.28125 8.203125 15.1875 
L 8.203125 45.015625 
L 1.765625 45.015625 
L 1.765625 51.859375 
L 8.203125 51.859375 
L 8.203125 64.703125 
L 16.9375 69.96875 
L 16.9375 51.859375 
L 25.78125 51.859375 
L 25.78125 45.015625 
L 16.9375 45.015625 
L 16.9375 14.703125 
Q 16.9375 10.9375 17.40625 9.859375 
Q 17.875 8.796875 18.921875 8.15625 
Q 19.96875 7.515625 21.921875 7.515625 
Q 23.390625 7.515625 25.78125 7.859375 
z
" id="ArialMT-116"/>
       <path d="M 40.4375 6.390625 
Q 35.546875 2.25 31.03125 0.53125 
Q 26.515625 -1.171875 21.34375 -1.171875 
Q 12.796875 -1.171875 8.203125 3 
Q 3.609375 7.171875 3.609375 13.671875 
Q 3.609375 17.484375 5.34375 20.625 
Q 7.078125 23.78125 9.890625 25.6875 
Q 12.703125 27.59375 16.21875 28.5625 
Q 18.796875 29.25 24.03125 29.890625 
Q 34.671875 31.15625 39.703125 32.90625 
Q 39.75 34.71875 39.75 35.203125 
Q 39.75 40.578125 37.25 42.78125 
Q 33.890625 45.75 27.25 45.75 
Q 21.046875 45.75 18.09375 43.578125 
Q 15.140625 41.40625 13.71875 35.890625 
L 5.125 37.0625 
Q 6.296875 42.578125 8.984375 45.96875 
Q 11.671875 49.359375 16.75 51.1875 
Q 21.828125 53.03125 28.515625 53.03125 
Q 35.15625 53.03125 39.296875 51.46875 
Q 43.453125 49.90625 45.40625 47.53125 
Q 47.359375 45.171875 48.140625 41.546875 
Q 48.578125 39.3125 48.578125 33.453125 
L 48.578125 21.734375 
Q 48.578125 9.46875 49.140625 6.21875 
Q 49.703125 2.984375 51.375 0 
L 42.1875 0 
Q 40.828125 2.734375 40.4375 6.390625 
z
M 39.703125 26.03125 
Q 34.90625 24.078125 25.34375 22.703125 
Q 19.921875 21.921875 17.671875 20.9375 
Q 15.4375 19.96875 14.203125 18.09375 
Q 12.984375 16.21875 12.984375 13.921875 
Q 12.984375 10.40625 15.640625 8.0625 
Q 18.3125 5.71875 23.4375 5.71875 
Q 28.515625 5.71875 32.46875 7.9375 
Q 36.421875 10.15625 38.28125 14.015625 
Q 39.703125 17 39.703125 22.796875 
z
" id="ArialMT-97"/>
       <path d="M 6.390625 0 
L 6.390625 71.578125 
L 15.1875 71.578125 
L 15.1875 0 
z
" id="ArialMT-108"/>
       <path id="ArialMT-32"/>
       <path d="M 14.703125 0 
L 6.546875 0 
L 6.546875 71.578125 
L 15.328125 71.578125 
L 15.328125 46.046875 
Q 20.90625 53.03125 29.546875 53.03125 
Q 34.328125 53.03125 38.59375 51.09375 
Q 42.875 49.171875 45.625 45.671875 
Q 48.390625 42.1875 49.953125 37.25 
Q 51.515625 32.328125 51.515625 26.703125 
Q 51.515625 13.375 44.921875 6.09375 
Q 38.328125 -1.171875 29.109375 -1.171875 
Q 19.921875 -1.171875 14.703125 6.5 
z
M 14.59375 26.3125 
Q 14.59375 17 17.140625 12.84375 
Q 21.296875 6.0625 28.375 6.0625 
Q 34.125 6.0625 38.328125 11.0625 
Q 42.53125 16.0625 42.53125 25.984375 
Q 42.53125 36.140625 38.5 40.96875 
Q 34.46875 45.796875 28.765625 45.796875 
Q 23 45.796875 18.796875 40.796875 
Q 14.59375 35.796875 14.59375 26.3125 
z
" id="ArialMT-98"/>
       <path d="M 6.640625 61.46875 
L 6.640625 71.578125 
L 15.4375 71.578125 
L 15.4375 61.46875 
z
M 6.640625 0 
L 6.640625 51.859375 
L 15.4375 51.859375 
L 15.4375 0 
z
" id="ArialMT-105"/>
      </defs>
      <use xlink:href="#ArialMT-84"/>
      <use x="49.958984" xlink:href="#ArialMT-111"/>
      <use x="105.574219" xlink:href="#ArialMT-116"/>
      <use x="133.357422" xlink:href="#ArialMT-97"/>
      <use x="188.972656" xlink:href="#ArialMT-108"/>
      <use x="211.189453" xlink:href="#ArialMT-32"/>
      <use x="238.972656" xlink:href="#ArialMT-98"/>
      <use x="294.587891" xlink:href="#ArialMT-105"/>
      <use x="316.804688" xlink:href="#ArialMT-108"/>
      <use x="339.021484" xlink:href="#ArialMT-108"/>
     </g>
    </g>
   </g>
   <g id="matplotlib.axis_2">
    <g id="ytick_1">
     <g id="line2d_3">
      <path clip-path="url(#p6739c330e6)" d="M 43.789536 158.970566 
L 228.010066 158.970566 
" style="fill:none;stroke:#ffffff;stroke-linecap:round;stroke-width:0.8;"/>
     </g>
     <g id="text_4">
      <!-- 2 -->
      <g style="fill:#262626;" transform="translate(28.638461 163.379778)scale(0.1232 -0.1232)">
       <use xlink:href="#ArialMT-50"/>
      </g>
     </g>
    </g>
    <g id="ytick_2">
     <g id="line2d_4">
      <path clip-path="url(#p6739c330e6)" d="M 43.789536 128.330242 
L 228.010066 128.330242 
" style="fill:none;stroke:#ffffff;stroke-linecap:round;stroke-width:0.8;"/>
     </g>
     <g id="text_5">
      <!-- 4 -->
      <g style="fill:#262626;" transform="translate(28.638461 132.739455)scale(0.1232 -0.1232)">
       <use xlink:href="#ArialMT-52"/>
      </g>
     </g>
    </g>
    <g id="ytick_3">
     <g id="line2d_5">
      <path clip-path="url(#p6739c330e6)" d="M 43.789536 97.689919 
L 228.010066 97.689919 
" style="fill:none;stroke:#ffffff;stroke-linecap:round;stroke-width:0.8;"/>
     </g>
     <g id="text_6">
      <!-- 6 -->
      <g style="fill:#262626;" transform="translate(28.638461 102.099132)scale(0.1232 -0.1232)">
       <defs>
        <path d="M 49.75 54.046875 
L 41.015625 53.375 
Q 39.84375 58.546875 37.703125 60.890625 
Q 34.125 64.65625 28.90625 64.65625 
Q 24.703125 64.65625 21.53125 62.3125 
Q 17.390625 59.28125 14.984375 53.46875 
Q 12.59375 47.65625 12.5 36.921875 
Q 15.671875 41.75 20.265625 44.09375 
Q 24.859375 46.4375 29.890625 46.4375 
Q 38.671875 46.4375 44.84375 39.96875 
Q 51.03125 33.5 51.03125 23.25 
Q 51.03125 16.5 48.125 10.71875 
Q 45.21875 4.9375 40.140625 1.859375 
Q 35.0625 -1.21875 28.609375 -1.21875 
Q 17.625 -1.21875 10.6875 6.859375 
Q 3.765625 14.9375 3.765625 33.5 
Q 3.765625 54.25 11.421875 63.671875 
Q 18.109375 71.875 29.4375 71.875 
Q 37.890625 71.875 43.28125 67.140625 
Q 48.6875 62.40625 49.75 54.046875 
z
M 13.875 23.1875 
Q 13.875 18.65625 15.796875 14.5 
Q 17.71875 10.359375 21.1875 8.171875 
Q 24.65625 6 28.46875 6 
Q 34.03125 6 38.03125 10.484375 
Q 42.046875 14.984375 42.046875 22.703125 
Q 42.046875 30.125 38.078125 34.390625 
Q 34.125 38.671875 28.125 38.671875 
Q 22.171875 38.671875 18.015625 34.390625 
Q 13.875 30.125 13.875 23.1875 
z
" id="ArialMT-54"/>
       </defs>
       <use xlink:href="#ArialMT-54"/>
      </g>
     </g>
    </g>
    <g id="ytick_4">
     <g id="line2d_6">
      <path clip-path="url(#p6739c330e6)" d="M 43.789536 67.049596 
L 228.010066 67.049596 
" style="fill:none;stroke:#ffffff;stroke-linecap:round;stroke-width:0.8;"/>
     </g>
     <g id="text_7">
      <!-- 8 -->
      <g style="fill:#262626;" transform="translate(28.638461 71.458808)scale(0.1232 -0.1232)">
       <defs>
        <path d="M 17.671875 38.8125 
Q 12.203125 40.828125 9.5625 44.53125 
Q 6.9375 48.25 6.9375 53.421875 
Q 6.9375 61.234375 12.546875 66.546875 
Q 18.171875 71.875 27.484375 71.875 
Q 36.859375 71.875 42.578125 66.421875 
Q 48.296875 60.984375 48.296875 53.171875 
Q 48.296875 48.1875 45.671875 44.5 
Q 43.0625 40.828125 37.75 38.8125 
Q 44.34375 36.671875 47.78125 31.875 
Q 51.21875 27.09375 51.21875 20.453125 
Q 51.21875 11.28125 44.71875 5.03125 
Q 38.234375 -1.21875 27.640625 -1.21875 
Q 17.046875 -1.21875 10.546875 5.046875 
Q 4.046875 11.328125 4.046875 20.703125 
Q 4.046875 27.6875 7.59375 32.390625 
Q 11.140625 37.109375 17.671875 38.8125 
z
M 15.921875 53.71875 
Q 15.921875 48.640625 19.1875 45.40625 
Q 22.46875 42.1875 27.6875 42.1875 
Q 32.765625 42.1875 36.015625 45.375 
Q 39.265625 48.578125 39.265625 53.21875 
Q 39.265625 58.0625 35.90625 61.359375 
Q 32.5625 64.65625 27.59375 64.65625 
Q 22.5625 64.65625 19.234375 61.421875 
Q 15.921875 58.203125 15.921875 53.71875 
z
M 13.09375 20.65625 
Q 13.09375 16.890625 14.875 13.375 
Q 16.65625 9.859375 20.171875 7.921875 
Q 23.6875 6 27.734375 6 
Q 34.03125 6 38.125 10.046875 
Q 42.234375 14.109375 42.234375 20.359375 
Q 42.234375 26.703125 38.015625 30.859375 
Q 33.796875 35.015625 27.4375 35.015625 
Q 21.234375 35.015625 17.15625 30.90625 
Q 13.09375 26.8125 13.09375 20.65625 
z
" id="ArialMT-56"/>
       </defs>
       <use xlink:href="#ArialMT-56"/>
      </g>
     </g>
    </g>
    <g id="ytick_5">
     <g id="line2d_7">
      <path clip-path="url(#p6739c330e6)" d="M 43.789536 36.409273 
L 228.010066 36.409273 
" style="fill:none;stroke:#ffffff;stroke-linecap:round;stroke-width:0.8;"/>
     </g>
     <g id="text_8">
      <!-- 10 -->
      <g style="fill:#262626;" transform="translate(21.787386 40.818485)scale(0.1232 -0.1232)">
       <defs>
        <path d="M 37.25 0 
L 28.46875 0 
L 28.46875 56 
Q 25.296875 52.984375 20.140625 49.953125 
Q 14.984375 46.921875 10.890625 45.40625 
L 10.890625 53.90625 
Q 18.265625 57.375 23.78125 62.296875 
Q 29.296875 67.234375 31.59375 71.875 
L 37.25 71.875 
z
" id="ArialMT-49"/>
       </defs>
       <use xlink:href="#ArialMT-49"/>
       <use x="55.615234" xlink:href="#ArialMT-48"/>
      </g>
     </g>
    </g>
    <g id="text_9">
     <!-- Tip -->
     <g style="fill:#262626;" transform="translate(15.116186 114.4325)rotate(-90)scale(0.1344 -0.1344)">
      <defs>
       <path d="M 6.59375 -19.875 
L 6.59375 51.859375 
L 14.59375 51.859375 
L 14.59375 45.125 
Q 17.4375 49.078125 21 51.046875 
Q 24.5625 53.03125 29.640625 53.03125 
Q 36.28125 53.03125 41.359375 49.609375 
Q 46.4375 46.1875 49.015625 39.953125 
Q 51.609375 33.734375 51.609375 26.3125 
Q 51.609375 18.359375 48.75 11.984375 
Q 45.90625 5.609375 40.453125 2.21875 
Q 35.015625 -1.171875 29 -1.171875 
Q 24.609375 -1.171875 21.109375 0.6875 
Q 17.625 2.546875 15.375 5.375 
L 15.375 -19.875 
z
M 14.546875 25.640625 
Q 14.546875 15.625 18.59375 10.84375 
Q 22.65625 6.0625 28.421875 6.0625 
Q 34.28125 6.0625 38.453125 11.015625 
Q 42.625 15.96875 42.625 26.375 
Q 42.625 36.28125 38.546875 41.203125 
Q 34.46875 46.140625 28.8125 46.140625 
Q 23.1875 46.140625 18.859375 40.890625 
Q 14.546875 35.640625 14.546875 25.640625 
z
" id="ArialMT-112"/>
      </defs>
      <use xlink:href="#ArialMT-84"/>
      <use x="57.333984" xlink:href="#ArialMT-105"/>
      <use x="79.550781" xlink:href="#ArialMT-112"/>
     </g>
    </g>
   </g>
   <g id="PathCollection_1">
    <defs>
     <path d="M 0 2.4 
C 0.636487 2.4 1.246992 2.147121 1.697056 1.697056 
C 2.147121 1.246992 2.4 0.636487 2.4 0 
C 2.4 -0.636487 2.147121 -1.246992 1.697056 -1.697056 
C 1.246992 -2.147121 0.636487 -2.4 0 -2.4 
C -0.636487 -2.4 -1.246992 -2.147121 -1.697056 -1.697056 
C -2.147121 -1.246992 -2.4 -0.636487 -2.4 0 
C -2.4 0.636487 -2.147121 1.246992 -1.697056 1.697056 
C -1.246992 2.147121 -0.636487 2.4 0 2.4 
z
" id="m6fb376a9cd" style="stroke:#ffffff;stroke-width:0.384;"/>
    </defs>
    <g clip-path="url(#p6739c330e6)">
     <use style="fill:#4c72b0;stroke:#ffffff;stroke-width:0.384;" x="136.811888" xlink:href="#m6fb376a9cd" y="128.330242"/>
     <use style="fill:#4c72b0;stroke:#ffffff;stroke-width:0.384;" x="121.236248" xlink:href="#m6fb376a9cd" y="143.650404"/>
     <use style="fill:#4c72b0;stroke:#ffffff;stroke-width:0.384;" x="102.04734" xlink:href="#m6fb376a9cd" y="148.093251"/>
     <use style="fill:#4c72b0;stroke:#ffffff;stroke-width:0.384;" x="109.589598" xlink:href="#m6fb376a9cd" y="143.650404"/>
     <use style="fill:#4c72b0;stroke:#ffffff;stroke-width:0.384;" x="99.837283" xlink:href="#m6fb376a9cd" y="137.522339"/>
     <use style="fill:#4c72b0;stroke:#ffffff;stroke-width:0.384;" x="156.035876" xlink:href="#m6fb376a9cd" y="113.010081"/>
     <use style="fill:#4c72b0;stroke:#ffffff;stroke-width:0.384;" x="97.451825" xlink:href="#m6fb376a9cd" y="158.510961"/>
     <use style="fill:#4c72b0;stroke:#ffffff;stroke-width:0.384;" x="87.103145" xlink:href="#m6fb376a9cd" y="158.970566"/>
     <use style="fill:#4c72b0;stroke:#ffffff;stroke-width:0.384;" x="105.520287" xlink:href="#m6fb376a9cd" y="128.330242"/>
     <use style="fill:#4c72b0;stroke:#ffffff;stroke-width:0.384;" x="128.076901" xlink:href="#m6fb376a9cd" y="99.987943"/>
     <use style="fill:#4c72b0;stroke:#ffffff;stroke-width:0.384;" x="115.623405" xlink:href="#m6fb376a9cd" y="143.650404"/>
     <use style="fill:#4c72b0;stroke:#ffffff;stroke-width:0.384;" x="82.402389" xlink:href="#m6fb376a9cd" y="154.221316"/>
     <use style="fill:#4c72b0;stroke:#ffffff;stroke-width:0.384;" x="91.418018" xlink:href="#m6fb376a9cd" y="151.310485"/>
     <use style="fill:#4c72b0;stroke:#ffffff;stroke-width:0.384;" x="97.346584" xlink:href="#m6fb376a9cd" y="158.970566"/>
     <use style="fill:#4c72b0;stroke:#ffffff;stroke-width:0.384;" x="71.281943" xlink:href="#m6fb376a9cd" y="166.93705"/>
     <use style="fill:#4c72b0;stroke:#ffffff;stroke-width:0.384;" x="121.44673" xlink:href="#m6fb376a9cd" y="156.212937"/>
     <use style="fill:#4c72b0;stroke:#ffffff;stroke-width:0.384;" x="108.326709" xlink:href="#m6fb376a9cd" y="166.630646"/>
     <use style="fill:#4c72b0;stroke:#ffffff;stroke-width:0.384;" x="97.521985" xlink:href="#m6fb376a9cd" y="158.970566"/>
     <use style="fill:#4c72b0;stroke:#ffffff;stroke-width:0.384;" x="161.71888" xlink:href="#m6fb376a9cd" y="86.965806"/>
     <use style="fill:#4c72b0;stroke:#ffffff;stroke-width:0.384;" x="185.889186" xlink:href="#m6fb376a9cd" y="113.010081"/>
     <use style="fill:#4c72b0;stroke:#ffffff;stroke-width:0.384;" x="75.702057" xlink:href="#m6fb376a9cd" y="163.107009"/>
     <use style="fill:#4c72b0;stroke:#ffffff;stroke-width:0.384;" x="67.738836" xlink:href="#m6fb376a9cd" y="158.970566"/>
     <use style="fill:#4c72b0;stroke:#ffffff;stroke-width:0.384;" x="141.161841" xlink:href="#m6fb376a9cd" y="150.391275"/>
     <use style="fill:#4c72b0;stroke:#ffffff;stroke-width:0.384;" x="95.697811" xlink:href="#m6fb376a9cd" y="158.664162"/>
     <use style="fill:#4c72b0;stroke:#ffffff;stroke-width:0.384;" x="99.556641" xlink:href="#m6fb376a9cd" y="128.330242"/>
     <use style="fill:#4c72b0;stroke:#ffffff;stroke-width:0.384;" x="67.914237" xlink:href="#m6fb376a9cd" y="167.549856"/>
     <use style="fill:#4c72b0;stroke:#ffffff;stroke-width:0.384;" x="77.666552" xlink:href="#m6fb376a9cd" y="158.970566"/>
     <use style="fill:#4c72b0;stroke:#ffffff;stroke-width:0.384;" x="88.786998" xlink:href="#m6fb376a9cd" y="158.970566"/>
     <use style="fill:#4c72b0;stroke:#ffffff;stroke-width:0.384;" x="107.028739" xlink:href="#m6fb376a9cd" y="128.330242"/>
     <use style="fill:#4c72b0;stroke:#ffffff;stroke-width:0.384;" x="113.413348" xlink:href="#m6fb376a9cd" y="128.330242"/>
     <use style="fill:#4c72b0;stroke:#ffffff;stroke-width:0.384;" x="84.051162" xlink:href="#m6fb376a9cd" y="155.906533"/>
     <use style="fill:#4c72b0;stroke:#ffffff;stroke-width:0.384;" x="71.492425" xlink:href="#m6fb376a9cd" y="160.196179"/>
     <use style="fill:#4c72b0;stroke:#ffffff;stroke-width:0.384;" x="88.471276" xlink:href="#m6fb376a9cd" y="165.405034"/>
    </g>
   </g>
   <g id="PathCollection_2">
    <defs>
     <path d="M 0 2.4 
C 0.636487 2.4 1.246992 2.147121 1.697056 1.697056 
C 2.147121 1.246992 2.4 0.636487 2.4 0 
C 2.4 -0.636487 2.147121 -1.246992 1.697056 -1.697056 
C 1.246992 -2.147121 0.636487 -2.4 0 -2.4 
C -0.636487 -2.4 -1.246992 -2.147121 -1.697056 -1.697056 
C -2.147121 -1.246992 -2.4 -0.636487 -2.4 0 
C -2.4 0.636487 -2.147121 1.246992 -1.697056 1.697056 
C -1.246992 2.147121 -0.636487 2.4 0 2.4 
z
" id="mee801eb646" style="stroke:#ffffff;stroke-width:0.384;"/>
    </defs>
    <g clip-path="url(#p6739c330e6)">
     <use style="fill:#dd8452;stroke:#ffffff;stroke-width:0.384;" x="76.719385" xlink:href="#mee801eb646" y="161.574993"/>
     <use style="fill:#dd8452;stroke:#ffffff;stroke-width:0.384;" x="163.578134" xlink:href="#mee801eb646" y="110.405653"/>
     <use style="fill:#dd8452;stroke:#ffffff;stroke-width:0.384;" x="78.754041" xlink:href="#mee801eb646" y="166.630646"/>
     <use style="fill:#dd8452;stroke:#ffffff;stroke-width:0.384;" x="84.998329" xlink:href="#mee801eb646" y="162.034598"/>
     <use style="fill:#dd8452;stroke:#ffffff;stroke-width:0.384;" x="125.866844" xlink:href="#mee801eb646" y="144.876017"/>
     <use style="fill:#dd8452;stroke:#ffffff;stroke-width:0.384;" x="88.471276" xlink:href="#mee801eb646" y="163.873017"/>
     <use style="fill:#dd8452;stroke:#ffffff;stroke-width:0.384;" x="85.17373" xlink:href="#mee801eb646" y="151.004082"/>
     <use style="fill:#dd8452;stroke:#ffffff;stroke-width:0.384;" x="145.932758" xlink:href="#mee801eb646" y="125.26621"/>
     <use style="fill:#dd8452;stroke:#ffffff;stroke-width:0.384;" x="92.330105" xlink:href="#mee801eb646" y="158.970566"/>
     <use style="fill:#dd8452;stroke:#ffffff;stroke-width:0.384;" x="81.314901" xlink:href="#mee801eb646" y="158.970566"/>
     <use style="fill:#dd8452;stroke:#ffffff;stroke-width:0.384;" x="112.501261" xlink:href="#mee801eb646" y="146.254832"/>
     <use style="fill:#dd8452;stroke:#ffffff;stroke-width:0.384;" x="80.578215" xlink:href="#mee801eb646" y="166.630646"/>
     <use style="fill:#dd8452;stroke:#ffffff;stroke-width:0.384;" x="84.401964" xlink:href="#mee801eb646" y="158.970566"/>
     <use style="fill:#dd8452;stroke:#ffffff;stroke-width:0.384;" x="105.450126" xlink:href="#mee801eb646" y="139.820364"/>
     <use style="fill:#dd8452;stroke:#ffffff;stroke-width:0.384;" x="71.246863" xlink:href="#mee801eb646" y="170.460687"/>
     <use style="fill:#dd8452;stroke:#ffffff;stroke-width:0.384;" x="77.631472" xlink:href="#mee801eb646" y="158.970566"/>
     <use style="fill:#dd8452;stroke:#ffffff;stroke-width:0.384;" x="91.032135" xlink:href="#mee801eb646" y="158.970566"/>
     <use style="fill:#dd8452;stroke:#ffffff;stroke-width:0.384;" x="87.559189" xlink:href="#mee801eb646" y="147.480444"/>
     <use style="fill:#dd8452;stroke:#ffffff;stroke-width:0.384;" x="102.678785" xlink:href="#mee801eb646" y="135.990323"/>
     <use style="fill:#dd8452;stroke:#ffffff;stroke-width:0.384;" x="136.285684" xlink:href="#mee801eb646" y="113.010081"/>
     <use style="fill:#dd8452;stroke:#ffffff;stroke-width:0.384;" x="99.030437" xlink:href="#mee801eb646" y="154.374517"/>
     <use style="fill:#dd8452;stroke:#ffffff;stroke-width:0.384;" x="70.685579" xlink:href="#mee801eb646" y="166.630646"/>
     <use style="fill:#dd8452;stroke:#ffffff;stroke-width:0.384;" x="106.783177" xlink:href="#mee801eb646" y="168.775469"/>
     <use style="fill:#dd8452;stroke:#ffffff;stroke-width:0.384;" x="83.033834" xlink:href="#mee801eb646" y="164.639025"/>
     <use style="fill:#dd8452;stroke:#ffffff;stroke-width:0.384;" x="110.887568" xlink:href="#mee801eb646" y="125.419412"/>
     <use style="fill:#dd8452;stroke:#ffffff;stroke-width:0.384;" x="192.624598" xlink:href="#mee801eb646" y="113.010081"/>
     <use style="fill:#dd8452;stroke:#ffffff;stroke-width:0.384;" x="86.997904" xlink:href="#mee801eb646" y="158.970566"/>
     <use style="fill:#dd8452;stroke:#ffffff;stroke-width:0.384;" x="86.085817" xlink:href="#mee801eb646" y="158.817364"/>
     <use style="fill:#dd8452;stroke:#ffffff;stroke-width:0.384;" x="86.997904" xlink:href="#mee801eb646" y="158.970566"/>
     <use style="fill:#dd8452;stroke:#ffffff;stroke-width:0.384;" x="98.925196" xlink:href="#mee801eb646" y="151.310485"/>
     <use style="fill:#dd8452;stroke:#ffffff;stroke-width:0.384;" x="99.170758" xlink:href="#mee801eb646" y="140.126767"/>
     <use style="fill:#dd8452;stroke:#ffffff;stroke-width:0.384;" x="88.471276" xlink:href="#mee801eb646" y="136.296726"/>
     <use style="fill:#dd8452;stroke:#ffffff;stroke-width:0.384;" x="97.451825" xlink:href="#mee801eb646" y="143.650404"/>
     <use style="fill:#dd8452;stroke:#ffffff;stroke-width:0.384;" x="98.469153" xlink:href="#mee801eb646" y="151.310485"/>
     <use style="fill:#dd8452;stroke:#ffffff;stroke-width:0.384;" x="76.789546" xlink:href="#mee801eb646" y="158.970566"/>
    </g>
   </g>
   <g id="patch_3">
    <path d="M 43.789536 181.1848 
L 43.789536 29.5152 
" style="fill:none;stroke:#ffffff;stroke-linecap:square;stroke-linejoin:miter;"/>
   </g>
   <g id="patch_4">
    <path d="M 43.789536 181.1848 
L 228.010066 181.1848 
" style="fill:none;stroke:#ffffff;stroke-linecap:square;stroke-linejoin:miter;"/>
   </g>
   <g id="text_10">
    <!-- time = Lunch -->
    <g style="fill:#262626;" transform="translate(97.238801 23.5152)scale(0.1344 -0.1344)">
     <defs>
      <path d="M 6.59375 0 
L 6.59375 51.859375 
L 14.453125 51.859375 
L 14.453125 44.578125 
Q 16.890625 48.390625 20.9375 50.703125 
Q 25 53.03125 30.171875 53.03125 
Q 35.9375 53.03125 39.625 50.640625 
Q 43.3125 48.25 44.828125 43.953125 
Q 50.984375 53.03125 60.84375 53.03125 
Q 68.5625 53.03125 72.703125 48.75 
Q 76.859375 44.484375 76.859375 35.59375 
L 76.859375 0 
L 68.109375 0 
L 68.109375 32.671875 
Q 68.109375 37.9375 67.25 40.25 
Q 66.40625 42.578125 64.15625 43.984375 
Q 61.921875 45.40625 58.890625 45.40625 
Q 53.421875 45.40625 49.796875 41.765625 
Q 46.1875 38.140625 46.1875 30.125 
L 46.1875 0 
L 37.40625 0 
L 37.40625 33.6875 
Q 37.40625 39.546875 35.25 42.46875 
Q 33.109375 45.40625 28.21875 45.40625 
Q 24.515625 45.40625 21.359375 43.453125 
Q 18.21875 41.5 16.796875 37.734375 
Q 15.375 33.984375 15.375 26.90625 
L 15.375 0 
z
" id="ArialMT-109"/>
      <path d="M 42.09375 16.703125 
L 51.171875 15.578125 
Q 49.03125 7.625 43.21875 3.21875 
Q 37.40625 -1.171875 28.375 -1.171875 
Q 17 -1.171875 10.328125 5.828125 
Q 3.65625 12.84375 3.65625 25.484375 
Q 3.65625 38.578125 10.390625 45.796875 
Q 17.140625 53.03125 27.875 53.03125 
Q 38.28125 53.03125 44.875 45.953125 
Q 51.46875 38.875 51.46875 26.03125 
Q 51.46875 25.25 51.421875 23.6875 
L 12.75 23.6875 
Q 13.234375 15.140625 17.578125 10.59375 
Q 21.921875 6.0625 28.421875 6.0625 
Q 33.25 6.0625 36.671875 8.59375 
Q 40.09375 11.140625 42.09375 16.703125 
z
M 13.234375 30.90625 
L 42.1875 30.90625 
Q 41.609375 37.453125 38.875 40.71875 
Q 34.671875 45.796875 27.984375 45.796875 
Q 21.921875 45.796875 17.796875 41.75 
Q 13.671875 37.703125 13.234375 30.90625 
z
" id="ArialMT-101"/>
      <path d="M 52.828125 42.09375 
L 5.5625 42.09375 
L 5.5625 50.296875 
L 52.828125 50.296875 
z
M 52.828125 20.359375 
L 5.5625 20.359375 
L 5.5625 28.5625 
L 52.828125 28.5625 
z
" id="ArialMT-61"/>
      <path d="M 7.328125 0 
L 7.328125 71.578125 
L 16.796875 71.578125 
L 16.796875 8.453125 
L 52.046875 8.453125 
L 52.046875 0 
z
" id="ArialMT-76"/>
      <path d="M 40.578125 0 
L 40.578125 7.625 
Q 34.515625 -1.171875 24.125 -1.171875 
Q 19.53125 -1.171875 15.546875 0.578125 
Q 11.578125 2.34375 9.640625 5 
Q 7.71875 7.671875 6.9375 11.53125 
Q 6.390625 14.109375 6.390625 19.734375 
L 6.390625 51.859375 
L 15.1875 51.859375 
L 15.1875 23.09375 
Q 15.1875 16.21875 15.71875 13.8125 
Q 16.546875 10.359375 19.234375 8.375 
Q 21.921875 6.390625 25.875 6.390625 
Q 29.828125 6.390625 33.296875 8.421875 
Q 36.765625 10.453125 38.203125 13.9375 
Q 39.65625 17.4375 39.65625 24.078125 
L 39.65625 51.859375 
L 48.4375 51.859375 
L 48.4375 0 
z
" id="ArialMT-117"/>
      <path d="M 6.59375 0 
L 6.59375 51.859375 
L 14.5 51.859375 
L 14.5 44.484375 
Q 20.21875 53.03125 31 53.03125 
Q 35.6875 53.03125 39.625 51.34375 
Q 43.5625 49.65625 45.515625 46.921875 
Q 47.46875 44.1875 48.25 40.4375 
Q 48.734375 37.984375 48.734375 31.890625 
L 48.734375 0 
L 39.9375 0 
L 39.9375 31.546875 
Q 39.9375 36.921875 38.90625 39.578125 
Q 37.890625 42.234375 35.28125 43.8125 
Q 32.671875 45.40625 29.15625 45.40625 
Q 23.53125 45.40625 19.453125 41.84375 
Q 15.375 38.28125 15.375 28.328125 
L 15.375 0 
z
" id="ArialMT-110"/>
      <path d="M 40.4375 19 
L 49.078125 17.875 
Q 47.65625 8.9375 41.8125 3.875 
Q 35.984375 -1.171875 27.484375 -1.171875 
Q 16.84375 -1.171875 10.375 5.78125 
Q 3.90625 12.75 3.90625 25.734375 
Q 3.90625 34.125 6.6875 40.421875 
Q 9.46875 46.734375 15.15625 49.875 
Q 20.84375 53.03125 27.546875 53.03125 
Q 35.984375 53.03125 41.359375 48.75 
Q 46.734375 44.484375 48.25 36.625 
L 39.703125 35.296875 
Q 38.484375 40.53125 35.375 43.15625 
Q 32.28125 45.796875 27.875 45.796875 
Q 21.234375 45.796875 17.078125 41.03125 
Q 12.9375 36.28125 12.9375 25.984375 
Q 12.9375 15.53125 16.9375 10.796875 
Q 20.953125 6.0625 27.390625 6.0625 
Q 32.5625 6.0625 36.03125 9.234375 
Q 39.5 12.40625 40.4375 19 
z
" id="ArialMT-99"/>
      <path d="M 6.59375 0 
L 6.59375 71.578125 
L 15.375 71.578125 
L 15.375 45.90625 
Q 21.53125 53.03125 30.90625 53.03125 
Q 36.671875 53.03125 40.921875 50.75 
Q 45.171875 48.484375 47 44.484375 
Q 48.828125 40.484375 48.828125 32.859375 
L 48.828125 0 
L 40.046875 0 
L 40.046875 32.859375 
Q 40.046875 39.453125 37.1875 42.453125 
Q 34.328125 45.453125 29.109375 45.453125 
Q 25.203125 45.453125 21.75 43.421875 
Q 18.3125 41.40625 16.84375 37.9375 
Q 15.375 34.46875 15.375 28.375 
L 15.375 0 
z
" id="ArialMT-104"/>
     </defs>
     <use xlink:href="#ArialMT-116"/>
     <use x="27.783203" xlink:href="#ArialMT-105"/>
     <use x="50" xlink:href="#ArialMT-109"/>
     <use x="133.300781" xlink:href="#ArialMT-101"/>
     <use x="188.916016" xlink:href="#ArialMT-32"/>
     <use x="216.699219" xlink:href="#ArialMT-61"/>
     <use x="275.097656" xlink:href="#ArialMT-32"/>
     <use x="302.880859" xlink:href="#ArialMT-76"/>
     <use x="358.496094" xlink:href="#ArialMT-117"/>
     <use x="414.111328" xlink:href="#ArialMT-110"/>
     <use x="469.726562" xlink:href="#ArialMT-99"/>
     <use x="519.726562" xlink:href="#ArialMT-104"/>
    </g>
   </g>
  </g>
  <g id="axes_2">
   <g id="patch_5">
    <path d="M 242.605949 181.1848 
L 426.82648 181.1848 
L 426.82648 29.5152 
L 242.605949 29.5152 
z
" style="fill:#eaeaf2;"/>
   </g>
   <g id="matplotlib.axis_3">
    <g id="xtick_3">
     <g id="line2d_8">
      <path clip-path="url(#pda3c55667c)" d="M 310.370507 181.1848 
L 310.370507 29.5152 
" style="fill:none;stroke:#ffffff;stroke-linecap:round;stroke-width:0.8;"/>
     </g>
     <g id="text_11">
      <!-- 20 -->
      <g style="fill:#262626;" transform="translate(303.519432 198.303225)scale(0.1232 -0.1232)">
       <use xlink:href="#ArialMT-50"/>
       <use x="55.615234" xlink:href="#ArialMT-48"/>
      </g>
     </g>
    </g>
    <g id="xtick_4">
     <g id="line2d_9">
      <path clip-path="url(#pda3c55667c)" d="M 380.531047 181.1848 
L 380.531047 29.5152 
" style="fill:none;stroke:#ffffff;stroke-linecap:round;stroke-width:0.8;"/>
     </g>
     <g id="text_12">
      <!-- 40 -->
      <g style="fill:#262626;" transform="translate(373.679972 198.303225)scale(0.1232 -0.1232)">
       <use xlink:href="#ArialMT-52"/>
       <use x="55.615234" xlink:href="#ArialMT-48"/>
      </g>
     </g>
    </g>
    <g id="text_13">
     <!-- Total bill -->
     <g style="fill:#262626;" transform="translate(310.442315 214.371925)scale(0.1344 -0.1344)">
      <use xlink:href="#ArialMT-84"/>
      <use x="49.958984" xlink:href="#ArialMT-111"/>
      <use x="105.574219" xlink:href="#ArialMT-116"/>
      <use x="133.357422" xlink:href="#ArialMT-97"/>
      <use x="188.972656" xlink:href="#ArialMT-108"/>
      <use x="211.189453" xlink:href="#ArialMT-32"/>
      <use x="238.972656" xlink:href="#ArialMT-98"/>
      <use x="294.587891" xlink:href="#ArialMT-105"/>
      <use x="316.804688" xlink:href="#ArialMT-108"/>
      <use x="339.021484" xlink:href="#ArialMT-108"/>
     </g>
    </g>
   </g>
   <g id="matplotlib.axis_4">
    <g id="ytick_6">
     <g id="line2d_10">
      <path clip-path="url(#pda3c55667c)" d="M 242.605949 158.970566 
L 426.82648 158.970566 
" style="fill:none;stroke:#ffffff;stroke-linecap:round;stroke-width:0.8;"/>
     </g>
    </g>
    <g id="ytick_7">
     <g id="line2d_11">
      <path clip-path="url(#pda3c55667c)" d="M 242.605949 128.330242 
L 426.82648 128.330242 
" style="fill:none;stroke:#ffffff;stroke-linecap:round;stroke-width:0.8;"/>
     </g>
    </g>
    <g id="ytick_8">
     <g id="line2d_12">
      <path clip-path="url(#pda3c55667c)" d="M 242.605949 97.689919 
L 426.82648 97.689919 
" style="fill:none;stroke:#ffffff;stroke-linecap:round;stroke-width:0.8;"/>
     </g>
    </g>
    <g id="ytick_9">
     <g id="line2d_13">
      <path clip-path="url(#pda3c55667c)" d="M 242.605949 67.049596 
L 426.82648 67.049596 
" style="fill:none;stroke:#ffffff;stroke-linecap:round;stroke-width:0.8;"/>
     </g>
    </g>
    <g id="ytick_10">
     <g id="line2d_14">
      <path clip-path="url(#pda3c55667c)" d="M 242.605949 36.409273 
L 426.82648 36.409273 
" style="fill:none;stroke:#ffffff;stroke-linecap:round;stroke-width:0.8;"/>
     </g>
    </g>
   </g>
   <g id="PathCollection_3">
    <g clip-path="url(#pda3c55667c)">
     <use style="fill:#4c72b0;stroke:#ffffff;stroke-width:0.384;" x="276.482966" xlink:href="#m6fb376a9cd" y="164.179421"/>
     <use style="fill:#4c72b0;stroke:#ffffff;stroke-width:0.384;" x="313.913614" xlink:href="#m6fb376a9cd" y="135.990323"/>
     <use style="fill:#4c72b0;stroke:#ffffff;stroke-width:0.384;" x="323.280047" xlink:href="#m6fb376a9cd" y="138.901154"/>
     <use style="fill:#4c72b0;stroke:#ffffff;stroke-width:0.384;" x="328.92797" xlink:href="#m6fb376a9cd" y="117.452928"/>
     <use style="fill:#4c72b0;stroke:#ffffff;stroke-width:0.384;" x="270.975364" xlink:href="#m6fb376a9cd" y="158.970566"/>
     <use style="fill:#4c72b0;stroke:#ffffff;stroke-width:0.384;" x="334.505733" xlink:href="#m6fb376a9cd" y="141.811985"/>
     <use style="fill:#4c72b0;stroke:#ffffff;stroke-width:0.384;" x="292.970693" xlink:href="#m6fb376a9cd" y="159.583372"/>
     <use style="fill:#4c72b0;stroke:#ffffff;stroke-width:0.384;" x="292.058606" xlink:href="#m6fb376a9cd" y="140.126767"/>
     <use style="fill:#4c72b0;stroke:#ffffff;stroke-width:0.384;" x="276.237404" xlink:href="#m6fb376a9cd" y="163.413413"/>
     <use style="fill:#4c72b0;stroke:#ffffff;stroke-width:0.384;" x="294.303743" xlink:href="#m6fb376a9cd" y="165.558235"/>
     <use style="fill:#4c72b0;stroke:#ffffff;stroke-width:0.384;" x="304.862905" xlink:href="#m6fb376a9cd" y="143.650404"/>
     <use style="fill:#4c72b0;stroke:#ffffff;stroke-width:0.384;" x="315.91319" xlink:href="#m6fb376a9cd" y="129.555855"/>
     <use style="fill:#4c72b0;stroke:#ffffff;stroke-width:0.384;" x="297.355727" xlink:href="#m6fb376a9cd" y="132.773089"/>
     <use style="fill:#4c72b0;stroke:#ffffff;stroke-width:0.384;" x="312.650725" xlink:href="#m6fb376a9cd" y="138.288347"/>
     <use style="fill:#4c72b0;stroke:#ffffff;stroke-width:0.384;" x="303.073811" xlink:href="#m6fb376a9cd" y="127.104629"/>
     <use style="fill:#4c72b0;stroke:#ffffff;stroke-width:0.384;" x="378.496392" xlink:href="#m6fb376a9cd" y="73.484064"/>
     <use style="fill:#4c72b0;stroke:#ffffff;stroke-width:0.384;" x="309.739062" xlink:href="#m6fb376a9cd" y="140.892775"/>
     <use style="fill:#4c72b0;stroke:#ffffff;stroke-width:0.384;" x="302.687928" xlink:href="#m6fb376a9cd" y="153.761711"/>
     <use style="fill:#4c72b0;stroke:#ffffff;stroke-width:0.384;" x="287.112288" xlink:href="#m6fb376a9cd" y="158.970566"/>
     <use style="fill:#4c72b0;stroke:#ffffff;stroke-width:0.384;" x="284.72683" xlink:href="#m6fb376a9cd" y="158.970566"/>
     <use style="fill:#4c72b0;stroke:#ffffff;stroke-width:0.384;" x="316.334153" xlink:href="#m6fb376a9cd" y="123.734194"/>
     <use style="fill:#4c72b0;stroke:#ffffff;stroke-width:0.384;" x="273.711625" xlink:href="#m6fb376a9cd" y="167.396655"/>
     <use style="fill:#4c72b0;stroke:#ffffff;stroke-width:0.384;" x="304.582263" xlink:href="#m6fb376a9cd" y="151.310485"/>
     <use style="fill:#4c72b0;stroke:#ffffff;stroke-width:0.384;" x="302.582687" xlink:href="#m6fb376a9cd" y="139.51396"/>
     <use style="fill:#4c72b0;stroke:#ffffff;stroke-width:0.384;" x="324.613097" xlink:href="#m6fb376a9cd" y="134.458307"/>
     <use style="fill:#4c72b0;stroke:#ffffff;stroke-width:0.384;" x="297.425887" xlink:href="#m6fb376a9cd" y="158.970566"/>
     <use style="fill:#4c72b0;stroke:#ffffff;stroke-width:0.384;" x="305.774992" xlink:href="#m6fb376a9cd" y="154.221316"/>
     <use style="fill:#4c72b0;stroke:#ffffff;stroke-width:0.384;" x="349.905972" xlink:href="#m6fb376a9cd" y="113.010081"/>
     <use style="fill:#4c72b0;stroke:#ffffff;stroke-width:0.384;" x="296.47872" xlink:href="#m6fb376a9cd" y="155.293727"/>
     <use style="fill:#4c72b0;stroke:#ffffff;stroke-width:0.384;" x="301.460118" xlink:href="#m6fb376a9cd" y="150.697678"/>
     <use style="fill:#4c72b0;stroke:#ffffff;stroke-width:0.384;" x="289.111863" xlink:href="#m6fb376a9cd" y="142.731194"/>
     <use style="fill:#4c72b0;stroke:#ffffff;stroke-width:0.384;" x="274.167668" xlink:href="#m6fb376a9cd" y="169.388276"/>
     <use style="fill:#4c72b0;stroke:#ffffff;stroke-width:0.384;" x="346.853988" xlink:href="#m6fb376a9cd" y="103.817984"/>
     <use style="fill:#4c72b0;stroke:#ffffff;stroke-width:0.384;" x="304.371781" xlink:href="#m6fb376a9cd" y="143.650404"/>
     <use style="fill:#4c72b0;stroke:#ffffff;stroke-width:0.384;" x="318.193407" xlink:href="#m6fb376a9cd" y="113.010081"/>
     <use style="fill:#4c72b0;stroke:#ffffff;stroke-width:0.384;" x="353.870042" xlink:href="#m6fb376a9cd" y="97.689919"/>
     <use style="fill:#4c72b0;stroke:#ffffff;stroke-width:0.384;" x="340.364138" xlink:href="#m6fb376a9cd" y="158.204558"/>
     <use style="fill:#4c72b0;stroke:#ffffff;stroke-width:0.384;" x="303.494774" xlink:href="#m6fb376a9cd" y="143.650404"/>
     <use style="fill:#4c72b0;stroke:#ffffff;stroke-width:0.384;" x="284.200626" xlink:href="#m6fb376a9cd" y="151.310485"/>
     <use style="fill:#4c72b0;stroke:#ffffff;stroke-width:0.384;" x="275.079755" xlink:href="#m6fb376a9cd" y="165.711437"/>
     <use style="fill:#4c72b0;stroke:#ffffff;stroke-width:0.384;" x="329.875137" xlink:href="#m6fb376a9cd" y="123.121387"/>
     <use style="fill:#4c72b0;stroke:#ffffff;stroke-width:0.384;" x="308.581413" xlink:href="#m6fb376a9cd" y="135.837122"/>
     <use style="fill:#4c72b0;stroke:#ffffff;stroke-width:0.384;" x="373.550074" xlink:href="#m6fb376a9cd" y="143.650404"/>
     <use style="fill:#4c72b0;stroke:#ffffff;stroke-width:0.384;" x="279.64019" xlink:href="#m6fb376a9cd" y="162.647404"/>
     <use style="fill:#4c72b0;stroke:#ffffff;stroke-width:0.384;" x="409.542431" xlink:href="#m6fb376a9cd" y="86.506201"/>
     <use style="fill:#4c72b0;stroke:#ffffff;stroke-width:0.384;" x="311.387835" xlink:href="#m6fb376a9cd" y="140.43317"/>
     <use style="fill:#4c72b0;stroke:#ffffff;stroke-width:0.384;" x="288.65582" xlink:href="#m6fb376a9cd" y="158.970566"/>
     <use style="fill:#4c72b0;stroke:#ffffff;stroke-width:0.384;" x="278.868424" xlink:href="#m6fb376a9cd" y="159.276969"/>
     <use style="fill:#4c72b0;stroke:#ffffff;stroke-width:0.384;" x="304.371781" xlink:href="#m6fb376a9cd" y="132.007081"/>
     <use style="fill:#4c72b0;stroke:#ffffff;stroke-width:0.384;" x="301.916162" xlink:href="#m6fb376a9cd" y="149.165662"/>
     <use style="fill:#4c72b0;stroke:#ffffff;stroke-width:0.384;" x="310.651149" xlink:href="#m6fb376a9cd" y="141.35238"/>
     <use style="fill:#4c72b0;stroke:#ffffff;stroke-width:0.384;" x="311.177353" xlink:href="#m6fb376a9cd" y="158.817364"/>
     <use style="fill:#4c72b0;stroke:#ffffff;stroke-width:0.384;" x="292.865452" xlink:href="#m6fb376a9cd" y="157.591751"/>
     <use style="fill:#4c72b0;stroke:#ffffff;stroke-width:0.384;" x="282.376451" xlink:href="#m6fb376a9cd" y="159.430171"/>
     <use style="fill:#4c72b0;stroke:#ffffff;stroke-width:0.384;" x="277.079331" xlink:href="#m6fb376a9cd" y="170.460687"/>
     <use style="fill:#4c72b0;stroke:#ffffff;stroke-width:0.384;" x="303.073811" xlink:href="#m6fb376a9cd" y="142.424791"/>
     <use style="fill:#4c72b0;stroke:#ffffff;stroke-width:0.384;" x="341.837509" xlink:href="#m6fb376a9cd" y="143.650404"/>
     <use style="fill:#4c72b0;stroke:#ffffff;stroke-width:0.384;" x="319.105494" xlink:href="#m6fb376a9cd" y="135.990323"/>
     <use style="fill:#4c72b0;stroke:#ffffff;stroke-width:0.384;" x="381.127412" xlink:href="#m6fb376a9cd" y="117.146524"/>
     <use style="fill:#4c72b0;stroke:#ffffff;stroke-width:0.384;" x="335.908944" xlink:href="#m6fb376a9cd" y="128.330242"/>
     <use style="fill:#4c72b0;stroke:#ffffff;stroke-width:0.384;" x="282.411532" xlink:href="#m6fb376a9cd" y="166.630646"/>
     <use style="fill:#4c72b0;stroke:#ffffff;stroke-width:0.384;" x="313.913614" xlink:href="#m6fb376a9cd" y="143.650404"/>
     <use style="fill:#4c72b0;stroke:#ffffff;stroke-width:0.384;" x="283.919983" xlink:href="#m6fb376a9cd" y="166.630646"/>
     <use style="fill:#4c72b0;stroke:#ffffff;stroke-width:0.384;" x="294.093262" xlink:href="#m6fb376a9cd" y="164.485824"/>
     <use style="fill:#4c72b0;stroke:#ffffff;stroke-width:0.384;" x="312.08944" xlink:href="#m6fb376a9cd" y="127.411033"/>
     <use style="fill:#4c72b0;stroke:#ffffff;stroke-width:0.384;" x="328.647328" xlink:href="#m6fb376a9cd" y="123.887396"/>
     <use style="fill:#4c72b0;stroke:#ffffff;stroke-width:0.384;" x="304.19638" xlink:href="#m6fb376a9cd" y="132.007081"/>
     <use style="fill:#4c72b0;stroke:#ffffff;stroke-width:0.384;" x="289.322345" xlink:href="#m6fb376a9cd" y="143.650404"/>
     <use style="fill:#4c72b0;stroke:#ffffff;stroke-width:0.384;" x="373.760555" xlink:href="#m6fb376a9cd" y="128.330242"/>
     <use style="fill:#4c72b0;stroke:#ffffff;stroke-width:0.384;" x="324.227214" xlink:href="#m6fb376a9cd" y="150.544477"/>
     <use style="fill:#4c72b0;stroke:#ffffff;stroke-width:0.384;" x="345.205215" xlink:href="#m6fb376a9cd" y="111.937669"/>
     <use style="fill:#4c72b0;stroke:#ffffff;stroke-width:0.384;" x="289.567907" xlink:href="#m6fb376a9cd" y="151.310485"/>
     <use style="fill:#4c72b0;stroke:#ffffff;stroke-width:0.384;" x="286.270361" xlink:href="#m6fb376a9cd" y="158.970566"/>
     <use style="fill:#4c72b0;stroke:#ffffff;stroke-width:0.384;" x="300.758513" xlink:href="#m6fb376a9cd" y="147.633646"/>
     <use style="fill:#4c72b0;stroke:#ffffff;stroke-width:0.384;" x="326.33203" xlink:href="#m6fb376a9cd" y="158.970566"/>
     <use style="fill:#4c72b0;stroke:#ffffff;stroke-width:0.384;" x="309.563661" xlink:href="#m6fb376a9cd" y="158.970566"/>
     <use style="fill:#4c72b0;stroke:#ffffff;stroke-width:0.384;" x="409.191628" xlink:href="#m6fb376a9cd" y="113.010081"/>
     <use style="fill:#4c72b0;stroke:#ffffff;stroke-width:0.384;" x="298.057332" xlink:href="#m6fb376a9cd" y="158.970566"/>
     <use style="fill:#4c72b0;stroke:#ffffff;stroke-width:0.384;" x="315.632548" xlink:href="#m6fb376a9cd" y="135.990323"/>
     <use style="fill:#4c72b0;stroke:#ffffff;stroke-width:0.384;" x="284.621589" xlink:href="#m6fb376a9cd" y="151.310485"/>
     <use style="fill:#4c72b0;stroke:#ffffff;stroke-width:0.384;" x="288.65582" xlink:href="#m6fb376a9cd" y="158.970566"/>
     <use style="fill:#4c72b0;stroke:#ffffff;stroke-width:0.384;" x="326.226789" xlink:href="#m6fb376a9cd" y="136.296726"/>
     <use style="fill:#4c72b0;stroke:#ffffff;stroke-width:0.384;" x="313.036608" xlink:href="#m6fb376a9cd" y="155.293727"/>
     <use style="fill:#4c72b0;stroke:#ffffff;stroke-width:0.384;" x="351.449503" xlink:href="#m6fb376a9cd" y="120.670162"/>
     <use style="fill:#4c72b0;stroke:#ffffff;stroke-width:0.384;" x="418.45282" xlink:href="#m6fb376a9cd" y="36.409273"/>
     <use style="fill:#4c72b0;stroke:#ffffff;stroke-width:0.384;" x="295.671874" xlink:href="#m6fb376a9cd" y="141.199178"/>
     <use style="fill:#4c72b0;stroke:#ffffff;stroke-width:0.384;" x="265.643163" xlink:href="#m6fb376a9cd" y="110.712057"/>
     <use style="fill:#4c72b0;stroke:#ffffff;stroke-width:0.384;" x="351.940627" xlink:href="#m6fb376a9cd" y="140.892775"/>
     <use style="fill:#4c72b0;stroke:#ffffff;stroke-width:0.384;" x="299.214981" xlink:href="#m6fb376a9cd" y="128.330242"/>
     <use style="fill:#4c72b0;stroke:#ffffff;stroke-width:0.384;" x="355.624056" xlink:href="#m6fb376a9cd" y="141.965186"/>
     <use style="fill:#4c72b0;stroke:#ffffff;stroke-width:0.384;" x="302.96857" xlink:href="#m6fb376a9cd" y="158.970566"/>
     <use style="fill:#4c72b0;stroke:#ffffff;stroke-width:0.384;" x="291.006198" xlink:href="#m6fb376a9cd" y="158.970566"/>
     <use style="fill:#4c72b0;stroke:#ffffff;stroke-width:0.384;" x="361.692942" xlink:href="#m6fb376a9cd" y="135.224315"/>
     <use style="fill:#4c72b0;stroke:#ffffff;stroke-width:0.384;" x="361.763103" xlink:href="#m6fb376a9cd" y="133.232694"/>
     <use style="fill:#4c72b0;stroke:#ffffff;stroke-width:0.384;" x="322.052237" xlink:href="#m6fb376a9cd" y="103.051976"/>
     <use style="fill:#4c72b0;stroke:#ffffff;stroke-width:0.384;" x="399.298992" xlink:href="#m6fb376a9cd" y="135.990323"/>
     <use style="fill:#4c72b0;stroke:#ffffff;stroke-width:0.384;" x="321.490953" xlink:href="#m6fb376a9cd" y="90.029838"/>
     <use style="fill:#4c72b0;stroke:#ffffff;stroke-width:0.384;" x="382.460462" xlink:href="#m6fb376a9cd" y="143.650404"/>
     <use style="fill:#4c72b0;stroke:#ffffff;stroke-width:0.384;" x="312.791046" xlink:href="#m6fb376a9cd" y="113.010081"/>
     <use style="fill:#4c72b0;stroke:#ffffff;stroke-width:0.384;" x="347.06447" xlink:href="#m6fb376a9cd" y="158.970566"/>
     <use style="fill:#4c72b0;stroke:#ffffff;stroke-width:0.384;" x="321.245391" xlink:href="#m6fb376a9cd" y="128.330242"/>
     <use style="fill:#4c72b0;stroke:#ffffff;stroke-width:0.384;" x="295.250911" xlink:href="#m6fb376a9cd" y="166.630646"/>
     <use style="fill:#4c72b0;stroke:#ffffff;stroke-width:0.384;" x="333.488405" xlink:href="#m6fb376a9cd" y="137.369138"/>
     <use style="fill:#4c72b0;stroke:#ffffff;stroke-width:0.384;" x="376.075853" xlink:href="#m6fb376a9cd" y="143.650404"/>
     <use style="fill:#4c72b0;stroke:#ffffff;stroke-width:0.384;" x="325.349782" xlink:href="#m6fb376a9cd" y="158.510961"/>
     <use style="fill:#4c72b0;stroke:#ffffff;stroke-width:0.384;" x="345.661259" xlink:href="#m6fb376a9cd" y="158.970566"/>
     <use style="fill:#4c72b0;stroke:#ffffff;stroke-width:0.384;" x="331.032786" xlink:href="#m6fb376a9cd" y="110.558855"/>
     <use style="fill:#4c72b0;stroke:#ffffff;stroke-width:0.384;" x="409.752913" xlink:href="#m6fb376a9cd" y="51.729434"/>
     <use style="fill:#4c72b0;stroke:#ffffff;stroke-width:0.384;" x="338.960927" xlink:href="#m6fb376a9cd" y="143.650404"/>
     <use style="fill:#4c72b0;stroke:#ffffff;stroke-width:0.384;" x="280.868" xlink:href="#m6fb376a9cd" y="166.630646"/>
     <use style="fill:#4c72b0;stroke:#ffffff;stroke-width:0.384;" x="267.362096" xlink:href="#m6fb376a9cd" y="167.549856"/>
     <use style="fill:#4c72b0;stroke:#ffffff;stroke-width:0.384;" x="311.949119" xlink:href="#m6fb376a9cd" y="143.650404"/>
     <use style="fill:#4c72b0;stroke:#ffffff;stroke-width:0.384;" x="286.796566" xlink:href="#m6fb376a9cd" y="147.940049"/>
     <use style="fill:#4c72b0;stroke:#ffffff;stroke-width:0.384;" x="324.437695" xlink:href="#m6fb376a9cd" y="158.970566"/>
     <use style="fill:#4c72b0;stroke:#ffffff;stroke-width:0.384;" x="295.250911" xlink:href="#m6fb376a9cd" y="143.650404"/>
     <use style="fill:#4c72b0;stroke:#ffffff;stroke-width:0.384;" x="280.93816" xlink:href="#m6fb376a9cd" y="137.675541"/>
     <use style="fill:#4c72b0;stroke:#ffffff;stroke-width:0.384;" x="277.991418" xlink:href="#m6fb376a9cd" y="167.090251"/>
     <use style="fill:#4c72b0;stroke:#ffffff;stroke-width:0.384;" x="294.689626" xlink:href="#m6fb376a9cd" y="143.650404"/>
     <use style="fill:#4c72b0;stroke:#ffffff;stroke-width:0.384;" x="275.535799" xlink:href="#m6fb376a9cd" y="170.460687"/>
     <use style="fill:#4c72b0;stroke:#ffffff;stroke-width:0.384;" x="284.411107" xlink:href="#m6fb376a9cd" y="174.290727"/>
     <use style="fill:#4c72b0;stroke:#ffffff;stroke-width:0.384;" x="355.378494" xlink:href="#m6fb376a9cd" y="171.6863"/>
     <use style="fill:#4c72b0;stroke:#ffffff;stroke-width:0.384;" x="342.047991" xlink:href="#m6fb376a9cd" y="98.915532"/>
     <use style="fill:#4c72b0;stroke:#ffffff;stroke-width:0.384;" x="319.736939" xlink:href="#m6fb376a9cd" y="158.970566"/>
     <use style="fill:#4c72b0;stroke:#ffffff;stroke-width:0.384;" x="302.723008" xlink:href="#m6fb376a9cd" y="162.800606"/>
    </g>
   </g>
   <g id="PathCollection_4">
    <g clip-path="url(#pda3c55667c)">
     <use style="fill:#dd8452;stroke:#ffffff;stroke-width:0.384;" x="299.811346" xlink:href="#mee801eb646" y="174.137526"/>
     <use style="fill:#dd8452;stroke:#ffffff;stroke-width:0.384;" x="326.472351" xlink:href="#mee801eb646" y="134.305105"/>
     <use style="fill:#dd8452;stroke:#ffffff;stroke-width:0.384;" x="363.902999" xlink:href="#mee801eb646" y="113.010081"/>
     <use style="fill:#dd8452;stroke:#ffffff;stroke-width:0.384;" x="292.234007" xlink:href="#mee801eb646" y="143.344001"/>
     <use style="fill:#dd8452;stroke:#ffffff;stroke-width:0.384;" x="276.447886" xlink:href="#mee801eb646" y="164.026219"/>
     <use style="fill:#dd8452;stroke:#ffffff;stroke-width:0.384;" x="299.741185" xlink:href="#mee801eb646" y="135.990323"/>
     <use style="fill:#dd8452;stroke:#ffffff;stroke-width:0.384;" x="311.387835" xlink:href="#mee801eb646" y="147.480444"/>
     <use style="fill:#dd8452;stroke:#ffffff;stroke-width:0.384;" x="295.531553" xlink:href="#mee801eb646" y="155.446928"/>
     <use style="fill:#dd8452;stroke:#ffffff;stroke-width:0.384;" x="309.142698" xlink:href="#mee801eb646" y="143.650404"/>
     <use style="fill:#dd8452;stroke:#ffffff;stroke-width:0.384;" x="293.040854" xlink:href="#mee801eb646" y="143.650404"/>
     <use style="fill:#dd8452;stroke:#ffffff;stroke-width:0.384;" x="312.791046" xlink:href="#mee801eb646" y="152.076493"/>
     <use style="fill:#dd8452;stroke:#ffffff;stroke-width:0.384;" x="299.600864" xlink:href="#mee801eb646" y="142.577993"/>
     <use style="fill:#dd8452;stroke:#ffffff;stroke-width:0.384;" x="276.307565" xlink:href="#mee801eb646" y="149.778469"/>
     <use style="fill:#dd8452;stroke:#ffffff;stroke-width:0.384;" x="362.324387" xlink:href="#mee801eb646" y="109.946048"/>
     <use style="fill:#dd8452;stroke:#ffffff;stroke-width:0.384;" x="332.85696" xlink:href="#mee801eb646" y="166.630646"/>
     <use style="fill:#dd8452;stroke:#ffffff;stroke-width:0.384;" x="297.917011" xlink:href="#mee801eb646" y="151.77009"/>
     <use style="fill:#dd8452;stroke:#ffffff;stroke-width:0.384;" x="250.97961" xlink:href="#mee801eb646" y="174.290727"/>
     <use style="fill:#dd8452;stroke:#ffffff;stroke-width:0.384;" x="300.091988" xlink:href="#mee801eb646" y="143.650404"/>
     <use style="fill:#dd8452;stroke:#ffffff;stroke-width:0.384;" x="334.435572" xlink:href="#mee801eb646" y="141.505581"/>
     <use style="fill:#dd8452;stroke:#ffffff;stroke-width:0.384;" x="328.89289" xlink:href="#mee801eb646" y="113.010081"/>
     <use style="fill:#dd8452;stroke:#ffffff;stroke-width:0.384;" x="291.883205" xlink:href="#mee801eb646" y="155.906533"/>
     <use style="fill:#dd8452;stroke:#ffffff;stroke-width:0.384;" x="260.381122" xlink:href="#mee801eb646" y="174.290727"/>
     <use style="fill:#dd8452;stroke:#ffffff;stroke-width:0.384;" x="297.460968" xlink:href="#mee801eb646" y="123.734194"/>
     <use style="fill:#dd8452;stroke:#ffffff;stroke-width:0.384;" x="320.017581" xlink:href="#mee801eb646" y="139.820364"/>
     <use style="fill:#dd8452;stroke:#ffffff;stroke-width:0.384;" x="280.026073" xlink:href="#mee801eb646" y="151.310485"/>
     <use style="fill:#dd8452;stroke:#ffffff;stroke-width:0.384;" x="294.163422" xlink:href="#mee801eb646" y="143.650404"/>
     <use style="fill:#dd8452;stroke:#ffffff;stroke-width:0.384;" x="395.615564" xlink:href="#mee801eb646" y="151.310485"/>
     <use style="fill:#dd8452;stroke:#ffffff;stroke-width:0.384;" x="318.859932" xlink:href="#mee801eb646" y="136.296726"/>
     <use style="fill:#dd8452;stroke:#ffffff;stroke-width:0.384;" x="313.597892" xlink:href="#mee801eb646" y="127.104629"/>
     <use style="fill:#dd8452;stroke:#ffffff;stroke-width:0.384;" x="290.409833" xlink:href="#mee801eb646" y="128.330242"/>
     <use style="fill:#dd8452;stroke:#ffffff;stroke-width:0.384;" x="265.643163" xlink:href="#mee801eb646" y="174.290727"/>
     <use style="fill:#dd8452;stroke:#ffffff;stroke-width:0.384;" x="330.401341" xlink:href="#mee801eb646" y="128.330242"/>
     <use style="fill:#dd8452;stroke:#ffffff;stroke-width:0.384;" x="300.933914" xlink:href="#mee801eb646" y="135.990323"/>
     <use style="fill:#dd8452;stroke:#ffffff;stroke-width:0.384;" x="344.924573" xlink:href="#mee801eb646" y="110.865258"/>
     <use style="fill:#dd8452;stroke:#ffffff;stroke-width:0.384;" x="327.910642" xlink:href="#mee801eb646" y="132.160283"/>
     <use style="fill:#dd8452;stroke:#ffffff;stroke-width:0.384;" x="287.182449" xlink:href="#mee801eb646" y="149.625267"/>
     <use style="fill:#dd8452;stroke:#ffffff;stroke-width:0.384;" x="297.075085" xlink:href="#mee801eb646" y="158.970566"/>
     <use style="fill:#dd8452;stroke:#ffffff;stroke-width:0.384;" x="301.63552" xlink:href="#mee801eb646" y="143.650404"/>
     <use style="fill:#dd8452;stroke:#ffffff;stroke-width:0.384;" x="277.359973" xlink:href="#mee801eb646" y="164.945429"/>
     <use style="fill:#dd8452;stroke:#ffffff;stroke-width:0.384;" x="277.500294" xlink:href="#mee801eb646" y="158.970566"/>
     <use style="fill:#dd8452;stroke:#ffffff;stroke-width:0.384;" x="273.887026" xlink:href="#mee801eb646" y="128.330242"/>
     <use style="fill:#dd8452;stroke:#ffffff;stroke-width:0.384;" x="313.527731" xlink:href="#mee801eb646" y="135.990323"/>
     <use style="fill:#dd8452;stroke:#ffffff;stroke-width:0.384;" x="303.880657" xlink:href="#mee801eb646" y="135.990323"/>
     <use style="fill:#dd8452;stroke:#ffffff;stroke-width:0.384;" x="284.972391" xlink:href="#mee801eb646" y="155.446928"/>
     <use style="fill:#dd8452;stroke:#ffffff;stroke-width:0.384;" x="286.761485" xlink:href="#mee801eb646" y="151.310485"/>
     <use style="fill:#dd8452;stroke:#ffffff;stroke-width:0.384;" x="339.031088" xlink:href="#mee801eb646" y="90.029838"/>
     <use style="fill:#dd8452;stroke:#ffffff;stroke-width:0.384;" x="285.463515" xlink:href="#mee801eb646" y="172.758711"/>
     <use style="fill:#dd8452;stroke:#ffffff;stroke-width:0.384;" x="345.941901" xlink:href="#mee801eb646" y="142.271589"/>
     <use style="fill:#dd8452;stroke:#ffffff;stroke-width:0.384;" x="317.807524" xlink:href="#mee801eb646" y="145.488823"/>
     <use style="fill:#dd8452;stroke:#ffffff;stroke-width:0.384;" x="365.902575" xlink:href="#mee801eb646" y="118.065734"/>
     <use style="fill:#dd8452;stroke:#ffffff;stroke-width:0.384;" x="335.558141" xlink:href="#mee801eb646" y="158.970566"/>
     <use style="fill:#dd8452;stroke:#ffffff;stroke-width:0.384;" x="306.090714" xlink:href="#mee801eb646" y="143.650404"/>
    </g>
   </g>
   <g id="patch_6">
    <path d="M 242.605949 181.1848 
L 242.605949 29.5152 
" style="fill:none;stroke:#ffffff;stroke-linecap:square;stroke-linejoin:miter;"/>
   </g>
   <g id="patch_7">
    <path d="M 242.605949 181.1848 
L 426.82648 181.1848 
" style="fill:none;stroke:#ffffff;stroke-linecap:square;stroke-linejoin:miter;"/>
   </g>
   <g id="text_14">
    <!-- time = Dinner -->
    <g style="fill:#262626;" transform="translate(294.568415 23.5152)scale(0.1344 -0.1344)">
     <defs>
      <path d="M 7.71875 0 
L 7.71875 71.578125 
L 32.375 71.578125 
Q 40.71875 71.578125 45.125 70.5625 
Q 51.265625 69.140625 55.609375 65.4375 
Q 61.28125 60.640625 64.078125 53.1875 
Q 66.890625 45.75 66.890625 36.1875 
Q 66.890625 28.03125 64.984375 21.734375 
Q 63.09375 15.4375 60.109375 11.296875 
Q 57.125 7.171875 53.578125 4.796875 
Q 50.046875 2.4375 45.046875 1.21875 
Q 40.046875 0 33.546875 0 
z
M 17.1875 8.453125 
L 32.46875 8.453125 
Q 39.546875 8.453125 43.578125 9.765625 
Q 47.609375 11.078125 50 13.484375 
Q 53.375 16.84375 55.25 22.53125 
Q 57.125 28.21875 57.125 36.328125 
Q 57.125 47.5625 53.4375 53.59375 
Q 49.75 59.625 44.484375 61.671875 
Q 40.671875 63.140625 32.234375 63.140625 
L 17.1875 63.140625 
z
" id="ArialMT-68"/>
      <path d="M 6.5 0 
L 6.5 51.859375 
L 14.40625 51.859375 
L 14.40625 44 
Q 17.4375 49.515625 20 51.265625 
Q 22.5625 53.03125 25.640625 53.03125 
Q 30.078125 53.03125 34.671875 50.203125 
L 31.640625 42.046875 
Q 28.421875 43.953125 25.203125 43.953125 
Q 22.3125 43.953125 20.015625 42.21875 
Q 17.71875 40.484375 16.75 37.40625 
Q 15.28125 32.71875 15.28125 27.15625 
L 15.28125 0 
z
" id="ArialMT-114"/>
     </defs>
     <use xlink:href="#ArialMT-116"/>
     <use x="27.783203" xlink:href="#ArialMT-105"/>
     <use x="50" xlink:href="#ArialMT-109"/>
     <use x="133.300781" xlink:href="#ArialMT-101"/>
     <use x="188.916016" xlink:href="#ArialMT-32"/>
     <use x="216.699219" xlink:href="#ArialMT-61"/>
     <use x="275.097656" xlink:href="#ArialMT-32"/>
     <use x="302.880859" xlink:href="#ArialMT-68"/>
     <use x="375.097656" xlink:href="#ArialMT-105"/>
     <use x="397.314453" xlink:href="#ArialMT-110"/>
     <use x="452.929688" xlink:href="#ArialMT-110"/>
     <use x="508.544922" xlink:href="#ArialMT-101"/>
     <use x="564.160156" xlink:href="#ArialMT-114"/>
    </g>
   </g>
  </g>
  <g id="legend_1">
   <g id="text_15">
    <!-- sex -->
    <g style="fill:#262626;" transform="translate(458.020263 94.047425)scale(0.1344 -0.1344)">
     <defs>
      <path d="M 3.078125 15.484375 
L 11.765625 16.84375 
Q 12.5 11.625 15.84375 8.84375 
Q 19.1875 6.0625 25.203125 6.0625 
Q 31.25 6.0625 34.171875 8.515625 
Q 37.109375 10.984375 37.109375 14.3125 
Q 37.109375 17.28125 34.515625 19 
Q 32.71875 20.171875 25.53125 21.96875 
Q 15.875 24.421875 12.140625 26.203125 
Q 8.40625 27.984375 6.46875 31.125 
Q 4.546875 34.28125 4.546875 38.09375 
Q 4.546875 41.546875 6.125 44.5 
Q 7.71875 47.46875 10.453125 49.421875 
Q 12.5 50.921875 16.03125 51.96875 
Q 19.578125 53.03125 23.640625 53.03125 
Q 29.734375 53.03125 34.34375 51.265625 
Q 38.96875 49.515625 41.15625 46.5 
Q 43.359375 43.5 44.1875 38.484375 
L 35.59375 37.3125 
Q 35.015625 41.3125 32.203125 43.546875 
Q 29.390625 45.796875 24.265625 45.796875 
Q 18.21875 45.796875 15.625 43.796875 
Q 13.03125 41.796875 13.03125 39.109375 
Q 13.03125 37.40625 14.109375 36.03125 
Q 15.1875 34.625 17.484375 33.6875 
Q 18.796875 33.203125 25.25 31.453125 
Q 34.578125 28.953125 38.25 27.359375 
Q 41.9375 25.78125 44.03125 22.75 
Q 46.140625 19.734375 46.140625 15.234375 
Q 46.140625 10.84375 43.578125 6.953125 
Q 41.015625 3.078125 36.171875 0.953125 
Q 31.34375 -1.171875 25.25 -1.171875 
Q 15.140625 -1.171875 9.84375 3.03125 
Q 4.546875 7.234375 3.078125 15.484375 
z
" id="ArialMT-115"/>
      <path d="M 0.734375 0 
L 19.671875 26.953125 
L 2.15625 51.859375 
L 13.140625 51.859375 
L 21.09375 39.703125 
Q 23.34375 36.234375 24.703125 33.890625 
Q 26.859375 37.109375 28.65625 39.59375 
L 37.40625 51.859375 
L 47.90625 51.859375 
L 29.984375 27.4375 
L 49.265625 0 
L 38.484375 0 
L 27.828125 16.109375 
L 25 20.453125 
L 11.375 0 
z
" id="ArialMT-120"/>
     </defs>
     <use xlink:href="#ArialMT-115"/>
     <use x="50" xlink:href="#ArialMT-101"/>
     <use x="105.615234" xlink:href="#ArialMT-120"/>
    </g>
   </g>
   <g id="PathCollection_5">
    <g>
     <use style="fill:#4c72b0;stroke:#ffffff;stroke-width:0.384;" x="443.010425" xlink:href="#m6fb376a9cd" y="108.46305"/>
    </g>
   </g>
   <g id="text_16">
    <!-- Male -->
    <g style="fill:#262626;" transform="translate(465.186425 111.69705)scale(0.1232 -0.1232)">
     <defs>
      <path d="M 7.421875 0 
L 7.421875 71.578125 
L 21.6875 71.578125 
L 38.625 20.90625 
Q 40.96875 13.8125 42.046875 10.296875 
Q 43.265625 14.203125 45.84375 21.78125 
L 62.984375 71.578125 
L 75.734375 71.578125 
L 75.734375 0 
L 66.609375 0 
L 66.609375 59.90625 
L 45.796875 0 
L 37.25 0 
L 16.546875 60.9375 
L 16.546875 0 
z
" id="ArialMT-77"/>
     </defs>
     <use xlink:href="#ArialMT-77"/>
     <use x="83.300781" xlink:href="#ArialMT-97"/>
     <use x="138.916016" xlink:href="#ArialMT-108"/>
     <use x="161.132812" xlink:href="#ArialMT-101"/>
    </g>
   </g>
   <g id="PathCollection_6">
    <g>
     <use style="fill:#dd8452;stroke:#ffffff;stroke-width:0.384;" x="443.010425" xlink:href="#mee801eb646" y="125.890075"/>
    </g>
   </g>
   <g id="text_17">
    <!-- Female -->
    <g style="fill:#262626;" transform="translate(465.186425 129.124075)scale(0.1232 -0.1232)">
     <defs>
      <path d="M 8.203125 0 
L 8.203125 71.578125 
L 56.5 71.578125 
L 56.5 63.140625 
L 17.671875 63.140625 
L 17.671875 40.96875 
L 51.265625 40.96875 
L 51.265625 32.515625 
L 17.671875 32.515625 
L 17.671875 0 
z
" id="ArialMT-70"/>
     </defs>
     <use xlink:href="#ArialMT-70"/>
     <use x="61.083984" xlink:href="#ArialMT-101"/>
     <use x="116.699219" xlink:href="#ArialMT-109"/>
     <use x="200" xlink:href="#ArialMT-97"/>
     <use x="255.615234" xlink:href="#ArialMT-108"/>
     <use x="277.832031" xlink:href="#ArialMT-101"/>
    </g>
   </g>
  </g>
 </g>
 <defs>
  <clipPath id="p6739c330e6">
   <rect height="151.6696" width="184.220531" x="43.789536" y="29.5152"/>
  </clipPath>
  <clipPath id="pda3c55667c">
   <rect height="151.6696" width="184.220531" x="242.605949" y="29.5152"/>
  </clipPath>
 </defs>
</svg>
