<?xml version="1.0" encoding="utf-8" standalone="no"?>
<!DOCTYPE svg PUBLIC "-//W3C//DTD SVG 1.1//EN"
  "http://www.w3.org/Graphics/SVG/1.1/DTD/svg11.dtd">
<!-- Created with matplotlib (https://matplotlib.org/) -->
<svg height="216pt" version="1.1" viewBox="0 0 216 216" width="216pt" xmlns="http://www.w3.org/2000/svg" xmlns:xlink="http://www.w3.org/1999/xlink">
 <metadata>
  <rdf:RDF xmlns:cc="http://creativecommons.org/ns#" xmlns:dc="http://purl.org/dc/elements/1.1/" xmlns:rdf="http://www.w3.org/1999/02/22-rdf-syntax-ns#">
   <cc:Work>
    <dc:type rdf:resource="http://purl.org/dc/dcmitype/StillImage"/>
    <dc:date>2020-10-07T02:01:14.874120</dc:date>
    <dc:format>image/svg+xml</dc:format>
    <dc:creator>
     <cc:Agent>
      <dc:title>Matplotlib v3.3.1, https://matplotlib.org/</dc:title>
     </cc:Agent>
    </dc:creator>
   </cc:Work>
  </rdf:RDF>
 </metadata>
 <defs>
  <style type="text/css">*{stroke-linecap:butt;stroke-linejoin:round;}</style>
 </defs>
 <g id="figure_1">
  <g id="patch_1">
   <path d="M 0 216 
L 216 216 
L 216 0 
L 0 0 
z
" style="fill:#ffffff;"/>
  </g>
  <g id="axes_1">
   <g id="patch_2">
    <path d="M 56.46 183.54 
L 203.04 183.54 
L 203.04 12.96 
L 56.46 12.96 
z
" style="fill:#eaeaf2;"/>
   </g>
   <g id="matplotlib.axis_1">
    <g id="xtick_1">
     <g id="line2d_1">
      <path clip-path="url(#pa68a4fe30e)" d="M 56.89842 183.54 
L 56.89842 12.96 
" style="fill:none;stroke:#ffffff;stroke-linecap:round;"/>
     </g>
     <g id="text_1">
      <!-- 0.0 -->
      <g style="fill:#262626;" transform="translate(49.25342 200.913594)scale(0.11 -0.11)">
       <defs>
        <path d="M 4.15625 35.296875 
Q 4.15625 48 6.765625 55.734375 
Q 9.375 63.484375 14.515625 67.671875 
Q 19.671875 71.875 27.484375 71.875 
Q 33.25 71.875 37.59375 69.546875 
Q 41.9375 67.234375 44.765625 62.859375 
Q 47.609375 58.5 49.21875 52.21875 
Q 50.828125 45.953125 50.828125 35.296875 
Q 50.828125 22.703125 48.234375 14.96875 
Q 45.65625 7.234375 40.5 3 
Q 35.359375 -1.21875 27.484375 -1.21875 
Q 17.140625 -1.21875 11.234375 6.203125 
Q 4.15625 15.140625 4.15625 35.296875 
z
M 13.1875 35.296875 
Q 13.1875 17.671875 17.3125 11.828125 
Q 21.4375 6 27.484375 6 
Q 33.546875 6 37.671875 11.859375 
Q 41.796875 17.71875 41.796875 35.296875 
Q 41.796875 52.984375 37.671875 58.78125 
Q 33.546875 64.59375 27.390625 64.59375 
Q 21.34375 64.59375 17.71875 59.46875 
Q 13.1875 52.9375 13.1875 35.296875 
z
" id="ArialMT-48"/>
        <path d="M 9.078125 0 
L 9.078125 10.015625 
L 19.09375 10.015625 
L 19.09375 0 
z
" id="ArialMT-46"/>
       </defs>
       <use xlink:href="#ArialMT-48"/>
       <use x="55.615234" xlink:href="#ArialMT-46"/>
       <use x="83.398438" xlink:href="#ArialMT-48"/>
      </g>
     </g>
    </g>
    <g id="xtick_2">
     <g id="line2d_2">
      <path clip-path="url(#pa68a4fe30e)" d="M 101.646273 183.54 
L 101.646273 12.96 
" style="fill:none;stroke:#ffffff;stroke-linecap:round;"/>
     </g>
     <g id="text_2">
      <!-- 2.5 -->
      <g style="fill:#262626;" transform="translate(94.001273 200.913594)scale(0.11 -0.11)">
       <defs>
        <path d="M 50.34375 8.453125 
L 50.34375 0 
L 3.03125 0 
Q 2.9375 3.171875 4.046875 6.109375 
Q 5.859375 10.9375 9.828125 15.625 
Q 13.8125 20.3125 21.34375 26.46875 
Q 33.015625 36.03125 37.109375 41.625 
Q 41.21875 47.21875 41.21875 52.203125 
Q 41.21875 57.421875 37.46875 61 
Q 33.734375 64.59375 27.734375 64.59375 
Q 21.390625 64.59375 17.578125 60.78125 
Q 13.765625 56.984375 13.71875 50.25 
L 4.6875 51.171875 
Q 5.609375 61.28125 11.65625 66.578125 
Q 17.71875 71.875 27.9375 71.875 
Q 38.234375 71.875 44.234375 66.15625 
Q 50.25 60.453125 50.25 52 
Q 50.25 47.703125 48.484375 43.546875 
Q 46.734375 39.40625 42.65625 34.8125 
Q 38.578125 30.21875 29.109375 22.21875 
Q 21.1875 15.578125 18.9375 13.203125 
Q 16.703125 10.84375 15.234375 8.453125 
z
" id="ArialMT-50"/>
        <path d="M 4.15625 18.75 
L 13.375 19.53125 
Q 14.40625 12.796875 18.140625 9.390625 
Q 21.875 6 27.15625 6 
Q 33.5 6 37.890625 10.78125 
Q 42.28125 15.578125 42.28125 23.484375 
Q 42.28125 31 38.0625 35.34375 
Q 33.84375 39.703125 27 39.703125 
Q 22.75 39.703125 19.328125 37.765625 
Q 15.921875 35.84375 13.96875 32.765625 
L 5.71875 33.84375 
L 12.640625 70.609375 
L 48.25 70.609375 
L 48.25 62.203125 
L 19.671875 62.203125 
L 15.828125 42.96875 
Q 22.265625 47.46875 29.34375 47.46875 
Q 38.71875 47.46875 45.15625 40.96875 
Q 51.609375 34.46875 51.609375 24.265625 
Q 51.609375 14.546875 45.953125 7.46875 
Q 39.0625 -1.21875 27.15625 -1.21875 
Q 17.390625 -1.21875 11.203125 4.25 
Q 5.03125 9.71875 4.15625 18.75 
z
" id="ArialMT-53"/>
       </defs>
       <use xlink:href="#ArialMT-50"/>
       <use x="55.615234" xlink:href="#ArialMT-46"/>
       <use x="83.398438" xlink:href="#ArialMT-53"/>
      </g>
     </g>
    </g>
    <g id="xtick_3">
     <g id="line2d_3">
      <path clip-path="url(#pa68a4fe30e)" d="M 146.394126 183.54 
L 146.394126 12.96 
" style="fill:none;stroke:#ffffff;stroke-linecap:round;"/>
     </g>
     <g id="text_3">
      <!-- 5.0 -->
      <g style="fill:#262626;" transform="translate(138.749126 200.913594)scale(0.11 -0.11)">
       <use xlink:href="#ArialMT-53"/>
       <use x="55.615234" xlink:href="#ArialMT-46"/>
       <use x="83.398438" xlink:href="#ArialMT-48"/>
      </g>
     </g>
    </g>
    <g id="xtick_4">
     <g id="line2d_4">
      <path clip-path="url(#pa68a4fe30e)" d="M 191.141979 183.54 
L 191.141979 12.96 
" style="fill:none;stroke:#ffffff;stroke-linecap:round;"/>
     </g>
     <g id="text_4">
      <!-- 7.5 -->
      <g style="fill:#262626;" transform="translate(183.496979 200.913594)scale(0.11 -0.11)">
       <defs>
        <path d="M 4.734375 62.203125 
L 4.734375 70.65625 
L 51.078125 70.65625 
L 51.078125 63.8125 
Q 44.234375 56.546875 37.515625 44.484375 
Q 30.8125 32.421875 27.15625 19.671875 
Q 24.515625 10.6875 23.78125 0 
L 14.75 0 
Q 14.890625 8.453125 18.0625 20.40625 
Q 21.234375 32.375 27.171875 43.484375 
Q 33.109375 54.59375 39.796875 62.203125 
z
" id="ArialMT-55"/>
       </defs>
       <use xlink:href="#ArialMT-55"/>
       <use x="55.615234" xlink:href="#ArialMT-46"/>
       <use x="83.398438" xlink:href="#ArialMT-53"/>
      </g>
     </g>
    </g>
   </g>
   <g id="matplotlib.axis_2">
    <g id="ytick_1">
     <g id="line2d_5">
      <path clip-path="url(#pa68a4fe30e)" d="M 56.46 158.31338 
L 203.04 158.31338 
" style="fill:none;stroke:#ffffff;stroke-linecap:round;"/>
     </g>
     <g id="text_5">
      <!-- −0.050 -->
      <g style="fill:#262626;" transform="translate(13.01125 162.250177)scale(0.11 -0.11)">
       <defs>
        <path d="M 52.828125 31.203125 
L 5.5625 31.203125 
L 5.5625 39.40625 
L 52.828125 39.40625 
z
" id="ArialMT-8722"/>
       </defs>
       <use xlink:href="#ArialMT-8722"/>
       <use x="58.398438" xlink:href="#ArialMT-48"/>
       <use x="114.013672" xlink:href="#ArialMT-46"/>
       <use x="141.796875" xlink:href="#ArialMT-48"/>
       <use x="197.412109" xlink:href="#ArialMT-53"/>
       <use x="253.027344" xlink:href="#ArialMT-48"/>
      </g>
     </g>
    </g>
    <g id="ytick_2">
     <g id="line2d_6">
      <path clip-path="url(#pa68a4fe30e)" d="M 56.46 128.28169 
L 203.04 128.28169 
" style="fill:none;stroke:#ffffff;stroke-linecap:round;"/>
     </g>
     <g id="text_6">
      <!-- −0.025 -->
      <g style="fill:#262626;" transform="translate(13.01125 132.218487)scale(0.11 -0.11)">
       <use xlink:href="#ArialMT-8722"/>
       <use x="58.398438" xlink:href="#ArialMT-48"/>
       <use x="114.013672" xlink:href="#ArialMT-46"/>
       <use x="141.796875" xlink:href="#ArialMT-48"/>
       <use x="197.412109" xlink:href="#ArialMT-50"/>
       <use x="253.027344" xlink:href="#ArialMT-53"/>
      </g>
     </g>
    </g>
    <g id="ytick_3">
     <g id="line2d_7">
      <path clip-path="url(#pa68a4fe30e)" d="M 56.46 98.25 
L 203.04 98.25 
" style="fill:none;stroke:#ffffff;stroke-linecap:round;"/>
     </g>
     <g id="text_7">
      <!-- 0.000 -->
      <g style="fill:#262626;" transform="translate(19.435938 102.186797)scale(0.11 -0.11)">
       <use xlink:href="#ArialMT-48"/>
       <use x="55.615234" xlink:href="#ArialMT-46"/>
       <use x="83.398438" xlink:href="#ArialMT-48"/>
       <use x="139.013672" xlink:href="#ArialMT-48"/>
       <use x="194.628906" xlink:href="#ArialMT-48"/>
      </g>
     </g>
    </g>
    <g id="ytick_4">
     <g id="line2d_8">
      <path clip-path="url(#pa68a4fe30e)" d="M 56.46 68.21831 
L 203.04 68.21831 
" style="fill:none;stroke:#ffffff;stroke-linecap:round;"/>
     </g>
     <g id="text_8">
      <!-- 0.025 -->
      <g style="fill:#262626;" transform="translate(19.435938 72.155107)scale(0.11 -0.11)">
       <use xlink:href="#ArialMT-48"/>
       <use x="55.615234" xlink:href="#ArialMT-46"/>
       <use x="83.398438" xlink:href="#ArialMT-48"/>
       <use x="139.013672" xlink:href="#ArialMT-50"/>
       <use x="194.628906" xlink:href="#ArialMT-53"/>
      </g>
     </g>
    </g>
    <g id="ytick_5">
     <g id="line2d_9">
      <path clip-path="url(#pa68a4fe30e)" d="M 56.46 38.18662 
L 203.04 38.18662 
" style="fill:none;stroke:#ffffff;stroke-linecap:round;"/>
     </g>
     <g id="text_9">
      <!-- 0.050 -->
      <g style="fill:#262626;" transform="translate(19.435938 42.123417)scale(0.11 -0.11)">
       <use xlink:href="#ArialMT-48"/>
       <use x="55.615234" xlink:href="#ArialMT-46"/>
       <use x="83.398438" xlink:href="#ArialMT-48"/>
       <use x="139.013672" xlink:href="#ArialMT-53"/>
       <use x="194.628906" xlink:href="#ArialMT-48"/>
      </g>
     </g>
    </g>
   </g>
   <g id="LineCollection_1">
    <path clip-path="url(#pa68a4fe30e)" d="M 172.106565 183.54 
L 172.106565 169.8936 
" style="fill:none;stroke:#4c72b0;"/>
    <path clip-path="url(#pa68a4fe30e)" d="M 112.070113 183.54 
L 112.070113 169.8936 
" style="fill:none;stroke:#4c72b0;"/>
    <path clip-path="url(#pa68a4fe30e)" d="M 114.314253 183.54 
L 114.314253 169.8936 
" style="fill:none;stroke:#4c72b0;"/>
    <path clip-path="url(#pa68a4fe30e)" d="M 99.687159 183.54 
L 99.687159 169.8936 
" style="fill:none;stroke:#4c72b0;"/>
    <path clip-path="url(#pa68a4fe30e)" d="M 151.730065 183.54 
L 151.730065 169.8936 
" style="fill:none;stroke:#4c72b0;"/>
    <path clip-path="url(#pa68a4fe30e)" d="M 66.701636 183.54 
L 66.701636 169.8936 
" style="fill:none;stroke:#4c72b0;"/>
    <path clip-path="url(#pa68a4fe30e)" d="M 175.340933 183.54 
L 175.340933 169.8936 
" style="fill:none;stroke:#4c72b0;"/>
    <path clip-path="url(#pa68a4fe30e)" d="M 108.05756 183.54 
L 108.05756 169.8936 
" style="fill:none;stroke:#4c72b0;"/>
    <path clip-path="url(#pa68a4fe30e)" d="M 137.060773 183.54 
L 137.060773 169.8936 
" style="fill:none;stroke:#4c72b0;"/>
    <path clip-path="url(#pa68a4fe30e)" d="M 121.799711 183.54 
L 121.799711 169.8936 
" style="fill:none;stroke:#4c72b0;"/>
    <path clip-path="url(#pa68a4fe30e)" d="M 167.750699 183.54 
L 167.750699 169.8936 
" style="fill:none;stroke:#4c72b0;"/>
    <path clip-path="url(#pa68a4fe30e)" d="M 73.18286 183.54 
L 73.18286 169.8936 
" style="fill:none;stroke:#4c72b0;"/>
    <path clip-path="url(#pa68a4fe30e)" d="M 119.838498 183.54 
L 119.838498 169.8936 
" style="fill:none;stroke:#4c72b0;"/>
    <path clip-path="url(#pa68a4fe30e)" d="M 118.18362 183.54 
L 118.18362 169.8936 
" style="fill:none;stroke:#4c72b0;"/>
    <path clip-path="url(#pa68a4fe30e)" d="M 158.935234 183.54 
L 158.935234 169.8936 
" style="fill:none;stroke:#4c72b0;"/>
    <path clip-path="url(#pa68a4fe30e)" d="M 98.964321 183.54 
L 98.964321 169.8936 
" style="fill:none;stroke:#4c72b0;"/>
    <path clip-path="url(#pa68a4fe30e)" d="M 123.865509 183.54 
L 123.865509 169.8936 
" style="fill:none;stroke:#4c72b0;"/>
    <path clip-path="url(#pa68a4fe30e)" d="M 104.925617 183.54 
L 104.925617 169.8936 
" style="fill:none;stroke:#4c72b0;"/>
    <path clip-path="url(#pa68a4fe30e)" d="M 129.628369 183.54 
L 129.628369 169.8936 
" style="fill:none;stroke:#4c72b0;"/>
    <path clip-path="url(#pa68a4fe30e)" d="M 144.142822 183.54 
L 144.142822 169.8936 
" style="fill:none;stroke:#4c72b0;"/>
    <path clip-path="url(#pa68a4fe30e)" d="M 98.944778 183.54 
L 98.944778 169.8936 
" style="fill:none;stroke:#4c72b0;"/>
    <path clip-path="url(#pa68a4fe30e)" d="M 159.229342 183.54 
L 159.229342 169.8936 
" style="fill:none;stroke:#4c72b0;"/>
    <path clip-path="url(#pa68a4fe30e)" d="M 152.701534 183.54 
L 152.701534 169.8936 
" style="fill:none;stroke:#4c72b0;"/>
    <path clip-path="url(#pa68a4fe30e)" d="M 141.98631 183.54 
L 141.98631 169.8936 
" style="fill:none;stroke:#4c72b0;"/>
    <path clip-path="url(#pa68a4fe30e)" d="M 152.681806 183.54 
L 152.681806 169.8936 
" style="fill:none;stroke:#4c72b0;"/>
    <path clip-path="url(#pa68a4fe30e)" d="M 110.137772 183.54 
L 110.137772 169.8936 
" style="fill:none;stroke:#4c72b0;"/>
    <path clip-path="url(#pa68a4fe30e)" d="M 125.19554 183.54 
L 125.19554 169.8936 
" style="fill:none;stroke:#4c72b0;"/>
    <path clip-path="url(#pa68a4fe30e)" d="M 103.370781 183.54 
L 103.370781 169.8936 
" style="fill:none;stroke:#4c72b0;"/>
    <path clip-path="url(#pa68a4fe30e)" d="M 121.302535 183.54 
L 121.302535 169.8936 
" style="fill:none;stroke:#4c72b0;"/>
    <path clip-path="url(#pa68a4fe30e)" d="M 142.734346 183.54 
L 142.734346 169.8936 
" style="fill:none;stroke:#4c72b0;"/>
    <path clip-path="url(#pa68a4fe30e)" d="M 109.924784 183.54 
L 109.924784 169.8936 
" style="fill:none;stroke:#4c72b0;"/>
    <path clip-path="url(#pa68a4fe30e)" d="M 117.842664 183.54 
L 117.842664 169.8936 
" style="fill:none;stroke:#4c72b0;"/>
    <path clip-path="url(#pa68a4fe30e)" d="M 110.045283 183.54 
L 110.045283 169.8936 
" style="fill:none;stroke:#4c72b0;"/>
    <path clip-path="url(#pa68a4fe30e)" d="M 105.802302 183.54 
L 105.802302 169.8936 
" style="fill:none;stroke:#4c72b0;"/>
    <path clip-path="url(#pa68a4fe30e)" d="M 110.472891 183.54 
L 110.472891 169.8936 
" style="fill:none;stroke:#4c72b0;"/>
    <path clip-path="url(#pa68a4fe30e)" d="M 128.154956 183.54 
L 128.154956 169.8936 
" style="fill:none;stroke:#4c72b0;"/>
    <path clip-path="url(#pa68a4fe30e)" d="M 98.496641 183.54 
L 98.496641 169.8936 
" style="fill:none;stroke:#4c72b0;"/>
    <path clip-path="url(#pa68a4fe30e)" d="M 134.788744 183.54 
L 134.788744 169.8936 
" style="fill:none;stroke:#4c72b0;"/>
    <path clip-path="url(#pa68a4fe30e)" d="M 173.058535 183.54 
L 173.058535 169.8936 
" style="fill:none;stroke:#4c72b0;"/>
    <path clip-path="url(#pa68a4fe30e)" d="M 148.417914 183.54 
L 148.417914 169.8936 
" style="fill:none;stroke:#4c72b0;"/>
    <path clip-path="url(#pa68a4fe30e)" d="M 123.344447 183.54 
L 123.344447 169.8936 
" style="fill:none;stroke:#4c72b0;"/>
    <path clip-path="url(#pa68a4fe30e)" d="M 104.66329 183.54 
L 104.66329 169.8936 
" style="fill:none;stroke:#4c72b0;"/>
    <path clip-path="url(#pa68a4fe30e)" d="M 108.434747 183.54 
L 108.434747 169.8936 
" style="fill:none;stroke:#4c72b0;"/>
    <path clip-path="url(#pa68a4fe30e)" d="M 173.93521 183.54 
L 173.93521 169.8936 
" style="fill:none;stroke:#4c72b0;"/>
    <path clip-path="url(#pa68a4fe30e)" d="M 129.859107 183.54 
L 129.859107 169.8936 
" style="fill:none;stroke:#4c72b0;"/>
    <path clip-path="url(#pa68a4fe30e)" d="M 111.392472 183.54 
L 111.392472 169.8936 
" style="fill:none;stroke:#4c72b0;"/>
    <path clip-path="url(#pa68a4fe30e)" d="M 133.620819 183.54 
L 133.620819 169.8936 
" style="fill:none;stroke:#4c72b0;"/>
    <path clip-path="url(#pa68a4fe30e)" d="M 184.884129 183.54 
L 184.884129 169.8936 
" style="fill:none;stroke:#4c72b0;"/>
    <path clip-path="url(#pa68a4fe30e)" d="M 131.721098 183.54 
L 131.721098 169.8936 
" style="fill:none;stroke:#4c72b0;"/>
    <path clip-path="url(#pa68a4fe30e)" d="M 145.066093 183.54 
L 145.066093 169.8936 
" style="fill:none;stroke:#4c72b0;"/>
    <path clip-path="url(#pa68a4fe30e)" d="M 136.554171 183.54 
L 136.554171 169.8936 
" style="fill:none;stroke:#4c72b0;"/>
    <path clip-path="url(#pa68a4fe30e)" d="M 119.03753 183.54 
L 119.03753 169.8936 
" style="fill:none;stroke:#4c72b0;"/>
    <path clip-path="url(#pa68a4fe30e)" d="M 97.819843 183.54 
L 97.819843 169.8936 
" style="fill:none;stroke:#4c72b0;"/>
    <path clip-path="url(#pa68a4fe30e)" d="M 119.115583 183.54 
L 119.115583 169.8936 
" style="fill:none;stroke:#4c72b0;"/>
    <path clip-path="url(#pa68a4fe30e)" d="M 122.886444 183.54 
L 122.886444 169.8936 
" style="fill:none;stroke:#4c72b0;"/>
    <path clip-path="url(#pa68a4fe30e)" d="M 144.245062 183.54 
L 144.245062 169.8936 
" style="fill:none;stroke:#4c72b0;"/>
    <path clip-path="url(#pa68a4fe30e)" d="M 151.020608 183.54 
L 151.020608 169.8936 
" style="fill:none;stroke:#4c72b0;"/>
    <path clip-path="url(#pa68a4fe30e)" d="M 153.493876 183.54 
L 153.493876 169.8936 
" style="fill:none;stroke:#4c72b0;"/>
    <path clip-path="url(#pa68a4fe30e)" d="M 136.162636 183.54 
L 136.162636 169.8936 
" style="fill:none;stroke:#4c72b0;"/>
    <path clip-path="url(#pa68a4fe30e)" d="M 152.259885 183.54 
L 152.259885 169.8936 
" style="fill:none;stroke:#4c72b0;"/>
    <path clip-path="url(#pa68a4fe30e)" d="M 108.240372 183.54 
L 108.240372 169.8936 
" style="fill:none;stroke:#4c72b0;"/>
    <path clip-path="url(#pa68a4fe30e)" d="M 162.132881 183.54 
L 162.132881 169.8936 
" style="fill:none;stroke:#4c72b0;"/>
    <path clip-path="url(#pa68a4fe30e)" d="M 142.266489 183.54 
L 142.266489 169.8936 
" style="fill:none;stroke:#4c72b0;"/>
    <path clip-path="url(#pa68a4fe30e)" d="M 120.491576 183.54 
L 120.491576 169.8936 
" style="fill:none;stroke:#4c72b0;"/>
    <path clip-path="url(#pa68a4fe30e)" d="M 141.611067 183.54 
L 141.611067 169.8936 
" style="fill:none;stroke:#4c72b0;"/>
    <path clip-path="url(#pa68a4fe30e)" d="M 126.465981 183.54 
L 126.465981 169.8936 
" style="fill:none;stroke:#4c72b0;"/>
    <path clip-path="url(#pa68a4fe30e)" d="M 158.877776 183.54 
L 158.877776 169.8936 
" style="fill:none;stroke:#4c72b0;"/>
    <path clip-path="url(#pa68a4fe30e)" d="M 169.300108 183.54 
L 169.300108 169.8936 
" style="fill:none;stroke:#4c72b0;"/>
    <path clip-path="url(#pa68a4fe30e)" d="M 187.174869 183.54 
L 187.174869 169.8936 
" style="fill:none;stroke:#4c72b0;"/>
    <path clip-path="url(#pa68a4fe30e)" d="M 91.000857 183.54 
L 91.000857 169.8936 
" style="fill:none;stroke:#4c72b0;"/>
    <path clip-path="url(#pa68a4fe30e)" d="M 89.722389 183.54 
L 89.722389 169.8936 
" style="fill:none;stroke:#4c72b0;"/>
    <path clip-path="url(#pa68a4fe30e)" d="M 114.950726 183.54 
L 114.950726 169.8936 
" style="fill:none;stroke:#4c72b0;"/>
    <path clip-path="url(#pa68a4fe30e)" d="M 132.791774 183.54 
L 132.791774 169.8936 
" style="fill:none;stroke:#4c72b0;"/>
    <path clip-path="url(#pa68a4fe30e)" d="M 152.018991 183.54 
L 152.018991 169.8936 
" style="fill:none;stroke:#4c72b0;"/>
    <path clip-path="url(#pa68a4fe30e)" d="M 136.969376 183.54 
L 136.969376 169.8936 
" style="fill:none;stroke:#4c72b0;"/>
    <path clip-path="url(#pa68a4fe30e)" d="M 74.201487 183.54 
L 74.201487 169.8936 
" style="fill:none;stroke:#4c72b0;"/>
    <path clip-path="url(#pa68a4fe30e)" d="M 120.273801 183.54 
L 120.273801 169.8936 
" style="fill:none;stroke:#4c72b0;"/>
    <path clip-path="url(#pa68a4fe30e)" d="M 150.725037 183.54 
L 150.725037 169.8936 
" style="fill:none;stroke:#4c72b0;"/>
    <path clip-path="url(#pa68a4fe30e)" d="M 134.672732 183.54 
L 134.672732 169.8936 
" style="fill:none;stroke:#4c72b0;"/>
    <path clip-path="url(#pa68a4fe30e)" d="M 148.954003 183.54 
L 148.954003 169.8936 
" style="fill:none;stroke:#4c72b0;"/>
    <path clip-path="url(#pa68a4fe30e)" d="M 122.52576 183.54 
L 122.52576 169.8936 
" style="fill:none;stroke:#4c72b0;"/>
    <path clip-path="url(#pa68a4fe30e)" d="M 123.104889 183.54 
L 123.104889 169.8936 
" style="fill:none;stroke:#4c72b0;"/>
    <path clip-path="url(#pa68a4fe30e)" d="M 133.503918 183.54 
L 133.503918 169.8936 
" style="fill:none;stroke:#4c72b0;"/>
    <path clip-path="url(#pa68a4fe30e)" d="M 139.504343 183.54 
L 139.504343 169.8936 
" style="fill:none;stroke:#4c72b0;"/>
    <path clip-path="url(#pa68a4fe30e)" d="M 133.819077 183.54 
L 133.819077 169.8936 
" style="fill:none;stroke:#4c72b0;"/>
    <path clip-path="url(#pa68a4fe30e)" d="M 131.690213 183.54 
L 131.690213 169.8936 
" style="fill:none;stroke:#4c72b0;"/>
    <path clip-path="url(#pa68a4fe30e)" d="M 110.488566 183.54 
L 110.488566 169.8936 
" style="fill:none;stroke:#4c72b0;"/>
    <path clip-path="url(#pa68a4fe30e)" d="M 138.632086 183.54 
L 138.632086 169.8936 
" style="fill:none;stroke:#4c72b0;"/>
    <path clip-path="url(#pa68a4fe30e)" d="M 131.765729 183.54 
L 131.765729 169.8936 
" style="fill:none;stroke:#4c72b0;"/>
    <path clip-path="url(#pa68a4fe30e)" d="M 158.820172 183.54 
L 158.820172 169.8936 
" style="fill:none;stroke:#4c72b0;"/>
    <path clip-path="url(#pa68a4fe30e)" d="M 160.684385 183.54 
L 160.684385 169.8936 
" style="fill:none;stroke:#4c72b0;"/>
    <path clip-path="url(#pa68a4fe30e)" d="M 133.466196 183.54 
L 133.466196 169.8936 
" style="fill:none;stroke:#4c72b0;"/>
    <path clip-path="url(#pa68a4fe30e)" d="M 118.419067 183.54 
L 118.419067 169.8936 
" style="fill:none;stroke:#4c72b0;"/>
    <path clip-path="url(#pa68a4fe30e)" d="M 111.345896 183.54 
L 111.345896 169.8936 
" style="fill:none;stroke:#4c72b0;"/>
    <path clip-path="url(#pa68a4fe30e)" d="M 139.865262 183.54 
L 139.865262 169.8936 
" style="fill:none;stroke:#4c72b0;"/>
    <path clip-path="url(#pa68a4fe30e)" d="M 130.571466 183.54 
L 130.571466 169.8936 
" style="fill:none;stroke:#4c72b0;"/>
    <path clip-path="url(#pa68a4fe30e)" d="M 119.262956 183.54 
L 119.262956 169.8936 
" style="fill:none;stroke:#4c72b0;"/>
    <path clip-path="url(#pa68a4fe30e)" d="M 129.665504 183.54 
L 129.665504 169.8936 
" style="fill:none;stroke:#4c72b0;"/>
    <path clip-path="url(#pa68a4fe30e)" d="M 111.848761 183.54 
L 111.848761 169.8936 
" style="fill:none;stroke:#4c72b0;"/>
    <path clip-path="url(#pa68a4fe30e)" d="M 147.236245 183.54 
L 147.236245 169.8936 
" style="fill:none;stroke:#4c72b0;"/>
    <path clip-path="url(#pa68a4fe30e)" d="M 116.490159 183.54 
L 116.490159 169.8936 
" style="fill:none;stroke:#4c72b0;"/>
    <path clip-path="url(#pa68a4fe30e)" d="M 161.371439 183.54 
L 161.371439 169.8936 
" style="fill:none;stroke:#4c72b0;"/>
    <path clip-path="url(#pa68a4fe30e)" d="M 139.328215 183.54 
L 139.328215 169.8936 
" style="fill:none;stroke:#4c72b0;"/>
    <path clip-path="url(#pa68a4fe30e)" d="M 144.431803 183.54 
L 144.431803 169.8936 
" style="fill:none;stroke:#4c72b0;"/>
    <path clip-path="url(#pa68a4fe30e)" d="M 99.098012 183.54 
L 99.098012 169.8936 
" style="fill:none;stroke:#4c72b0;"/>
    <path clip-path="url(#pa68a4fe30e)" d="M 133.042685 183.54 
L 133.042685 169.8936 
" style="fill:none;stroke:#4c72b0;"/>
    <path clip-path="url(#pa68a4fe30e)" d="M 148.377971 183.54 
L 148.377971 169.8936 
" style="fill:none;stroke:#4c72b0;"/>
    <path clip-path="url(#pa68a4fe30e)" d="M 102.889352 183.54 
L 102.889352 169.8936 
" style="fill:none;stroke:#4c72b0;"/>
    <path clip-path="url(#pa68a4fe30e)" d="M 121.347361 183.54 
L 121.347361 169.8936 
" style="fill:none;stroke:#4c72b0;"/>
    <path clip-path="url(#pa68a4fe30e)" d="M 129.370643 183.54 
L 129.370643 169.8936 
" style="fill:none;stroke:#4c72b0;"/>
    <path clip-path="url(#pa68a4fe30e)" d="M 91.628553 183.54 
L 91.628553 169.8936 
" style="fill:none;stroke:#4c72b0;"/>
    <path clip-path="url(#pa68a4fe30e)" d="M 136.956608 183.54 
L 136.956608 169.8936 
" style="fill:none;stroke:#4c72b0;"/>
    <path clip-path="url(#pa68a4fe30e)" d="M 151.213308 183.54 
L 151.213308 169.8936 
" style="fill:none;stroke:#4c72b0;"/>
    <path clip-path="url(#pa68a4fe30e)" d="M 105.418089 183.54 
L 105.418089 169.8936 
" style="fill:none;stroke:#4c72b0;"/>
    <path clip-path="url(#pa68a4fe30e)" d="M 137.906693 183.54 
L 137.906693 169.8936 
" style="fill:none;stroke:#4c72b0;"/>
    <path clip-path="url(#pa68a4fe30e)" d="M 93.261866 183.54 
L 93.261866 169.8936 
" style="fill:none;stroke:#4c72b0;"/>
    <path clip-path="url(#pa68a4fe30e)" d="M 127.45606 183.54 
L 127.45606 169.8936 
" style="fill:none;stroke:#4c72b0;"/>
    <path clip-path="url(#pa68a4fe30e)" d="M 85.113578 183.54 
L 85.113578 169.8936 
" style="fill:none;stroke:#4c72b0;"/>
    <path clip-path="url(#pa68a4fe30e)" d="M 158.603605 183.54 
L 158.603605 169.8936 
" style="fill:none;stroke:#4c72b0;"/>
    <path clip-path="url(#pa68a4fe30e)" d="M 139.473437 183.54 
L 139.473437 169.8936 
" style="fill:none;stroke:#4c72b0;"/>
    <path clip-path="url(#pa68a4fe30e)" d="M 127.834051 183.54 
L 127.834051 169.8936 
" style="fill:none;stroke:#4c72b0;"/>
    <path clip-path="url(#pa68a4fe30e)" d="M 107.682894 183.54 
L 107.682894 169.8936 
" style="fill:none;stroke:#4c72b0;"/>
    <path clip-path="url(#pa68a4fe30e)" d="M 162.69369 183.54 
L 162.69369 169.8936 
" style="fill:none;stroke:#4c72b0;"/>
    <path clip-path="url(#pa68a4fe30e)" d="M 181.309132 183.54 
L 181.309132 169.8936 
" style="fill:none;stroke:#4c72b0;"/>
    <path clip-path="url(#pa68a4fe30e)" d="M 78.610565 183.54 
L 78.610565 169.8936 
" style="fill:none;stroke:#4c72b0;"/>
    <path clip-path="url(#pa68a4fe30e)" d="M 161.684396 183.54 
L 161.684396 169.8936 
" style="fill:none;stroke:#4c72b0;"/>
    <path clip-path="url(#pa68a4fe30e)" d="M 172.195311 183.54 
L 172.195311 169.8936 
" style="fill:none;stroke:#4c72b0;"/>
    <path clip-path="url(#pa68a4fe30e)" d="M 137.570163 183.54 
L 137.570163 169.8936 
" style="fill:none;stroke:#4c72b0;"/>
    <path clip-path="url(#pa68a4fe30e)" d="M 96.296183 183.54 
L 96.296183 169.8936 
" style="fill:none;stroke:#4c72b0;"/>
    <path clip-path="url(#pa68a4fe30e)" d="M 151.674694 183.54 
L 151.674694 169.8936 
" style="fill:none;stroke:#4c72b0;"/>
    <path clip-path="url(#pa68a4fe30e)" d="M 123.637508 183.54 
L 123.637508 169.8936 
" style="fill:none;stroke:#4c72b0;"/>
    <path clip-path="url(#pa68a4fe30e)" d="M 112.280494 183.54 
L 112.280494 169.8936 
" style="fill:none;stroke:#4c72b0;"/>
    <path clip-path="url(#pa68a4fe30e)" d="M 95.469508 183.54 
L 95.469508 169.8936 
" style="fill:none;stroke:#4c72b0;"/>
    <path clip-path="url(#pa68a4fe30e)" d="M 143.276207 183.54 
L 143.276207 169.8936 
" style="fill:none;stroke:#4c72b0;"/>
    <path clip-path="url(#pa68a4fe30e)" d="M 149.780828 183.54 
L 149.780828 169.8936 
" style="fill:none;stroke:#4c72b0;"/>
    <path clip-path="url(#pa68a4fe30e)" d="M 111.753988 183.54 
L 111.753988 169.8936 
" style="fill:none;stroke:#4c72b0;"/>
    <path clip-path="url(#pa68a4fe30e)" d="M 142.471789 183.54 
L 142.471789 169.8936 
" style="fill:none;stroke:#4c72b0;"/>
    <path clip-path="url(#pa68a4fe30e)" d="M 97.770892 183.54 
L 97.770892 169.8936 
" style="fill:none;stroke:#4c72b0;"/>
    <path clip-path="url(#pa68a4fe30e)" d="M 150.02392 183.54 
L 150.02392 169.8936 
" style="fill:none;stroke:#4c72b0;"/>
    <path clip-path="url(#pa68a4fe30e)" d="M 129.745257 183.54 
L 129.745257 169.8936 
" style="fill:none;stroke:#4c72b0;"/>
    <path clip-path="url(#pa68a4fe30e)" d="M 123.485827 183.54 
L 123.485827 169.8936 
" style="fill:none;stroke:#4c72b0;"/>
    <path clip-path="url(#pa68a4fe30e)" d="M 125.763239 183.54 
L 125.763239 169.8936 
" style="fill:none;stroke:#4c72b0;"/>
    <path clip-path="url(#pa68a4fe30e)" d="M 151.823459 183.54 
L 151.823459 169.8936 
" style="fill:none;stroke:#4c72b0;"/>
    <path clip-path="url(#pa68a4fe30e)" d="M 148.64257 183.54 
L 148.64257 169.8936 
" style="fill:none;stroke:#4c72b0;"/>
    <path clip-path="url(#pa68a4fe30e)" d="M 142.710446 183.54 
L 142.710446 169.8936 
" style="fill:none;stroke:#4c72b0;"/>
    <path clip-path="url(#pa68a4fe30e)" d="M 132.192085 183.54 
L 132.192085 169.8936 
" style="fill:none;stroke:#4c72b0;"/>
    <path clip-path="url(#pa68a4fe30e)" d="M 130.584382 183.54 
L 130.584382 169.8936 
" style="fill:none;stroke:#4c72b0;"/>
    <path clip-path="url(#pa68a4fe30e)" d="M 145.097698 183.54 
L 145.097698 169.8936 
" style="fill:none;stroke:#4c72b0;"/>
    <path clip-path="url(#pa68a4fe30e)" d="M 134.737164 183.54 
L 134.737164 169.8936 
" style="fill:none;stroke:#4c72b0;"/>
    <path clip-path="url(#pa68a4fe30e)" d="M 146.820611 183.54 
L 146.820611 169.8936 
" style="fill:none;stroke:#4c72b0;"/>
    <path clip-path="url(#pa68a4fe30e)" d="M 120.168749 183.54 
L 120.168749 169.8936 
" style="fill:none;stroke:#4c72b0;"/>
    <path clip-path="url(#pa68a4fe30e)" d="M 63.122727 183.54 
L 63.122727 169.8936 
" style="fill:none;stroke:#4c72b0;"/>
    <path clip-path="url(#pa68a4fe30e)" d="M 156.386087 183.54 
L 156.386087 169.8936 
" style="fill:none;stroke:#4c72b0;"/>
    <path clip-path="url(#pa68a4fe30e)" d="M 187.212571 183.54 
L 187.212571 169.8936 
" style="fill:none;stroke:#4c72b0;"/>
    <path clip-path="url(#pa68a4fe30e)" d="M 140.345051 183.54 
L 140.345051 169.8936 
" style="fill:none;stroke:#4c72b0;"/>
    <path clip-path="url(#pa68a4fe30e)" d="M 125.805946 183.54 
L 125.805946 169.8936 
" style="fill:none;stroke:#4c72b0;"/>
    <path clip-path="url(#pa68a4fe30e)" d="M 124.831619 183.54 
L 124.831619 169.8936 
" style="fill:none;stroke:#4c72b0;"/>
    <path clip-path="url(#pa68a4fe30e)" d="M 125.298533 183.54 
L 125.298533 169.8936 
" style="fill:none;stroke:#4c72b0;"/>
    <path clip-path="url(#pa68a4fe30e)" d="M 128.962405 183.54 
L 128.962405 169.8936 
" style="fill:none;stroke:#4c72b0;"/>
    <path clip-path="url(#pa68a4fe30e)" d="M 98.370227 183.54 
L 98.370227 169.8936 
" style="fill:none;stroke:#4c72b0;"/>
    <path clip-path="url(#pa68a4fe30e)" d="M 114.611665 183.54 
L 114.611665 169.8936 
" style="fill:none;stroke:#4c72b0;"/>
    <path clip-path="url(#pa68a4fe30e)" d="M 101.726099 183.54 
L 101.726099 169.8936 
" style="fill:none;stroke:#4c72b0;"/>
    <path clip-path="url(#pa68a4fe30e)" d="M 135.174922 183.54 
L 135.174922 169.8936 
" style="fill:none;stroke:#4c72b0;"/>
    <path clip-path="url(#pa68a4fe30e)" d="M 120.530552 183.54 
L 120.530552 169.8936 
" style="fill:none;stroke:#4c72b0;"/>
    <path clip-path="url(#pa68a4fe30e)" d="M 141.790771 183.54 
L 141.790771 169.8936 
" style="fill:none;stroke:#4c72b0;"/>
    <path clip-path="url(#pa68a4fe30e)" d="M 123.80443 183.54 
L 123.80443 169.8936 
" style="fill:none;stroke:#4c72b0;"/>
    <path clip-path="url(#pa68a4fe30e)" d="M 154.976814 183.54 
L 154.976814 169.8936 
" style="fill:none;stroke:#4c72b0;"/>
    <path clip-path="url(#pa68a4fe30e)" d="M 134.228095 183.54 
L 134.228095 169.8936 
" style="fill:none;stroke:#4c72b0;"/>
    <path clip-path="url(#pa68a4fe30e)" d="M 187.31245 183.54 
L 187.31245 169.8936 
" style="fill:none;stroke:#4c72b0;"/>
    <path clip-path="url(#pa68a4fe30e)" d="M 77.580137 183.54 
L 77.580137 169.8936 
" style="fill:none;stroke:#4c72b0;"/>
    <path clip-path="url(#pa68a4fe30e)" d="M 111.126105 183.54 
L 111.126105 169.8936 
" style="fill:none;stroke:#4c72b0;"/>
    <path clip-path="url(#pa68a4fe30e)" d="M 152.698746 183.54 
L 152.698746 169.8936 
" style="fill:none;stroke:#4c72b0;"/>
    <path clip-path="url(#pa68a4fe30e)" d="M 196.377273 183.54 
L 196.377273 169.8936 
" style="fill:none;stroke:#4c72b0;"/>
    <path clip-path="url(#pa68a4fe30e)" d="M 121.819461 183.54 
L 121.819461 169.8936 
" style="fill:none;stroke:#4c72b0;"/>
    <path clip-path="url(#pa68a4fe30e)" d="M 129.667441 183.54 
L 129.667441 169.8936 
" style="fill:none;stroke:#4c72b0;"/>
    <path clip-path="url(#pa68a4fe30e)" d="M 122.418739 183.54 
L 122.418739 169.8936 
" style="fill:none;stroke:#4c72b0;"/>
    <path clip-path="url(#pa68a4fe30e)" d="M 164.242893 183.54 
L 164.242893 169.8936 
" style="fill:none;stroke:#4c72b0;"/>
    <path clip-path="url(#pa68a4fe30e)" d="M 120.781139 183.54 
L 120.781139 169.8936 
" style="fill:none;stroke:#4c72b0;"/>
    <path clip-path="url(#pa68a4fe30e)" d="M 146.753984 183.54 
L 146.753984 169.8936 
" style="fill:none;stroke:#4c72b0;"/>
    <path clip-path="url(#pa68a4fe30e)" d="M 119.908724 183.54 
L 119.908724 169.8936 
" style="fill:none;stroke:#4c72b0;"/>
    <path clip-path="url(#pa68a4fe30e)" d="M 94.328421 183.54 
L 94.328421 169.8936 
" style="fill:none;stroke:#4c72b0;"/>
    <path clip-path="url(#pa68a4fe30e)" d="M 136.913337 183.54 
L 136.913337 169.8936 
" style="fill:none;stroke:#4c72b0;"/>
    <path clip-path="url(#pa68a4fe30e)" d="M 142.004849 183.54 
L 142.004849 169.8936 
" style="fill:none;stroke:#4c72b0;"/>
    <path clip-path="url(#pa68a4fe30e)" d="M 163.216434 183.54 
L 163.216434 169.8936 
" style="fill:none;stroke:#4c72b0;"/>
    <path clip-path="url(#pa68a4fe30e)" d="M 125.529624 183.54 
L 125.529624 169.8936 
" style="fill:none;stroke:#4c72b0;"/>
    <path clip-path="url(#pa68a4fe30e)" d="M 111.919608 183.54 
L 111.919608 169.8936 
" style="fill:none;stroke:#4c72b0;"/>
    <path clip-path="url(#pa68a4fe30e)" d="M 143.604395 183.54 
L 143.604395 169.8936 
" style="fill:none;stroke:#4c72b0;"/>
    <path clip-path="url(#pa68a4fe30e)" d="M 134.958465 183.54 
L 134.958465 169.8936 
" style="fill:none;stroke:#4c72b0;"/>
    <path clip-path="url(#pa68a4fe30e)" d="M 136.03048 183.54 
L 136.03048 169.8936 
" style="fill:none;stroke:#4c72b0;"/>
    <path clip-path="url(#pa68a4fe30e)" d="M 126.532003 183.54 
L 126.532003 169.8936 
" style="fill:none;stroke:#4c72b0;"/>
    <path clip-path="url(#pa68a4fe30e)" d="M 159.64858 183.54 
L 159.64858 169.8936 
" style="fill:none;stroke:#4c72b0;"/>
    <path clip-path="url(#pa68a4fe30e)" d="M 138.415388 183.54 
L 138.415388 169.8936 
" style="fill:none;stroke:#4c72b0;"/>
    <path clip-path="url(#pa68a4fe30e)" d="M 179.632617 183.54 
L 179.632617 169.8936 
" style="fill:none;stroke:#4c72b0;"/>
    <path clip-path="url(#pa68a4fe30e)" d="M 158.325426 183.54 
L 158.325426 169.8936 
" style="fill:none;stroke:#4c72b0;"/>
    <path clip-path="url(#pa68a4fe30e)" d="M 146.189623 183.54 
L 146.189623 169.8936 
" style="fill:none;stroke:#4c72b0;"/>
    <path clip-path="url(#pa68a4fe30e)" d="M 84.800362 183.54 
L 84.800362 169.8936 
" style="fill:none;stroke:#4c72b0;"/>
    <path clip-path="url(#pa68a4fe30e)" d="M 144.666481 183.54 
L 144.666481 169.8936 
" style="fill:none;stroke:#4c72b0;"/>
    <path clip-path="url(#pa68a4fe30e)" d="M 139.77902 183.54 
L 139.77902 169.8936 
" style="fill:none;stroke:#4c72b0;"/>
    <path clip-path="url(#pa68a4fe30e)" d="M 150.267992 183.54 
L 150.267992 169.8936 
" style="fill:none;stroke:#4c72b0;"/>
    <path clip-path="url(#pa68a4fe30e)" d="M 156.536909 183.54 
L 156.536909 169.8936 
" style="fill:none;stroke:#4c72b0;"/>
   </g>
   <g id="patch_3">
    <path d="M 56.46 183.54 
L 56.46 12.96 
" style="fill:none;stroke:#ffffff;stroke-linecap:square;stroke-linejoin:miter;stroke-width:1.25;"/>
   </g>
   <g id="patch_4">
    <path d="M 203.04 183.54 
L 203.04 12.96 
" style="fill:none;stroke:#ffffff;stroke-linecap:square;stroke-linejoin:miter;stroke-width:1.25;"/>
   </g>
   <g id="patch_5">
    <path d="M 56.46 183.54 
L 203.04 183.54 
" style="fill:none;stroke:#ffffff;stroke-linecap:square;stroke-linejoin:miter;stroke-width:1.25;"/>
   </g>
   <g id="patch_6">
    <path d="M 56.46 12.96 
L 203.04 12.96 
" style="fill:none;stroke:#ffffff;stroke-linecap:square;stroke-linejoin:miter;stroke-width:1.25;"/>
   </g>
  </g>
 </g>
 <defs>
  <clipPath id="pa68a4fe30e">
   <rect height="170.58" width="146.58" x="56.46" y="12.96"/>
  </clipPath>
 </defs>
</svg>
