<?xml version="1.0" encoding="utf-8" standalone="no"?>
<!DOCTYPE svg PUBLIC "-//W3C//DTD SVG 1.1//EN"
  "http://www.w3.org/Graphics/SVG/1.1/DTD/svg11.dtd">
<!-- Created with matplotlib (https://matplotlib.org/) -->
<svg height="360pt" version="1.1" viewBox="0 0 424.352 360" width="424.352pt" xmlns="http://www.w3.org/2000/svg" xmlns:xlink="http://www.w3.org/1999/xlink">
 <metadata>
  <rdf:RDF xmlns:cc="http://creativecommons.org/ns#" xmlns:dc="http://purl.org/dc/elements/1.1/" xmlns:rdf="http://www.w3.org/1999/02/22-rdf-syntax-ns#">
   <cc:Work>
    <dc:type rdf:resource="http://purl.org/dc/dcmitype/StillImage"/>
    <dc:date>2020-10-07T02:01:16.798874</dc:date>
    <dc:format>image/svg+xml</dc:format>
    <dc:creator>
     <cc:Agent>
      <dc:title>Matplotlib v3.3.1, https://matplotlib.org/</dc:title>
     </cc:Agent>
    </dc:creator>
   </cc:Work>
  </rdf:RDF>
 </metadata>
 <defs>
  <style type="text/css">*{stroke-linecap:butt;stroke-linejoin:round;}</style>
 </defs>
 <g id="figure_1">
  <g id="patch_1">
   <path d="M 0 360 
L 424.352 360 
L 424.352 0 
L 0 0 
z
" style="fill:#ffffff;"/>
  </g>
  <g id="axes_1">
   <g id="patch_2">
    <path d="M 43.101433 325.1848 
L 355.75648 325.1848 
L 355.75648 14.5152 
L 43.101433 14.5152 
z
" style="fill:#eaeaf2;"/>
   </g>
   <g id="matplotlib.axis_1">
    <g id="xtick_1">
     <g id="line2d_1">
      <path clip-path="url(#p852f0b1735)" d="M 88.486843 325.1848 
L 88.486843 14.5152 
" style="fill:none;stroke:#ffffff;stroke-linecap:round;stroke-width:0.8;"/>
     </g>
     <g id="text_1">
      <!-- 10 -->
      <g style="fill:#262626;" transform="translate(81.635768 342.303225)scale(0.1232 -0.1232)">
       <defs>
        <path d="M 37.25 0 
L 28.46875 0 
L 28.46875 56 
Q 25.296875 52.984375 20.140625 49.953125 
Q 14.984375 46.921875 10.890625 45.40625 
L 10.890625 53.90625 
Q 18.265625 57.375 23.78125 62.296875 
Q 29.296875 67.234375 31.59375 71.875 
L 37.25 71.875 
z
" id="ArialMT-49"/>
        <path d="M 4.15625 35.296875 
Q 4.15625 48 6.765625 55.734375 
Q 9.375 63.484375 14.515625 67.671875 
Q 19.671875 71.875 27.484375 71.875 
Q 33.25 71.875 37.59375 69.546875 
Q 41.9375 67.234375 44.765625 62.859375 
Q 47.609375 58.5 49.21875 52.21875 
Q 50.828125 45.953125 50.828125 35.296875 
Q 50.828125 22.703125 48.234375 14.96875 
Q 45.65625 7.234375 40.5 3 
Q 35.359375 -1.21875 27.484375 -1.21875 
Q 17.140625 -1.21875 11.234375 6.203125 
Q 4.15625 15.140625 4.15625 35.296875 
z
M 13.1875 35.296875 
Q 13.1875 17.671875 17.3125 11.828125 
Q 21.4375 6 27.484375 6 
Q 33.546875 6 37.671875 11.859375 
Q 41.796875 17.71875 41.796875 35.296875 
Q 41.796875 52.984375 37.671875 58.78125 
Q 33.546875 64.59375 27.390625 64.59375 
Q 21.34375 64.59375 17.71875 59.46875 
Q 13.1875 52.9375 13.1875 35.296875 
z
" id="ArialMT-48"/>
       </defs>
       <use xlink:href="#ArialMT-49"/>
       <use x="55.615234" xlink:href="#ArialMT-48"/>
      </g>
     </g>
    </g>
    <g id="xtick_2">
     <g id="line2d_2">
      <path clip-path="url(#p852f0b1735)" d="M 153.978055 325.1848 
L 153.978055 14.5152 
" style="fill:none;stroke:#ffffff;stroke-linecap:round;stroke-width:0.8;"/>
     </g>
     <g id="text_2">
      <!-- 20 -->
      <g style="fill:#262626;" transform="translate(147.12698 342.303225)scale(0.1232 -0.1232)">
       <defs>
        <path d="M 50.34375 8.453125 
L 50.34375 0 
L 3.03125 0 
Q 2.9375 3.171875 4.046875 6.109375 
Q 5.859375 10.9375 9.828125 15.625 
Q 13.8125 20.3125 21.34375 26.46875 
Q 33.015625 36.03125 37.109375 41.625 
Q 41.21875 47.21875 41.21875 52.203125 
Q 41.21875 57.421875 37.46875 61 
Q 33.734375 64.59375 27.734375 64.59375 
Q 21.390625 64.59375 17.578125 60.78125 
Q 13.765625 56.984375 13.71875 50.25 
L 4.6875 51.171875 
Q 5.609375 61.28125 11.65625 66.578125 
Q 17.71875 71.875 27.9375 71.875 
Q 38.234375 71.875 44.234375 66.15625 
Q 50.25 60.453125 50.25 52 
Q 50.25 47.703125 48.484375 43.546875 
Q 46.734375 39.40625 42.65625 34.8125 
Q 38.578125 30.21875 29.109375 22.21875 
Q 21.1875 15.578125 18.9375 13.203125 
Q 16.703125 10.84375 15.234375 8.453125 
z
" id="ArialMT-50"/>
       </defs>
       <use xlink:href="#ArialMT-50"/>
       <use x="55.615234" xlink:href="#ArialMT-48"/>
      </g>
     </g>
    </g>
    <g id="xtick_3">
     <g id="line2d_3">
      <path clip-path="url(#p852f0b1735)" d="M 219.469267 325.1848 
L 219.469267 14.5152 
" style="fill:none;stroke:#ffffff;stroke-linecap:round;stroke-width:0.8;"/>
     </g>
     <g id="text_3">
      <!-- 30 -->
      <g style="fill:#262626;" transform="translate(212.618192 342.303225)scale(0.1232 -0.1232)">
       <defs>
        <path d="M 4.203125 18.890625 
L 12.984375 20.0625 
Q 14.5 12.59375 18.140625 9.296875 
Q 21.78125 6 27 6 
Q 33.203125 6 37.46875 10.296875 
Q 41.75 14.59375 41.75 20.953125 
Q 41.75 27 37.796875 30.921875 
Q 33.84375 34.859375 27.734375 34.859375 
Q 25.25 34.859375 21.53125 33.890625 
L 22.515625 41.609375 
Q 23.390625 41.5 23.921875 41.5 
Q 29.546875 41.5 34.03125 44.421875 
Q 38.53125 47.359375 38.53125 53.46875 
Q 38.53125 58.296875 35.25 61.46875 
Q 31.984375 64.65625 26.8125 64.65625 
Q 21.6875 64.65625 18.265625 61.421875 
Q 14.84375 58.203125 13.875 51.765625 
L 5.078125 53.328125 
Q 6.6875 62.15625 12.390625 67.015625 
Q 18.109375 71.875 26.609375 71.875 
Q 32.46875 71.875 37.390625 69.359375 
Q 42.328125 66.84375 44.9375 62.5 
Q 47.5625 58.15625 47.5625 53.265625 
Q 47.5625 48.640625 45.0625 44.828125 
Q 42.578125 41.015625 37.703125 38.765625 
Q 44.046875 37.3125 47.5625 32.6875 
Q 51.078125 28.078125 51.078125 21.140625 
Q 51.078125 11.765625 44.234375 5.25 
Q 37.40625 -1.265625 26.953125 -1.265625 
Q 17.53125 -1.265625 11.296875 4.34375 
Q 5.078125 9.96875 4.203125 18.890625 
z
" id="ArialMT-51"/>
       </defs>
       <use xlink:href="#ArialMT-51"/>
       <use x="55.615234" xlink:href="#ArialMT-48"/>
      </g>
     </g>
    </g>
    <g id="xtick_4">
     <g id="line2d_4">
      <path clip-path="url(#p852f0b1735)" d="M 284.96048 325.1848 
L 284.96048 14.5152 
" style="fill:none;stroke:#ffffff;stroke-linecap:round;stroke-width:0.8;"/>
     </g>
     <g id="text_4">
      <!-- 40 -->
      <g style="fill:#262626;" transform="translate(278.109405 342.303225)scale(0.1232 -0.1232)">
       <defs>
        <path d="M 32.328125 0 
L 32.328125 17.140625 
L 1.265625 17.140625 
L 1.265625 25.203125 
L 33.9375 71.578125 
L 41.109375 71.578125 
L 41.109375 25.203125 
L 50.78125 25.203125 
L 50.78125 17.140625 
L 41.109375 17.140625 
L 41.109375 0 
z
M 32.328125 25.203125 
L 32.328125 57.46875 
L 9.90625 25.203125 
z
" id="ArialMT-52"/>
       </defs>
       <use xlink:href="#ArialMT-52"/>
       <use x="55.615234" xlink:href="#ArialMT-48"/>
      </g>
     </g>
    </g>
    <g id="xtick_5">
     <g id="line2d_5">
      <path clip-path="url(#p852f0b1735)" d="M 350.451692 325.1848 
L 350.451692 14.5152 
" style="fill:none;stroke:#ffffff;stroke-linecap:round;stroke-width:0.8;"/>
     </g>
     <g id="text_5">
      <!-- 50 -->
      <g style="fill:#262626;" transform="translate(343.600617 342.303225)scale(0.1232 -0.1232)">
       <defs>
        <path d="M 4.15625 18.75 
L 13.375 19.53125 
Q 14.40625 12.796875 18.140625 9.390625 
Q 21.875 6 27.15625 6 
Q 33.5 6 37.890625 10.78125 
Q 42.28125 15.578125 42.28125 23.484375 
Q 42.28125 31 38.0625 35.34375 
Q 33.84375 39.703125 27 39.703125 
Q 22.75 39.703125 19.328125 37.765625 
Q 15.921875 35.84375 13.96875 32.765625 
L 5.71875 33.84375 
L 12.640625 70.609375 
L 48.25 70.609375 
L 48.25 62.203125 
L 19.671875 62.203125 
L 15.828125 42.96875 
Q 22.265625 47.46875 29.34375 47.46875 
Q 38.71875 47.46875 45.15625 40.96875 
Q 51.609375 34.46875 51.609375 24.265625 
Q 51.609375 14.546875 45.953125 7.46875 
Q 39.0625 -1.21875 27.15625 -1.21875 
Q 17.390625 -1.21875 11.203125 4.25 
Q 5.03125 9.71875 4.15625 18.75 
z
" id="ArialMT-53"/>
       </defs>
       <use xlink:href="#ArialMT-53"/>
       <use x="55.615234" xlink:href="#ArialMT-48"/>
      </g>
     </g>
    </g>
    <g id="text_6">
     <!-- total_bill -->
     <g style="fill:#262626;" transform="translate(174.774956 358.371925)scale(0.1344 -0.1344)">
      <defs>
       <path d="M 25.78125 7.859375 
L 27.046875 0.09375 
Q 23.34375 -0.6875 20.40625 -0.6875 
Q 15.625 -0.6875 12.984375 0.828125 
Q 10.359375 2.34375 9.28125 4.8125 
Q 8.203125 7.28125 8.203125 15.1875 
L 8.203125 45.015625 
L 1.765625 45.015625 
L 1.765625 51.859375 
L 8.203125 51.859375 
L 8.203125 64.703125 
L 16.9375 69.96875 
L 16.9375 51.859375 
L 25.78125 51.859375 
L 25.78125 45.015625 
L 16.9375 45.015625 
L 16.9375 14.703125 
Q 16.9375 10.9375 17.40625 9.859375 
Q 17.875 8.796875 18.921875 8.15625 
Q 19.96875 7.515625 21.921875 7.515625 
Q 23.390625 7.515625 25.78125 7.859375 
z
" id="ArialMT-116"/>
       <path d="M 3.328125 25.921875 
Q 3.328125 40.328125 11.328125 47.265625 
Q 18.015625 53.03125 27.640625 53.03125 
Q 38.328125 53.03125 45.109375 46.015625 
Q 51.90625 39.015625 51.90625 26.65625 
Q 51.90625 16.65625 48.90625 10.90625 
Q 45.90625 5.171875 40.15625 2 
Q 34.421875 -1.171875 27.640625 -1.171875 
Q 16.75 -1.171875 10.03125 5.8125 
Q 3.328125 12.796875 3.328125 25.921875 
z
M 12.359375 25.921875 
Q 12.359375 15.96875 16.703125 11.015625 
Q 21.046875 6.0625 27.640625 6.0625 
Q 34.1875 6.0625 38.53125 11.03125 
Q 42.875 16.015625 42.875 26.21875 
Q 42.875 35.84375 38.5 40.796875 
Q 34.125 45.75 27.640625 45.75 
Q 21.046875 45.75 16.703125 40.8125 
Q 12.359375 35.890625 12.359375 25.921875 
z
" id="ArialMT-111"/>
       <path d="M 40.4375 6.390625 
Q 35.546875 2.25 31.03125 0.53125 
Q 26.515625 -1.171875 21.34375 -1.171875 
Q 12.796875 -1.171875 8.203125 3 
Q 3.609375 7.171875 3.609375 13.671875 
Q 3.609375 17.484375 5.34375 20.625 
Q 7.078125 23.78125 9.890625 25.6875 
Q 12.703125 27.59375 16.21875 28.5625 
Q 18.796875 29.25 24.03125 29.890625 
Q 34.671875 31.15625 39.703125 32.90625 
Q 39.75 34.71875 39.75 35.203125 
Q 39.75 40.578125 37.25 42.78125 
Q 33.890625 45.75 27.25 45.75 
Q 21.046875 45.75 18.09375 43.578125 
Q 15.140625 41.40625 13.71875 35.890625 
L 5.125 37.0625 
Q 6.296875 42.578125 8.984375 45.96875 
Q 11.671875 49.359375 16.75 51.1875 
Q 21.828125 53.03125 28.515625 53.03125 
Q 35.15625 53.03125 39.296875 51.46875 
Q 43.453125 49.90625 45.40625 47.53125 
Q 47.359375 45.171875 48.140625 41.546875 
Q 48.578125 39.3125 48.578125 33.453125 
L 48.578125 21.734375 
Q 48.578125 9.46875 49.140625 6.21875 
Q 49.703125 2.984375 51.375 0 
L 42.1875 0 
Q 40.828125 2.734375 40.4375 6.390625 
z
M 39.703125 26.03125 
Q 34.90625 24.078125 25.34375 22.703125 
Q 19.921875 21.921875 17.671875 20.9375 
Q 15.4375 19.96875 14.203125 18.09375 
Q 12.984375 16.21875 12.984375 13.921875 
Q 12.984375 10.40625 15.640625 8.0625 
Q 18.3125 5.71875 23.4375 5.71875 
Q 28.515625 5.71875 32.46875 7.9375 
Q 36.421875 10.15625 38.28125 14.015625 
Q 39.703125 17 39.703125 22.796875 
z
" id="ArialMT-97"/>
       <path d="M 6.390625 0 
L 6.390625 71.578125 
L 15.1875 71.578125 
L 15.1875 0 
z
" id="ArialMT-108"/>
       <path d="M -1.515625 -19.875 
L -1.515625 -13.53125 
L 56.734375 -13.53125 
L 56.734375 -19.875 
z
" id="ArialMT-95"/>
       <path d="M 14.703125 0 
L 6.546875 0 
L 6.546875 71.578125 
L 15.328125 71.578125 
L 15.328125 46.046875 
Q 20.90625 53.03125 29.546875 53.03125 
Q 34.328125 53.03125 38.59375 51.09375 
Q 42.875 49.171875 45.625 45.671875 
Q 48.390625 42.1875 49.953125 37.25 
Q 51.515625 32.328125 51.515625 26.703125 
Q 51.515625 13.375 44.921875 6.09375 
Q 38.328125 -1.171875 29.109375 -1.171875 
Q 19.921875 -1.171875 14.703125 6.5 
z
M 14.59375 26.3125 
Q 14.59375 17 17.140625 12.84375 
Q 21.296875 6.0625 28.375 6.0625 
Q 34.125 6.0625 38.328125 11.0625 
Q 42.53125 16.0625 42.53125 25.984375 
Q 42.53125 36.140625 38.5 40.96875 
Q 34.46875 45.796875 28.765625 45.796875 
Q 23 45.796875 18.796875 40.796875 
Q 14.59375 35.796875 14.59375 26.3125 
z
" id="ArialMT-98"/>
       <path d="M 6.640625 61.46875 
L 6.640625 71.578125 
L 15.4375 71.578125 
L 15.4375 61.46875 
z
M 6.640625 0 
L 6.640625 51.859375 
L 15.4375 51.859375 
L 15.4375 0 
z
" id="ArialMT-105"/>
      </defs>
      <use xlink:href="#ArialMT-116"/>
      <use x="27.783203" xlink:href="#ArialMT-111"/>
      <use x="83.398438" xlink:href="#ArialMT-116"/>
      <use x="111.181641" xlink:href="#ArialMT-97"/>
      <use x="166.796875" xlink:href="#ArialMT-108"/>
      <use x="189.013672" xlink:href="#ArialMT-95"/>
      <use x="244.628906" xlink:href="#ArialMT-98"/>
      <use x="300.244141" xlink:href="#ArialMT-105"/>
      <use x="322.460938" xlink:href="#ArialMT-108"/>
      <use x="344.677734" xlink:href="#ArialMT-108"/>
     </g>
    </g>
   </g>
   <g id="matplotlib.axis_2">
    <g id="ytick_1">
     <g id="line2d_6">
      <path clip-path="url(#p852f0b1735)" d="M 43.101433 279.682687 
L 355.75648 279.682687 
" style="fill:none;stroke:#ffffff;stroke-linecap:round;stroke-width:0.8;"/>
     </g>
     <g id="text_7">
      <!-- 2 -->
      <g style="fill:#262626;" transform="translate(27.950358 284.091899)scale(0.1232 -0.1232)">
       <use xlink:href="#ArialMT-50"/>
      </g>
     </g>
    </g>
    <g id="ytick_2">
     <g id="line2d_7">
      <path clip-path="url(#p852f0b1735)" d="M 43.101433 216.921152 
L 355.75648 216.921152 
" style="fill:none;stroke:#ffffff;stroke-linecap:round;stroke-width:0.8;"/>
     </g>
     <g id="text_8">
      <!-- 4 -->
      <g style="fill:#262626;" transform="translate(27.950358 221.330364)scale(0.1232 -0.1232)">
       <use xlink:href="#ArialMT-52"/>
      </g>
     </g>
    </g>
    <g id="ytick_3">
     <g id="line2d_8">
      <path clip-path="url(#p852f0b1735)" d="M 43.101433 154.159616 
L 355.75648 154.159616 
" style="fill:none;stroke:#ffffff;stroke-linecap:round;stroke-width:0.8;"/>
     </g>
     <g id="text_9">
      <!-- 6 -->
      <g style="fill:#262626;" transform="translate(27.950358 158.568829)scale(0.1232 -0.1232)">
       <defs>
        <path d="M 49.75 54.046875 
L 41.015625 53.375 
Q 39.84375 58.546875 37.703125 60.890625 
Q 34.125 64.65625 28.90625 64.65625 
Q 24.703125 64.65625 21.53125 62.3125 
Q 17.390625 59.28125 14.984375 53.46875 
Q 12.59375 47.65625 12.5 36.921875 
Q 15.671875 41.75 20.265625 44.09375 
Q 24.859375 46.4375 29.890625 46.4375 
Q 38.671875 46.4375 44.84375 39.96875 
Q 51.03125 33.5 51.03125 23.25 
Q 51.03125 16.5 48.125 10.71875 
Q 45.21875 4.9375 40.140625 1.859375 
Q 35.0625 -1.21875 28.609375 -1.21875 
Q 17.625 -1.21875 10.6875 6.859375 
Q 3.765625 14.9375 3.765625 33.5 
Q 3.765625 54.25 11.421875 63.671875 
Q 18.109375 71.875 29.4375 71.875 
Q 37.890625 71.875 43.28125 67.140625 
Q 48.6875 62.40625 49.75 54.046875 
z
M 13.875 23.1875 
Q 13.875 18.65625 15.796875 14.5 
Q 17.71875 10.359375 21.1875 8.171875 
Q 24.65625 6 28.46875 6 
Q 34.03125 6 38.03125 10.484375 
Q 42.046875 14.984375 42.046875 22.703125 
Q 42.046875 30.125 38.078125 34.390625 
Q 34.125 38.671875 28.125 38.671875 
Q 22.171875 38.671875 18.015625 34.390625 
Q 13.875 30.125 13.875 23.1875 
z
" id="ArialMT-54"/>
       </defs>
       <use xlink:href="#ArialMT-54"/>
      </g>
     </g>
    </g>
    <g id="ytick_4">
     <g id="line2d_9">
      <path clip-path="url(#p852f0b1735)" d="M 43.101433 91.398081 
L 355.75648 91.398081 
" style="fill:none;stroke:#ffffff;stroke-linecap:round;stroke-width:0.8;"/>
     </g>
     <g id="text_10">
      <!-- 8 -->
      <g style="fill:#262626;" transform="translate(27.950358 95.807293)scale(0.1232 -0.1232)">
       <defs>
        <path d="M 17.671875 38.8125 
Q 12.203125 40.828125 9.5625 44.53125 
Q 6.9375 48.25 6.9375 53.421875 
Q 6.9375 61.234375 12.546875 66.546875 
Q 18.171875 71.875 27.484375 71.875 
Q 36.859375 71.875 42.578125 66.421875 
Q 48.296875 60.984375 48.296875 53.171875 
Q 48.296875 48.1875 45.671875 44.5 
Q 43.0625 40.828125 37.75 38.8125 
Q 44.34375 36.671875 47.78125 31.875 
Q 51.21875 27.09375 51.21875 20.453125 
Q 51.21875 11.28125 44.71875 5.03125 
Q 38.234375 -1.21875 27.640625 -1.21875 
Q 17.046875 -1.21875 10.546875 5.046875 
Q 4.046875 11.328125 4.046875 20.703125 
Q 4.046875 27.6875 7.59375 32.390625 
Q 11.140625 37.109375 17.671875 38.8125 
z
M 15.921875 53.71875 
Q 15.921875 48.640625 19.1875 45.40625 
Q 22.46875 42.1875 27.6875 42.1875 
Q 32.765625 42.1875 36.015625 45.375 
Q 39.265625 48.578125 39.265625 53.21875 
Q 39.265625 58.0625 35.90625 61.359375 
Q 32.5625 64.65625 27.59375 64.65625 
Q 22.5625 64.65625 19.234375 61.421875 
Q 15.921875 58.203125 15.921875 53.71875 
z
M 13.09375 20.65625 
Q 13.09375 16.890625 14.875 13.375 
Q 16.65625 9.859375 20.171875 7.921875 
Q 23.6875 6 27.734375 6 
Q 34.03125 6 38.125 10.046875 
Q 42.234375 14.109375 42.234375 20.359375 
Q 42.234375 26.703125 38.015625 30.859375 
Q 33.796875 35.015625 27.4375 35.015625 
Q 21.234375 35.015625 17.15625 30.90625 
Q 13.09375 26.8125 13.09375 20.65625 
z
" id="ArialMT-56"/>
       </defs>
       <use xlink:href="#ArialMT-56"/>
      </g>
     </g>
    </g>
    <g id="ytick_5">
     <g id="line2d_10">
      <path clip-path="url(#p852f0b1735)" d="M 43.101433 28.636545 
L 355.75648 28.636545 
" style="fill:none;stroke:#ffffff;stroke-linecap:round;stroke-width:0.8;"/>
     </g>
     <g id="text_11">
      <!-- 10 -->
      <g style="fill:#262626;" transform="translate(21.099283 33.045758)scale(0.1232 -0.1232)">
       <use xlink:href="#ArialMT-49"/>
       <use x="55.615234" xlink:href="#ArialMT-48"/>
      </g>
     </g>
    </g>
    <g id="text_12">
     <!-- tip -->
     <g style="fill:#262626;" transform="translate(14.428083 176.94695)rotate(-90)scale(0.1344 -0.1344)">
      <defs>
       <path d="M 6.59375 -19.875 
L 6.59375 51.859375 
L 14.59375 51.859375 
L 14.59375 45.125 
Q 17.4375 49.078125 21 51.046875 
Q 24.5625 53.03125 29.640625 53.03125 
Q 36.28125 53.03125 41.359375 49.609375 
Q 46.4375 46.1875 49.015625 39.953125 
Q 51.609375 33.734375 51.609375 26.3125 
Q 51.609375 18.359375 48.75 11.984375 
Q 45.90625 5.609375 40.453125 2.21875 
Q 35.015625 -1.171875 29 -1.171875 
Q 24.609375 -1.171875 21.109375 0.6875 
Q 17.625 2.546875 15.375 5.375 
L 15.375 -19.875 
z
M 14.546875 25.640625 
Q 14.546875 15.625 18.59375 10.84375 
Q 22.65625 6.0625 28.421875 6.0625 
Q 34.28125 6.0625 38.453125 11.015625 
Q 42.625 15.96875 42.625 26.375 
Q 42.625 36.28125 38.546875 41.203125 
Q 34.46875 46.140625 28.8125 46.140625 
Q 23.1875 46.140625 18.859375 40.890625 
Q 14.546875 35.640625 14.546875 25.640625 
z
" id="ArialMT-112"/>
      </defs>
      <use xlink:href="#ArialMT-116"/>
      <use x="27.783203" xlink:href="#ArialMT-105"/>
      <use x="50" xlink:href="#ArialMT-112"/>
     </g>
    </g>
   </g>
   <g id="PathCollection_1">
    <defs>
     <path d="M 0 2.4 
C 0.636487 2.4 1.246992 2.147121 1.697056 1.697056 
C 2.147121 1.246992 2.4 0.636487 2.4 0 
C 2.4 -0.636487 2.147121 -1.246992 1.697056 -1.697056 
C 1.246992 -2.147121 0.636487 -2.4 0 -2.4 
C -0.636487 -2.4 -1.246992 -2.147121 -1.697056 -1.697056 
C -2.147121 -1.246992 -2.4 -0.636487 -2.4 0 
C -2.4 0.636487 -2.147121 1.246992 -1.697056 1.697056 
C -1.246992 2.147121 -0.636487 2.4 0 2.4 
z
" id="m77081554d5" style="stroke:#4c72b0;stroke-opacity:0.8;"/>
    </defs>
    <g clip-path="url(#p852f0b1735)">
     <use style="fill:#4c72b0;fill-opacity:0.8;stroke:#4c72b0;stroke-opacity:0.8;" x="271.927728" xlink:href="#m77081554d5" y="248.301919"/>
     <use style="fill:#4c72b0;fill-opacity:0.8;stroke:#4c72b0;stroke-opacity:0.8;" x="96.607753" xlink:href="#m77081554d5" y="287.214071"/>
     <use style="fill:#4c72b0;fill-opacity:0.8;stroke:#4c72b0;stroke-opacity:0.8;" x="155.8773" xlink:href="#m77081554d5" y="241.711958"/>
     <use style="fill:#4c72b0;fill-opacity:0.8;stroke:#4c72b0;stroke-opacity:0.8;" x="113.438995" xlink:href="#m77081554d5" y="279.682687"/>
     <use style="fill:#4c72b0;fill-opacity:0.8;stroke:#4c72b0;stroke-opacity:0.8;" x="95.166946" xlink:href="#m77081554d5" y="280.310302"/>
     <use style="fill:#4c72b0;fill-opacity:0.8;stroke:#4c72b0;stroke-opacity:0.8;" x="142.779058" xlink:href="#m77081554d5" y="224.452536"/>
     <use style="fill:#4c72b0;fill-opacity:0.8;stroke:#4c72b0;stroke-opacity:0.8;" x="43.101433" xlink:href="#m77081554d5" y="311.063455"/>
     <use style="fill:#4c72b0;fill-opacity:0.8;stroke:#4c72b0;stroke-opacity:0.8;" x="121.29794" xlink:href="#m77081554d5" y="276.858418"/>
     <use style="fill:#4c72b0;fill-opacity:0.8;stroke:#4c72b0;stroke-opacity:0.8;" x="198.905027" xlink:href="#m77081554d5" y="243.908612"/>
     <use style="fill:#4c72b0;fill-opacity:0.8;stroke:#4c72b0;stroke-opacity:0.8;" x="188.557415" xlink:href="#m77081554d5" y="185.540384"/>
     <use style="fill:#4c72b0;fill-opacity:0.8;stroke:#4c72b0;stroke-opacity:0.8;" x="140.355883" xlink:href="#m77081554d5" y="245.791458"/>
     <use style="fill:#4c72b0;fill-opacity:0.8;stroke:#4c72b0;stroke-opacity:0.8;" x="150.310547" xlink:href="#m77081554d5" y="248.301919"/>
     <use style="fill:#4c72b0;fill-opacity:0.8;stroke:#4c72b0;stroke-opacity:0.8;" x="237.020912" xlink:href="#m77081554d5" y="185.540384"/>
     <use style="fill:#4c72b0;fill-opacity:0.8;stroke:#4c72b0;stroke-opacity:0.8;" x="212.723672" xlink:href="#m77081554d5" y="248.301919"/>
     <use style="fill:#4c72b0;fill-opacity:0.8;stroke:#4c72b0;stroke-opacity:0.8;" x="60.653078" xlink:href="#m77081554d5" y="311.063455"/>
     <use style="fill:#4c72b0;fill-opacity:0.8;stroke:#4c72b0;stroke-opacity:0.8;" x="129.877289" xlink:href="#m77081554d5" y="207.506921"/>
     <use style="fill:#4c72b0;fill-opacity:0.8;stroke:#4c72b0;stroke-opacity:0.8;" x="286.07383" xlink:href="#m77081554d5" y="194.013191"/>
     <use style="fill:#4c72b0;fill-opacity:0.8;stroke:#4c72b0;stroke-opacity:0.8;" x="201.655658" xlink:href="#m77081554d5" y="216.921152"/>
     <use style="fill:#4c72b0;fill-opacity:0.8;stroke:#4c72b0;stroke-opacity:0.8;" x="101.781559" xlink:href="#m77081554d5" y="295.373071"/>
     <use style="fill:#4c72b0;fill-opacity:0.8;stroke:#4c72b0;stroke-opacity:0.8;" x="160.592667" xlink:href="#m77081554d5" y="248.301919"/>
     <use style="fill:#4c72b0;fill-opacity:0.8;stroke:#4c72b0;stroke-opacity:0.8;" x="97.328156" xlink:href="#m77081554d5" y="263.992303"/>
     <use style="fill:#4c72b0;fill-opacity:0.8;stroke:#4c72b0;stroke-opacity:0.8;" x="123.721115" xlink:href="#m77081554d5" y="248.301919"/>
     <use style="fill:#4c72b0;fill-opacity:0.8;stroke:#4c72b0;stroke-opacity:0.8;" x="313.121701" xlink:href="#m77081554d5" y="263.992303"/>
     <use style="fill:#4c72b0;fill-opacity:0.8;stroke:#4c72b0;stroke-opacity:0.8;" x="169.826928" xlink:href="#m77081554d5" y="233.239151"/>
     <use style="fill:#4c72b0;fill-opacity:0.8;stroke:#4c72b0;stroke-opacity:0.8;" x="123.590133" xlink:href="#m77081554d5" y="290.979763"/>
     <use style="fill:#4c72b0;fill-opacity:0.8;stroke:#4c72b0;stroke-opacity:0.8;" x="157.187124" xlink:href="#m77081554d5" y="215.038305"/>
     <use style="fill:#4c72b0;fill-opacity:0.8;stroke:#4c72b0;stroke-opacity:0.8;" x="188.098977" xlink:href="#m77081554d5" y="207.820729"/>
     <use style="fill:#4c72b0;fill-opacity:0.8;stroke:#4c72b0;stroke-opacity:0.8;" x="116.713555" xlink:href="#m77081554d5" y="216.921152"/>
     <use style="fill:#4c72b0;fill-opacity:0.8;stroke:#4c72b0;stroke-opacity:0.8;" x="127.78157" xlink:href="#m77081554d5" y="279.682687"/>
     <use style="fill:#4c72b0;fill-opacity:0.8;stroke:#4c72b0;stroke-opacity:0.8;" x="137.670743" xlink:href="#m77081554d5" y="248.301919"/>
     <use style="fill:#4c72b0;fill-opacity:0.8;stroke:#4c72b0;stroke-opacity:0.8;" x="92.350824" xlink:href="#m77081554d5" y="291.921186"/>
     <use style="fill:#4c72b0;fill-opacity:0.8;stroke:#4c72b0;stroke-opacity:0.8;" x="92.612789" xlink:href="#m77081554d5" y="279.682687"/>
     <use style="fill:#4c72b0;fill-opacity:0.8;stroke:#4c72b0;stroke-opacity:0.8;" x="355.75648" xlink:href="#m77081554d5" y="28.636545"/>
     <use style="fill:#4c72b0;fill-opacity:0.8;stroke:#4c72b0;stroke-opacity:0.8;" x="126.537237" xlink:href="#m77081554d5" y="243.280996"/>
     <use style="fill:#4c72b0;fill-opacity:0.8;stroke:#4c72b0;stroke-opacity:0.8;" x="70.476759" xlink:href="#m77081554d5" y="180.833269"/>
     <use style="fill:#4c72b0;fill-opacity:0.8;stroke:#4c72b0;stroke-opacity:0.8;" x="231.585142" xlink:href="#m77081554d5" y="242.653381"/>
     <use style="fill:#4c72b0;fill-opacity:0.8;stroke:#4c72b0;stroke-opacity:0.8;" x="133.15185" xlink:href="#m77081554d5" y="216.921152"/>
     <use style="fill:#4c72b0;fill-opacity:0.8;stroke:#4c72b0;stroke-opacity:0.8;" x="238.461719" xlink:href="#m77081554d5" y="244.850035"/>
     <use style="fill:#4c72b0;fill-opacity:0.8;stroke:#4c72b0;stroke-opacity:0.8;" x="140.159409" xlink:href="#m77081554d5" y="279.682687"/>
     <use style="fill:#4c72b0;fill-opacity:0.8;stroke:#4c72b0;stroke-opacity:0.8;" x="117.826906" xlink:href="#m77081554d5" y="279.682687"/>
     <use style="fill:#4c72b0;fill-opacity:0.8;stroke:#4c72b0;stroke-opacity:0.8;" x="85.867194" xlink:href="#m77081554d5" y="216.921152"/>
     <use style="fill:#4c72b0;fill-opacity:0.8;stroke:#4c72b0;stroke-opacity:0.8;" x="249.791699" xlink:href="#m77081554d5" y="231.042497"/>
     <use style="fill:#4c72b0;fill-opacity:0.8;stroke:#4c72b0;stroke-opacity:0.8;" x="249.922681" xlink:href="#m77081554d5" y="226.962997"/>
     <use style="fill:#4c72b0;fill-opacity:0.8;stroke:#4c72b0;stroke-opacity:0.8;" x="175.786629" xlink:href="#m77081554d5" y="165.142885"/>
     <use style="fill:#4c72b0;fill-opacity:0.8;stroke:#4c72b0;stroke-opacity:0.8;" x="319.998278" xlink:href="#m77081554d5" y="232.611535"/>
     <use style="fill:#4c72b0;fill-opacity:0.8;stroke:#4c72b0;stroke-opacity:0.8;" x="174.738769" xlink:href="#m77081554d5" y="138.469232"/>
     <use style="fill:#4c72b0;fill-opacity:0.8;stroke:#4c72b0;stroke-opacity:0.8;" x="288.562496" xlink:href="#m77081554d5" y="248.301919"/>
     <use style="fill:#4c72b0;fill-opacity:0.8;stroke:#4c72b0;stroke-opacity:0.8;" x="159.872264" xlink:href="#m77081554d5" y="232.611535"/>
     <use style="fill:#4c72b0;fill-opacity:0.8;stroke:#4c72b0;stroke-opacity:0.8;" x="222.481863" xlink:href="#m77081554d5" y="279.682687"/>
     <use style="fill:#4c72b0;fill-opacity:0.8;stroke:#4c72b0;stroke-opacity:0.8;" x="141.862181" xlink:href="#m77081554d5" y="232.611535"/>
     <use style="fill:#4c72b0;fill-opacity:0.8;stroke:#4c72b0;stroke-opacity:0.8;" x="174.280331" xlink:href="#m77081554d5" y="216.921152"/>
     <use style="fill:#4c72b0;fill-opacity:0.8;stroke:#4c72b0;stroke-opacity:0.8;" x="125.751343" xlink:href="#m77081554d5" y="295.373071"/>
     <use style="fill:#4c72b0;fill-opacity:0.8;stroke:#4c72b0;stroke-opacity:0.8;" x="152.733722" xlink:href="#m77081554d5" y="210.958806"/>
     <use style="fill:#4c72b0;fill-opacity:0.8;stroke:#4c72b0;stroke-opacity:0.8;" x="209.252638" xlink:href="#m77081554d5" y="262.109457"/>
     <use style="fill:#4c72b0;fill-opacity:0.8;stroke:#4c72b0;stroke-opacity:0.8;" x="124.376027" xlink:href="#m77081554d5" y="279.055072"/>
     <use style="fill:#4c72b0;fill-opacity:0.8;stroke:#4c72b0;stroke-opacity:0.8;" x="131.58006" xlink:href="#m77081554d5" y="216.921152"/>
     <use style="fill:#4c72b0;fill-opacity:0.8;stroke:#4c72b0;stroke-opacity:0.8;" x="90.713544" xlink:href="#m77081554d5" y="279.682687"/>
     <use style="fill:#4c72b0;fill-opacity:0.8;stroke:#4c72b0;stroke-opacity:0.8;" x="305.328247" xlink:href="#m77081554d5" y="185.540384"/>
     <use style="fill:#4c72b0;fill-opacity:0.8;stroke:#4c72b0;stroke-opacity:0.8;" x="108.134206" xlink:href="#m77081554d5" y="279.682687"/>
     <use style="fill:#4c72b0;fill-opacity:0.8;stroke:#4c72b0;stroke-opacity:0.8;" x="111.474258" xlink:href="#m77081554d5" y="279.682687"/>
     <use style="fill:#4c72b0;fill-opacity:0.8;stroke:#4c72b0;stroke-opacity:0.8;" x="145.529689" xlink:href="#m77081554d5" y="216.921152"/>
     <use style="fill:#4c72b0;fill-opacity:0.8;stroke:#4c72b0;stroke-opacity:0.8;" x="106.431435" xlink:href="#m77081554d5" y="279.368879"/>
     <use style="fill:#4c72b0;fill-opacity:0.8;stroke:#4c72b0;stroke-opacity:0.8;" x="108.134206" xlink:href="#m77081554d5" y="279.682687"/>
     <use style="fill:#4c72b0;fill-opacity:0.8;stroke:#4c72b0;stroke-opacity:0.8;" x="130.401219" xlink:href="#m77081554d5" y="263.992303"/>
     <use style="fill:#4c72b0;fill-opacity:0.8;stroke:#4c72b0;stroke-opacity:0.8;" x="157.449089" xlink:href="#m77081554d5" y="216.921152"/>
     <use style="fill:#4c72b0;fill-opacity:0.8;stroke:#4c72b0;stroke-opacity:0.8;" x="130.859657" xlink:href="#m77081554d5" y="241.084343"/>
     <use style="fill:#4c72b0;fill-opacity:0.8;stroke:#4c72b0;stroke-opacity:0.8;" x="197.136764" xlink:href="#m77081554d5" y="235.435804"/>
     <use style="fill:#4c72b0;fill-opacity:0.8;stroke:#4c72b0;stroke-opacity:0.8;" x="276.643096" xlink:href="#m77081554d5" y="248.301919"/>
     <use style="fill:#4c72b0;fill-opacity:0.8;stroke:#4c72b0;stroke-opacity:0.8;" x="181.942803" xlink:href="#m77081554d5" y="278.741264"/>
     <use style="fill:#4c72b0;fill-opacity:0.8;stroke:#4c72b0;stroke-opacity:0.8;" x="106.562417" xlink:href="#m77081554d5" y="272.46511"/>
     <use style="fill:#4c72b0;fill-opacity:0.8;stroke:#4c72b0;stroke-opacity:0.8;" x="219.862215" xlink:href="#m77081554d5" y="279.682687"/>
     <use style="fill:#4c72b0;fill-opacity:0.8;stroke:#4c72b0;stroke-opacity:0.8;" x="192.552379" xlink:href="#m77081554d5" y="180.519461"/>
     <use style="fill:#4c72b0;fill-opacity:0.8;stroke:#4c72b0;stroke-opacity:0.8;" x="109.902469" xlink:href="#m77081554d5" y="263.992303"/>
     <use style="fill:#4c72b0;fill-opacity:0.8;stroke:#4c72b0;stroke-opacity:0.8;" x="207.484375" xlink:href="#m77081554d5" y="138.469232"/>
     <use style="fill:#4c72b0;fill-opacity:0.8;stroke:#4c72b0;stroke-opacity:0.8;" x="107.479294" xlink:href="#m77081554d5" y="307.925378"/>
     <use style="fill:#4c72b0;fill-opacity:0.8;stroke:#4c72b0;stroke-opacity:0.8;" x="207.353393" xlink:href="#m77081554d5" y="248.301919"/>
     <use style="fill:#4c72b0;fill-opacity:0.8;stroke:#4c72b0;stroke-opacity:0.8;" x="98.899945" xlink:href="#m77081554d5" y="295.373071"/>
     <use style="fill:#4c72b0;fill-opacity:0.8;stroke:#4c72b0;stroke-opacity:0.8;" x="73.685829" xlink:href="#m77081554d5" y="297.255917"/>
     <use style="fill:#4c72b0;fill-opacity:0.8;stroke:#4c72b0;stroke-opacity:0.8;" x="220.386144" xlink:href="#m77081554d5" y="245.47765"/>
     <use style="fill:#4c72b0;fill-opacity:0.8;stroke:#4c72b0;stroke-opacity:0.8;" x="102.632945" xlink:href="#m77081554d5" y="273.406533"/>
     <use style="fill:#4c72b0;fill-opacity:0.8;stroke:#4c72b0;stroke-opacity:0.8;" x="110.884837" xlink:href="#m77081554d5" y="233.239151"/>
     <use style="fill:#4c72b0;fill-opacity:0.8;stroke:#4c72b0;stroke-opacity:0.8;" x="79.187091" xlink:href="#m77081554d5" y="282.193148"/>
     <use style="fill:#4c72b0;fill-opacity:0.8;stroke:#4c72b0;stroke-opacity:0.8;" x="110.884837" xlink:href="#m77081554d5" y="292.862609"/>
     <use style="fill:#4c72b0;fill-opacity:0.8;stroke:#4c72b0;stroke-opacity:0.8;" x="129.549833" xlink:href="#m77081554d5" y="263.992303"/>
     <use style="fill:#4c72b0;fill-opacity:0.8;stroke:#4c72b0;stroke-opacity:0.8;" x="89.076264" xlink:href="#m77081554d5" y="279.682687"/>
     <use style="fill:#4c72b0;fill-opacity:0.8;stroke:#4c72b0;stroke-opacity:0.8;" x="167.862192" xlink:href="#m77081554d5" y="252.067611"/>
     <use style="fill:#4c72b0;fill-opacity:0.8;stroke:#4c72b0;stroke-opacity:0.8;" x="180.240031" xlink:href="#m77081554d5" y="279.682687"/>
     <use style="fill:#4c72b0;fill-opacity:0.8;stroke:#4c72b0;stroke-opacity:0.8;" x="125.751343" xlink:href="#m77081554d5" y="248.301919"/>
     <use style="fill:#4c72b0;fill-opacity:0.8;stroke:#4c72b0;stroke-opacity:0.8;" x="124.703483" xlink:href="#m77081554d5" y="248.301919"/>
     <use style="fill:#4c72b0;fill-opacity:0.8;stroke:#4c72b0;stroke-opacity:0.8;" x="105.514558" xlink:href="#m77081554d5" y="311.063455"/>
     <use style="fill:#4c72b0;fill-opacity:0.8;stroke:#4c72b0;stroke-opacity:0.8;" x="238.00328" xlink:href="#m77081554d5" y="305.728724"/>
     <use style="fill:#4c72b0;fill-opacity:0.8;stroke:#4c72b0;stroke-opacity:0.8;" x="201.000745" xlink:href="#m77081554d5" y="279.682687"/>
     <use style="fill:#4c72b0;fill-opacity:0.8;stroke:#4c72b0;stroke-opacity:0.8;" x="171.464209" xlink:href="#m77081554d5" y="279.682687"/>
    </g>
   </g>
   <g id="PolyCollection_1">
    <defs>
     <path d="M 43.101433 -91.441806 
L 43.101433 -52.879289 
L 46.259564 -54.437637 
L 49.417696 -56.105286 
L 52.575828 -57.76791 
L 55.73396 -59.499819 
L 58.892092 -61.132499 
L 62.050223 -62.684567 
L 65.208355 -64.30157 
L 68.366487 -65.97092 
L 71.524619 -67.767926 
L 74.682751 -69.489658 
L 77.840882 -71.167232 
L 80.999014 -72.830357 
L 84.157146 -74.533392 
L 87.315278 -76.198858 
L 90.47341 -77.875603 
L 93.631541 -79.518931 
L 96.789673 -81.156435 
L 99.947805 -82.540739 
L 103.105937 -83.837401 
L 106.264068 -85.133504 
L 109.4222 -86.677736 
L 112.580332 -88.398305 
L 115.738464 -89.700935 
L 118.896596 -90.855896 
L 122.054727 -92.201521 
L 125.212859 -93.532795 
L 128.370991 -94.657345 
L 131.529123 -95.789517 
L 134.687255 -96.944499 
L 137.845386 -98.079774 
L 141.003518 -99.168169 
L 144.16165 -100.377718 
L 147.319782 -101.235535 
L 150.477914 -102.209253 
L 153.636045 -103.195543 
L 156.794177 -104.185187 
L 159.952309 -104.947425 
L 163.110441 -105.781514 
L 166.268573 -106.523108 
L 169.426704 -107.200279 
L 172.584836 -107.846677 
L 175.742968 -108.3775 
L 178.9011 -108.976161 
L 182.059231 -109.566996 
L 185.217363 -110.196728 
L 188.375495 -110.994414 
L 191.533627 -111.667165 
L 194.691759 -112.332759 
L 197.84989 -112.925444 
L 201.008022 -113.529703 
L 204.166154 -114.304421 
L 207.324286 -114.925769 
L 210.482418 -115.391576 
L 213.640549 -116.006794 
L 216.798681 -116.50756 
L 219.956813 -117.08988 
L 223.114945 -117.729272 
L 226.273077 -118.319406 
L 229.431208 -118.823887 
L 232.58934 -119.437785 
L 235.747472 -119.995192 
L 238.905604 -120.463692 
L 242.063736 -120.932191 
L 245.221867 -121.40069 
L 248.379999 -122.013651 
L 251.538131 -122.532823 
L 254.696263 -123.068003 
L 257.854394 -123.709925 
L 261.012526 -124.35209 
L 264.170658 -124.916901 
L 267.32879 -125.552764 
L 270.486922 -126.112873 
L 273.645053 -126.444957 
L 276.803185 -126.834973 
L 279.961317 -127.486154 
L 283.119449 -128.141547 
L 286.277581 -128.798871 
L 289.435712 -129.456194 
L 292.593844 -129.941289 
L 295.751976 -130.232628 
L 298.910108 -130.523966 
L 302.06824 -131.002638 
L 305.226371 -131.567202 
L 308.384503 -132.135386 
L 311.542635 -132.703569 
L 314.700767 -133.271753 
L 317.858899 -133.839937 
L 321.01703 -134.411011 
L 324.175162 -134.982533 
L 327.333294 -135.554055 
L 330.491426 -136.125577 
L 333.649557 -136.6971 
L 336.807689 -137.268622 
L 339.965821 -137.846552 
L 343.123953 -138.499962 
L 346.282085 -139.153372 
L 349.440216 -139.806782 
L 352.598348 -140.460192 
L 355.75648 -141.113817 
L 355.75648 -219.821342 
L 355.75648 -219.821342 
L 352.598348 -218.187519 
L 349.440216 -216.553697 
L 346.282085 -214.919874 
L 343.123953 -213.286052 
L 339.965821 -211.652229 
L 336.807689 -210.018407 
L 333.649557 -208.384585 
L 330.491426 -206.750762 
L 327.333294 -205.149603 
L 324.175162 -203.550746 
L 321.01703 -201.951889 
L 317.858899 -200.353031 
L 314.700767 -198.753292 
L 311.542635 -197.100714 
L 308.384503 -195.527335 
L 305.226371 -193.963327 
L 302.06824 -192.368163 
L 298.910108 -190.772999 
L 295.751976 -189.176806 
L 292.593844 -187.576752 
L 289.435712 -185.976698 
L 286.277581 -184.355285 
L 283.119449 -182.656034 
L 279.961317 -180.956783 
L 276.803185 -179.257532 
L 273.645053 -177.607222 
L 270.486922 -176.009553 
L 267.32879 -174.411884 
L 264.170658 -172.814215 
L 261.012526 -171.216545 
L 257.854394 -169.618876 
L 254.696263 -168.021207 
L 251.538131 -166.421393 
L 248.379999 -164.820455 
L 245.221867 -163.218976 
L 242.063736 -161.45189 
L 238.905604 -159.65569 
L 235.747472 -157.848892 
L 232.58934 -156.154394 
L 229.431208 -154.575604 
L 226.273077 -152.896567 
L 223.114945 -151.21648 
L 219.956813 -149.584512 
L 216.798681 -147.952544 
L 213.640549 -146.384323 
L 210.482418 -144.950341 
L 207.324286 -143.515709 
L 204.166154 -141.742735 
L 201.008022 -140.139866 
L 197.84989 -138.447302 
L 194.691759 -136.758877 
L 191.533627 -135.120322 
L 188.375495 -133.882332 
L 185.217363 -132.453629 
L 182.059231 -130.74941 
L 178.9011 -129.204367 
L 175.742968 -127.838876 
L 172.584836 -126.356003 
L 169.426704 -124.911981 
L 166.268573 -123.539003 
L 163.110441 -121.98379 
L 159.952309 -120.538151 
L 156.794177 -119.187668 
L 153.636045 -117.947967 
L 150.477914 -116.946733 
L 147.319782 -115.548967 
L 144.16165 -114.294473 
L 141.003518 -112.976086 
L 137.845386 -112.127145 
L 134.687255 -111.247817 
L 131.529123 -110.30073 
L 128.370991 -109.299214 
L 125.212859 -108.488643 
L 122.054727 -107.794046 
L 118.896596 -107.028207 
L 115.738464 -106.445632 
L 112.580332 -105.762882 
L 109.4222 -104.972437 
L 106.264068 -104.403078 
L 103.105937 -103.721766 
L 99.947805 -102.975656 
L 96.789673 -102.124017 
L 93.631541 -101.357998 
L 90.47341 -100.587432 
L 87.315278 -99.79478 
L 84.157146 -99.168766 
L 80.999014 -98.484982 
L 77.840882 -97.925309 
L 74.682751 -97.304939 
L 71.524619 -96.633944 
L 68.366487 -95.910245 
L 65.208355 -95.35049 
L 62.050223 -94.818927 
L 58.892092 -94.196945 
L 55.73396 -93.576924 
L 52.575828 -93.003171 
L 49.417696 -92.411001 
L 46.259564 -91.941673 
L 43.101433 -91.441806 
z
" id="m6c43990928" style="stroke:#ffffff;stroke-opacity:0.15;stroke-width:0.8;"/>
    </defs>
    <g clip-path="url(#p852f0b1735)">
     <use style="fill:#4c72b0;fill-opacity:0.15;stroke:#ffffff;stroke-opacity:0.15;stroke-width:0.8;" x="0" xlink:href="#m6c43990928" y="360"/>
    </g>
   </g>
   <g id="PathCollection_2">
    <defs>
     <path d="M -2.4 2.4 
L 2.4 -2.4 
M -2.4 -2.4 
L 2.4 2.4 
" id="m92b72cd65f" style="stroke:#dd8452;stroke-opacity:0.8;stroke-width:1.2;"/>
    </defs>
    <g clip-path="url(#p852f0b1735)">
     <use style="fill:#dd8452;fill-opacity:0.8;stroke:#dd8452;stroke-opacity:0.8;stroke-width:1.2;" x="134.2652" xlink:href="#m92b72cd65f" y="310.749647"/>
     <use style="fill:#dd8452;fill-opacity:0.8;stroke:#dd8452;stroke-opacity:0.8;stroke-width:1.2;" x="90.713544" xlink:href="#m92b72cd65f" y="290.352148"/>
     <use style="fill:#dd8452;fill-opacity:0.8;stroke:#dd8452;stroke-opacity:0.8;stroke-width:1.2;" x="160.592667" xlink:href="#m92b72cd65f" y="232.611535"/>
     <use style="fill:#dd8452;fill-opacity:0.8;stroke:#dd8452;stroke-opacity:0.8;stroke-width:1.2;" x="178.078821" xlink:href="#m92b72cd65f" y="238.573881"/>
     <use style="fill:#dd8452;fill-opacity:0.8;stroke:#dd8452;stroke-opacity:0.8;stroke-width:1.2;" x="184.038521" xlink:href="#m92b72cd65f" y="229.159651"/>
     <use style="fill:#dd8452;fill-opacity:0.8;stroke:#dd8452;stroke-opacity:0.8;stroke-width:1.2;" x="188.622906" xlink:href="#m92b72cd65f" y="194.640806"/>
     <use style="fill:#dd8452;fill-opacity:0.8;stroke:#dd8452;stroke-opacity:0.8;stroke-width:1.2;" x="80.431424" xlink:href="#m92b72cd65f" y="279.682687"/>
     <use style="fill:#dd8452;fill-opacity:0.8;stroke:#dd8452;stroke-opacity:0.8;stroke-width:1.2;" x="199.036009" xlink:href="#m92b72cd65f" y="244.536227"/>
     <use style="fill:#dd8452;fill-opacity:0.8;stroke:#dd8452;stroke-opacity:0.8;stroke-width:1.2;" x="121.494414" xlink:href="#m92b72cd65f" y="280.937918"/>
     <use style="fill:#dd8452;fill-opacity:0.8;stroke:#dd8452;stroke-opacity:0.8;stroke-width:1.2;" x="119.791642" xlink:href="#m92b72cd65f" y="241.084343"/>
     <use style="fill:#dd8452;fill-opacity:0.8;stroke:#dd8452;stroke-opacity:0.8;stroke-width:1.2;" x="90.255105" xlink:href="#m92b72cd65f" y="288.783109"/>
     <use style="fill:#dd8452;fill-opacity:0.8;stroke:#dd8452;stroke-opacity:0.8;stroke-width:1.2;" x="253.917645" xlink:href="#m92b72cd65f" y="185.540384"/>
     <use style="fill:#dd8452;fill-opacity:0.8;stroke:#dd8452;stroke-opacity:0.8;stroke-width:1.2;" x="123.98308" xlink:href="#m92b72cd65f" y="293.176417"/>
     <use style="fill:#dd8452;fill-opacity:0.8;stroke:#dd8452;stroke-opacity:0.8;stroke-width:1.2;" x="143.695935" xlink:href="#m92b72cd65f" y="248.301919"/>
     <use style="fill:#dd8452;fill-opacity:0.8;stroke:#dd8452;stroke-opacity:0.8;stroke-width:1.2;" x="120.119098" xlink:href="#m92b72cd65f" y="247.674304"/>
     <use style="fill:#dd8452;fill-opacity:0.8;stroke:#dd8452;stroke-opacity:0.8;stroke-width:1.2;" x="164.325667" xlink:href="#m92b72cd65f" y="219.431613"/>
     <use style="fill:#dd8452;fill-opacity:0.8;stroke:#dd8452;stroke-opacity:0.8;stroke-width:1.2;" x="90.648053" xlink:href="#m92b72cd65f" y="290.03834"/>
     <use style="fill:#dd8452;fill-opacity:0.8;stroke:#dd8452;stroke-opacity:0.8;stroke-width:1.2;" x="129.680815" xlink:href="#m92b72cd65f" y="226.021574"/>
     <use style="fill:#dd8452;fill-opacity:0.8;stroke:#dd8452;stroke-opacity:0.8;stroke-width:1.2;" x="134.134218" xlink:href="#m92b72cd65f" y="232.611535"/>
     <use style="fill:#dd8452;fill-opacity:0.8;stroke:#dd8452;stroke-opacity:0.8;stroke-width:1.2;" x="158.234984" xlink:href="#m92b72cd65f" y="237.318651"/>
     <use style="fill:#dd8452;fill-opacity:0.8;stroke:#dd8452;stroke-opacity:0.8;stroke-width:1.2;" x="140.355883" xlink:href="#m92b72cd65f" y="214.41069"/>
     <use style="fill:#dd8452;fill-opacity:0.8;stroke:#dd8452;stroke-opacity:0.8;stroke-width:1.2;" x="155.8773" xlink:href="#m92b72cd65f" y="256.147111"/>
     <use style="fill:#dd8452;fill-opacity:0.8;stroke:#dd8452;stroke-opacity:0.8;stroke-width:1.2;" x="126.275272" xlink:href="#m92b72cd65f" y="272.46511"/>
     <use style="fill:#dd8452;fill-opacity:0.8;stroke:#dd8452;stroke-opacity:0.8;stroke-width:1.2;" x="281.161989" xlink:href="#m92b72cd65f" y="104.578003"/>
     <use style="fill:#dd8452;fill-opacity:0.8;stroke:#dd8452;stroke-opacity:0.8;stroke-width:1.2;" x="152.799213" xlink:href="#m92b72cd65f" y="242.653381"/>
     <use style="fill:#dd8452;fill-opacity:0.8;stroke:#dd8452;stroke-opacity:0.8;stroke-width:1.2;" x="139.63548" xlink:href="#m92b72cd65f" y="269.013226"/>
     <use style="fill:#dd8452;fill-opacity:0.8;stroke:#dd8452;stroke-opacity:0.8;stroke-width:1.2;" x="110.557381" xlink:href="#m92b72cd65f" y="279.682687"/>
     <use style="fill:#dd8452;fill-opacity:0.8;stroke:#dd8452;stroke-opacity:0.8;stroke-width:1.2;" x="106.103979" xlink:href="#m92b72cd65f" y="279.682687"/>
     <use style="fill:#dd8452;fill-opacity:0.8;stroke:#dd8452;stroke-opacity:0.8;stroke-width:1.2;" x="165.111561" xlink:href="#m92b72cd65f" y="207.506921"/>
     <use style="fill:#dd8452;fill-opacity:0.8;stroke:#dd8452;stroke-opacity:0.8;stroke-width:1.2;" x="151.685863" xlink:href="#m92b72cd65f" y="248.301919"/>
     <use style="fill:#dd8452;fill-opacity:0.8;stroke:#dd8452;stroke-opacity:0.8;stroke-width:1.2;" x="85.539738" xlink:href="#m92b72cd65f" y="296.942109"/>
     <use style="fill:#dd8452;fill-opacity:0.8;stroke:#dd8452;stroke-opacity:0.8;stroke-width:1.2;" x="143.172005" xlink:href="#m92b72cd65f" y="263.992303"/>
     <use style="fill:#dd8452;fill-opacity:0.8;stroke:#dd8452;stroke-opacity:0.8;stroke-width:1.2;" x="121.625396" xlink:href="#m92b72cd65f" y="248.301919"/>
     <use style="fill:#dd8452;fill-opacity:0.8;stroke:#dd8452;stroke-opacity:0.8;stroke-width:1.2;" x="158.496949" xlink:href="#m92b72cd65f" y="265.561341"/>
     <use style="fill:#dd8452;fill-opacity:0.8;stroke:#dd8452;stroke-opacity:0.8;stroke-width:1.2;" x="139.439006" xlink:href="#m92b72cd65f" y="239.829112"/>
     <use style="fill:#dd8452;fill-opacity:0.8;stroke:#dd8452;stroke-opacity:0.8;stroke-width:1.2;" x="180.567487" xlink:href="#m92b72cd65f" y="229.473459"/>
     <use style="fill:#dd8452;fill-opacity:0.8;stroke:#dd8452;stroke-opacity:0.8;stroke-width:1.2;" x="129.811798" xlink:href="#m92b72cd65f" y="279.682687"/>
     <use style="fill:#dd8452;fill-opacity:0.8;stroke:#dd8452;stroke-opacity:0.8;stroke-width:1.2;" x="133.872253" xlink:href="#m92b72cd65f" y="246.105265"/>
     <use style="fill:#dd8452;fill-opacity:0.8;stroke:#dd8452;stroke-opacity:0.8;stroke-width:1.2;" x="145.398706" xlink:href="#m92b72cd65f" y="269.954649"/>
     <use style="fill:#dd8452;fill-opacity:0.8;stroke:#dd8452;stroke-opacity:0.8;stroke-width:1.2;" x="227.786651" xlink:href="#m92b72cd65f" y="185.540384"/>
     <use style="fill:#dd8452;fill-opacity:0.8;stroke:#dd8452;stroke-opacity:0.8;stroke-width:1.2;" x="128.043535" xlink:href="#m92b72cd65f" y="272.151303"/>
     <use style="fill:#dd8452;fill-opacity:0.8;stroke:#dd8452;stroke-opacity:0.8;stroke-width:1.2;" x="137.343287" xlink:href="#m92b72cd65f" y="262.737072"/>
     <use style="fill:#dd8452;fill-opacity:0.8;stroke:#dd8452;stroke-opacity:0.8;stroke-width:1.2;" x="114.29038" xlink:href="#m92b72cd65f" y="246.419073"/>
     <use style="fill:#dd8452;fill-opacity:0.8;stroke:#dd8452;stroke-opacity:0.8;stroke-width:1.2;" x="86.391124" xlink:href="#m92b72cd65f" y="301.021609"/>
     <use style="fill:#dd8452;fill-opacity:0.8;stroke:#dd8452;stroke-opacity:0.8;stroke-width:1.2;" x="222.088916" xlink:href="#m92b72cd65f" y="166.711923"/>
     <use style="fill:#dd8452;fill-opacity:0.8;stroke:#dd8452;stroke-opacity:0.8;stroke-width:1.2;" x="142.779058" xlink:href="#m92b72cd65f" y="248.301919"/>
     <use style="fill:#dd8452;fill-opacity:0.8;stroke:#dd8452;stroke-opacity:0.8;stroke-width:1.2;" x="168.582595" xlink:href="#m92b72cd65f" y="185.540384"/>
     <use style="fill:#dd8452;fill-opacity:0.8;stroke:#dd8452;stroke-opacity:0.8;stroke-width:1.2;" x="235.187158" xlink:href="#m92b72cd65f" y="154.159616"/>
     <use style="fill:#dd8452;fill-opacity:0.8;stroke:#dd8452;stroke-opacity:0.8;stroke-width:1.2;" x="209.973041" xlink:href="#m92b72cd65f" y="278.113648"/>
     <use style="fill:#dd8452;fill-opacity:0.8;stroke:#dd8452;stroke-opacity:0.8;stroke-width:1.2;" x="141.141777" xlink:href="#m92b72cd65f" y="248.301919"/>
     <use style="fill:#dd8452;fill-opacity:0.8;stroke:#dd8452;stroke-opacity:0.8;stroke-width:1.2;" x="105.121611" xlink:href="#m92b72cd65f" y="263.992303"/>
     <use style="fill:#dd8452;fill-opacity:0.8;stroke:#dd8452;stroke-opacity:0.8;stroke-width:1.2;" x="90.386088" xlink:href="#m92b72cd65f" y="260.854226"/>
     <use style="fill:#dd8452;fill-opacity:0.8;stroke:#dd8452;stroke-opacity:0.8;stroke-width:1.2;" x="250.97054" xlink:href="#m92b72cd65f" y="179.26423"/>
     <use style="fill:#dd8452;fill-opacity:0.8;stroke:#dd8452;stroke-opacity:0.8;stroke-width:1.2;" x="88.093895" xlink:href="#m92b72cd65f" y="293.490225"/>
     <use style="fill:#dd8452;fill-opacity:0.8;stroke:#dd8452;stroke-opacity:0.8;stroke-width:1.2;" x="190.391169" xlink:href="#m92b72cd65f" y="206.251691"/>
     <use style="fill:#dd8452;fill-opacity:0.8;stroke:#dd8452;stroke-opacity:0.8;stroke-width:1.2;" x="150.638003" xlink:href="#m92b72cd65f" y="232.297728"/>
     <use style="fill:#dd8452;fill-opacity:0.8;stroke:#dd8452;stroke-opacity:0.8;stroke-width:1.2;" x="195.957922" xlink:href="#m92b72cd65f" y="295.373071"/>
     <use style="fill:#dd8452;fill-opacity:0.8;stroke:#dd8452;stroke-opacity:0.8;stroke-width:1.2;" x="339.121712" xlink:href="#m92b72cd65f" y="131.251656"/>
     <use style="fill:#dd8452;fill-opacity:0.8;stroke:#dd8452;stroke-opacity:0.8;stroke-width:1.2;" x="138.194673" xlink:href="#m92b72cd65f" y="259.598996"/>
     <use style="fill:#dd8452;fill-opacity:0.8;stroke:#dd8452;stroke-opacity:0.8;stroke-width:1.2;" x="154.501985" xlink:href="#m92b72cd65f" y="243.594804"/>
     <use style="fill:#dd8452;fill-opacity:0.8;stroke:#dd8452;stroke-opacity:0.8;stroke-width:1.2;" x="130.728675" xlink:href="#m92b72cd65f" y="264.933726"/>
     <use style="fill:#dd8452;fill-opacity:0.8;stroke:#dd8452;stroke-opacity:0.8;stroke-width:1.2;" x="155.484353" xlink:href="#m92b72cd65f" y="279.368879"/>
     <use style="fill:#dd8452;fill-opacity:0.8;stroke:#dd8452;stroke-opacity:0.8;stroke-width:1.2;" x="101.716068" xlink:href="#m92b72cd65f" y="280.62411"/>
     <use style="fill:#dd8452;fill-opacity:0.8;stroke:#dd8452;stroke-opacity:0.8;stroke-width:1.2;" x="134.78913" xlink:href="#m92b72cd65f" y="248.301919"/>
     <use style="fill:#dd8452;fill-opacity:0.8;stroke:#dd8452;stroke-opacity:0.8;stroke-width:1.2;" x="119.464186" xlink:href="#m92b72cd65f" y="273.406533"/>
     <use style="fill:#dd8452;fill-opacity:0.8;stroke:#dd8452;stroke-opacity:0.8;stroke-width:1.2;" x="91.826895" xlink:href="#m92b72cd65f" y="303.218263"/>
     <use style="fill:#dd8452;fill-opacity:0.8;stroke:#dd8452;stroke-opacity:0.8;stroke-width:1.2;" x="201.131728" xlink:href="#m92b72cd65f" y="216.921152"/>
     <use style="fill:#dd8452;fill-opacity:0.8;stroke:#dd8452;stroke-opacity:0.8;stroke-width:1.2;" x="172.05363" xlink:href="#m92b72cd65f" y="248.301919"/>
     <use style="fill:#dd8452;fill-opacity:0.8;stroke:#dd8452;stroke-opacity:0.8;stroke-width:1.2;" x="136.229936" xlink:href="#m92b72cd65f" y="257.402342"/>
     <use style="fill:#dd8452;fill-opacity:0.8;stroke:#dd8452;stroke-opacity:0.8;stroke-width:1.2;" x="132.10399" xlink:href="#m92b72cd65f" y="235.749612"/>
     <use style="fill:#dd8452;fill-opacity:0.8;stroke:#dd8452;stroke-opacity:0.8;stroke-width:1.2;" x="88.945281" xlink:href="#m92b72cd65f" y="285.017417"/>
     <use style="fill:#dd8452;fill-opacity:0.8;stroke:#dd8452;stroke-opacity:0.8;stroke-width:1.2;" x="127.650588" xlink:href="#m92b72cd65f" y="278.741264"/>
     <use style="fill:#dd8452;fill-opacity:0.8;stroke:#dd8452;stroke-opacity:0.8;stroke-width:1.2;" x="251.101523" xlink:href="#m92b72cd65f" y="180.205653"/>
     <use style="fill:#dd8452;fill-opacity:0.8;stroke:#dd8452;stroke-opacity:0.8;stroke-width:1.2;" x="108.33068" xlink:href="#m92b72cd65f" y="279.682687"/>
     <use style="fill:#dd8452;fill-opacity:0.8;stroke:#dd8452;stroke-opacity:0.8;stroke-width:1.2;" x="142.713566" xlink:href="#m92b72cd65f" y="216.921152"/>
     <use style="fill:#dd8452;fill-opacity:0.8;stroke:#dd8452;stroke-opacity:0.8;stroke-width:1.2;" x="184.824416" xlink:href="#m92b72cd65f" y="158.866731"/>
     <use style="fill:#dd8452;fill-opacity:0.8;stroke:#dd8452;stroke-opacity:0.8;stroke-width:1.2;" x="161.575036" xlink:href="#m92b72cd65f" y="248.301919"/>
     <use style="fill:#dd8452;fill-opacity:0.8;stroke:#dd8452;stroke-opacity:0.8;stroke-width:1.2;" x="170.285367" xlink:href="#m92b72cd65f" y="232.611535"/>
     <use style="fill:#dd8452;fill-opacity:0.8;stroke:#dd8452;stroke-opacity:0.8;stroke-width:1.2;" x="171.988138" xlink:href="#m92b72cd65f" y="240.456727"/>
     <use style="fill:#dd8452;fill-opacity:0.8;stroke:#dd8452;stroke-opacity:0.8;stroke-width:1.2;" x="104.597681" xlink:href="#m92b72cd65f" y="295.373071"/>
     <use style="fill:#dd8452;fill-opacity:0.8;stroke:#dd8452;stroke-opacity:0.8;stroke-width:1.2;" x="160.003247" xlink:href="#m92b72cd65f" y="214.41069"/>
     <use style="fill:#dd8452;fill-opacity:0.8;stroke:#dd8452;stroke-opacity:0.8;stroke-width:1.2;" x="142.451602" xlink:href="#m92b72cd65f" y="224.452536"/>
     <use style="fill:#dd8452;fill-opacity:0.8;stroke:#dd8452;stroke-opacity:0.8;stroke-width:1.2;" x="114.683328" xlink:href="#m92b72cd65f" y="248.301919"/>
     <use style="fill:#dd8452;fill-opacity:0.8;stroke:#dd8452;stroke-opacity:0.8;stroke-width:1.2;" x="70.476759" xlink:href="#m92b72cd65f" y="311.063455"/>
     <use style="fill:#dd8452;fill-opacity:0.8;stroke:#dd8452;stroke-opacity:0.8;stroke-width:1.2;" x="272.320676" xlink:href="#m92b72cd65f" y="216.921152"/>
     <use style="fill:#dd8452;fill-opacity:0.8;stroke:#dd8452;stroke-opacity:0.8;stroke-width:1.2;" x="179.847084" xlink:href="#m92b72cd65f" y="262.423265"/>
     <use style="fill:#dd8452;fill-opacity:0.8;stroke:#dd8452;stroke-opacity:0.8;stroke-width:1.2;" x="191.373537" xlink:href="#m92b72cd65f" y="216.921152"/>
     <use style="fill:#dd8452;fill-opacity:0.8;stroke:#dd8452;stroke-opacity:0.8;stroke-width:1.2;" x="136.360919" xlink:href="#m92b72cd65f" y="232.611535"/>
     <use style="fill:#dd8452;fill-opacity:0.8;stroke:#dd8452;stroke-opacity:0.8;stroke-width:1.2;" x="219.010829" xlink:href="#m92b72cd65f" y="183.34373"/>
     <use style="fill:#dd8452;fill-opacity:0.8;stroke:#dd8452;stroke-opacity:0.8;stroke-width:1.2;" x="92.743772" xlink:href="#m92b72cd65f" y="295.373071"/>
     <use style="fill:#dd8452;fill-opacity:0.8;stroke:#dd8452;stroke-opacity:0.8;stroke-width:1.2;" x="104.401207" xlink:href="#m92b72cd65f" y="285.95884"/>
     <use style="fill:#dd8452;fill-opacity:0.8;stroke:#dd8452;stroke-opacity:0.8;stroke-width:1.2;" x="180.69847" xlink:href="#m92b72cd65f" y="250.812381"/>
     <use style="fill:#dd8452;fill-opacity:0.8;stroke:#dd8452;stroke-opacity:0.8;stroke-width:1.2;" x="99.554858" xlink:href="#m92b72cd65f" y="269.954649"/>
     <use style="fill:#dd8452;fill-opacity:0.8;stroke:#dd8452;stroke-opacity:0.8;stroke-width:1.2;" x="110.884837" xlink:href="#m92b72cd65f" y="289.724533"/>
     <use style="fill:#dd8452;fill-opacity:0.8;stroke:#dd8452;stroke-opacity:0.8;stroke-width:1.2;" x="116.386099" xlink:href="#m92b72cd65f" y="263.992303"/>
     <use style="fill:#dd8452;fill-opacity:0.8;stroke:#dd8452;stroke-opacity:0.8;stroke-width:1.2;" x="127.454114" xlink:href="#m92b72cd65f" y="279.682687"/>
     <use style="fill:#dd8452;fill-opacity:0.8;stroke:#dd8452;stroke-opacity:0.8;stroke-width:1.2;" x="104.728663" xlink:href="#m92b72cd65f" y="263.364688"/>
     <use style="fill:#dd8452;fill-opacity:0.8;stroke:#dd8452;stroke-opacity:0.8;stroke-width:1.2;" x="218.159443" xlink:href="#m92b72cd65f" y="210.644998"/>
     <use style="fill:#dd8452;fill-opacity:0.8;stroke:#dd8452;stroke-opacity:0.8;stroke-width:1.2;" x="78.794143" xlink:href="#m92b72cd65f" y="296.000686"/>
     <use style="fill:#dd8452;fill-opacity:0.8;stroke:#dd8452;stroke-opacity:0.8;stroke-width:1.2;" x="118.088871" xlink:href="#m92b72cd65f" y="279.682687"/>
     <use style="fill:#dd8452;fill-opacity:0.8;stroke:#dd8452;stroke-opacity:0.8;stroke-width:1.2;" x="97.52463" xlink:href="#m92b72cd65f" y="279.682687"/>
     <use style="fill:#dd8452;fill-opacity:0.8;stroke:#dd8452;stroke-opacity:0.8;stroke-width:1.2;" x="172.446577" xlink:href="#m92b72cd65f" y="274.034149"/>
     <use style="fill:#dd8452;fill-opacity:0.8;stroke:#dd8452;stroke-opacity:0.8;stroke-width:1.2;" x="147.952863" xlink:href="#m92b72cd65f" y="295.373071"/>
     <use style="fill:#dd8452;fill-opacity:0.8;stroke:#dd8452;stroke-opacity:0.8;stroke-width:1.2;" x="155.746318" xlink:href="#m92b72cd65f" y="253.63665"/>
     <use style="fill:#dd8452;fill-opacity:0.8;stroke:#dd8452;stroke-opacity:0.8;stroke-width:1.2;" x="96.149315" xlink:href="#m92b72cd65f" y="295.373071"/>
     <use style="fill:#dd8452;fill-opacity:0.8;stroke:#dd8452;stroke-opacity:0.8;stroke-width:1.2;" x="103.287857" xlink:href="#m92b72cd65f" y="279.682687"/>
     <use style="fill:#dd8452;fill-opacity:0.8;stroke:#dd8452;stroke-opacity:0.8;stroke-width:1.2;" x="142.582584" xlink:href="#m92b72cd65f" y="240.456727"/>
     <use style="fill:#dd8452;fill-opacity:0.8;stroke:#dd8452;stroke-opacity:0.8;stroke-width:1.2;" x="78.728652" xlink:href="#m92b72cd65f" y="303.218263"/>
     <use style="fill:#dd8452;fill-opacity:0.8;stroke:#dd8452;stroke-opacity:0.8;stroke-width:1.2;" x="90.648053" xlink:href="#m92b72cd65f" y="279.682687"/>
     <use style="fill:#dd8452;fill-opacity:0.8;stroke:#dd8452;stroke-opacity:0.8;stroke-width:1.2;" x="115.665696" xlink:href="#m92b72cd65f" y="279.682687"/>
     <use style="fill:#dd8452;fill-opacity:0.8;stroke:#dd8452;stroke-opacity:0.8;stroke-width:1.2;" x="109.182066" xlink:href="#m92b72cd65f" y="256.147111"/>
     <use style="fill:#dd8452;fill-opacity:0.8;stroke:#dd8452;stroke-opacity:0.8;stroke-width:1.2;" x="137.408778" xlink:href="#m92b72cd65f" y="232.611535"/>
     <use style="fill:#dd8452;fill-opacity:0.8;stroke:#dd8452;stroke-opacity:0.8;stroke-width:1.2;" x="247.630489" xlink:href="#m92b72cd65f" y="132.193079"/>
     <use style="fill:#dd8452;fill-opacity:0.8;stroke:#dd8452;stroke-opacity:0.8;stroke-width:1.2;" x="292.753934" xlink:href="#m92b72cd65f" y="185.540384"/>
     <use style="fill:#dd8452;fill-opacity:0.8;stroke:#dd8452;stroke-opacity:0.8;stroke-width:1.2;" x="200.14936" xlink:href="#m92b72cd65f" y="185.540384"/>
     <use style="fill:#dd8452;fill-opacity:0.8;stroke:#dd8452;stroke-opacity:0.8;stroke-width:1.2;" x="130.597692" xlink:href="#m92b72cd65f" y="270.268457"/>
     <use style="fill:#dd8452;fill-opacity:0.8;stroke:#dd8452;stroke-opacity:0.8;stroke-width:1.2;" x="77.680793" xlink:href="#m92b72cd65f" y="295.373071"/>
     <use style="fill:#dd8452;fill-opacity:0.8;stroke:#dd8452;stroke-opacity:0.8;stroke-width:1.2;" x="145.07125" xlink:href="#m92b72cd65f" y="299.766378"/>
     <use style="fill:#dd8452;fill-opacity:0.8;stroke:#dd8452;stroke-opacity:0.8;stroke-width:1.2;" x="100.733699" xlink:href="#m92b72cd65f" y="291.293571"/>
     <use style="fill:#dd8452;fill-opacity:0.8;stroke:#dd8452;stroke-opacity:0.8;stroke-width:1.2;" x="87.046036" xlink:href="#m92b72cd65f" y="288.155494"/>
     <use style="fill:#dd8452;fill-opacity:0.8;stroke:#dd8452;stroke-opacity:0.8;stroke-width:1.2;" x="72.179531" xlink:href="#m92b72cd65f" y="279.682687"/>
     <use style="fill:#dd8452;fill-opacity:0.8;stroke:#dd8452;stroke-opacity:0.8;stroke-width:1.2;" x="115.141766" xlink:href="#m92b72cd65f" y="263.992303"/>
     <use style="fill:#dd8452;fill-opacity:0.8;stroke:#dd8452;stroke-opacity:0.8;stroke-width:1.2;" x="108.985592" xlink:href="#m92b72cd65f" y="279.682687"/>
     <use style="fill:#dd8452;fill-opacity:0.8;stroke:#dd8452;stroke-opacity:0.8;stroke-width:1.2;" x="136.033463" xlink:href="#m92b72cd65f" y="256.460919"/>
     <use style="fill:#dd8452;fill-opacity:0.8;stroke:#dd8452;stroke-opacity:0.8;stroke-width:1.2;" x="183.776557" xlink:href="#m92b72cd65f" y="279.682687"/>
     <use style="fill:#dd8452;fill-opacity:0.8;stroke:#dd8452;stroke-opacity:0.8;stroke-width:1.2;" x="152.471757" xlink:href="#m92b72cd65f" y="279.682687"/>
     <use style="fill:#dd8452;fill-opacity:0.8;stroke:#dd8452;stroke-opacity:0.8;stroke-width:1.2;" x="218.486899" xlink:href="#m92b72cd65f" y="181.147076"/>
     <use style="fill:#dd8452;fill-opacity:0.8;stroke:#dd8452;stroke-opacity:0.8;stroke-width:1.2;" x="338.4668" xlink:href="#m92b72cd65f" y="185.540384"/>
     <use style="fill:#dd8452;fill-opacity:0.8;stroke:#dd8452;stroke-opacity:0.8;stroke-width:1.2;" x="186.723661" xlink:href="#m92b72cd65f" y="224.766343"/>
     <use style="fill:#dd8452;fill-opacity:0.8;stroke:#dd8452;stroke-opacity:0.8;stroke-width:1.2;" x="110.688364" xlink:href="#m92b72cd65f" y="260.540419"/>
     <use style="fill:#dd8452;fill-opacity:0.8;stroke:#dd8452;stroke-opacity:0.8;stroke-width:1.2;" x="130.99064" xlink:href="#m92b72cd65f" y="279.682687"/>
     <use style="fill:#dd8452;fill-opacity:0.8;stroke:#dd8452;stroke-opacity:0.8;stroke-width:1.2;" x="163.801737" xlink:href="#m92b72cd65f" y="232.611535"/>
     <use style="fill:#dd8452;fill-opacity:0.8;stroke:#dd8452;stroke-opacity:0.8;stroke-width:1.2;" x="105.907505" xlink:href="#m92b72cd65f" y="263.992303"/>
     <use style="fill:#dd8452;fill-opacity:0.8;stroke:#dd8452;stroke-opacity:0.8;stroke-width:1.2;" x="129.156886" xlink:href="#m92b72cd65f" y="279.682687"/>
     <use style="fill:#dd8452;fill-opacity:0.8;stroke:#dd8452;stroke-opacity:0.8;stroke-width:1.2;" x="113.438995" xlink:href="#m92b72cd65f" y="279.682687"/>
     <use style="fill:#dd8452;fill-opacity:0.8;stroke:#dd8452;stroke-opacity:0.8;stroke-width:1.2;" x="183.580083" xlink:href="#m92b72cd65f" y="233.239151"/>
     <use style="fill:#dd8452;fill-opacity:0.8;stroke:#dd8452;stroke-opacity:0.8;stroke-width:1.2;" x="158.955387" xlink:href="#m92b72cd65f" y="272.151303"/>
     <use style="fill:#dd8452;fill-opacity:0.8;stroke:#dd8452;stroke-opacity:0.8;stroke-width:1.2;" x="230.668265" xlink:href="#m92b72cd65f" y="201.230768"/>
     <use style="fill:#dd8452;fill-opacity:0.8;stroke:#dd8452;stroke-opacity:0.8;stroke-width:1.2;" x="158.496949" xlink:href="#m92b72cd65f" y="185.540384"/>
     <use style="fill:#dd8452;fill-opacity:0.8;stroke:#dd8452;stroke-opacity:0.8;stroke-width:1.2;" x="72.506987" xlink:href="#m92b72cd65f" y="297.255917"/>
     <use style="fill:#dd8452;fill-opacity:0.8;stroke:#dd8452;stroke-opacity:0.8;stroke-width:1.2;" x="339.514659" xlink:href="#m92b72cd65f" y="60.017313"/>
     <use style="fill:#dd8452;fill-opacity:0.8;stroke:#dd8452;stroke-opacity:0.8;stroke-width:1.2;" x="127.650588" xlink:href="#m92b72cd65f" y="248.301919"/>
     <use style="fill:#dd8452;fill-opacity:0.8;stroke:#dd8452;stroke-opacity:0.8;stroke-width:1.2;" x="156.92516" xlink:href="#m92b72cd65f" y="248.301919"/>
     <use style="fill:#dd8452;fill-opacity:0.8;stroke:#dd8452;stroke-opacity:0.8;stroke-width:1.2;" x="109.96796" xlink:href="#m92b72cd65f" y="257.088534"/>
     <use style="fill:#dd8452;fill-opacity:0.8;stroke:#dd8452;stroke-opacity:0.8;stroke-width:1.2;" x="99.030928" xlink:href="#m92b72cd65f" y="236.06342"/>
     <use style="fill:#dd8452;fill-opacity:0.8;stroke:#dd8452;stroke-opacity:0.8;stroke-width:1.2;" x="93.529666" xlink:href="#m92b72cd65f" y="296.314494"/>
     <use style="fill:#dd8452;fill-opacity:0.8;stroke:#dd8452;stroke-opacity:0.8;stroke-width:1.2;" x="88.945281" xlink:href="#m92b72cd65f" y="303.218263"/>
     <use style="fill:#dd8452;fill-opacity:0.8;stroke:#dd8452;stroke-opacity:0.8;stroke-width:1.2;" x="257.650644" xlink:href="#m92b72cd65f" y="195.896037"/>
     <use style="fill:#dd8452;fill-opacity:0.8;stroke:#dd8452;stroke-opacity:0.8;stroke-width:1.2;" x="213.11662" xlink:href="#m92b72cd65f" y="156.670078"/>
     <use style="fill:#dd8452;fill-opacity:0.8;stroke:#dd8452;stroke-opacity:0.8;stroke-width:1.2;" x="139.700971" xlink:href="#m92b72cd65f" y="287.527879"/>
     <use style="fill:#dd8452;fill-opacity:0.8;stroke:#dd8452;stroke-opacity:0.8;stroke-width:1.2;" x="145.988127" xlink:href="#m92b72cd65f" y="248.301919"/>
    </g>
   </g>
   <g id="PolyCollection_2">
    <defs>
     <path d="M 70.476759 -67.098199 
L 70.476759 -52.73929 
L 73.194314 -54.791402 
L 75.911868 -56.90806 
L 78.629423 -58.933499 
L 81.346978 -60.957861 
L 84.064532 -62.981345 
L 86.782087 -65.00483 
L 89.499641 -67.029523 
L 92.217196 -69.054391 
L 94.93475 -71.076174 
L 97.652305 -73.010232 
L 100.369859 -74.995583 
L 103.087414 -77.05111 
L 105.804968 -78.965519 
L 108.522523 -80.958973 
L 111.240078 -82.882487 
L 113.957632 -84.84061 
L 116.675187 -86.744984 
L 119.392741 -88.580412 
L 122.110296 -90.43141 
L 124.82785 -92.340223 
L 127.545405 -94.134055 
L 130.262959 -95.990234 
L 132.980514 -97.842957 
L 135.698068 -99.67646 
L 138.415623 -101.33618 
L 141.133178 -102.958776 
L 143.850732 -104.643169 
L 146.568287 -106.285632 
L 149.285841 -108.008111 
L 152.003396 -109.721623 
L 154.72095 -111.389455 
L 157.438505 -113.053781 
L 160.156059 -114.691825 
L 162.873614 -116.276983 
L 165.591168 -117.797925 
L 168.308723 -119.353858 
L 171.026278 -120.855324 
L 173.743832 -122.361902 
L 176.461387 -123.902858 
L 179.178941 -125.47324 
L 181.896496 -126.981773 
L 184.61405 -128.665947 
L 187.331605 -130.244389 
L 190.049159 -131.747148 
L 192.766714 -133.280634 
L 195.484268 -134.867786 
L 198.201823 -136.410413 
L 200.919378 -137.958885 
L 203.636932 -139.492993 
L 206.354487 -140.976245 
L 209.072041 -142.573543 
L 211.789596 -144.113625 
L 214.50715 -145.6549 
L 217.224705 -147.196174 
L 219.942259 -148.721815 
L 222.659814 -150.214151 
L 225.377368 -151.706486 
L 228.094923 -153.202057 
L 230.812478 -154.743131 
L 233.530032 -156.282845 
L 236.247587 -157.741864 
L 238.965141 -159.200882 
L 241.682696 -160.659901 
L 244.40025 -162.169909 
L 247.117805 -163.691797 
L 249.835359 -165.213684 
L 252.552914 -166.735572 
L 255.270468 -168.257459 
L 257.988023 -169.781669 
L 260.705578 -171.310421 
L 263.423132 -172.925367 
L 266.140687 -174.540314 
L 268.858241 -176.03779 
L 271.575796 -177.515178 
L 274.29335 -178.992566 
L 277.010905 -180.469954 
L 279.728459 -181.976928 
L 282.446014 -183.487945 
L 285.163568 -185.009668 
L 287.881123 -186.520378 
L 290.598678 -188.004477 
L 293.316232 -189.488998 
L 296.033787 -190.974088 
L 298.751341 -192.486389 
L 301.468896 -194.00948 
L 304.18645 -195.532572 
L 306.904005 -197.055663 
L 309.621559 -198.579355 
L 312.339114 -200.103373 
L 315.056668 -201.59442 
L 317.774223 -203.081837 
L 320.491778 -204.569255 
L 323.209332 -206.056672 
L 325.926887 -207.545646 
L 328.644441 -209.065918 
L 331.361996 -210.58619 
L 334.07955 -212.106461 
L 336.797105 -213.628568 
L 339.514659 -215.150758 
L 339.514659 -259.96893 
L 339.514659 -259.96893 
L 336.797105 -257.903162 
L 334.07955 -255.837394 
L 331.361996 -253.771108 
L 328.644441 -251.704604 
L 325.926887 -249.6381 
L 323.209332 -247.571596 
L 320.491778 -245.505092 
L 317.774223 -243.438588 
L 315.056668 -241.372084 
L 312.339114 -239.305428 
L 309.621559 -237.226509 
L 306.904005 -235.121261 
L 304.18645 -233.015928 
L 301.468896 -230.910596 
L 298.751341 -228.805263 
L 296.033787 -226.699931 
L 293.316232 -224.594308 
L 290.598678 -222.488042 
L 287.881123 -220.381776 
L 285.163568 -218.27699 
L 282.446014 -216.172883 
L 279.728459 -214.066808 
L 277.010905 -211.960734 
L 274.29335 -209.85466 
L 271.575796 -207.748585 
L 268.858241 -205.647623 
L 266.140687 -203.63287 
L 263.423132 -201.61915 
L 260.705578 -199.525753 
L 257.988023 -197.432357 
L 255.270468 -195.33896 
L 252.552914 -193.245564 
L 249.835359 -191.152167 
L 247.117805 -189.058771 
L 244.40025 -186.965374 
L 241.682696 -184.975883 
L 238.965141 -182.99582 
L 236.247587 -181.014862 
L 233.530032 -179.033455 
L 230.812478 -177.052048 
L 228.094923 -175.070641 
L 225.377368 -173.089026 
L 222.659814 -171.067132 
L 219.942259 -168.943373 
L 217.224705 -166.818246 
L 214.50715 -164.702187 
L 211.789596 -162.605512 
L 209.072041 -160.622831 
L 206.354487 -158.56956 
L 203.636932 -156.557267 
L 200.919378 -154.543408 
L 198.201823 -152.529078 
L 195.484268 -150.480286 
L 192.766714 -148.412577 
L 190.049159 -146.287743 
L 187.331605 -144.270651 
L 184.61405 -142.217194 
L 181.896496 -140.153918 
L 179.178941 -138.131422 
L 176.461387 -136.090495 
L 173.743832 -134.096052 
L 171.026278 -131.955182 
L 168.308723 -129.823668 
L 165.591168 -127.756787 
L 162.873614 -125.726161 
L 160.156059 -123.751687 
L 157.438505 -121.766893 
L 154.72095 -119.959868 
L 152.003396 -118.092246 
L 149.285841 -116.115272 
L 146.568287 -114.011006 
L 143.850732 -112.037144 
L 141.133178 -110.120981 
L 138.415623 -108.304233 
L 135.698068 -106.45357 
L 132.980514 -104.54889 
L 130.262959 -102.777562 
L 127.545405 -100.917168 
L 124.82785 -99.186509 
L 122.110296 -97.422211 
L 119.392741 -95.755594 
L 116.675187 -93.984495 
L 113.957632 -92.253449 
L 111.240078 -90.532813 
L 108.522523 -88.949074 
L 105.804968 -87.394855 
L 103.087414 -85.785693 
L 100.369859 -84.180908 
L 97.652305 -82.640023 
L 94.93475 -81.10744 
L 92.217196 -79.529611 
L 89.499641 -77.987123 
L 86.782087 -76.465981 
L 84.064532 -74.822375 
L 81.346978 -73.185768 
L 78.629423 -71.671911 
L 75.911868 -70.132256 
L 73.194314 -68.613299 
L 70.476759 -67.098199 
z
" id="m3b11d03f09" style="stroke:#ffffff;stroke-opacity:0.15;stroke-width:0.8;"/>
    </defs>
    <g clip-path="url(#p852f0b1735)">
     <use style="fill:#dd8452;fill-opacity:0.15;stroke:#ffffff;stroke-opacity:0.15;stroke-width:0.8;" x="0" xlink:href="#m3b11d03f09" y="360"/>
    </g>
   </g>
   <g id="line2d_11">
    <path clip-path="url(#p852f0b1735)" d="M 43.101433 286.651935 
L 46.259564 285.598861 
L 49.417696 284.545787 
L 52.575828 283.492713 
L 55.73396 282.439639 
L 58.892092 281.386565 
L 62.050223 280.333491 
L 65.208355 279.280417 
L 68.366487 278.227343 
L 71.524619 277.174269 
L 74.682751 276.121195 
L 77.840882 275.068121 
L 80.999014 274.015047 
L 84.157146 272.961973 
L 87.315278 271.908899 
L 90.47341 270.855825 
L 93.631541 269.802751 
L 96.789673 268.749677 
L 99.947805 267.696603 
L 103.105937 266.643529 
L 106.264068 265.590455 
L 109.4222 264.537381 
L 112.580332 263.484307 
L 115.738464 262.431233 
L 118.896596 261.378159 
L 122.054727 260.325085 
L 125.212859 259.272011 
L 128.370991 258.218937 
L 131.529123 257.165863 
L 134.687255 256.112789 
L 137.845386 255.059715 
L 141.003518 254.006641 
L 144.16165 252.953567 
L 147.319782 251.900493 
L 150.477914 250.847419 
L 153.636045 249.794345 
L 156.794177 248.741271 
L 159.952309 247.688197 
L 163.110441 246.635123 
L 166.268573 245.582049 
L 169.426704 244.528975 
L 172.584836 243.475901 
L 175.742968 242.422827 
L 178.9011 241.369753 
L 182.059231 240.316679 
L 185.217363 239.263605 
L 188.375495 238.210531 
L 191.533627 237.157457 
L 194.691759 236.104383 
L 197.84989 235.051309 
L 201.008022 233.998235 
L 204.166154 232.945161 
L 207.324286 231.892087 
L 210.482418 230.839013 
L 213.640549 229.785939 
L 216.798681 228.732865 
L 219.956813 227.679791 
L 223.114945 226.626717 
L 226.273077 225.573643 
L 229.431208 224.520569 
L 232.58934 223.467495 
L 235.747472 222.414421 
L 238.905604 221.361347 
L 242.063736 220.308273 
L 245.221867 219.255199 
L 248.379999 218.202125 
L 251.538131 217.149051 
L 254.696263 216.095977 
L 257.854394 215.042903 
L 261.012526 213.989829 
L 264.170658 212.936755 
L 267.32879 211.883681 
L 270.486922 210.830607 
L 273.645053 209.777533 
L 276.803185 208.724459 
L 279.961317 207.671385 
L 283.119449 206.618311 
L 286.277581 205.565237 
L 289.435712 204.512163 
L 292.593844 203.459089 
L 295.751976 202.406015 
L 298.910108 201.352941 
L 302.06824 200.299867 
L 305.226371 199.246793 
L 308.384503 198.193719 
L 311.542635 197.140645 
L 314.700767 196.087571 
L 317.858899 195.034497 
L 321.01703 193.981423 
L 324.175162 192.928349 
L 327.333294 191.875275 
L 330.491426 190.822201 
L 333.649557 189.769127 
L 336.807689 188.716053 
L 339.965821 187.662979 
L 343.123953 186.609905 
L 346.282085 185.556831 
L 349.440216 184.503757 
L 352.598348 183.450683 
L 355.75648 182.397609 
" style="fill:none;stroke:#4c72b0;stroke-linecap:round;stroke-width:1.8;"/>
   </g>
   <g id="line2d_12">
    <path clip-path="url(#p852f0b1735)" d="M 70.476759 299.940572 
L 73.194314 298.154606 
L 75.911868 296.368639 
L 78.629423 294.582673 
L 81.346978 292.796706 
L 84.064532 291.01074 
L 86.782087 289.224774 
L 89.499641 287.438807 
L 92.217196 285.652841 
L 94.93475 283.866874 
L 97.652305 282.080908 
L 100.369859 280.294941 
L 103.087414 278.508975 
L 105.804968 276.723008 
L 108.522523 274.937042 
L 111.240078 273.151075 
L 113.957632 271.365109 
L 116.675187 269.579142 
L 119.392741 267.793176 
L 122.110296 266.00721 
L 124.82785 264.221243 
L 127.545405 262.435277 
L 130.262959 260.64931 
L 132.980514 258.863344 
L 135.698068 257.077377 
L 138.415623 255.291411 
L 141.133178 253.505444 
L 143.850732 251.719478 
L 146.568287 249.933511 
L 149.285841 248.147545 
L 152.003396 246.361578 
L 154.72095 244.575612 
L 157.438505 242.789645 
L 160.156059 241.003679 
L 162.873614 239.217713 
L 165.591168 237.431746 
L 168.308723 235.64578 
L 171.026278 233.859813 
L 173.743832 232.073847 
L 176.461387 230.28788 
L 179.178941 228.501914 
L 181.896496 226.715947 
L 184.61405 224.929981 
L 187.331605 223.144014 
L 190.049159 221.358048 
L 192.766714 219.572081 
L 195.484268 217.786115 
L 198.201823 216.000149 
L 200.919378 214.214182 
L 203.636932 212.428216 
L 206.354487 210.642249 
L 209.072041 208.856283 
L 211.789596 207.070316 
L 214.50715 205.28435 
L 217.224705 203.498383 
L 219.942259 201.712417 
L 222.659814 199.92645 
L 225.377368 198.140484 
L 228.094923 196.354517 
L 230.812478 194.568551 
L 233.530032 192.782584 
L 236.247587 190.996618 
L 238.965141 189.210652 
L 241.682696 187.424685 
L 244.40025 185.638719 
L 247.117805 183.852752 
L 249.835359 182.066786 
L 252.552914 180.280819 
L 255.270468 178.494853 
L 257.988023 176.708886 
L 260.705578 174.92292 
L 263.423132 173.136953 
L 266.140687 171.350987 
L 268.858241 169.56502 
L 271.575796 167.779054 
L 274.29335 165.993088 
L 277.010905 164.207121 
L 279.728459 162.421155 
L 282.446014 160.635188 
L 285.163568 158.849222 
L 287.881123 157.063255 
L 290.598678 155.277289 
L 293.316232 153.491322 
L 296.033787 151.705356 
L 298.751341 149.919389 
L 301.468896 148.133423 
L 304.18645 146.347456 
L 306.904005 144.56149 
L 309.621559 142.775523 
L 312.339114 140.989557 
L 315.056668 139.203591 
L 317.774223 137.417624 
L 320.491778 135.631658 
L 323.209332 133.845691 
L 325.926887 132.059725 
L 328.644441 130.273758 
L 331.361996 128.487792 
L 334.07955 126.701825 
L 336.797105 124.915859 
L 339.514659 123.129892 
" style="fill:none;stroke:#dd8452;stroke-linecap:round;stroke-width:1.8;"/>
   </g>
   <g id="patch_3">
    <path d="M 43.101433 325.1848 
L 43.101433 14.5152 
" style="fill:none;stroke:#ffffff;stroke-linecap:square;stroke-linejoin:miter;"/>
   </g>
   <g id="patch_4">
    <path d="M 43.101433 325.1848 
L 355.75648 325.1848 
" style="fill:none;stroke:#ffffff;stroke-linecap:square;stroke-linejoin:miter;"/>
   </g>
  </g>
  <g id="legend_1">
   <g id="text_13">
    <!-- smoker -->
    <g style="fill:#262626;" transform="translate(363.93465 166.047425)scale(0.1344 -0.1344)">
     <defs>
      <path d="M 3.078125 15.484375 
L 11.765625 16.84375 
Q 12.5 11.625 15.84375 8.84375 
Q 19.1875 6.0625 25.203125 6.0625 
Q 31.25 6.0625 34.171875 8.515625 
Q 37.109375 10.984375 37.109375 14.3125 
Q 37.109375 17.28125 34.515625 19 
Q 32.71875 20.171875 25.53125 21.96875 
Q 15.875 24.421875 12.140625 26.203125 
Q 8.40625 27.984375 6.46875 31.125 
Q 4.546875 34.28125 4.546875 38.09375 
Q 4.546875 41.546875 6.125 44.5 
Q 7.71875 47.46875 10.453125 49.421875 
Q 12.5 50.921875 16.03125 51.96875 
Q 19.578125 53.03125 23.640625 53.03125 
Q 29.734375 53.03125 34.34375 51.265625 
Q 38.96875 49.515625 41.15625 46.5 
Q 43.359375 43.5 44.1875 38.484375 
L 35.59375 37.3125 
Q 35.015625 41.3125 32.203125 43.546875 
Q 29.390625 45.796875 24.265625 45.796875 
Q 18.21875 45.796875 15.625 43.796875 
Q 13.03125 41.796875 13.03125 39.109375 
Q 13.03125 37.40625 14.109375 36.03125 
Q 15.1875 34.625 17.484375 33.6875 
Q 18.796875 33.203125 25.25 31.453125 
Q 34.578125 28.953125 38.25 27.359375 
Q 41.9375 25.78125 44.03125 22.75 
Q 46.140625 19.734375 46.140625 15.234375 
Q 46.140625 10.84375 43.578125 6.953125 
Q 41.015625 3.078125 36.171875 0.953125 
Q 31.34375 -1.171875 25.25 -1.171875 
Q 15.140625 -1.171875 9.84375 3.03125 
Q 4.546875 7.234375 3.078125 15.484375 
z
" id="ArialMT-115"/>
      <path d="M 6.59375 0 
L 6.59375 51.859375 
L 14.453125 51.859375 
L 14.453125 44.578125 
Q 16.890625 48.390625 20.9375 50.703125 
Q 25 53.03125 30.171875 53.03125 
Q 35.9375 53.03125 39.625 50.640625 
Q 43.3125 48.25 44.828125 43.953125 
Q 50.984375 53.03125 60.84375 53.03125 
Q 68.5625 53.03125 72.703125 48.75 
Q 76.859375 44.484375 76.859375 35.59375 
L 76.859375 0 
L 68.109375 0 
L 68.109375 32.671875 
Q 68.109375 37.9375 67.25 40.25 
Q 66.40625 42.578125 64.15625 43.984375 
Q 61.921875 45.40625 58.890625 45.40625 
Q 53.421875 45.40625 49.796875 41.765625 
Q 46.1875 38.140625 46.1875 30.125 
L 46.1875 0 
L 37.40625 0 
L 37.40625 33.6875 
Q 37.40625 39.546875 35.25 42.46875 
Q 33.109375 45.40625 28.21875 45.40625 
Q 24.515625 45.40625 21.359375 43.453125 
Q 18.21875 41.5 16.796875 37.734375 
Q 15.375 33.984375 15.375 26.90625 
L 15.375 0 
z
" id="ArialMT-109"/>
      <path d="M 6.640625 0 
L 6.640625 71.578125 
L 15.4375 71.578125 
L 15.4375 30.765625 
L 36.234375 51.859375 
L 47.609375 51.859375 
L 27.78125 32.625 
L 49.609375 0 
L 38.765625 0 
L 21.625 26.515625 
L 15.4375 20.5625 
L 15.4375 0 
z
" id="ArialMT-107"/>
      <path d="M 42.09375 16.703125 
L 51.171875 15.578125 
Q 49.03125 7.625 43.21875 3.21875 
Q 37.40625 -1.171875 28.375 -1.171875 
Q 17 -1.171875 10.328125 5.828125 
Q 3.65625 12.84375 3.65625 25.484375 
Q 3.65625 38.578125 10.390625 45.796875 
Q 17.140625 53.03125 27.875 53.03125 
Q 38.28125 53.03125 44.875 45.953125 
Q 51.46875 38.875 51.46875 26.03125 
Q 51.46875 25.25 51.421875 23.6875 
L 12.75 23.6875 
Q 13.234375 15.140625 17.578125 10.59375 
Q 21.921875 6.0625 28.421875 6.0625 
Q 33.25 6.0625 36.671875 8.59375 
Q 40.09375 11.140625 42.09375 16.703125 
z
M 13.234375 30.90625 
L 42.1875 30.90625 
Q 41.609375 37.453125 38.875 40.71875 
Q 34.671875 45.796875 27.984375 45.796875 
Q 21.921875 45.796875 17.796875 41.75 
Q 13.671875 37.703125 13.234375 30.90625 
z
" id="ArialMT-101"/>
      <path d="M 6.5 0 
L 6.5 51.859375 
L 14.40625 51.859375 
L 14.40625 44 
Q 17.4375 49.515625 20 51.265625 
Q 22.5625 53.03125 25.640625 53.03125 
Q 30.078125 53.03125 34.671875 50.203125 
L 31.640625 42.046875 
Q 28.421875 43.953125 25.203125 43.953125 
Q 22.3125 43.953125 20.015625 42.21875 
Q 17.71875 40.484375 16.75 37.40625 
Q 15.28125 32.71875 15.28125 27.15625 
L 15.28125 0 
z
" id="ArialMT-114"/>
     </defs>
     <use xlink:href="#ArialMT-115"/>
     <use x="50" xlink:href="#ArialMT-109"/>
     <use x="133.300781" xlink:href="#ArialMT-111"/>
     <use x="188.916016" xlink:href="#ArialMT-107"/>
     <use x="238.916016" xlink:href="#ArialMT-101"/>
     <use x="294.53125" xlink:href="#ArialMT-114"/>
    </g>
   </g>
   <g id="PathCollection_3">
    <g>
     <use style="fill:#4c72b0;fill-opacity:0.8;stroke:#4c72b0;stroke-opacity:0.8;" x="370.9833" xlink:href="#m77081554d5" y="180.46305"/>
    </g>
   </g>
   <g id="text_14">
    <!-- Yes -->
    <g style="fill:#262626;" transform="translate(393.1593 183.69705)scale(0.1232 -0.1232)">
     <defs>
      <path d="M 27.875 0 
L 27.875 30.328125 
L 0.296875 71.578125 
L 11.8125 71.578125 
L 25.921875 50 
Q 29.828125 43.953125 33.203125 37.890625 
Q 36.421875 43.5 41.015625 50.53125 
L 54.890625 71.578125 
L 65.921875 71.578125 
L 37.359375 30.328125 
L 37.359375 0 
z
" id="ArialMT-89"/>
     </defs>
     <use xlink:href="#ArialMT-89"/>
     <use x="57.574219" xlink:href="#ArialMT-101"/>
     <use x="113.189453" xlink:href="#ArialMT-115"/>
    </g>
   </g>
   <g id="PathCollection_4">
    <g>
     <use style="fill:#dd8452;fill-opacity:0.8;stroke:#dd8452;stroke-opacity:0.8;stroke-width:1.2;" x="370.9833" xlink:href="#m92b72cd65f" y="197.890075"/>
    </g>
   </g>
   <g id="text_15">
    <!-- No -->
    <g style="fill:#262626;" transform="translate(393.1593 201.124075)scale(0.1232 -0.1232)">
     <defs>
      <path d="M 7.625 0 
L 7.625 71.578125 
L 17.328125 71.578125 
L 54.9375 15.375 
L 54.9375 71.578125 
L 64.015625 71.578125 
L 64.015625 0 
L 54.296875 0 
L 16.703125 56.25 
L 16.703125 0 
z
" id="ArialMT-78"/>
     </defs>
     <use xlink:href="#ArialMT-78"/>
     <use x="72.216797" xlink:href="#ArialMT-111"/>
    </g>
   </g>
  </g>
 </g>
 <defs>
  <clipPath id="p852f0b1735">
   <rect height="310.6696" width="312.655047" x="43.101433" y="14.5152"/>
  </clipPath>
 </defs>
</svg>
