<?xml version="1.0" encoding="utf-8" standalone="no"?>
<!DOCTYPE svg PUBLIC "-//W3C//DTD SVG 1.1//EN"
  "http://www.w3.org/Graphics/SVG/1.1/DTD/svg11.dtd">
<!-- Created with matplotlib (https://matplotlib.org/) -->
<svg height="216pt" version="1.1" viewBox="0 0 216 216" width="216pt" xmlns="http://www.w3.org/2000/svg" xmlns:xlink="http://www.w3.org/1999/xlink">
 <metadata>
  <rdf:RDF xmlns:cc="http://creativecommons.org/ns#" xmlns:dc="http://purl.org/dc/elements/1.1/" xmlns:rdf="http://www.w3.org/1999/02/22-rdf-syntax-ns#">
   <cc:Work>
    <dc:type rdf:resource="http://purl.org/dc/dcmitype/StillImage"/>
    <dc:date>2020-10-05T12:10:39.404794</dc:date>
    <dc:format>image/svg+xml</dc:format>
    <dc:creator>
     <cc:Agent>
      <dc:title>Matplotlib v3.3.1, https://matplotlib.org/</dc:title>
     </cc:Agent>
    </dc:creator>
   </cc:Work>
  </rdf:RDF>
 </metadata>
 <defs>
  <style type="text/css">*{stroke-linecap:butt;stroke-linejoin:round;}</style>
 </defs>
 <g id="figure_1">
  <g id="patch_1">
   <path d="M 0 216 
L 216 216 
L 216 0 
L 0 0 
z
" style="fill:none;"/>
  </g>
  <g id="axes_1">
   <g id="patch_2">
    <path d="M 27 189 
L 194.4 189 
L 194.4 25.92 
L 27 25.92 
z
" style="fill:#ffffff;"/>
   </g>
   <g id="PolyCollection_1">
    <path clip-path="url(#pd4f541169d)" d="M 55.711532 181.587273 
L 55.010782 181.587273 
L 55.0077 180.702476 
L 55.009429 179.817679 
L 55.01321 178.932882 
L 55.015289 178.048085 
L 55.011142 177.163288 
L 54.995761 176.27849 
L 54.963999 175.393693 
L 54.910929 174.508896 
L 54.832171 173.624099 
L 54.72418 172.739302 
L 54.58444 171.854505 
L 54.411568 170.969708 
L 54.205297 170.084911 
L 53.966347 169.200114 
L 53.696196 168.315317 
L 53.396786 167.43052 
L 53.070174 166.545723 
L 52.718195 165.660926 
L 52.342144 164.776129 
L 51.942508 163.891332 
L 51.518763 163.006535 
L 51.069239 162.121738 
L 50.591088 161.236941 
L 50.080346 160.352144 
L 49.532158 159.467347 
L 48.94118 158.58255 
L 48.30218 157.697753 
L 47.610831 156.812955 
L 46.864638 155.928158 
L 46.063878 155.043361 
L 45.212429 154.158564 
L 44.318304 153.273767 
L 43.393776 152.38897 
L 42.454978 151.504173 
L 41.521 150.619376 
L 40.612547 149.734579 
L 39.750332 148.849782 
L 38.953405 147.964985 
L 38.237652 147.080188 
L 37.614632 146.195391 
L 37.09089 145.310594 
L 36.667746 144.425797 
L 36.341533 143.541 
L 36.10415 142.656203 
L 35.943819 141.771406 
L 35.845937 140.886609 
L 35.793986 140.001812 
L 35.770487 139.117015 
L 35.758044 138.232218 
L 35.740511 137.34742 
L 35.70425 136.462623 
L 35.639408 135.577826 
L 35.541026 134.693029 
L 35.40981 133.808232 
L 35.252347 132.923435 
L 35.080675 132.038638 
L 34.91119 131.153841 
L 34.76302 130.269044 
L 34.656079 129.384247 
L 34.609091 128.49945 
L 34.637832 127.614653 
L 34.75383 126.729856 
L 34.963618 125.845059 
L 35.268594 124.960262 
L 35.665411 124.075465 
L 36.146822 123.190668 
L 36.7028 122.305871 
L 37.321814 121.421074 
L 37.992087 120.536277 
L 38.702687 119.65148 
L 39.444325 118.766683 
L 40.209767 117.881885 
L 40.993824 116.997088 
L 41.792938 116.112291 
L 42.604467 115.227494 
L 43.425823 114.342697 
L 44.253631 113.4579 
L 45.083077 112.573103 
L 45.907577 111.688306 
L 46.718811 110.803509 
L 47.507124 109.918712 
L 48.262202 109.033915 
L 48.973914 108.149118 
L 49.633184 107.264321 
L 50.232766 106.379524 
L 50.76784 105.494727 
L 51.236357 104.60993 
L 51.639141 103.725133 
L 51.979735 102.840336 
L 52.264064 101.955539 
L 52.499932 101.070742 
L 52.696429 100.185945 
L 52.863274 99.301148 
L 53.010151 98.41635 
L 53.146064 97.531553 
L 53.278763 96.646756 
L 53.414272 95.761959 
L 53.556566 94.877162 
L 53.707441 93.992365 
L 57.014873 93.992365 
L 57.014873 93.992365 
L 57.165748 94.877162 
L 57.308042 95.761959 
L 57.443551 96.646756 
L 57.57625 97.531553 
L 57.712163 98.41635 
L 57.85904 99.301148 
L 58.025885 100.185945 
L 58.222382 101.070742 
L 58.45825 101.955539 
L 58.742579 102.840336 
L 59.083173 103.725133 
L 59.485957 104.60993 
L 59.954475 105.494727 
L 60.489548 106.379524 
L 61.08913 107.264321 
L 61.7484 108.149118 
L 62.460112 109.033915 
L 63.21519 109.918712 
L 64.003503 110.803509 
L 64.814737 111.688306 
L 65.639237 112.573103 
L 66.468683 113.4579 
L 67.296491 114.342697 
L 68.117847 115.227494 
L 68.929376 116.112291 
L 69.72849 116.997088 
L 70.512547 117.881885 
L 71.277989 118.766683 
L 72.019627 119.65148 
L 72.730227 120.536277 
L 73.4005 121.421074 
L 74.019514 122.305871 
L 74.575492 123.190668 
L 75.056903 124.075465 
L 75.453721 124.960262 
L 75.758696 125.845059 
L 75.968484 126.729856 
L 76.084482 127.614653 
L 76.113223 128.49945 
L 76.066235 129.384247 
L 75.959294 130.269044 
L 75.811124 131.153841 
L 75.641639 132.038638 
L 75.469967 132.923435 
L 75.312504 133.808232 
L 75.181288 134.693029 
L 75.082906 135.577826 
L 75.018064 136.462623 
L 74.981803 137.34742 
L 74.96427 138.232218 
L 74.951827 139.117015 
L 74.928328 140.001812 
L 74.876377 140.886609 
L 74.778495 141.771406 
L 74.618164 142.656203 
L 74.380781 143.541 
L 74.054568 144.425797 
L 73.631424 145.310594 
L 73.107682 146.195391 
L 72.484662 147.080188 
L 71.768909 147.964985 
L 70.971982 148.849782 
L 70.109767 149.734579 
L 69.201314 150.619376 
L 68.267336 151.504173 
L 67.328538 152.38897 
L 66.40401 153.273767 
L 65.509885 154.158564 
L 64.658436 155.043361 
L 63.857676 155.928158 
L 63.111483 156.812955 
L 62.420134 157.697753 
L 61.781134 158.58255 
L 61.190156 159.467347 
L 60.641968 160.352144 
L 60.131226 161.236941 
L 59.653075 162.121738 
L 59.203552 163.006535 
L 58.779806 163.891332 
L 58.38017 164.776129 
L 58.004119 165.660926 
L 57.65214 166.545723 
L 57.325528 167.43052 
L 57.026118 168.315317 
L 56.755968 169.200114 
L 56.517017 170.084911 
L 56.310746 170.969708 
L 56.137874 171.854505 
L 55.998134 172.739302 
L 55.890143 173.624099 
L 55.811385 174.508896 
L 55.758315 175.393693 
L 55.726553 176.27849 
L 55.711172 177.163288 
L 55.707025 178.048085 
L 55.709104 178.932882 
L 55.712885 179.817679 
L 55.714614 180.702476 
L 55.711532 181.587273 
z
" style="fill:#1f77b4;fill-opacity:0.3;"/>
   </g>
   <g id="PolyCollection_2">
    <path clip-path="url(#pd4f541169d)" d="M 111.013655 159.496924 
L 110.386345 159.496924 
L 110.381999 158.222538 
L 110.382566 156.948152 
L 110.384643 155.673766 
L 110.383758 154.399381 
L 110.374823 153.124995 
L 110.352697 151.850609 
L 110.312783 150.576223 
L 110.251557 149.301837 
L 110.167011 148.027452 
L 110.058921 146.753066 
L 109.928944 145.47868 
L 109.78048 144.204294 
L 109.618331 142.929908 
L 109.448117 141.655522 
L 109.275536 140.381137 
L 109.1055 139.106751 
L 108.941295 137.832365 
L 108.783882 136.557979 
L 108.631473 135.283593 
L 108.479495 134.009207 
L 108.320954 132.734822 
L 108.147188 131.460436 
L 107.948871 130.18605 
L 107.717105 128.911664 
L 107.44441 127.637278 
L 107.125448 126.362893 
L 106.757351 125.088507 
L 106.339613 123.814121 
L 105.873589 122.539735 
L 105.361731 121.265349 
L 104.806728 119.990963 
L 104.210798 118.716578 
L 103.575314 117.442192 
L 102.900915 116.167806 
L 102.188125 114.89342 
L 101.438339 113.619034 
L 100.654932 112.344648 
L 99.844125 111.070263 
L 99.015287 109.795877 
L 98.18047 108.521491 
L 97.353183 107.247105 
L 96.546655 105.972719 
L 95.772029 104.698333 
L 95.036967 103.423948 
L 94.345098 102.149562 
L 93.696471 100.875176 
L 93.08892 99.60079 
L 92.519986 98.326404 
L 91.98888 97.052019 
L 91.498005 95.777633 
L 91.05369 94.503247 
L 90.666003 93.228861 
L 90.347791 91.954475 
L 90.113192 90.680089 
L 89.975968 89.405704 
L 89.947934 88.131318 
L 90.037642 86.856932 
L 90.24938 85.582546 
L 90.582471 84.30816 
L 91.030855 83.033774 
L 91.583 81.759389 
L 92.222243 80.485003 
L 92.927701 79.210617 
L 93.675816 77.936231 
L 94.442492 76.661845 
L 95.205602 75.387459 
L 95.947472 74.113074 
L 96.656917 72.838688 
L 97.330401 71.564302 
L 97.972072 70.289916 
L 98.592622 69.01553 
L 99.207146 67.741145 
L 99.832372 66.466759 
L 100.483692 65.192373 
L 101.172484 63.917987 
L 101.904074 62.643601 
L 102.676647 61.369215 
L 103.48118 60.09483 
L 104.30238 58.820444 
L 105.120437 57.546058 
L 105.913298 56.271672 
L 106.659141 54.997286 
L 107.338685 53.7229 
L 107.937066 52.448515 
L 108.445064 51.174129 
L 108.859598 49.899743 
L 109.183499 48.625357 
L 109.424678 47.350971 
L 109.594852 46.076586 
L 109.708048 44.8022 
L 109.779076 43.527814 
L 109.822171 42.253428 
L 109.849925 40.979042 
L 109.872575 39.704656 
L 109.897677 38.430271 
L 109.930092 37.155885 
L 109.972237 35.881499 
L 110.024476 34.607113 
L 110.085605 33.332727 
L 111.314395 33.332727 
L 111.314395 33.332727 
L 111.375524 34.607113 
L 111.427763 35.881499 
L 111.469908 37.155885 
L 111.502323 38.430271 
L 111.527425 39.704656 
L 111.550075 40.979042 
L 111.577829 42.253428 
L 111.620924 43.527814 
L 111.691952 44.8022 
L 111.805148 46.076586 
L 111.975322 47.350971 
L 112.216501 48.625357 
L 112.540402 49.899743 
L 112.954936 51.174129 
L 113.462934 52.448515 
L 114.061315 53.7229 
L 114.740859 54.997286 
L 115.486702 56.271672 
L 116.279563 57.546058 
L 117.09762 58.820444 
L 117.91882 60.09483 
L 118.723353 61.369215 
L 119.495926 62.643601 
L 120.227516 63.917987 
L 120.916308 65.192373 
L 121.567628 66.466759 
L 122.192854 67.741145 
L 122.807378 69.01553 
L 123.427928 70.289916 
L 124.069599 71.564302 
L 124.743083 72.838688 
L 125.452528 74.113074 
L 126.194398 75.387459 
L 126.957508 76.661845 
L 127.724184 77.936231 
L 128.472299 79.210617 
L 129.177757 80.485003 
L 129.817 81.759389 
L 130.369145 83.033774 
L 130.817529 84.30816 
L 131.15062 85.582546 
L 131.362358 86.856932 
L 131.452066 88.131318 
L 131.424032 89.405704 
L 131.286808 90.680089 
L 131.052209 91.954475 
L 130.733997 93.228861 
L 130.34631 94.503247 
L 129.901995 95.777633 
L 129.41112 97.052019 
L 128.880014 98.326404 
L 128.31108 99.60079 
L 127.703529 100.875176 
L 127.054902 102.149562 
L 126.363033 103.423948 
L 125.627971 104.698333 
L 124.853345 105.972719 
L 124.046817 107.247105 
L 123.21953 108.521491 
L 122.384713 109.795877 
L 121.555875 111.070263 
L 120.745068 112.344648 
L 119.961661 113.619034 
L 119.211875 114.89342 
L 118.499085 116.167806 
L 117.824686 117.442192 
L 117.189202 118.716578 
L 116.593272 119.990963 
L 116.038269 121.265349 
L 115.526411 122.539735 
L 115.060387 123.814121 
L 114.642649 125.088507 
L 114.274552 126.362893 
L 113.95559 127.637278 
L 113.682895 128.911664 
L 113.451129 130.18605 
L 113.252812 131.460436 
L 113.079046 132.734822 
L 112.920505 134.009207 
L 112.768527 135.283593 
L 112.616118 136.557979 
L 112.458705 137.832365 
L 112.2945 139.106751 
L 112.124464 140.381137 
L 111.951883 141.655522 
L 111.781669 142.929908 
L 111.61952 144.204294 
L 111.471056 145.47868 
L 111.341079 146.753066 
L 111.232989 148.027452 
L 111.148443 149.301837 
L 111.087217 150.576223 
L 111.047303 151.850609 
L 111.025177 153.124995 
L 111.016242 154.399381 
L 111.015357 155.673766 
L 111.017434 156.948152 
L 111.018001 158.222538 
L 111.013655 159.496924 
z
" style="fill:#1f77b4;fill-opacity:0.3;"/>
   </g>
   <g id="PolyCollection_3">
    <path clip-path="url(#pd4f541169d)" d="M 166.459436 157.515787 
L 165.61825 157.515787 
L 165.573123 156.624422 
L 165.521693 155.733056 
L 165.460543 154.841691 
L 165.385645 153.950325 
L 165.292594 153.05896 
L 165.176904 152.167594 
L 165.034319 151.276229 
L 164.861142 150.384863 
L 164.654536 149.493498 
L 164.412791 148.602132 
L 164.135527 147.710767 
L 163.823817 146.819402 
L 163.480197 145.928036 
L 163.108562 145.036671 
L 162.71392 144.145305 
L 162.302025 143.25394 
L 161.878917 142.362574 
L 161.450396 141.471209 
L 161.021527 140.579843 
L 160.596211 139.688478 
L 160.176905 138.797112 
L 159.764536 137.905747 
L 159.3586 137.014381 
L 158.957445 136.123016 
L 158.558658 135.23165 
L 158.15947 134.340285 
L 157.757097 133.448919 
L 157.348912 132.557554 
L 156.932426 131.666189 
L 156.505077 130.774823 
L 156.063898 129.883458 
L 155.605189 128.992092 
L 155.124323 128.100727 
L 154.615842 127.209361 
L 154.07391 126.317996 
L 153.493147 125.42663 
L 152.869735 124.535265 
L 152.202643 123.643899 
L 151.494717 122.752534 
L 150.753415 121.861168 
L 149.990993 120.969803 
L 149.224069 120.078437 
L 148.472579 119.187072 
L 147.758284 118.295706 
L 147.103052 117.404341 
L 146.527149 116.512975 
L 146.047783 115.62161 
L 145.678042 114.730245 
L 145.426319 113.838879 
L 145.296199 112.947514 
L 145.286777 112.056148 
L 145.393271 111.164783 
L 145.60786 110.273417 
L 145.920606 109.382052 
L 146.320381 108.490686 
L 146.795695 107.599321 
L 147.335354 106.707955 
L 147.92889 105.81659 
L 148.566748 104.925224 
L 149.240255 104.033859 
L 149.94143 103.142493 
L 150.662744 102.251128 
L 151.396911 101.359762 
L 152.136814 100.468397 
L 152.875575 99.577032 
L 153.606775 98.685666 
L 154.324749 97.794301 
L 155.024868 96.902935 
L 155.703732 96.01157 
L 156.359194 95.120204 
L 156.990226 94.228839 
L 157.59662 93.337473 
L 158.178625 92.446108 
L 158.736556 91.554742 
L 159.270485 90.663377 
L 159.780034 89.772011 
L 160.264308 88.880646 
L 160.721949 87.98928 
L 161.151288 87.097915 
L 161.550551 86.206549 
L 161.918099 85.315184 
L 162.252654 84.423819 
L 162.553513 83.532453 
L 162.82074 82.641088 
L 163.055309 81.749722 
L 163.259213 80.858357 
L 163.435487 79.966991 
L 163.588152 79.075626 
L 163.722039 78.18426 
L 163.842506 77.292895 
L 163.955054 76.401529 
L 164.064882 75.510164 
L 164.176448 74.618798 
L 164.293084 73.727433 
L 164.416734 72.836067 
L 164.547865 71.944702 
L 164.685534 71.053336 
L 164.827625 70.161971 
L 164.971197 69.270605 
L 167.106489 69.270605 
L 167.106489 69.270605 
L 167.250061 70.161971 
L 167.392152 71.053336 
L 167.529821 71.944702 
L 167.660952 72.836067 
L 167.784602 73.727433 
L 167.901238 74.618798 
L 168.012804 75.510164 
L 168.122632 76.401529 
L 168.23518 77.292895 
L 168.355647 78.18426 
L 168.489534 79.075626 
L 168.642199 79.966991 
L 168.818473 80.858357 
L 169.022377 81.749722 
L 169.256946 82.641088 
L 169.524173 83.532453 
L 169.825032 84.423819 
L 170.159586 85.315184 
L 170.527135 86.206549 
L 170.926398 87.097915 
L 171.355737 87.98928 
L 171.813378 88.880646 
L 172.297652 89.772011 
L 172.807201 90.663377 
L 173.34113 91.554742 
L 173.899061 92.446108 
L 174.481066 93.337473 
L 175.08746 94.228839 
L 175.718492 95.120204 
L 176.373954 96.01157 
L 177.052817 96.902935 
L 177.752937 97.794301 
L 178.470911 98.685666 
L 179.202111 99.577032 
L 179.940872 100.468397 
L 180.680775 101.359762 
L 181.414942 102.251128 
L 182.136256 103.142493 
L 182.837431 104.033859 
L 183.510938 104.925224 
L 184.148796 105.81659 
L 184.742332 106.707955 
L 185.281991 107.599321 
L 185.757305 108.490686 
L 186.15708 109.382052 
L 186.469826 110.273417 
L 186.684415 111.164783 
L 186.790909 112.056148 
L 186.781487 112.947514 
L 186.651367 113.838879 
L 186.399644 114.730245 
L 186.029903 115.62161 
L 185.550537 116.512975 
L 184.974634 117.404341 
L 184.319402 118.295706 
L 183.605107 119.187072 
L 182.853617 120.078437 
L 182.086693 120.969803 
L 181.324271 121.861168 
L 180.582969 122.752534 
L 179.875043 123.643899 
L 179.207951 124.535265 
L 178.584539 125.42663 
L 178.003776 126.317996 
L 177.461844 127.209361 
L 176.953363 128.100727 
L 176.472497 128.992092 
L 176.013788 129.883458 
L 175.572609 130.774823 
L 175.14526 131.666189 
L 174.728773 132.557554 
L 174.320588 133.448919 
L 173.918216 134.340285 
L 173.519028 135.23165 
L 173.12024 136.123016 
L 172.719085 137.014381 
L 172.31315 137.905747 
L 171.900781 138.797112 
L 171.481475 139.688478 
L 171.056159 140.579843 
L 170.62729 141.471209 
L 170.198769 142.362574 
L 169.77566 143.25394 
L 169.363766 144.145305 
L 168.969124 145.036671 
L 168.597489 145.928036 
L 168.253869 146.819402 
L 167.942159 147.710767 
L 167.664895 148.602132 
L 167.42315 149.493498 
L 167.216544 150.384863 
L 167.043367 151.276229 
L 166.900782 152.167594 
L 166.785092 153.05896 
L 166.692041 153.950325 
L 166.617143 154.841691 
L 166.555993 155.733056 
L 166.504563 156.624422 
L 166.459436 157.515787 
z
" style="fill:#1f77b4;fill-opacity:0.3;"/>
   </g>
   <g id="matplotlib.axis_1">
    <g id="xtick_1">
     <g id="line2d_1">
      <defs>
       <path d="M 0 0 
L 0 3.5 
" id="ma1ab0e6b37" style="stroke:#000000;stroke-width:0.8;"/>
      </defs>
      <g>
       <use style="stroke:#000000;stroke-width:0.8;" x="55.361157" xlink:href="#ma1ab0e6b37" y="189"/>
      </g>
     </g>
     <g id="text_1">
      <!-- 2 -->
      <g transform="translate(52.179907 203.598437)scale(0.1 -0.1)">
       <defs>
        <path d="M 19.1875 8.296875 
L 53.609375 8.296875 
L 53.609375 0 
L 7.328125 0 
L 7.328125 8.296875 
Q 12.9375 14.109375 22.625 23.890625 
Q 32.328125 33.6875 34.8125 36.53125 
Q 39.546875 41.84375 41.421875 45.53125 
Q 43.3125 49.21875 43.3125 52.78125 
Q 43.3125 58.59375 39.234375 62.25 
Q 35.15625 65.921875 28.609375 65.921875 
Q 23.96875 65.921875 18.8125 64.3125 
Q 13.671875 62.703125 7.8125 59.421875 
L 7.8125 69.390625 
Q 13.765625 71.78125 18.9375 73 
Q 24.125 74.21875 28.421875 74.21875 
Q 39.75 74.21875 46.484375 68.546875 
Q 53.21875 62.890625 53.21875 53.421875 
Q 53.21875 48.921875 51.53125 44.890625 
Q 49.859375 40.875 45.40625 35.40625 
Q 44.1875 33.984375 37.640625 27.21875 
Q 31.109375 20.453125 19.1875 8.296875 
z
" id="DejaVuSans-50"/>
       </defs>
       <use xlink:href="#DejaVuSans-50"/>
      </g>
     </g>
    </g>
    <g id="xtick_2">
     <g id="line2d_2">
      <g>
       <use style="stroke:#000000;stroke-width:0.8;" x="110.7" xlink:href="#ma1ab0e6b37" y="189"/>
      </g>
     </g>
     <g id="text_2">
      <!-- 4 -->
      <g transform="translate(107.51875 203.598437)scale(0.1 -0.1)">
       <defs>
        <path d="M 37.796875 64.3125 
L 12.890625 25.390625 
L 37.796875 25.390625 
z
M 35.203125 72.90625 
L 47.609375 72.90625 
L 47.609375 25.390625 
L 58.015625 25.390625 
L 58.015625 17.1875 
L 47.609375 17.1875 
L 47.609375 0 
L 37.796875 0 
L 37.796875 17.1875 
L 4.890625 17.1875 
L 4.890625 26.703125 
z
" id="DejaVuSans-52"/>
       </defs>
       <use xlink:href="#DejaVuSans-52"/>
      </g>
     </g>
    </g>
    <g id="xtick_3">
     <g id="line2d_3">
      <g>
       <use style="stroke:#000000;stroke-width:0.8;" x="166.038843" xlink:href="#ma1ab0e6b37" y="189"/>
      </g>
     </g>
     <g id="text_3">
      <!-- 6 -->
      <g transform="translate(162.857593 203.598437)scale(0.1 -0.1)">
       <defs>
        <path d="M 33.015625 40.375 
Q 26.375 40.375 22.484375 35.828125 
Q 18.609375 31.296875 18.609375 23.390625 
Q 18.609375 15.53125 22.484375 10.953125 
Q 26.375 6.390625 33.015625 6.390625 
Q 39.65625 6.390625 43.53125 10.953125 
Q 47.40625 15.53125 47.40625 23.390625 
Q 47.40625 31.296875 43.53125 35.828125 
Q 39.65625 40.375 33.015625 40.375 
z
M 52.59375 71.296875 
L 52.59375 62.3125 
Q 48.875 64.0625 45.09375 64.984375 
Q 41.3125 65.921875 37.59375 65.921875 
Q 27.828125 65.921875 22.671875 59.328125 
Q 17.53125 52.734375 16.796875 39.40625 
Q 19.671875 43.65625 24.015625 45.921875 
Q 28.375 48.1875 33.59375 48.1875 
Q 44.578125 48.1875 50.953125 41.515625 
Q 57.328125 34.859375 57.328125 23.390625 
Q 57.328125 12.15625 50.6875 5.359375 
Q 44.046875 -1.421875 33.015625 -1.421875 
Q 20.359375 -1.421875 13.671875 8.265625 
Q 6.984375 17.96875 6.984375 36.375 
Q 6.984375 53.65625 15.1875 63.9375 
Q 23.390625 74.21875 37.203125 74.21875 
Q 40.921875 74.21875 44.703125 73.484375 
Q 48.484375 72.75 52.59375 71.296875 
z
" id="DejaVuSans-54"/>
       </defs>
       <use xlink:href="#DejaVuSans-54"/>
      </g>
     </g>
    </g>
   </g>
   <g id="matplotlib.axis_2">
    <g id="ytick_1">
     <g id="line2d_4">
      <defs>
       <path d="M 0 0 
L -3.5 0 
" id="mc85bd259f7" style="stroke:#000000;stroke-width:0.8;"/>
      </defs>
      <g>
       <use style="stroke:#000000;stroke-width:0.8;" x="27" xlink:href="#mc85bd259f7" y="176.555175"/>
      </g>
     </g>
     <g id="text_4">
      <!-- 1 -->
      <g transform="translate(13.6375 180.354394)scale(0.1 -0.1)">
       <defs>
        <path d="M 12.40625 8.296875 
L 28.515625 8.296875 
L 28.515625 63.921875 
L 10.984375 60.40625 
L 10.984375 69.390625 
L 28.421875 72.90625 
L 38.28125 72.90625 
L 38.28125 8.296875 
L 54.390625 8.296875 
L 54.390625 0 
L 12.40625 0 
z
" id="DejaVuSans-49"/>
       </defs>
       <use xlink:href="#DejaVuSans-49"/>
      </g>
     </g>
    </g>
    <g id="ytick_2">
     <g id="line2d_5">
      <g>
       <use style="stroke:#000000;stroke-width:0.8;" x="27" xlink:href="#mc85bd259f7" y="155.114401"/>
      </g>
     </g>
     <g id="text_5">
      <!-- 2 -->
      <g transform="translate(13.6375 158.91362)scale(0.1 -0.1)">
       <use xlink:href="#DejaVuSans-50"/>
      </g>
     </g>
    </g>
    <g id="ytick_3">
     <g id="line2d_6">
      <g>
       <use style="stroke:#000000;stroke-width:0.8;" x="27" xlink:href="#mc85bd259f7" y="133.673627"/>
      </g>
     </g>
     <g id="text_6">
      <!-- 3 -->
      <g transform="translate(13.6375 137.472846)scale(0.1 -0.1)">
       <defs>
        <path d="M 40.578125 39.3125 
Q 47.65625 37.796875 51.625 33 
Q 55.609375 28.21875 55.609375 21.1875 
Q 55.609375 10.40625 48.1875 4.484375 
Q 40.765625 -1.421875 27.09375 -1.421875 
Q 22.515625 -1.421875 17.65625 -0.515625 
Q 12.796875 0.390625 7.625 2.203125 
L 7.625 11.71875 
Q 11.71875 9.328125 16.59375 8.109375 
Q 21.484375 6.890625 26.8125 6.890625 
Q 36.078125 6.890625 40.9375 10.546875 
Q 45.796875 14.203125 45.796875 21.1875 
Q 45.796875 27.640625 41.28125 31.265625 
Q 36.765625 34.90625 28.71875 34.90625 
L 20.21875 34.90625 
L 20.21875 43.015625 
L 29.109375 43.015625 
Q 36.375 43.015625 40.234375 45.921875 
Q 44.09375 48.828125 44.09375 54.296875 
Q 44.09375 59.90625 40.109375 62.90625 
Q 36.140625 65.921875 28.71875 65.921875 
Q 24.65625 65.921875 20.015625 65.03125 
Q 15.375 64.15625 9.8125 62.3125 
L 9.8125 71.09375 
Q 15.4375 72.65625 20.34375 73.4375 
Q 25.25 74.21875 29.59375 74.21875 
Q 40.828125 74.21875 47.359375 69.109375 
Q 53.90625 64.015625 53.90625 55.328125 
Q 53.90625 49.265625 50.4375 45.09375 
Q 46.96875 40.921875 40.578125 39.3125 
z
" id="DejaVuSans-51"/>
       </defs>
       <use xlink:href="#DejaVuSans-51"/>
      </g>
     </g>
    </g>
    <g id="ytick_4">
     <g id="line2d_7">
      <g>
       <use style="stroke:#000000;stroke-width:0.8;" x="27" xlink:href="#mc85bd259f7" y="112.232853"/>
      </g>
     </g>
     <g id="text_7">
      <!-- 4 -->
      <g transform="translate(13.6375 116.032072)scale(0.1 -0.1)">
       <use xlink:href="#DejaVuSans-52"/>
      </g>
     </g>
    </g>
    <g id="ytick_5">
     <g id="line2d_8">
      <g>
       <use style="stroke:#000000;stroke-width:0.8;" x="27" xlink:href="#mc85bd259f7" y="90.792079"/>
      </g>
     </g>
     <g id="text_8">
      <!-- 5 -->
      <g transform="translate(13.6375 94.591297)scale(0.1 -0.1)">
       <defs>
        <path d="M 10.796875 72.90625 
L 49.515625 72.90625 
L 49.515625 64.59375 
L 19.828125 64.59375 
L 19.828125 46.734375 
Q 21.96875 47.46875 24.109375 47.828125 
Q 26.265625 48.1875 28.421875 48.1875 
Q 40.625 48.1875 47.75 41.5 
Q 54.890625 34.8125 54.890625 23.390625 
Q 54.890625 11.625 47.5625 5.09375 
Q 40.234375 -1.421875 26.90625 -1.421875 
Q 22.3125 -1.421875 17.546875 -0.640625 
Q 12.796875 0.140625 7.71875 1.703125 
L 7.71875 11.625 
Q 12.109375 9.234375 16.796875 8.0625 
Q 21.484375 6.890625 26.703125 6.890625 
Q 35.15625 6.890625 40.078125 11.328125 
Q 45.015625 15.765625 45.015625 23.390625 
Q 45.015625 31 40.078125 35.4375 
Q 35.15625 39.890625 26.703125 39.890625 
Q 22.75 39.890625 18.8125 39.015625 
Q 14.890625 38.140625 10.796875 36.28125 
z
" id="DejaVuSans-53"/>
       </defs>
       <use xlink:href="#DejaVuSans-53"/>
      </g>
     </g>
    </g>
    <g id="ytick_6">
     <g id="line2d_9">
      <g>
       <use style="stroke:#000000;stroke-width:0.8;" x="27" xlink:href="#mc85bd259f7" y="69.351305"/>
      </g>
     </g>
     <g id="text_9">
      <!-- 6 -->
      <g transform="translate(13.6375 73.150523)scale(0.1 -0.1)">
       <use xlink:href="#DejaVuSans-54"/>
      </g>
     </g>
    </g>
    <g id="ytick_7">
     <g id="line2d_10">
      <g>
       <use style="stroke:#000000;stroke-width:0.8;" x="27" xlink:href="#mc85bd259f7" y="47.910531"/>
      </g>
     </g>
     <g id="text_10">
      <!-- 7 -->
      <g transform="translate(13.6375 51.709749)scale(0.1 -0.1)">
       <defs>
        <path d="M 8.203125 72.90625 
L 55.078125 72.90625 
L 55.078125 68.703125 
L 28.609375 0 
L 18.3125 0 
L 43.21875 64.59375 
L 8.203125 64.59375 
z
" id="DejaVuSans-55"/>
       </defs>
       <use xlink:href="#DejaVuSans-55"/>
      </g>
     </g>
    </g>
    <g id="ytick_8">
     <g id="line2d_11">
      <g>
       <use style="stroke:#000000;stroke-width:0.8;" x="27" xlink:href="#mc85bd259f7" y="26.469757"/>
      </g>
     </g>
     <g id="text_11">
      <!-- 8 -->
      <g transform="translate(13.6375 30.268975)scale(0.1 -0.1)">
       <defs>
        <path d="M 31.78125 34.625 
Q 24.75 34.625 20.71875 30.859375 
Q 16.703125 27.09375 16.703125 20.515625 
Q 16.703125 13.921875 20.71875 10.15625 
Q 24.75 6.390625 31.78125 6.390625 
Q 38.8125 6.390625 42.859375 10.171875 
Q 46.921875 13.96875 46.921875 20.515625 
Q 46.921875 27.09375 42.890625 30.859375 
Q 38.875 34.625 31.78125 34.625 
z
M 21.921875 38.8125 
Q 15.578125 40.375 12.03125 44.71875 
Q 8.5 49.078125 8.5 55.328125 
Q 8.5 64.0625 14.71875 69.140625 
Q 20.953125 74.21875 31.78125 74.21875 
Q 42.671875 74.21875 48.875 69.140625 
Q 55.078125 64.0625 55.078125 55.328125 
Q 55.078125 49.078125 51.53125 44.71875 
Q 48 40.375 41.703125 38.8125 
Q 48.828125 37.15625 52.796875 32.3125 
Q 56.78125 27.484375 56.78125 20.515625 
Q 56.78125 9.90625 50.3125 4.234375 
Q 43.84375 -1.421875 31.78125 -1.421875 
Q 19.734375 -1.421875 13.25 4.234375 
Q 6.78125 9.90625 6.78125 20.515625 
Q 6.78125 27.484375 10.78125 32.3125 
Q 14.796875 37.15625 21.921875 38.8125 
z
M 18.3125 54.390625 
Q 18.3125 48.734375 21.84375 45.5625 
Q 25.390625 42.390625 31.78125 42.390625 
Q 38.140625 42.390625 41.71875 45.5625 
Q 45.3125 48.734375 45.3125 54.390625 
Q 45.3125 60.0625 41.71875 63.234375 
Q 38.140625 66.40625 31.78125 66.40625 
Q 25.390625 66.40625 21.84375 63.234375 
Q 18.3125 60.0625 18.3125 54.390625 
z
" id="DejaVuSans-56"/>
       </defs>
       <use xlink:href="#DejaVuSans-56"/>
      </g>
     </g>
    </g>
   </g>
   <g id="LineCollection_1">
    <path clip-path="url(#pd4f541169d)" d="M 44.985124 93.992365 
L 65.73719 93.992365 
" style="fill:none;stroke:#1f77b4;stroke-width:1.5;"/>
    <path clip-path="url(#pd4f541169d)" d="M 100.323967 33.332727 
L 121.076033 33.332727 
" style="fill:none;stroke:#1f77b4;stroke-width:1.5;"/>
    <path clip-path="url(#pd4f541169d)" d="M 155.66281 69.270605 
L 176.414876 69.270605 
" style="fill:none;stroke:#1f77b4;stroke-width:1.5;"/>
   </g>
   <g id="LineCollection_2">
    <path clip-path="url(#pd4f541169d)" d="M 44.985124 181.587273 
L 65.73719 181.587273 
" style="fill:none;stroke:#1f77b4;stroke-width:1.5;"/>
    <path clip-path="url(#pd4f541169d)" d="M 100.323967 159.496924 
L 121.076033 159.496924 
" style="fill:none;stroke:#1f77b4;stroke-width:1.5;"/>
    <path clip-path="url(#pd4f541169d)" d="M 155.66281 157.515787 
L 176.414876 157.515787 
" style="fill:none;stroke:#1f77b4;stroke-width:1.5;"/>
   </g>
   <g id="LineCollection_3">
    <path clip-path="url(#pd4f541169d)" d="M 55.361157 181.587273 
L 55.361157 93.992365 
" style="fill:none;stroke:#1f77b4;stroke-width:1.5;"/>
    <path clip-path="url(#pd4f541169d)" d="M 110.7 159.496924 
L 110.7 33.332727 
" style="fill:none;stroke:#1f77b4;stroke-width:1.5;"/>
    <path clip-path="url(#pd4f541169d)" d="M 166.038843 157.515787 
L 166.038843 69.270605 
" style="fill:none;stroke:#1f77b4;stroke-width:1.5;"/>
   </g>
   <g id="patch_3">
    <path d="M 27 189 
L 27 25.92 
" style="fill:none;stroke:#000000;stroke-linecap:square;stroke-linejoin:miter;stroke-width:0.8;"/>
   </g>
   <g id="patch_4">
    <path d="M 194.4 189 
L 194.4 25.92 
" style="fill:none;stroke:#000000;stroke-linecap:square;stroke-linejoin:miter;stroke-width:0.8;"/>
   </g>
   <g id="patch_5">
    <path d="M 27 189 
L 194.4 189 
" style="fill:none;stroke:#000000;stroke-linecap:square;stroke-linejoin:miter;stroke-width:0.8;"/>
   </g>
   <g id="patch_6">
    <path d="M 27 25.92 
L 194.4 25.92 
" style="fill:none;stroke:#000000;stroke-linecap:square;stroke-linejoin:miter;stroke-width:0.8;"/>
   </g>
  </g>
 </g>
 <defs>
  <clipPath id="pd4f541169d">
   <rect height="163.08" width="167.4" x="27" y="25.92"/>
  </clipPath>
 </defs>
</svg>
